<?xml version="1.0" encoding="utf-8"?>
<!-- Generator: Adobe Illustrator 19.0.0, SVG Export Plug-In . SVG Version: 6.00 Build 0)  -->
<svg version="1.1" id="Layer_1" xmlns="http://www.w3.org/2000/svg" xmlns:xlink="http://www.w3.org/1999/xlink" x="0px" y="0px"
	 viewBox="-294 386.7 21.2 21.3" style="enable-background:new -294 386.7 21.2 21.3;" xml:space="preserve">
<style type="text/css">
	.st0{fill:#28336D;}
</style>
<path id="XMLID_522_" class="st0" d="M-283.4,387.81c-5.26,0-9.54,4.28-9.54,9.54c0,5.26,4.28,9.54,9.54,9.54
	c5.26,0,9.54-4.28,9.54-9.54C-273.86,392.09-278.14,387.81-283.4,387.81z M-281.99,402.27c-0.49,0.13-0.98,0.36-1.48,0.38
	c-0.79,0.04-1.4-0.58-1.33-1.37c0.09-0.92,0.31-1.84,0.46-2.75c0.08-0.47,0.19-0.93,0.23-1.4c0.05-0.67-0.18-0.85-0.86-0.73
	c-0.05,0.01-0.11,0.02-0.16,0.03c-0.23-0.33-0.2-0.57,0.2-0.67c0.52-0.13,1.05-0.37,1.57-0.35c0.84,0.04,1.32,0.74,1.19,1.67
	c-0.12,0.85-0.33,1.69-0.5,2.53c-0.08,0.38-0.16,0.76-0.21,1.14c-0.11,0.73,0.11,0.95,0.84,0.9c0.08-0.01,0.17-0.01,0.25-0.01
	C-281.62,401.94-281.62,402.17-281.99,402.27z M-282.82,394.71c-0.71,0-1.3-0.6-1.3-1.33c0-0.75,0.56-1.33,1.29-1.33
	c0.72,0,1.3,0.58,1.3,1.32C-281.53,394.1-282.11,394.71-282.82,394.71z"/>
</svg>
