<?xml version="1.0" encoding="utf-8"?>
<!-- Generator: Adobe Illustrator 24.2.3, SVG Export Plug-In . SVG Version: 6.00 Build 0)  -->
<svg version="1.1" id="Layer_1" xmlns="http://www.w3.org/2000/svg" xmlns:xlink="http://www.w3.org/1999/xlink" x="0px" y="0px"
	 viewBox="-294 386.7 21.2 21.3" style="enable-background:new -294 386.7 21.2 21.3;" xml:space="preserve">
<style type="text/css">
	.st0{fill:#28336D;}
</style>
<g>
	<path class="st0" d="M-283.4,387.83c-5.25,0-9.52,4.27-9.52,9.52c0,5.25,4.27,9.52,9.52,9.52c5.25,0,9.52-4.27,9.52-9.52
		C-273.88,392.1-278.15,387.83-283.4,387.83z M-283.4,405.75c-4.63,0-8.4-3.77-8.4-8.4c0-4.63,3.77-8.4,8.4-8.4
		c4.63,0,8.4,3.77,8.4,8.4C-275,401.98-278.77,405.75-283.4,405.75z"/>
	<path class="st0" d="M-279.64,396.72h-3.2v-3.2c0-0.31-0.25-0.56-0.56-0.56s-0.56,0.25-0.56,0.56v3.2h-3.2
		c-0.31,0-0.56,0.25-0.56,0.56s0.25,0.56,0.56,0.56h3.2v3.2c0,0.31,0.25,0.56,0.56,0.56s0.56-0.25,0.56-0.56v-3.2h3.2
		c0.31,0,0.56-0.25,0.56-0.56S-279.33,396.72-279.64,396.72z"/>
</g>
</svg>
