<?xml version="1.0" encoding="utf-8"?>
<!-- Generator: Adobe Illustrator 19.0.0, SVG Export Plug-In . SVG Version: 6.00 Build 0)  -->
<svg version="1.1" id="Layer_1" xmlns="http://www.w3.org/2000/svg" xmlns:xlink="http://www.w3.org/1999/xlink" x="0px" y="0px"
	 viewBox="-294 386.7 21.2 21.3" style="enable-background:new -294 386.7 21.2 21.3;" xml:space="preserve">
<style type="text/css">
	.st0{fill:#28336D;}
</style>
<g id="XMLID_36_">
	<path id="XMLID_145_" class="st0" d="M-279.07,399.52c0-0.53-0.43-0.96-0.96-0.96c-0.14,0-0.26-0.12-0.26-0.26
		c0-0.14,0.12-0.26,0.26-0.26s0.26,0.12,0.26,0.26v0.05h0.71v-0.05c0-0.37-0.22-0.71-0.56-0.87l-0.06-0.03v-0.68h-0.71v0.68
		l-0.06,0.03c-0.34,0.16-0.56,0.5-0.56,0.87c0,0.53,0.43,0.97,0.96,0.97c0.14,0,0.26,0.12,0.26,0.26s-0.12,0.26-0.26,0.26
		s-0.26-0.12-0.26-0.26v-0.05H-281v0.05c0,0.37,0.22,0.71,0.56,0.87l0.06,0.03v0.68h0.71v-0.68l0.06-0.03
		C-279.29,400.23-279.07,399.89-279.07,399.52z"/>
	<path id="XMLID_163_" class="st0" d="M-273.88,392.27c0-0.37-0.19-0.7-0.5-0.9l-5.66-3.58l-3.31,2.09v-0.81h-1.93v2.02l-0.42,0.26
		c-0.31,0.2-0.5,0.53-0.5,0.9v0.12c0,0.59,0.48,1.07,1.07,1.07c0.11,0,0.23-0.02,0.33-0.06l0.13-0.04v1.17l-0.16-0.15
		c-0.69-0.65-1.6-1.01-2.54-1.01c-2.05,0-3.72,1.67-3.72,3.72v2.45c0,0.7,0.57,1.27,1.27,1.27h0.15l0.03,0.06
		c0.15,0.34,0.38,0.64,0.66,0.88l0.03,0.03v0.56l-2.39,0.69c-0.93,0.27-1.58,1.13-1.58,2.1v1.8h11.1v-1.8c0-0.97-0.65-1.83-1.58-2.1
		l-2.39-0.69v-0.56l0.03-0.03c0.28-0.24,0.51-0.54,0.66-0.88l0.03-0.06h0.15c0.42,0,0.81-0.21,1.05-0.57l0.03-0.04h0.65l0.03,0.06
		c0.54,1.26,1.77,2.08,3.14,2.08c1.37,0,2.6-0.82,3.14-2.08l0.03-0.06h1.47v-6.82l0.13,0.04c0.11,0.04,0.22,0.06,0.33,0.06
		c0.59,0,1.07-0.48,1.07-1.07V392.27z M-284.57,389.79h0.51v0.55l-0.51,0.32V389.79z M-289.99,400.06
		c-0.24-0.07-0.39-0.29-0.39-0.54c0-0.24,0.16-0.46,0.39-0.53l0.13-0.04v0.88c0,0.04,0,0.09,0,0.13l0.01,0.14L-289.99,400.06z
		 M-288.7,402.98l0.8,0.8l-0.8,0.64l-0.38-1.33L-288.7,402.98z M-288.24,402.43v-0.26l0.13,0.04c0.48,0.15,1.01,0.15,1.49,0
		l0.13-0.04v0.26l-0.87,0.87L-288.24,402.43z M-284.98,403.28l1.38,0.4c0.63,0.18,1.07,0.77,1.07,1.42v1.09h-1.74v-1.22h-0.71v1.22
		h-4.79v-1.22h-0.71v1.22h-1.74v-1.09c0-0.66,0.44-1.24,1.07-1.42l1.38-0.4l0.67,2.35l1.72-1.38l1.72,1.38L-284.98,403.28z
		 M-285.66,403.09l-0.38,1.33l-0.8-0.64l0.8-0.8L-285.66,403.09z M-285.59,399.83c0,0.98-0.8,1.79-1.79,1.79
		c-0.98,0-1.79-0.8-1.79-1.79v-1.5l0.08-0.01c0.6-0.08,1.17-0.32,1.64-0.71l0.06-0.05l0.06,0.05c0.47,0.38,1.04,0.63,1.64,0.71
		l0.08,0.01V399.83z M-284.76,400.06l-0.13,0.04l0.01-0.14c0-0.04,0-0.09,0-0.13v-0.88l0.13,0.04c0.23,0.08,0.39,0.29,0.39,0.54
		C-284.36,399.77-284.52,399.98-284.76,400.06z M-284.36,398.38l-0.13-0.05c-0.1-0.04-0.2-0.06-0.3-0.07l-0.08-0.01l-0.01-0.61
		l-0.35,0c-0.69,0-1.34-0.27-1.83-0.76l-0.31-0.3l-0.3,0.3c-0.49,0.49-1.14,0.76-1.84,0.76h-0.35v0.61l-0.09,0.01
		c-0.1,0.01-0.2,0.04-0.3,0.07l-0.13,0.05v-1.3c0-1.66,1.35-3.01,3.01-3.01c1.66,0,3.01,1.35,3.01,3.01V398.38z M-280.04,401.61
		c-1.49,0-2.7-1.21-2.7-2.7c0-1.49,1.21-2.7,2.7-2.7s2.7,1.21,2.7,2.7C-277.33,400.4-278.55,401.61-280.04,401.61z M-276.11,399.47
		h-0.56l0.02-0.11c0.02-0.16,0.03-0.3,0.03-0.45c0-1.88-1.53-3.41-3.41-3.41c-1.88,0-3.41,1.53-3.41,3.41c0,0.15,0.01,0.3,0.03,0.45
		l0.02,0.11h-0.26v-2.4c0-0.5-0.1-0.99-0.3-1.45l-0.01-0.04v-2.67l3.93-2.45l3.93,2.45V399.47z M-274.58,392.39
		c0,0.13-0.07,0.24-0.19,0.31c-0.06,0.03-0.12,0.05-0.18,0.05c-0.06,0-0.13-0.02-0.18-0.05l-4.91-3.07l-4.9,3.07
		c-0.11,0.07-0.24,0.07-0.36,0c-0.12-0.06-0.19-0.18-0.19-0.31v-0.12c0-0.12,0.06-0.24,0.17-0.3l5.29-3.34l5.29,3.34
		c0.1,0.07,0.17,0.18,0.17,0.3V392.39z"/>
	<path id="XMLID_140_" class="st0" d="M-281.61,391.83v2.54h3.15v-2.54H-281.61z M-279.17,393.67h-1.74v-1.13h1.74V393.67z"/>
</g>
</svg>
