<?xml version="1.0" encoding="utf-8"?>
<!-- Generator: Adobe Illustrator 19.0.0, SVG Export Plug-In . SVG Version: 6.00 Build 0)  -->
<svg version="1.1" id="Layer_1" xmlns="http://www.w3.org/2000/svg" xmlns:xlink="http://www.w3.org/1999/xlink" x="0px" y="0px"
	 viewBox="-294 386.7 21.2 21.3" style="enable-background:new -294 386.7 21.2 21.3;" xml:space="preserve">
<style type="text/css">
	.st0{fill:#28336D;}
</style>
<g id="XMLID_14_">
	<g id="XMLID_22_">
		<g id="XMLID_23_">
			<path id="XMLID_24_" class="st0" d="M-274.18,398.62h-0.32v-0.95c0-0.63-0.38-1.2-0.95-1.45v-4.9c0-0.13-0.07-0.24-0.19-0.29
				c0.12-0.2,0.19-0.43,0.19-0.66c0-0.7-0.57-1.27-1.27-1.27c-0.7,0-1.27,0.57-1.27,1.27c0,0.22,0.06,0.44,0.18,0.64h-11.16
				c0.11-0.19,0.18-0.41,0.18-0.64c0-0.7-0.57-1.27-1.27-1.27c-0.7,0-1.27,0.57-1.27,1.27c0,0.23,0.07,0.46,0.19,0.66
				c-0.12,0.05-0.19,0.16-0.19,0.29v4.9c-0.58,0.25-0.95,0.82-0.95,1.45v0.95h-0.32c-0.18,0-0.32,0.14-0.32,0.32v4.45
				c0,0.18,0.14,0.32,0.32,0.32h0.32v1.59c0,0.18,0.14,0.32,0.32,0.32h1.27c0.18,0,0.32-0.14,0.32-0.32v-1.59h13.99v1.59
				c0,0.18,0.14,0.32,0.32,0.32h1.27c0.18,0,0.32-0.14,0.32-0.32v-1.59h0.32c0.18,0,0.32-0.14,0.32-0.32v-4.45
				C-273.86,398.76-274.01,398.62-274.18,398.62z M-276.72,389.72c0.35,0,0.64,0.28,0.64,0.64s-0.28,0.64-0.64,0.64
				s-0.64-0.28-0.64-0.64S-277.08,389.72-276.72,389.72z M-290.08,389.72c0.35,0,0.64,0.28,0.64,0.64s-0.28,0.64-0.64,0.64
				s-0.64-0.28-0.64-0.64S-290.43,389.72-290.08,389.72z M-290.71,391.63h14.62v4.45h-1.28c0.21-0.27,0.32-0.61,0.33-0.95v-0.64
				c0-0.88-0.71-1.59-1.59-1.59h-2.54c-0.88,0-1.59,0.71-1.59,1.59v0.64c0,0.35,0.12,0.68,0.33,0.95h-1.92
				c0.21-0.27,0.32-0.61,0.33-0.95v-0.64c0-0.88-0.71-1.59-1.59-1.59h-2.54c-0.88,0-1.59,0.71-1.59,1.59v0.64
				c0,0.35,0.12,0.68,0.33,0.95h-1.28V391.63z M-277.68,394.49v0.64c0,0.53-0.43,0.95-0.95,0.95h-2.54c-0.53,0-0.95-0.43-0.95-0.95
				v-0.64c0-0.53,0.43-0.95,0.95-0.95h2.54C-278.11,393.54-277.68,393.96-277.68,394.49z M-284.67,394.49v0.64
				c0,0.53-0.43,0.95-0.95,0.95h-2.54c-0.53,0-0.95-0.43-0.95-0.95v-0.64c0-0.53,0.43-0.95,0.95-0.95h2.54
				C-285.1,393.54-284.67,393.96-284.67,394.49z M-291.66,397.67c0-0.53,0.43-0.95,0.95-0.95h14.62c0.53,0,0.95,0.43,0.95,0.95v0.95
				h-16.53V397.67z M-291.03,404.98h-0.64v-1.27h0.64V404.98z M-275.14,404.98h-0.64v-1.27h0.64V404.98z M-274.5,403.07h-17.8v-3.81
				h17.8V403.07z"/>
		</g>
	</g>
	<g id="XMLID_19_">
		<g id="XMLID_20_">
			<path id="XMLID_2_" class="st0" d="M-290.08,401.8h-1.27c-0.18,0-0.32,0.14-0.32,0.32c0,0.18,0.14,0.32,0.32,0.32h1.27
				c0.18,0,0.32-0.14,0.32-0.32C-289.76,401.94-289.9,401.8-290.08,401.8z"/>
		</g>
	</g>
	<g id="XMLID_16_">
		<g id="XMLID_17_">
			<path id="XMLID_1_" class="st0" d="M-275.45,401.8h-13.35c-0.18,0-0.32,0.14-0.32,0.32c0,0.18,0.14,0.32,0.32,0.32h13.35
				c0.18,0,0.32-0.14,0.32-0.32C-275.14,401.94-275.28,401.8-275.45,401.8z"/>
		</g>
	</g>
</g>
</svg>
