<?xml version="1.0" encoding="utf-8"?>
<!-- Generator: Adobe Illustrator 19.0.0, SVG Export Plug-In . SVG Version: 6.00 Build 0)  -->
<svg version="1.1" id="Layer_1" xmlns="http://www.w3.org/2000/svg" xmlns:xlink="http://www.w3.org/1999/xlink" x="0px" y="0px"
	 viewBox="-294 386.7 21.2 21.3" style="enable-background:new -294 386.7 21.2 21.3;" xml:space="preserve">
<style type="text/css">
	.st0{fill:#28336D;}
</style>
<g>
	<g id="XMLID_134_">
		<g id="XMLID_135_">
			<g id="XMLID_136_">
				<path id="XMLID_152_" class="st0" d="M-288.46,404.37h-2.66c-1,0-1.81-0.81-1.81-1.81v-2.71c0-1.54,1.25-2.8,2.8-2.8h1.8
					l-0.17,0.46c-0.12,0.34-0.19,0.7-0.19,1.06v4.97c0,0.13,0.02,0.26,0.07,0.38L-288.46,404.37z M-290.13,397.73
					c-1.17,0-2.12,0.95-2.12,2.12v2.71c0,0.63,0.51,1.13,1.13,1.13h1.76c0-0.05-0.01-0.1-0.01-0.15v-4.97
					c0-0.28,0.03-0.56,0.09-0.84H-290.13z"/>
			</g>
		</g>
	</g>
	<g id="XMLID_128_">
		<g id="XMLID_129_">
			<g id="XMLID_130_">
				<path id="XMLID_146_" class="st0" d="M-283.4,395.16c-0.56,0-1.12-0.15-1.61-0.42c-1.04-0.58-1.68-1.69-1.68-2.87
					c0-1.82,1.48-3.3,3.3-3.3c1.82,0,3.29,1.48,3.29,3.3c0,1.19-0.65,2.29-1.68,2.87C-282.28,395.01-282.84,395.16-283.4,395.16z
					 M-283.4,389.25c-1.44,0-2.61,1.17-2.61,2.61c0,0.94,0.51,1.82,1.34,2.28c0.78,0.44,1.78,0.44,2.55,0
					c0.82-0.46,1.34-1.34,1.34-2.28C-280.79,390.42-281.96,389.25-283.4,389.25z"/>
			</g>
		</g>
	</g>
	<g id="XMLID_117_">
		<g id="XMLID_126_">
			<g id="XMLID_127_">
				<path id="XMLID_143_" class="st0" d="M-289.27,396.42c-1.41,0-2.55-1.14-2.55-2.55c0-1.41,1.14-2.55,2.55-2.55
					c1.41,0,2.55,1.14,2.55,2.55c0,0.42-0.1,0.83-0.3,1.2c-0.27,0.51-0.72,0.92-1.25,1.14
					C-288.58,396.35-288.92,396.42-289.27,396.42z M-289.27,392c-1.03,0-1.87,0.84-1.87,1.87c0,1.03,0.84,1.87,1.87,1.87
					c0.26,0,0.5-0.05,0.74-0.15c0.39-0.17,0.71-0.47,0.91-0.84c0.14-0.27,0.22-0.57,0.22-0.88C-287.4,392.84-288.24,392-289.27,392z
					"/>
			</g>
		</g>
	</g>
	<g id="XMLID_114_">
		<g id="XMLID_115_">
			<g id="XMLID_116_">
				<path id="XMLID_140_" class="st0" d="M-277.53,396.42c-0.35,0-0.69-0.07-1.01-0.21c-0.53-0.23-0.97-0.63-1.24-1.14
					c-0.2-0.37-0.3-0.78-0.3-1.2c0-1.41,1.14-2.55,2.55-2.55c1.41,0,2.55,1.14,2.55,2.55
					C-274.98,395.28-276.12,396.42-277.53,396.42z M-277.53,392c-1.03,0-1.87,0.84-1.87,1.87c0,0.31,0.07,0.6,0.22,0.88
					c0.2,0.37,0.52,0.67,0.91,0.84c0.23,0.1,0.48,0.15,0.74,0.15c1.03,0,1.87-0.84,1.87-1.87C-275.66,392.84-276.5,392-277.53,392z"
					/>
			</g>
		</g>
	</g>
	<path id="XMLID_12_" class="st0" d="M-275.39,405.39l-1.91-1.89l0.05-0.06c0.38-0.53,0.52-1.18,0.41-1.82
		c-0.11-0.64-0.46-1.2-0.99-1.58c-0.53-0.37-1.18-0.52-1.82-0.41c-0.64,0.11-1.2,0.46-1.58,0.99c-0.38,0.53-0.52,1.18-0.41,1.82
		c0.11,0.64,0.46,1.2,0.99,1.58c0.78,0.55,1.82,0.6,2.65,0.11l0.06-0.04l0.03,0.03l1.88,1.87c0.08,0.09,0.2,0.14,0.32,0.14
		c0.11,0,0.22-0.04,0.3-0.12c0.08-0.08,0.13-0.19,0.14-0.31C-275.26,405.59-275.3,405.48-275.39,405.39z M-279.18,403.75v0.04
		l-0.11,0l0-0.04c-0.92-0.03-1.67-0.79-1.67-1.72c0-0.95,0.77-1.72,1.72-1.72c0.95,0,1.72,0.77,1.72,1.72
		C-277.51,402.96-278.26,403.72-279.18,403.75z"/>
	<path id="XMLID_28_" class="st0" d="M-281.94,403.69h-4.93c-0.08,0-0.15-0.07-0.15-0.15v-4.97c0-1.17,0.95-2.12,2.12-2.12h3.01
		c1.17,0,2.12,0.95,2.12,2.12v0.34c0.18-0.03,0.36-0.05,0.54-0.05c0.05,0,0.09,0.01,0.14,0.01v-0.3c0-1.54-1.25-2.8-2.8-2.8h-3.01
		c-1.54,0-2.8,1.26-2.8,2.8v4.97c0,0.46,0.37,0.83,0.83,0.83h5.5C-281.59,404.17-281.78,403.94-281.94,403.69z"/>
	<path id="XMLID_22_" class="st0" d="M-276.67,397.05h-1.8l0.17,0.46c0.12,0.34,0.19,0.7,0.19,1.06v0.5
		c0.24,0.09,0.47,0.21,0.68,0.35v-0.85c0-0.28-0.03-0.56-0.09-0.84h0.86c1.17,0,2.12,0.95,2.12,2.12v2.71
		c0,0.63-0.51,1.13-1.13,1.13h-0.47l0.71,0.66c0.89-0.12,1.58-0.87,1.58-1.79v-2.71C-273.87,398.3-275.12,397.05-276.67,397.05z"/>
</g>
</svg>
