<?xml version="1.0" encoding="utf-8"?>
<!-- Generator: Adobe Illustrator 19.0.0, SVG Export Plug-In . SVG Version: 6.00 Build 0)  -->
<svg version="1.1" id="Layer_1" xmlns="http://www.w3.org/2000/svg" xmlns:xlink="http://www.w3.org/1999/xlink" x="0px" y="0px"
	 viewBox="-294 386.7 21.2 21.3" style="enable-background:new -294 386.7 21.2 21.3;" xml:space="preserve">
<style type="text/css">
	.st0{fill:#28336D;}
</style>
<g id="XMLID_87_">
	<g id="XMLID_118_">
		<g id="XMLID_119_">
			<path id="XMLID_120_" class="st0" d="M-281.2,398.92h-0.35c-0.13,0-0.25-0.08-0.29-0.2c-0.04-0.1-0.08-0.2-0.12-0.3
				c-0.05-0.12-0.03-0.26,0.06-0.35l0.25-0.25c0.37-0.37,0.36-0.96,0-1.33l-0.89-0.89c-0.37-0.37-0.96-0.37-1.33,0l-0.25,0.25
				c-0.09,0.09-0.23,0.12-0.35,0.06c-0.1-0.04-0.2-0.09-0.3-0.13c-0.12-0.04-0.2-0.16-0.2-0.29v-0.35c0-0.52-0.42-0.94-0.94-0.94
				h-1.26c-0.52,0-0.94,0.42-0.94,0.94v0.35c0,0.13-0.08,0.25-0.2,0.29c-0.1,0.04-0.2,0.08-0.3,0.12c-0.12,0.05-0.26,0.03-0.35-0.06
				l-0.25-0.25c-0.37-0.37-0.96-0.37-1.33,0l-0.89,0.89c-0.37,0.37-0.37,0.96,0,1.33l0.25,0.25c0.09,0.09,0.12,0.23,0.06,0.35
				c-0.04,0.1-0.09,0.2-0.12,0.3c-0.04,0.12-0.16,0.2-0.29,0.2h-0.35c-0.52,0-0.94,0.42-0.94,0.94v1.26c0,0.52,0.42,0.94,0.94,0.94
				h0.35c0.13,0,0.25,0.08,0.29,0.2c0.04,0.1,0.08,0.2,0.12,0.3c0.05,0.12,0.03,0.26-0.06,0.35l-0.25,0.25
				c-0.37,0.37-0.37,0.96,0,1.33l0.89,0.89c0.37,0.37,0.96,0.37,1.33,0l0.25-0.25c0.09-0.09,0.23-0.12,0.35-0.06
				c0.1,0.04,0.2,0.09,0.3,0.13c0.12,0.04,0.21,0.16,0.21,0.29v0.35c0,0.52,0.42,0.94,0.94,0.94h1.26c0.52,0,0.94-0.42,0.94-0.94
				v-0.35c0-0.13,0.08-0.25,0.2-0.29c0.1-0.04,0.2-0.08,0.3-0.12c0.12-0.05,0.26-0.03,0.35,0.06l0.25,0.25
				c0.37,0.36,0.96,0.36,1.33,0l0.89-0.89c0.37-0.37,0.37-0.96,0-1.33l-0.25-0.25c-0.09-0.09-0.12-0.23-0.06-0.35
				c0.04-0.1,0.09-0.2,0.13-0.3c0.04-0.12,0.16-0.2,0.29-0.2h0.35c0.52,0,0.94-0.42,0.94-0.94v-1.26
				C-280.26,399.34-280.68,398.92-281.2,398.92z M-280.89,401.12c0,0.17-0.14,0.31-0.31,0.31h-0.35c-0.39,0-0.74,0.24-0.88,0.61
				c-0.03,0.09-0.07,0.17-0.11,0.26c-0.16,0.36-0.09,0.77,0.19,1.05l0.25,0.25c0.12,0.12,0.12,0.32,0,0.44c0,0,0,0,0,0l-0.89,0.89
				c-0.12,0.12-0.32,0.12-0.44,0l-0.25-0.25c-0.28-0.27-0.7-0.35-1.05-0.19c-0.09,0.04-0.17,0.07-0.26,0.11
				c-0.36,0.14-0.6,0.49-0.61,0.88v0.35c0,0.17-0.14,0.31-0.31,0.31h-1.26c-0.17,0-0.31-0.14-0.31-0.31v-0.35
				c0-0.39-0.24-0.74-0.61-0.88c-0.09-0.03-0.17-0.07-0.26-0.11c-0.36-0.16-0.77-0.09-1.05,0.19l-0.25,0.25
				c-0.12,0.12-0.32,0.12-0.44,0c0,0,0,0,0,0l-0.89-0.89c-0.12-0.12-0.12-0.32,0-0.44l0.25-0.25c0.27-0.28,0.35-0.7,0.19-1.05
				c-0.04-0.09-0.07-0.17-0.11-0.26c-0.14-0.36-0.49-0.61-0.88-0.61h-0.35c-0.17,0-0.31-0.14-0.31-0.31v-1.26
				c0-0.17,0.14-0.31,0.31-0.31h0.35c0.39,0,0.74-0.24,0.88-0.61c0.03-0.09,0.07-0.17,0.11-0.26c0.16-0.36,0.09-0.77-0.19-1.05
				l-0.25-0.25c-0.12-0.12-0.12-0.32,0-0.44c0,0,0,0,0,0l0.89-0.89c0.12-0.12,0.32-0.12,0.44,0l0.25,0.25
				c0.28,0.27,0.7,0.35,1.05,0.19c0.09-0.04,0.17-0.07,0.26-0.11c0.36-0.14,0.61-0.49,0.61-0.88v-0.35c0-0.17,0.14-0.31,0.31-0.31
				h1.26c0.17,0,0.31,0.14,0.31,0.31v0.35c0,0.39,0.24,0.74,0.61,0.88c0.09,0.03,0.17,0.07,0.26,0.11c0.36,0.16,0.77,0.09,1.05-0.19
				l0.25-0.25c0.12-0.12,0.32-0.12,0.44,0l0.89,0.89c0.12,0.12,0.12,0.32,0,0.44l-0.25,0.25c-0.27,0.28-0.35,0.7-0.19,1.05
				c0.04,0.09,0.07,0.17,0.11,0.26c0.14,0.36,0.49,0.6,0.88,0.61h0.35c0.17,0,0.31,0.14,0.31,0.31L-280.89,401.12L-280.89,401.12z"
				/>
		</g>
	</g>
	<g id="XMLID_113_">
		<g id="XMLID_114_">
			<path id="XMLID_115_" class="st0" d="M-283.72,400.36c0-0.08-0.01-0.15-0.02-0.22c-0.01-0.08-0.02-0.16-0.04-0.24
				c-0.01-0.05-0.03-0.1-0.04-0.15c-0.02-0.06-0.04-0.13-0.06-0.19c-0.02-0.04-0.03-0.09-0.05-0.13c-0.04-0.1-0.09-0.2-0.14-0.29
				c0-0.01-0.01-0.02-0.01-0.02c-0.08-0.15-0.18-0.28-0.28-0.41c-0.01-0.01-0.02-0.02-0.03-0.03c-0.04-0.05-0.09-0.1-0.13-0.15
				c-0.02-0.03-0.05-0.05-0.08-0.07c-0.03-0.03-0.06-0.06-0.09-0.09c-0.04-0.03-0.08-0.07-0.12-0.1l-0.05-0.04
				c-0.49-0.36-1.08-0.56-1.68-0.56c-0.03,0-0.06,0-0.09,0.01c-0.07,0-0.13,0.01-0.2,0.01c-0.04,0-0.07,0.01-0.11,0.01
				c-0.1,0.01-0.2,0.03-0.3,0.06c-1.51,0.39-2.42,1.93-2.03,3.44c0.26,1,1.04,1.77,2.03,2.03c0.01,0,0.01,0,0.02,0
				c0.11,0.03,0.22,0.05,0.33,0.06c0.07,0.01,0.15,0.01,0.22,0.01c0.05,0,0.09,0.01,0.15,0.01c0.09,0,0.18-0.01,0.28-0.02
				c0.01,0,0.02,0,0.03,0c0.08-0.01,0.15-0.02,0.23-0.04c0.03-0.01,0.06-0.01,0.09-0.02c0.06-0.01,0.11-0.03,0.17-0.04
				c0.04-0.01,0.09-0.03,0.13-0.04c0.04-0.02,0.09-0.03,0.13-0.05c0.04-0.02,0.08-0.04,0.12-0.06c0.05-0.02,0.11-0.05,0.16-0.08h0
				c0.29-0.16,0.56-0.35,0.8-0.58c0.07-0.06,0.12-0.13,0.17-0.21c0.24-0.39,0.41-0.83,0.47-1.29c0.01-0.06,0.02-0.12,0.02-0.18
				c0-0.06,0.01-0.11,0.01-0.17c0-0.02,0-0.03,0-0.05C-283.71,400.45-283.72,400.4-283.72,400.36z M-284.35,400.57
				c0,0.03,0,0.05,0,0.08c-0.01,0.08-0.02,0.15-0.03,0.23c-0.12,0.65-0.52,1.22-1.1,1.54c-0.04,0.02-0.08,0.04-0.12,0.06l-0.03,0.01
				c-0.18,0.08-0.37,0.14-0.57,0.17c-0.01,0-0.03,0-0.04,0.01c-0.04,0.01-0.08,0.01-0.12,0.01c-0.05,0-0.1,0.01-0.15,0.01
				c-0.02,0-0.04,0-0.07,0c-0.07,0-0.15-0.01-0.22-0.01l-0.04,0c-0.09-0.01-0.17-0.03-0.26-0.05c-1.18-0.3-1.88-1.5-1.58-2.67
				c0.2-0.78,0.8-1.38,1.58-1.58v0c0.18-0.05,0.37-0.07,0.55-0.07c0.09,0,0.18,0.01,0.27,0.02c0.02,0,0.05,0.01,0.07,0.01
				c0.07,0.01,0.13,0.02,0.2,0.04c0.02,0.01,0.04,0.01,0.06,0.02c0.17,0.05,0.33,0.12,0.48,0.2c0.02,0.01,0.05,0.03,0.07,0.04
				c0.05,0.03,0.1,0.06,0.14,0.1c0.03,0.02,0.05,0.04,0.08,0.06c0.06,0.05,0.12,0.1,0.18,0.16c0.02,0.02,0.04,0.05,0.06,0.07
				c0.04,0.04,0.07,0.08,0.1,0.12c0.02,0.03,0.05,0.06,0.07,0.09c0.03,0.05,0.06,0.09,0.09,0.14c0.02,0.03,0.03,0.05,0.05,0.08
				c0.04,0.07,0.08,0.15,0.11,0.23c0.01,0.03,0.02,0.06,0.03,0.09c0.02,0.06,0.04,0.12,0.05,0.18c0.01,0.03,0.02,0.06,0.02,0.09
				c0.02,0.08,0.03,0.17,0.04,0.26c0,0.02,0,0.05,0,0.07C-284.34,400.42-284.34,400.49-284.35,400.57z"/>
		</g>
	</g>
	<g id="XMLID_102_">
		<g id="XMLID_105_">
			<path id="XMLID_38_" class="st0" d="M-274.93,394.53h-0.99c-0.13,0-0.25-0.08-0.29-0.21c-0.1-0.29-0.22-0.58-0.35-0.85
				c-0.06-0.12-0.03-0.26,0.06-0.35l0.7-0.7c0.37-0.37,0.37-0.96,0-1.33l-1.33-1.33c-0.37-0.37-0.96-0.37-1.33,0l-0.7,0.7
				c-0.09,0.09-0.24,0.12-0.35,0.06c-0.27-0.14-0.56-0.26-0.85-0.35c-0.12-0.04-0.21-0.16-0.21-0.29v-0.99
				c0-0.52-0.42-0.94-0.94-0.94h-1.88c-0.52,0-0.94,0.42-0.94,0.94v0.99c0,0.13-0.08,0.25-0.21,0.29c-0.29,0.1-0.58,0.22-0.85,0.35
				c-0.12,0.06-0.26,0.03-0.35-0.06l-0.7-0.7c-0.37-0.37-0.96-0.37-1.33,0l-1.33,1.33c-0.37,0.37-0.37,0.96,0,1.33l1.03,1.03
				c0.12,0.12,0.32,0.12,0.44-0.01c0.12-0.12,0.12-0.31,0-0.44l-1.03-1.03c-0.12-0.12-0.12-0.32,0-0.44l1.33-1.33
				c0.12-0.12,0.32-0.12,0.44,0l0.7,0.7c0.28,0.29,0.72,0.36,1.08,0.18c0.25-0.12,0.51-0.23,0.77-0.32
				c0.38-0.13,0.64-0.49,0.63-0.89v-0.99c0-0.17,0.14-0.31,0.31-0.31h1.88c0.17,0,0.31,0.14,0.31,0.31v0.99
				c0,0.4,0.25,0.76,0.63,0.89c0.26,0.09,0.52,0.2,0.77,0.32c0.36,0.18,0.79,0.11,1.08-0.18l0.7-0.7c0.12-0.12,0.32-0.12,0.44,0
				l1.33,1.33c0.12,0.12,0.12,0.32,0,0.44l-0.7,0.7c-0.29,0.28-0.36,0.72-0.18,1.08c0.12,0.25,0.23,0.51,0.32,0.77
				c0.13,0.38,0.49,0.64,0.89,0.63h0.99c0.17,0,0.31,0.14,0.31,0.31v1.88c0,0.17-0.14,0.31-0.31,0.31h-0.99
				c-0.4,0-0.76,0.25-0.89,0.63c-0.09,0.26-0.2,0.52-0.32,0.77c-0.18,0.36-0.11,0.79,0.18,1.08l0.7,0.7c0.12,0.12,0.12,0.32,0,0.44
				l-1.33,1.33c-0.12,0.12-0.32,0.12-0.44,0l-1.03-1.03c-0.12-0.12-0.32-0.13-0.44-0.01c-0.12,0.12-0.13,0.32-0.01,0.44
				c0,0,0.01,0.01,0.01,0.01l1.03,1.03c0.37,0.37,0.96,0.37,1.33,0l1.33-1.33c0.37-0.37,0.37-0.96,0-1.33l-0.7-0.7
				c-0.09-0.09-0.12-0.24-0.06-0.35c0.14-0.27,0.26-0.56,0.35-0.85c0.04-0.12,0.16-0.21,0.29-0.21h0.99c0.52,0,0.94-0.42,0.94-0.94
				v-1.88C-273.99,394.95-274.41,394.53-274.93,394.53z"/>
		</g>
	</g>
	<g id="XMLID_91_">
		<g id="XMLID_94_">
			<path id="XMLID_31_" class="st0" d="M-279.57,393.52c-1.59-1.59-4.17-1.59-5.77,0c-0.12,0.12-0.12,0.32,0.01,0.44
				c0.12,0.12,0.31,0.12,0.44,0c1.34-1.36,3.52-1.37,4.88-0.03c1.36,1.34,1.37,3.52,0.03,4.88c-0.01,0.01-0.02,0.02-0.03,0.03
				c-0.12,0.12-0.13,0.32-0.01,0.44s0.32,0.13,0.44,0.01c0,0,0.01-0.01,0.01-0.01C-277.98,397.7-277.98,395.12-279.57,393.52z"/>
		</g>
	</g>
</g>
</svg>
