<?xml version="1.0" encoding="utf-8"?>
<!-- Generator: Adobe Illustrator 24.3.0, SVG Export Plug-In . SVG Version: 6.00 Build 0)  -->
<svg version="1.1" id="Layer_1" xmlns="http://www.w3.org/2000/svg" xmlns:xlink="http://www.w3.org/1999/xlink" x="0px" y="0px"
	 viewBox="-294 386.7 21.2 21.3" style="enable-background:new -294 386.7 21.2 21.3;" xml:space="preserve">
<style type="text/css">
	.st0{fill:#28336D;}
</style>
<g>
	<g>
		<path class="st0" d="M-278.96,389.63c0.08,0.02,0.16,0.03,0.23,0.07c0.14,0.08,0.29,0.15,0.41,0.26c0.43,0.42,0.86,0.85,1.28,1.27
			c0.23,0.23,0.28,0.55,0.11,0.81c-0.12,0.18-0.29,0.27-0.5,0.27c-0.07,0-0.1,0.02-0.12,0.08c-0.03,0.07-0.06,0.14-0.11,0.19
			c-0.08,0.09-0.09,0.18-0.09,0.29c0.01,0.25,0.01,0.51-0.01,0.76c-0.02,0.26-0.16,0.4-0.41,0.45c-0.02,0-0.04,0.01-0.06,0.01
			c0,0.04,0,0.07,0,0.1c0,0.48,0,0.96,0,1.45c0,0.1-0.04,0.16-0.12,0.2c-0.43,0.21-0.28,0.21-0.71,0c-0.09-0.04-0.13-0.11-0.13-0.21
			c0-0.48,0-0.96,0-1.44c0-0.03,0-0.07,0-0.1c-0.01,0.01-0.01,0.01-0.02,0.02c-0.11-0.06-0.22-0.1-0.31-0.17
			c-0.1-0.08-0.14-0.2-0.14-0.33c0-0.28,0-0.57,0-0.85c0-0.03-0.01-0.07-0.02-0.1c-0.09-0.15-0.18-0.3-0.27-0.45
			c-0.28,0.3-0.65,0.47-1.09,0.42c-0.43-0.04-0.8-0.2-1.02-0.62c0,0.09,0,0.17,0,0.26c0,0.16-0.05,0.21-0.21,0.21
			c-0.39,0-0.79,0-1.18,0c-0.15,0-0.21-0.05-0.21-0.2c0-0.82,0-1.64,0-2.47c0-0.09,0.03-0.16,0.1-0.21c0.47,0,0.93,0,1.4,0
			c0.08,0.06,0.1,0.14,0.1,0.24c0,0.08,0,0.15,0,0.24c0.06,0,0.11,0.01,0.15-0.01c0.36-0.15,0.72-0.31,1.07-0.47
			C-280.22,389.63-279.59,389.63-278.96,389.63z M-282.07,391.7c0.04,0,0.06,0,0.09,0c0.17,0,0.2,0.02,0.24,0.19
			c0.02,0.11,0.09,0.19,0.17,0.25c0.35,0.24,0.71,0.26,1.09,0.09c0.17-0.08,0.31-0.19,0.33-0.4c0.01-0.1,0.09-0.13,0.18-0.13
			c0.34,0,0.68,0,1.02,0c0.05,0,0.1,0,0.15-0.02c0.18-0.04,0.28-0.23,0.22-0.41c-0.05-0.14-0.17-0.22-0.35-0.22
			c-0.53,0-1.06,0-1.6,0c-0.04,0-0.07,0-0.11,0c0-0.11,0-0.21,0-0.32c0.04,0,0.07,0,0.11,0c0.37,0,0.74,0,1.11,0
			c0.05,0,0.11-0.01,0.16-0.04c0.68-0.32,1.48,0.01,1.73,0.72c0.06,0.18,0.07,0.37,0.11,0.56c0.09,0,0.19-0.05,0.23-0.16
			c0.06-0.16,0-0.28-0.11-0.39c-0.4-0.4-0.8-0.8-1.2-1.2c-0.2-0.2-0.43-0.29-0.71-0.29c-0.49,0.01-0.98,0-1.47,0
			c-0.05,0-0.11,0.01-0.16,0.03c-0.41,0.15-0.79,0.39-1.23,0.47C-282.07,390.86-282.07,391.27-282.07,391.7z M-282.4,389.95
			c-0.32,0-0.63,0-0.94,0c0,0.74,0,1.48,0,2.22c0.32,0,0.63,0,0.94,0C-282.4,391.43-282.4,390.69-282.4,389.95z M-279.22,392.68
			c0.07,0.03,0.13,0.06,0.19,0.08c0.03,0.01,0.07,0,0.1-0.02c0.15-0.12,0.35-0.1,0.46,0.04c0.11,0.15,0.09,0.34-0.06,0.45
			c-0.15,0.11-0.35,0.08-0.46-0.08c-0.01-0.02-0.03-0.04-0.05-0.05c-0.1-0.04-0.21-0.08-0.32-0.12c0,0.2,0,0.4,0,0.61
			c0,0.13,0.06,0.19,0.19,0.19c0.3,0,0.59,0,0.89,0c0.14,0,0.19-0.06,0.19-0.2c0-0.23-0.01-0.46,0-0.69c0-0.11-0.03-0.17-0.13-0.22
			C-278.54,392.49-278.87,392.44-279.22,392.68z M-278.33,391.69c-0.15,0.24-0.36,0.34-0.63,0.33c-0.23-0.01-0.46,0-0.73,0
			c0.07,0.15,0.13,0.29,0.19,0.44c0.52-0.35,1.02-0.35,1.53-0.01c0.05-0.1,0.1-0.18,0.14-0.25
			C-278,392.03-278.16,391.87-278.33,391.69z M-278.88,394.1c0,0.04,0,0.07,0,0.09c0,0.44,0,0.87,0,1.31c0,0.07,0.09,0.16,0.16,0.16
			c0.07,0,0.16-0.09,0.16-0.16c0-0.44,0-0.87,0-1.31c0-0.03,0-0.06,0-0.09C-278.67,394.1-278.77,394.1-278.88,394.1z
			 M-278.36,390.98c0.04,0.12,0.06,0.23,0.12,0.32c0.06,0.09,0.15,0.16,0.22,0.24c0.08,0.08,0.15,0.15,0.23,0.23
			C-277.83,391.39-278.02,391.13-278.36,390.98z"/>
		<path class="st0" d="M-274.03,396.81c-0.02,0.04-0.04,0.08-0.05,0.12c-0.27,0.73-0.53,1.46-0.8,2.2
			c-0.07,0.19-0.12,0.21-0.31,0.15c-0.25-0.09-0.5-0.18-0.74-0.27c-0.19-0.07-0.22-0.12-0.15-0.32c0.01-0.02,0.01-0.04,0.03-0.08
			c-0.06,0-0.12-0.01-0.16,0c-0.26,0.08-0.52,0.18-0.79,0.26c-0.07,0.02-0.16,0.02-0.24,0c-1.06-0.38-2.11-0.76-3.16-1.15
			c-0.27-0.1-0.44-0.26-0.49-0.55c-0.06-0.38,0.26-0.73,0.64-0.71c0.09,0,0.17,0.02,0.26,0.05c0.29,0.1,0.58,0.21,0.87,0.31
			c0.04,0.02,0.08,0.03,0.11-0.02c0.11-0.18,0.29-0.26,0.49-0.3c0.67-0.12,1.35-0.24,2.02-0.35c0.08-0.01,0.16,0,0.24,0.02
			c0.32,0.11,0.64,0.23,0.96,0.35c0.02-0.04,0.03-0.09,0.05-0.13c0.04-0.1,0.12-0.14,0.23-0.11c0.29,0.1,0.59,0.21,0.88,0.32
			c0.05,0.02,0.08,0.07,0.12,0.11C-274.03,396.73-274.03,396.77-274.03,396.81z M-275.41,396.81c-0.33-0.12-0.65-0.24-0.97-0.35
			c-0.03-0.01-0.06,0-0.09,0c-0.34,0.06-0.68,0.12-1.02,0.18c-0.35,0.06-0.71,0.12-1.06,0.19c-0.17,0.03-0.27,0.2-0.24,0.37
			c0.03,0.16,0.2,0.28,0.37,0.25c0.37-0.06,0.73-0.13,1.1-0.19c0.23-0.04,0.46-0.08,0.7-0.12c0.02,0.11,0.04,0.21,0.05,0.31
			c-0.03,0.01-0.06,0.02-0.08,0.02c-0.57,0.1-1.14,0.2-1.71,0.3c-0.37,0.06-0.7-0.18-0.75-0.55c0-0.03-0.03-0.06-0.05-0.07
			c-0.33-0.12-0.66-0.25-1-0.36c-0.24-0.08-0.46,0.13-0.4,0.37c0.03,0.13,0.12,0.21,0.25,0.25c1.04,0.38,2.09,0.76,3.13,1.14
			c0.04,0.01,0.09,0.01,0.13,0c0.23-0.07,0.45-0.15,0.68-0.23c0.14-0.05,0.27-0.08,0.41-0.01c0,0,0.01,0,0.02-0.01
			C-275.77,397.8-275.59,397.31-275.41,396.81z M-275.76,398.72c0.2,0.07,0.4,0.14,0.6,0.22c0.26-0.7,0.51-1.4,0.76-2.1
			c-0.2-0.07-0.4-0.14-0.6-0.22C-275.25,397.32-275.5,398.01-275.76,398.72z"/>
	</g>
	<g>
		<path class="st0" d="M-283.12,405.08c-0.33,0-0.66,0-1,0c-0.34-0.12-0.47-0.37-0.45-0.72c0.01-0.13,0-0.26,0-0.39
			c-1.62,0-3.23,0-4.85,0c0,0.18,0,0.35,0,0.52c0,0.19-0.06,0.36-0.22,0.47c-0.07,0.05-0.15,0.08-0.23,0.12c-0.33,0-0.66,0-1,0
			c-0.01-0.01-0.01-0.02-0.02-0.02c-0.29-0.11-0.41-0.29-0.41-0.59c0-0.17,0-0.34,0-0.51c-0.03-0.01-0.05-0.02-0.08-0.03
			c-0.61-0.12-1.04-0.67-1.05-1.3c0-0.75,0-1.49,0-2.24c0-0.25,0.07-0.48,0.25-0.66c0.1-0.1,0.14-0.2,0.13-0.33
			c-0.01-0.22,0-0.44,0-0.67c0-0.06,0-0.12,0-0.19c-0.26,0-0.5,0-0.74,0c0-1.19,0-2.36,0-3.55c0.25,0,0.49,0,0.75,0
			c0-0.5,0-1,0-1.49c0.23,0,0.44,0,0.66,0c0.21,0,0.43,0,0.65,0c0,0.17,0,0.32,0,0.48c0,0.16,0,0.31,0,0.46
			c2.5-1.26,4.98-1.26,7.47,0c0-0.31,0-0.62,0-0.93c0.44,0,0.87,0,1.31,0c0,0.5,0,0.99,0,1.49c0.26,0,0.5,0,0.75,0
			c0,1.18,0,2.37,0,3.55c-0.25,0-0.49,0-0.75,0c0,0.35,0,0.68,0,1.02c0,0.03,0.02,0.06,0.05,0.08c0.23,0.21,0.33,0.47,0.33,0.77
			c0,0.73,0,1.45,0,2.18c0,0.1-0.01,0.21-0.03,0.31c-0.13,0.54-0.47,0.89-1.01,1.01c-0.06,0.01-0.08,0.04-0.08,0.1
			c0,0.17,0,0.34,0,0.51c-0.01,0.2-0.1,0.35-0.26,0.46C-283.01,405.02-283.06,405.05-283.12,405.08z M-292.03,402.09
			c0,0.2-0.01,0.38,0,0.57c0.01,0.3,0.13,0.55,0.38,0.74c0.19,0.14,0.4,0.19,0.63,0.19c0.96,0,1.91,0,2.87,0c1.73,0,3.47,0,5.2,0
			c0.44,0,0.8-0.22,0.93-0.58c0.11-0.29,0.07-0.6,0.07-0.9C-285.31,402.09-288.66,402.09-292.03,402.09z M-283.25,395.87
			c0-0.32,0-0.62,0-0.92c0-0.03-0.03-0.07-0.06-0.08c-0.14-0.08-0.28-0.17-0.42-0.24c-0.85-0.42-1.75-0.67-2.69-0.73
			c-0.9-0.06-1.79,0.02-2.66,0.28c-0.55,0.16-1.07,0.38-1.56,0.68c-0.03,0.02-0.07,0.06-0.07,0.09c-0.01,0.3,0,0.61,0,0.94
			c0.24-0.16,0.49-0.14,0.75-0.14c0-0.26,0-0.5,0-0.74c0.38,0,0.74,0,1.12,0c0,0.25,0,0.49,0,0.74c1.25,0,2.48,0,3.73,0
			c0-0.25,0-0.49,0-0.73c0.38,0,0.75,0,1.13,0c0,0.25,0,0.49,0,0.74C-283.74,395.72-283.49,395.73-283.25,395.87z M-289.78,398.35
			c1.87,0,3.73,0,5.59,0c0-0.5,0-0.99,0-1.49c-1.87,0-3.73,0-5.59,0C-289.78,397.36-289.78,397.85-289.78,398.35z M-282.91,399.18
			c-0.01-0.12-0.02-0.23-0.03-0.33c-0.06-0.55-0.11-1.09-0.17-1.64c-0.02-0.21-0.04-0.42-0.07-0.63c-0.03-0.25-0.25-0.47-0.6-0.47
			c-1.98,0.01-3.96,0-5.93,0c-0.18,0-0.36,0-0.54,0c-0.26,0.01-0.48,0.2-0.52,0.46c-0.02,0.14-0.03,0.28-0.05,0.42
			c-0.06,0.55-0.12,1.09-0.17,1.64c-0.02,0.18-0.04,0.35-0.05,0.54c0.18-0.07,0.34-0.13,0.5-0.2c0.05-0.02,0.09-0.08,0.13-0.12
			c0.07-0.08,0.13-0.16,0.19-0.25c0.03-0.05,0.07-0.11,0.07-0.16c0.01-0.5,0-0.99,0-1.49c0-0.33,0.14-0.47,0.46-0.47
			c1.81,0,3.62,0,5.43,0c0.33,0,0.47,0.14,0.47,0.47c0,0.49,0,0.98,0,1.47c0,0.03-0.01,0.07,0,0.09c0.12,0.16,0.22,0.34,0.37,0.45
			C-283.3,399.07-283.1,399.1-282.91,399.18z M-284.18,399.1c0,0.88,0,1.74,0,2.6c0.13,0,0.24,0,0.36,0c0-0.04,0-0.07,0-0.11
			c0-0.75-0.01-1.5,0-2.25c0-0.31-0.2-0.62-0.62-0.62c-1.7,0-3.4,0-5.1,0c-0.42,0-0.63,0.3-0.63,0.63c0.01,0.75,0,1.49,0,2.24
			c0,0.04,0,0.07,0.01,0.11c0.12,0,0.24,0,0.36,0c0-0.87,0-1.73,0-2.6c0.2,0,0.4,0.02,0.58,0c0.31-0.04,0.55,0.04,0.73,0.3
			c0.04,0.06,0.1,0.07,0.18,0.07c0.85,0,1.7,0,2.56,0c0.11,0,0.17-0.03,0.2-0.13c0.06-0.21,0.19-0.26,0.4-0.25
			C-284.83,399.11-284.51,399.1-284.18,399.1z M-289.41,401.7c1.62,0,3.23,0,4.83,0c0-0.12,0-0.24,0-0.36c-0.37,0-0.73,0-1.1,0
			c0-0.13,0-0.25,0-0.38c0.37,0,0.73,0,1.1,0c0-0.13,0-0.24,0-0.36c-1.62,0-3.23,0-4.83,0c0,0.12,0,0.24,0,0.36c0.37,0,0.74,0,1.1,0
			c0,0.13,0,0.25,0,0.38c-0.37,0-0.74,0-1.1,0C-289.41,401.47-289.41,401.58-289.41,401.7z M-290.54,401.7c0-0.78,0-1.54,0-2.32
			c-0.04,0.01-0.06,0.02-0.09,0.03c-0.33,0.13-0.66,0.26-0.99,0.4c-0.28,0.11-0.4,0.29-0.4,0.59c0,0.4,0,0.8,0,1.2
			c0,0.03,0,0.07,0.01,0.1C-291.53,401.7-291.04,401.7-290.54,401.7z M-281.94,401.7c0-0.44,0-0.87,0-1.3c0-0.3-0.12-0.48-0.4-0.59
			c-0.33-0.13-0.66-0.27-0.99-0.4c-0.03-0.01-0.06-0.02-0.1-0.03c0,0.78,0,1.54,0,2.32C-282.94,401.7-282.45,401.7-281.94,401.7z
			 M-289.41,400.21c1.62,0,3.23,0,4.83,0c0-0.25,0-0.49,0-0.74c-0.1,0-0.2,0.01-0.3,0c-0.24-0.04-0.39,0.04-0.46,0.28
			c-0.02,0.08-0.08,0.1-0.16,0.1c-0.88,0-1.76-0.02-2.63,0.01c-0.31,0.01-0.56-0.05-0.74-0.31c-0.02-0.03-0.06-0.07-0.1-0.07
			c-0.15-0.01-0.3,0-0.45,0C-289.41,399.73-289.41,399.96-289.41,400.21z M-292.04,398.15c0-0.93,0-1.86,0-2.78
			c-0.12,0-0.24,0-0.35,0c0,0.93,0,1.85,0,2.78C-292.27,398.15-292.15,398.15-292.04,398.15z M-281.58,398.15c0-0.93,0-1.86,0-2.78
			c-0.12,0-0.24,0-0.35,0c0,0.93,0,1.86,0,2.78C-281.81,398.15-281.7,398.15-281.58,398.15z M-290.9,403.96c0,0.2-0.01,0.39,0,0.58
			c0,0.09,0.07,0.15,0.17,0.15c0.25,0,0.5,0,0.76,0c0.1,0,0.17-0.06,0.18-0.16c0.01-0.19,0-0.38,0-0.58
			C-290.16,403.96-290.52,403.96-290.9,403.96z M-284.18,403.96c0,0.19,0,0.37,0,0.55c0,0.1,0.06,0.18,0.17,0.18
			c0.26,0,0.52,0,0.78,0c0.09,0,0.15-0.06,0.16-0.14c0.01-0.2,0-0.39,0-0.59C-283.45,403.96-283.81,403.96-284.18,403.96z
			 M-291.64,395.74c0,0.51,0,1.01,0,1.5c0.14-0.01,0.27-0.02,0.42-0.02c0-0.5,0.19-0.98,0.11-1.48
			C-291.29,395.74-291.46,395.74-291.64,395.74z M-282.86,395.74c-0.07,0.51,0.11,0.98,0.12,1.48c0.15,0.01,0.28,0.01,0.41,0.02
			c0-0.5,0-1,0-1.5C-282.51,395.74-282.68,395.74-282.86,395.74z M-282.33,399.4c0-0.03,0.01-0.05,0.01-0.07c0-0.5,0-1,0-1.5
			c0-0.13-0.05-0.2-0.15-0.21c-0.07-0.01-0.14,0-0.21,0c0,0.05,0,0.08,0,0.11c0.05,0.5,0.11,1,0.15,1.49
			C-282.52,399.35-282.44,399.38-282.33,399.4z M-291.28,397.62c-0.27-0.03-0.38-0.01-0.37,0.31c0.01,0.45,0,0.9,0,1.35
			c0,0.04,0,0.08,0,0.12c0.18-0.03,0.19-0.05,0.21-0.2c0.03-0.27,0.06-0.53,0.08-0.8C-291.33,398.14-291.31,397.88-291.28,397.62z
			 M-291.64,394.41c0.18,0,0.36,0,0.54,0c0-0.18,0-0.36,0-0.53c-0.18,0-0.36,0-0.54,0C-291.64,394.06-291.64,394.24-291.64,394.41z
			 M-282.33,394.42c0-0.19,0-0.36,0-0.54c-0.18,0-0.36,0-0.54,0c0,0.18,0,0.36,0,0.54C-282.68,394.42-282.51,394.42-282.33,394.42z
			 M-291.64,394.81c0,0.19,0,0.37,0,0.54c0.18,0,0.36,0,0.53,0c0-0.19,0-0.36,0-0.54C-291.29,394.81-291.46,394.81-291.64,394.81z
			 M-282.33,394.81c-0.19,0-0.36,0-0.54,0c0,0.18,0,0.36,0,0.54c0.18,0,0.36,0,0.54,0C-282.33,395.17-282.33,394.99-282.33,394.81z
			 M-289.24,395.73c0-0.13,0-0.24,0-0.35c-0.12,0-0.24,0-0.35,0c0,0.12,0,0.24,0,0.35C-289.47,395.73-289.35,395.73-289.24,395.73z
			 M-284.74,395.73c0.13,0,0.24,0,0.36,0c0-0.12,0-0.23,0-0.35c-0.12,0-0.24,0-0.36,0C-284.74,395.5-284.74,395.61-284.74,395.73z"
			/>
		<path class="st0" d="M-289.22,403.01c0-0.12,0-0.24,0-0.36c1.49,0,2.98,0,4.47,0c0,0.12,0,0.24,0,0.36
			C-286.24,403.01-287.73,403.01-289.22,403.01z"/>
		<path class="st0" d="M-291.46,403.01c0-0.12,0-0.24,0-0.36c0.25,0,0.49,0,0.74,0c0,0.12,0,0.23,0,0.36
			C-290.97,403.01-291.21,403.01-291.46,403.01z"/>
		<path class="st0" d="M-283.25,403.01c0-0.12,0-0.24,0-0.36c0.25,0,0.48,0,0.73,0c0,0.12,0,0.23,0,0.36
			C-282.75,403.01-283,403.01-283.25,403.01z"/>
		<path class="st0" d="M-287.74,397.24c0,0.12,0,0.24,0,0.36c-0.56,0-1.11,0-1.67,0c0-0.12,0-0.24,0-0.36
			C-288.85,397.24-288.3,397.24-287.74,397.24z"/>
		<path class="st0" d="M-286.99,397.6c-0.12,0-0.24,0-0.36,0c0-0.12,0-0.24,0-0.37c0.12,0,0.24,0,0.36,0
			C-286.99,397.35-286.99,397.47-286.99,397.6z"/>
		<path class="st0" d="M-287.92,401.33c0-0.12,0-0.24,0-0.36c0.62,0,1.23,0,1.86,0c0,0.12,0,0.24,0,0.36
			C-286.68,401.33-287.29,401.33-287.92,401.33z"/>
		<path class="st0" d="M-290.91,400.22c0,0.13,0,0.24,0,0.37c-0.12,0-0.24,0-0.37,0c0-0.12,0-0.24,0-0.37
			C-291.15,400.22-291.04,400.22-290.91,400.22z"/>
		<path class="st0" d="M-291.28,401.33c0-0.12,0-0.24,0-0.36c0.12,0,0.24,0,0.36,0c0,0.12,0,0.24,0,0.36
			C-291.03,401.33-291.15,401.33-291.28,401.33z"/>
		<path class="st0" d="M-283.06,400.59c0-0.13,0-0.24,0-0.37c0.12,0,0.24,0,0.37,0c0,0.12,0,0.24,0,0.37
			C-282.82,400.59-282.94,400.59-283.06,400.59z"/>
		<path class="st0" d="M-282.69,400.97c0,0.12,0,0.24,0,0.36c-0.12,0-0.24,0-0.37,0c0-0.12,0-0.24,0-0.36
			C-282.94,400.97-282.82,400.97-282.69,400.97z"/>
	</g>
</g>
</svg>
