<?xml version="1.0" encoding="utf-8"?>
<!-- Generator: Adobe Illustrator 24.3.0, SVG Export Plug-In . SVG Version: 6.00 Build 0)  -->
<svg version="1.1" id="Layer_1" xmlns="http://www.w3.org/2000/svg" xmlns:xlink="http://www.w3.org/1999/xlink" x="0px" y="0px"
	 viewBox="-294 386.7 21.2 21.3" style="enable-background:new -294 386.7 21.2 21.3;" xml:space="preserve">
<style type="text/css">
	.st0{fill:#28336D;}
</style>
<g>
	<path class="st0" d="M-283.64,405.71c0,0.31,0.25,0.55,0.55,0.55h1.34l0.02,0.04c0.12,0.34,0.45,0.58,0.81,0.58
		c0.36,0,0.69-0.23,0.81-0.58l0.02-0.04h2.69l0.02,0.04c0.12,0.34,0.45,0.58,0.81,0.58c0.36,0,0.69-0.23,0.81-0.58l0.02-0.04h1.34
		c0.31,0,0.55-0.25,0.55-0.55v-2.79c0-0.82-0.67-1.48-1.48-1.48H-277l-0.02-0.04c-0.12-0.34-0.45-0.58-0.81-0.58h-4.96
		c-0.48,0-0.86,0.39-0.86,0.86V405.71z M-274.35,403.92h-1.37v-0.38c0-0.21,0.17-0.38,0.38-0.38h1V403.92z M-276.96,401.93h1.61
		c0.42,0,0.79,0.27,0.93,0.66l0.03,0.09h-0.97c-0.48,0-0.86,0.39-0.86,0.86v0.86h1.86v1.37h-1.41l-0.02-0.04
		c-0.12-0.34-0.45-0.58-0.81-0.58c-0.09,0-0.19,0.02-0.29,0.05l-0.09,0.03V401.93z M-276.59,405.65c0.21,0,0.38,0.17,0.38,0.38
		c0,0.21-0.17,0.38-0.38,0.38c-0.21,0-0.38-0.17-0.38-0.38C-276.96,405.82-276.79,405.65-276.59,405.65z M-280.92,406.4
		c-0.21,0-0.38-0.17-0.38-0.38c0-0.21,0.17-0.38,0.38-0.38c0.21,0,0.38,0.17,0.38,0.38C-280.55,406.23-280.71,406.4-280.92,406.4z
		 M-283.16,401.69c0-0.21,0.17-0.38,0.38-0.38h4.96c0.21,0,0.38,0.17,0.38,0.38v4.09h-2.65l-0.02-0.04
		c-0.12-0.34-0.45-0.58-0.81-0.58c-0.36,0-0.69,0.23-0.81,0.58l-0.02,0.04h-1.41V401.69z"/>
	<rect x="-282.4" y="402.06" class="st0" width="0.49" height="2.35"/>
	<rect x="-281.17" y="402.06" class="st0" width="0.49" height="2.35"/>
	<rect x="-279.93" y="402.06" class="st0" width="0.49" height="2.35"/>
	<rect x="-278.69" y="402.06" class="st0" width="0.49" height="2.35"/>
	<path class="st0" d="M-284.02,387.81h-4.96c-0.36,0-0.69,0.23-0.81,0.58l-0.02,0.04h-1.65c-0.82,0-1.48,0.67-1.48,1.48v2.79
		c0,0.31,0.25,0.55,0.55,0.55h1.34l0.02,0.04c0.12,0.34,0.45,0.58,0.81,0.58c0.36,0,0.69-0.23,0.81-0.58l0.02-0.04h2.68l0.02,0.04
		c0.12,0.34,0.45,0.58,0.81,0.58s0.69-0.23,0.81-0.58l0.02-0.04h1.34c0.31,0,0.55-0.25,0.55-0.55v-4.03
		C-283.16,388.2-283.54,387.81-284.02,387.81z M-292.45,390.16h1c0.21,0,0.38,0.17,0.38,0.38v0.38h-1.37V390.16z M-290.21,393.39
		c-0.21,0-0.38-0.17-0.38-0.38s0.17-0.38,0.38-0.38c0.21,0,0.38,0.17,0.38,0.38S-290.01,393.39-290.21,393.39z M-289.84,392.23
		l-0.09-0.03c-0.1-0.04-0.19-0.05-0.29-0.05c-0.36,0-0.69,0.23-0.81,0.58l-0.02,0.04h-1.41v-1.37h1.86v-0.86
		c0-0.48-0.39-0.86-0.86-0.86h-0.97l0.03-0.09c0.14-0.4,0.52-0.66,0.93-0.66h1.61V392.23z M-285.88,393.39
		c-0.21,0-0.38-0.17-0.38-0.38s0.17-0.38,0.38-0.38c0.21,0,0.38,0.17,0.38,0.38S-285.67,393.39-285.88,393.39z M-283.64,392.77
		h-1.41l-0.02-0.04c-0.12-0.34-0.45-0.58-0.81-0.58c-0.36,0-0.69,0.23-0.81,0.58l-0.02,0.04h-2.65v-4.09c0-0.21,0.17-0.38,0.38-0.38
		h4.96c0.21,0,0.38,0.17,0.38,0.38V392.77z"/>
	<rect x="-284.88" y="389.05" class="st0" width="0.49" height="2.35"/>
	<rect x="-286.12" y="389.05" class="st0" width="0.49" height="2.35"/>
	<rect x="-287.36" y="389.05" class="st0" width="0.49" height="2.35"/>
	<rect x="-288.6" y="389.05" class="st0" width="0.49" height="2.35"/>
	<path class="st0" d="M-281.23,394.63h-4.34c-0.31,0-0.55,0.25-0.55,0.55v4.34c0,0.31,0.25,0.55,0.55,0.55h4.34
		c0.31,0,0.55-0.25,0.55-0.55v-4.34C-280.68,394.88-280.93,394.63-281.23,394.63z M-283.78,395.12h0.75v0.75h-0.75V395.12z
		 M-285.63,399.58v-4.47h1.37v1.24h1.73v-1.24h1.37l0,4.47H-285.63z"/>
	<rect x="-282.4" y="398.35" class="st0" width="0.49" height="0.49"/>
	<rect x="-283.64" y="398.35" class="st0" width="0.49" height="0.49"/>
	<rect x="-279.93" y="397.11" class="st0" width="0.49" height="0.49"/>
	<rect x="-278.69" y="397.11" class="st0" width="0.49" height="0.49"/>
	<path class="st0" d="M-273.86,393.94c0-2.01-1.64-3.65-3.65-3.65h-3.75l0.78-0.78l-0.34-0.34l-1.36,1.36l1.36,1.36l0.34-0.34
		l-0.78-0.78h3.75c1.74,0,3.16,1.42,3.16,3.16c0,1.72-1.38,3.13-3.1,3.16v0.49C-275.47,397.56-273.86,395.93-273.86,393.94z"/>
	<rect x="-287.36" y="397.11" class="st0" width="0.49" height="0.49"/>
	<rect x="-288.6" y="397.11" class="st0" width="0.49" height="0.49"/>
	<path class="st0" d="M-284.6,404.16l-1.36-1.36l-0.34,0.34l0.78,0.78h-3.75c-1.74,0-3.16-1.42-3.16-3.16c0-1.72,1.38-3.13,3.1-3.16
		v-0.49c-1.98,0.04-3.59,1.66-3.59,3.65c0,2.01,1.64,3.65,3.65,3.65h3.75l-0.78,0.78l0.34,0.34L-284.6,404.16z"/>
</g>
<path class="st0" d="M-1956.28,7.65c0,1.16,0.94,2.1,2.1,2.1h5.1l0.06,0.17c0.47,1.31,1.7,2.19,3.08,2.19
	c1.37,0,2.61-0.88,3.08-2.19l0.06-0.17h10.2l0.06,0.17c0.47,1.31,1.7,2.19,3.08,2.19c1.37,0,2.61-0.88,3.08-2.19l0.06-0.17h5.1
	c1.16,0,2.1-0.94,2.1-2.1V-2.94c0-3.11-2.53-5.63-5.63-5.63h-6.28l-0.06-0.17c-0.47-1.31-1.7-2.19-3.08-2.19H-1953
	c-1.81,0-3.28,1.47-3.28,3.28V7.65z M-1920.98,0.84h-5.21v-1.43c0-0.79,0.64-1.43,1.43-1.43h3.78V0.84z M-1930.89-6.72h6.13
	c1.59,0,3.01,1.01,3.55,2.52l0.12,0.33h-3.67c-1.81,0-3.28,1.47-3.28,3.28v3.28h7.06V7.9h-5.35l-0.06-0.17
	c-0.47-1.31-1.7-2.19-3.08-2.19c-0.35,0-0.71,0.07-1.09,0.2l-0.33,0.12V-6.72z M-1929.46,7.4c0.79,0,1.43,0.64,1.43,1.43
	s-0.64,1.43-1.43,1.43s-1.43-0.64-1.43-1.43S-1930.25,7.4-1929.46,7.4z M-1945.94,10.25c-0.79,0-1.43-0.64-1.43-1.43
	s0.64-1.43,1.43-1.43s1.43,0.64,1.43,1.43S-1945.15,10.25-1945.94,10.25z M-1954.42-7.65c0-0.79,0.64-1.43,1.43-1.43h18.83
	c0.79,0,1.43,0.64,1.43,1.43V7.9h-10.06l-0.06-0.17c-0.47-1.31-1.7-2.19-3.08-2.19c-1.38,0-2.61,0.88-3.08,2.19l-0.06,0.17h-5.35
	V-7.65z"/>
<rect x="-1951.57" y="-6.22" class="st0" width="1.85" height="8.91"/>
<rect x="-1946.86" y="-6.22" class="st0" width="1.85" height="8.91"/>
<rect x="-1942.16" y="-6.22" class="st0" width="1.85" height="8.91"/>
<rect x="-1937.45" y="-6.22" class="st0" width="1.85" height="8.91"/>
<path class="st0" d="M-1957.7-60.35h-18.83c-1.37,0-2.61,0.88-3.08,2.19l-0.06,0.17h-6.28c-3.11,0-5.63,2.53-5.63,5.63v10.59
	c0,1.16,0.94,2.1,2.1,2.1h5.1l0.06,0.17c0.47,1.31,1.7,2.19,3.08,2.19s2.61-0.88,3.08-2.19l0.06-0.17h10.2l0.06,0.17
	c0.47,1.31,1.7,2.19,3.08,2.19s2.61-0.88,3.08-2.19l0.06-0.17h5.1c1.16,0,2.1-0.94,2.1-2.1v-15.3
	C-1954.42-58.88-1955.89-60.35-1957.7-60.35z M-1989.72-51.43h3.78c0.79,0,1.43,0.64,1.43,1.43v1.43h-5.21V-51.43z M-1981.23-39.17
	c-0.79,0-1.43-0.64-1.43-1.43s0.64-1.43,1.43-1.43s1.43,0.64,1.43,1.43S-1980.45-39.17-1981.23-39.17z M-1979.81-43.55l-0.33-0.12
	c-0.38-0.14-0.74-0.2-1.09-0.2c-1.37,0-2.61,0.88-3.08,2.19l-0.06,0.17h-5.35v-5.21h7.06v-3.28c0-1.81-1.47-3.28-3.28-3.28h-3.67
	l0.12-0.33c0.54-1.51,1.96-2.52,3.55-2.52h6.13V-43.55z M-1964.76-39.17c-0.79,0-1.43-0.64-1.43-1.43s0.64-1.43,1.43-1.43
	s1.43,0.64,1.43,1.43S-1963.98-39.17-1964.76-39.17z M-1956.28-41.52h-5.35l-0.06-0.17c-0.47-1.31-1.7-2.19-3.08-2.19
	c-1.37,0-2.61,0.88-3.08,2.19l-0.06,0.17h-10.06v-15.55c0-0.79,0.64-1.43,1.43-1.43h18.83c0.79,0,1.43,0.64,1.43,1.43V-41.52z"/>
<rect x="-1960.98" y="-55.64" class="st0" width="1.85" height="8.91"/>
<rect x="-1965.69" y="-55.64" class="st0" width="1.85" height="8.91"/>
<rect x="-1970.4" y="-55.64" class="st0" width="1.85" height="8.91"/>
<rect x="-1975.1" y="-55.64" class="st0" width="1.85" height="8.91"/>
<path class="st0" d="M-1947.11-34.46h-16.47c-1.16,0-2.1,0.94-2.1,2.1v16.47c0,1.16,0.94,2.1,2.1,2.1h16.47c1.16,0,2.1-0.94,2.1-2.1
	v-16.47C-1945.01-33.52-1945.95-34.46-1947.11-34.46z M-1956.78-32.61h2.85v2.85h-2.85V-32.61z M-1963.84-15.63v-16.97h5.21v4.71
	h6.56v-4.71h5.21l0,16.97H-1963.84z"/>
<rect x="-1951.57" y="-20.34" class="st0" width="1.85" height="1.85"/>
<rect x="-1956.28" y="-20.34" class="st0" width="1.85" height="1.85"/>
<rect x="-1942.16" y="-25.05" class="st0" width="1.85" height="1.85"/>
<rect x="-1937.45" y="-25.05" class="st0" width="1.85" height="1.85"/>
<path class="st0" d="M-1919.12-37.06c0-7.65-6.22-13.87-13.87-13.87h-14.24l2.95-2.95l-1.31-1.31l-5.19,5.18l5.19,5.19l1.31-1.31
	l-2.95-2.95h14.24c6.63,0,12.02,5.39,12.02,12.02c0,6.54-5.26,11.88-11.77,12.01v1.85C-1925.21-23.33-1919.12-29.5-1919.12-37.06z"
	/>
<rect x="-1970.4" y="-25.05" class="st0" width="1.85" height="1.85"/>
<rect x="-1975.1" y="-25.05" class="st0" width="1.85" height="1.85"/>
<path class="st0" d="M-1959.92,1.76l-5.19-5.19l-1.31,1.31l2.95,2.95h-14.24c-6.63,0-12.02-5.39-12.02-12.02
	c0-6.54,5.26-11.88,11.77-12.01v-1.85c-7.53,0.13-13.62,6.3-13.62,13.87c0,7.65,6.22,13.87,13.87,13.87h14.24l-2.95,2.95l1.31,1.31
	L-1959.92,1.76z"/>
</svg>
