<?xml version="1.0" encoding="utf-8"?>
<!-- Generator: Adobe Illustrator 16.0.0, SVG Export Plug-In . SVG Version: 6.00 Build 0)  -->
<!DOCTYPE svg PUBLIC "-//W3C//DTD SVG 1.1//EN" "http://www.w3.org/Graphics/SVG/1.1/DTD/svg11.dtd">
<svg version="1.1" id="Layer_1" xmlns="http://www.w3.org/2000/svg" xmlns:xlink="http://www.w3.org/1999/xlink" x="0px" y="0px"
	 width="24px" height="24px" viewBox="0 0 24 24" enable-background="new 0 0 24 24" xml:space="preserve">
<g>
	<path fill="none" stroke="#707070" stroke-miterlimit="10" d="M20.163,21.165c0,0.256-0.205,0.461-0.459,0.461H4.297
		c-0.254,0-0.46-0.205-0.46-0.461V5.759c0-0.254,0.206-0.461,0.46-0.461h15.407c0.254,0,0.459,0.207,0.459,0.461V21.165z"/>
	<g>
		<line fill="none" stroke="#707070" stroke-miterlimit="10" x1="7.777" y1="5.298" x2="7.777" y2="2.374"/>
		<line fill="none" stroke="#707070" stroke-miterlimit="10" x1="16.225" y1="5.298" x2="16.225" y2="2.374"/>
	</g>
	<g>
		<line fill="none" stroke="#707070" stroke-miterlimit="10" x1="6.636" y1="8.316" x2="6.636" y2="9.372"/>
		<line fill="none" stroke="#707070" stroke-miterlimit="10" x1="8.843" y1="8.316" x2="8.843" y2="9.372"/>
		<line fill="none" stroke="#707070" stroke-miterlimit="10" x1="10.978" y1="8.316" x2="10.978" y2="9.372"/>
		<line fill="none" stroke="#707070" stroke-miterlimit="10" x1="13.184" y1="8.316" x2="13.184" y2="9.372"/>
		<line fill="none" stroke="#707070" stroke-miterlimit="10" x1="15.157" y1="8.316" x2="15.157" y2="9.372"/>
		<line fill="none" stroke="#707070" stroke-miterlimit="10" x1="17.363" y1="8.316" x2="17.363" y2="9.372"/>
		<line fill="none" stroke="#707070" stroke-miterlimit="10" x1="6.636" y1="10.766" x2="6.636" y2="11.821"/>
		<line fill="none" stroke="#707070" stroke-miterlimit="10" x1="8.843" y1="10.766" x2="8.843" y2="11.821"/>
		<line fill="none" stroke="#707070" stroke-miterlimit="10" x1="10.978" y1="10.766" x2="10.978" y2="11.821"/>
		<line fill="none" stroke="#707070" stroke-miterlimit="10" x1="13.184" y1="10.766" x2="13.184" y2="11.821"/>
		<line fill="none" stroke="#707070" stroke-miterlimit="10" x1="15.157" y1="10.766" x2="15.157" y2="11.821"/>
		<line fill="none" stroke="#707070" stroke-miterlimit="10" x1="17.363" y1="10.766" x2="17.363" y2="11.821"/>
		<line fill="none" stroke="#707070" stroke-miterlimit="10" x1="6.636" y1="13.17" x2="6.636" y2="14.225"/>
		<line fill="none" stroke="#707070" stroke-miterlimit="10" x1="8.843" y1="13.17" x2="8.843" y2="14.225"/>
		<line fill="none" stroke="#707070" stroke-miterlimit="10" x1="10.978" y1="13.17" x2="10.978" y2="14.225"/>
		<line fill="none" stroke="#707070" stroke-miterlimit="10" x1="13.184" y1="13.17" x2="13.184" y2="14.225"/>
		<line fill="none" stroke="#707070" stroke-miterlimit="10" x1="15.157" y1="13.17" x2="15.157" y2="14.225"/>
		<line fill="none" stroke="#707070" stroke-miterlimit="10" x1="17.363" y1="13.17" x2="17.363" y2="14.225"/>
		<line fill="none" stroke="#707070" stroke-miterlimit="10" x1="6.636" y1="15.484" x2="6.636" y2="16.54"/>
		<line fill="none" stroke="#707070" stroke-miterlimit="10" x1="8.843" y1="15.484" x2="8.843" y2="16.54"/>
		<line fill="none" stroke="#707070" stroke-miterlimit="10" x1="10.978" y1="15.484" x2="10.978" y2="16.54"/>
		<line fill="none" stroke="#707070" stroke-miterlimit="10" x1="13.184" y1="15.484" x2="13.184" y2="16.54"/>
		<line fill="none" stroke="#707070" stroke-miterlimit="10" x1="15.157" y1="15.484" x2="15.157" y2="16.54"/>
		<line fill="none" stroke="#707070" stroke-miterlimit="10" x1="17.363" y1="15.484" x2="17.363" y2="16.54"/>
		<line fill="none" stroke="#707070" stroke-miterlimit="10" x1="6.636" y1="17.553" x2="6.636" y2="18.607"/>
		<line fill="none" stroke="#707070" stroke-miterlimit="10" x1="8.843" y1="17.553" x2="8.843" y2="18.607"/>
		<line fill="none" stroke="#707070" stroke-miterlimit="10" x1="10.978" y1="17.553" x2="10.978" y2="18.607"/>
		<line fill="none" stroke="#707070" stroke-miterlimit="10" x1="13.184" y1="17.553" x2="13.184" y2="18.607"/>
		<line fill="none" stroke="#707070" stroke-miterlimit="10" x1="15.157" y1="17.553" x2="15.157" y2="18.607"/>
		<line fill="none" stroke="#707070" stroke-miterlimit="10" x1="17.363" y1="17.553" x2="17.363" y2="18.607"/>
	</g>
</g>
</svg>
