<?xml version="1.0" encoding="utf-8"?>
<!-- Generator: Adobe Illustrator 24.3.0, SVG Export Plug-In . SVG Version: 6.00 Build 0)  -->
<svg version="1.1" id="Layer_1" xmlns="http://www.w3.org/2000/svg" xmlns:xlink="http://www.w3.org/1999/xlink" x="0px" y="0px"
	 viewBox="-294 386.7 21.2 21.3" style="enable-background:new -294 386.7 21.2 21.3;" xml:space="preserve">
<style type="text/css">
	.st0{fill:#28336D;}
</style>
<g>
	<path class="st0" d="M-273.92,392.44c0-0.14-0.02-0.28-0.06-0.42c-0.2-0.65-0.72-1-1.48-1h-15.88c-0.07,0-0.13,0-0.2,0
		c-0.42,0.02-0.74,0.17-0.97,0.46c-0.11,0.15-0.19,0.31-0.27,0.49l-0.01,0.03c-0.03,0.06-0.05,0.12-0.08,0.17l-0.01,10.29l0,0.03
		c0.24,0.81,0.79,1.17,1.79,1.17c2.52-0.01,5.06-0.01,7.58-0.01c2.7,0,5.33,0,7.98,0c0.09,0,0.18,0,0.28-0.01
		c0.77-0.04,1.35-0.65,1.35-1.41C-273.91,398.98-273.91,395.71-273.92,392.44z M-292.09,402.76c-0.18-0.21-0.24-0.5-0.19-0.84
		l0.01-0.07h1.11c0.73,0,1.47,0,2.2,0c0.34,0,0.37-0.19,0.38-0.25c0.03-0.16-0.06-0.3-0.22-0.33c-0.08-0.02-0.16-0.02-0.24-0.02
		c-0.78,0-1.56,0-2.35,0h-0.9l0-2.44c0-2.04,0-4.16-0.01-6.23c0-0.28,0.09-0.53,0.27-0.71c0.17-0.17,0.41-0.26,0.7-0.26
		c5.24,0.01,10.58,0.01,15.88,0c0.28,0,0.52,0.09,0.7,0.26c0.17,0.17,0.27,0.42,0.27,0.71c-0.01,2.07-0.01,4.18-0.01,6.22v2.45
		h-1.23c-3.22,0-6.44,0-9.66,0c-0.09,0-0.18,0-0.26,0.02c-0.14,0.03-0.21,0.11-0.23,0.27c-0.02,0.12,0.07,0.25,0.2,0.29
		c0.08,0.02,0.17,0.03,0.25,0.03c3.07,0,6.14,0,9.21,0h1.68l0.01,0.06c0.09,0.41-0.04,0.68-0.16,0.83
		c-0.17,0.21-0.44,0.33-0.75,0.33c-5.74-0.01-10.92-0.01-15.85,0C-291.63,403.08-291.91,402.97-292.09,402.76z"/>
	<path class="st0" d="M-284.83,393.25c-1.7,0-3.4,0-5.1,0c-0.28,0-0.38,0.11-0.38,0.39l0,1.99l0,3.62c0,0.28,0.09,0.38,0.37,0.38
		c0.85,0,1.71,0,2.56,0s1.71,0,2.56,0c0.28,0,0.37-0.09,0.37-0.37c0-1.87,0-3.75,0-5.62C-284.45,393.35-284.55,393.25-284.83,393.25
		z M-289.71,398.6c-0.01-0.25-0.02-0.51,0.02-0.77c0.09-0.55,0.67-1,1.28-1.01l0.04,0c0.67-0.01,1.36-0.02,2.04,0
		c0.56,0.02,0.99,0.33,1.22,0.86c0.05,0.12,0.07,0.25,0.07,0.33c0.01,0.22,0,0.43,0,0.66l0,0.35h-4.66v-0.08
		C-289.7,398.83-289.71,398.72-289.71,398.6z M-288.25,395.36c0-0.23,0.08-0.45,0.25-0.62c0.17-0.17,0.39-0.26,0.62-0.26
		c0,0,0.01,0,0.01,0c0.23,0,0.44,0.09,0.61,0.26c0.17,0.17,0.26,0.39,0.26,0.62c0,0.23-0.1,0.45-0.26,0.62
		c-0.16,0.16-0.39,0.26-0.62,0.26C-287.85,396.22-288.24,395.83-288.25,395.36z M-285.05,396.65l-1.09-0.47l0.03-0.07
		c0.4-0.84,0.19-1.55-0.62-2.1l-0.21-0.14h1.88V396.65z M-288.02,394.02c-0.41,0.24-0.66,0.54-0.77,0.94
		c-0.11,0.38-0.06,0.76,0.15,1.14l0.04,0.07l-1.1,0.48v-2.78h1.94L-288.02,394.02z"/>
	<path class="st0" d="M-276.57,393.46c-0.06-0.06-0.16-0.1-0.28-0.1c-0.66-0.01-1.32,0-1.96,0c-0.12,0-0.22,0.04-0.28,0.1
		c-0.05,0.05-0.08,0.12-0.08,0.21c0,0.18,0.14,0.29,0.37,0.3c0.22,0,0.45,0,0.67,0l0.29,0l0.29,0c0.09,0,0.18,0,0.28,0
		c0.13,0,0.27,0,0.4,0c0.32,0,0.36-0.21,0.36-0.3C-276.49,393.59-276.52,393.51-276.57,393.46z"/>
	<g>
		<path class="st0" d="M-277.2,396.6c-0.46,0-0.92,0-1.38,0c-0.51,0-0.86,0.34-0.88,0.84c-0.02,0.46-0.02,0.93,0,1.4
			c0.01,0.5,0.35,0.82,0.86,0.83c0.16,0,0.31,0,0.47,0l0.22,0c0.08,0,0.16,0,0.24,0l0.06,0c0.06,0,0.12,0,0.18,0
			c0.09,0,0.19,0,0.28,0c0.46-0.01,0.8-0.36,0.8-0.83c0-0.46,0-0.92,0-1.38C-276.34,396.96-276.7,396.61-277.2,396.6z
			 M-276.93,397.75c0,0.35,0,0.7,0,1.05c0,0.08-0.03,0.15-0.07,0.2c-0.05,0.05-0.12,0.07-0.21,0.07c-0.09,0-0.19,0-0.28,0
			c-0.07,0-0.13,0-0.2,0l-0.5,0c-0.13,0-0.25,0-0.39,0c-0.09,0-0.16-0.02-0.2-0.07c-0.05-0.05-0.07-0.12-0.07-0.21
			c0-0.44,0-0.88,0-1.32c0-0.09,0.02-0.15,0.07-0.2c0.05-0.05,0.11-0.07,0.2-0.07h1.36c0.1,0,0.17,0.03,0.21,0.07
			c0.04,0.03,0.08,0.1,0.08,0.21L-276.93,397.75z"/>
		<path class="st0" d="M-282.35,395.56h3.3c0.29,0,0.58,0,0.87,0c0.41,0,0.82,0,1.22,0c0.07,0,0.15,0,0.23-0.01
			c0.14-0.02,0.24-0.14,0.24-0.29c0-0.19-0.13-0.3-0.38-0.3l-5.49,0c-0.29,0-0.44,0.1-0.44,0.3c0,0.09,0.02,0.15,0.07,0.2
			C-282.66,395.53-282.53,395.56-282.35,395.56z"/>
		<path class="st0" d="M-282.43,393.97c0.12,0,0.23,0,0.35,0c0.08,0,0.15,0,0.23,0l0.36,0l0.29,0c0.22,0,0.44,0,0.66,0
			c0.22,0,0.36-0.11,0.36-0.3c0-0.11-0.04-0.17-0.08-0.21c-0.06-0.06-0.16-0.1-0.28-0.1c-0.64,0-1.28,0-1.9,0
			c-0.12,0-0.22,0.04-0.28,0.1c-0.05,0.05-0.08,0.12-0.08,0.21C-282.79,393.85-282.66,393.97-282.43,393.97z"/>
		<path class="st0" d="M-280.83,396.61c-0.18,0-0.37,0-0.56,0l-0.75,0l-0.31,0c-0.21,0-0.35,0.11-0.35,0.29
			c0,0.11,0.04,0.17,0.07,0.21c0.06,0.06,0.15,0.09,0.26,0.09c0.28,0,0.56,0,0.83,0s0.55,0,0.82,0c0.2,0,0.32-0.11,0.32-0.29
			C-280.49,396.72-280.61,396.61-280.83,396.61z"/>
		<path class="st0" d="M-280.82,398.25c-0.55-0.01-1.1,0-1.64,0c-0.1,0-0.19,0.03-0.26,0.1c-0.05,0.05-0.08,0.13-0.08,0.21
			c0,0.18,0.13,0.29,0.33,0.29c0.11,0,0.22,0,0.32,0c0.09,0,0.17,0,0.26,0l0.25,0l0.24,0c0.19,0,0.37,0,0.56,0
			c0.22,0,0.34-0.11,0.34-0.29c0-0.11-0.04-0.17-0.08-0.21C-280.65,398.26-280.76,398.25-280.82,398.25z"/>
	</g>
	<path class="st0" d="M-287.2,401.2c-0.1,0-0.19,0.04-0.26,0.11c-0.07,0.07-0.11,0.16-0.11,0.25c0,0.09,0.04,0.19,0.12,0.26
		c0.07,0.07,0.16,0.11,0.25,0.11h0h0c0.19,0,0.35-0.17,0.35-0.37C-286.85,401.36-287,401.2-287.2,401.2z"/>
</g>
</svg>
