<?xml version="1.0" encoding="utf-8"?>
<!-- Generator: Adobe Illustrator 24.3.0, SVG Export Plug-In . SVG Version: 6.00 Build 0)  -->
<svg version="1.1" id="Layer_1" xmlns="http://www.w3.org/2000/svg" xmlns:xlink="http://www.w3.org/1999/xlink" x="0px" y="0px"
	 viewBox="-294 386.7 21.2 21.3" style="enable-background:new -294 386.7 21.2 21.3;" xml:space="preserve">
<style type="text/css">
	.st0{fill:#28336D;}
</style>
<path class="st0" d="M-1956.28,7.65c0,1.16,0.94,2.1,2.1,2.1h5.1l0.06,0.17c0.47,1.31,1.7,2.19,3.08,2.19
	c1.37,0,2.61-0.88,3.08-2.19l0.06-0.17h10.2l0.06,0.17c0.47,1.31,1.7,2.19,3.08,2.19c1.37,0,2.61-0.88,3.08-2.19l0.06-0.17h5.1
	c1.16,0,2.1-0.94,2.1-2.1V-2.94c0-3.11-2.53-5.63-5.63-5.63h-6.28l-0.06-0.17c-0.47-1.31-1.7-2.19-3.08-2.19H-1953
	c-1.81,0-3.28,1.47-3.28,3.28V7.65z M-1920.98,0.84h-5.21v-1.43c0-0.79,0.64-1.43,1.43-1.43h3.78V0.84z M-1930.89-6.72h6.13
	c1.59,0,3.01,1.01,3.55,2.52l0.12,0.33h-3.67c-1.81,0-3.28,1.47-3.28,3.28v3.28h7.06V7.9h-5.35l-0.06-0.17
	c-0.47-1.31-1.7-2.19-3.08-2.19c-0.35,0-0.71,0.07-1.09,0.2l-0.33,0.12V-6.72z M-1929.46,7.4c0.79,0,1.43,0.64,1.43,1.43
	s-0.64,1.43-1.43,1.43s-1.43-0.64-1.43-1.43S-1930.25,7.4-1929.46,7.4z M-1945.94,10.25c-0.79,0-1.43-0.64-1.43-1.43
	s0.64-1.43,1.43-1.43s1.43,0.64,1.43,1.43S-1945.15,10.25-1945.94,10.25z M-1954.42-7.65c0-0.79,0.64-1.43,1.43-1.43h18.83
	c0.79,0,1.43,0.64,1.43,1.43V7.9h-10.06l-0.06-0.17c-0.47-1.31-1.7-2.19-3.08-2.19c-1.38,0-2.61,0.88-3.08,2.19l-0.06,0.17h-5.35
	V-7.65z"/>
<rect x="-1951.57" y="-6.22" class="st0" width="1.85" height="8.91"/>
<rect x="-1946.86" y="-6.22" class="st0" width="1.85" height="8.91"/>
<rect x="-1942.16" y="-6.22" class="st0" width="1.85" height="8.91"/>
<rect x="-1937.45" y="-6.22" class="st0" width="1.85" height="8.91"/>
<path class="st0" d="M-1957.7-60.35h-18.83c-1.37,0-2.61,0.88-3.08,2.19l-0.06,0.17h-6.28c-3.11,0-5.63,2.53-5.63,5.63v10.59
	c0,1.16,0.94,2.1,2.1,2.1h5.1l0.06,0.17c0.47,1.31,1.7,2.19,3.08,2.19s2.61-0.88,3.08-2.19l0.06-0.17h10.2l0.06,0.17
	c0.47,1.31,1.7,2.19,3.08,2.19s2.61-0.88,3.08-2.19l0.06-0.17h5.1c1.16,0,2.1-0.94,2.1-2.1v-15.3
	C-1954.42-58.88-1955.89-60.35-1957.7-60.35z M-1989.72-51.43h3.78c0.79,0,1.43,0.64,1.43,1.43v1.43h-5.21V-51.43z M-1981.23-39.17
	c-0.79,0-1.43-0.64-1.43-1.43s0.64-1.43,1.43-1.43s1.43,0.64,1.43,1.43S-1980.45-39.17-1981.23-39.17z M-1979.81-43.55l-0.33-0.12
	c-0.38-0.14-0.74-0.2-1.09-0.2c-1.37,0-2.61,0.88-3.08,2.19l-0.06,0.17h-5.35v-5.21h7.06v-3.28c0-1.81-1.47-3.28-3.28-3.28h-3.67
	l0.12-0.33c0.54-1.51,1.96-2.52,3.55-2.52h6.13V-43.55z M-1964.76-39.17c-0.79,0-1.43-0.64-1.43-1.43s0.64-1.43,1.43-1.43
	s1.43,0.64,1.43,1.43S-1963.98-39.17-1964.76-39.17z M-1956.28-41.52h-5.35l-0.06-0.17c-0.47-1.31-1.7-2.19-3.08-2.19
	c-1.37,0-2.61,0.88-3.08,2.19l-0.06,0.17h-10.06v-15.55c0-0.79,0.64-1.43,1.43-1.43h18.83c0.79,0,1.43,0.64,1.43,1.43V-41.52z"/>
<rect x="-1960.98" y="-55.64" class="st0" width="1.85" height="8.91"/>
<rect x="-1965.69" y="-55.64" class="st0" width="1.85" height="8.91"/>
<rect x="-1970.4" y="-55.64" class="st0" width="1.85" height="8.91"/>
<rect x="-1975.1" y="-55.64" class="st0" width="1.85" height="8.91"/>
<path class="st0" d="M-1947.11-34.46h-16.47c-1.16,0-2.1,0.94-2.1,2.1v16.47c0,1.16,0.94,2.1,2.1,2.1h16.47c1.16,0,2.1-0.94,2.1-2.1
	v-16.47C-1945.01-33.52-1945.95-34.46-1947.11-34.46z M-1956.78-32.61h2.85v2.85h-2.85V-32.61z M-1963.84-15.63v-16.97h5.21v4.71
	h6.56v-4.71h5.21l0,16.97H-1963.84z"/>
<rect x="-1951.57" y="-20.34" class="st0" width="1.85" height="1.85"/>
<rect x="-1956.28" y="-20.34" class="st0" width="1.85" height="1.85"/>
<rect x="-1942.16" y="-25.05" class="st0" width="1.85" height="1.85"/>
<rect x="-1937.45" y="-25.05" class="st0" width="1.85" height="1.85"/>
<path class="st0" d="M-1919.12-37.06c0-7.65-6.22-13.87-13.87-13.87h-14.24l2.95-2.95l-1.31-1.31l-5.19,5.18l5.19,5.19l1.31-1.31
	l-2.95-2.95h14.24c6.63,0,12.02,5.39,12.02,12.02c0,6.54-5.26,11.88-11.77,12.01v1.85C-1925.21-23.33-1919.12-29.5-1919.12-37.06z"
	/>
<rect x="-1970.4" y="-25.05" class="st0" width="1.85" height="1.85"/>
<rect x="-1975.1" y="-25.05" class="st0" width="1.85" height="1.85"/>
<path class="st0" d="M-1959.92,1.76l-5.19-5.19l-1.31,1.31l2.95,2.95h-14.24c-6.63,0-12.02-5.39-12.02-12.02
	c0-6.54,5.26-11.88,11.77-12.01v-1.85c-7.53,0.13-13.62,6.3-13.62,13.87c0,7.65,6.22,13.87,13.87,13.87h14.24l-2.95,2.95l1.31,1.31
	L-1959.92,1.76z"/>
<g>
	<path class="st0" d="M-275.34,391.24h-16.11c-0.81,0-1.46,0.66-1.46,1.46v9.3c0,0.81,0.66,1.46,1.46,1.46h16.11
		c0.81,0,1.46-0.66,1.46-1.46v-9.3C-273.88,391.9-274.54,391.24-275.34,391.24z M-274.33,402c0,0.56-0.46,1.01-1.01,1.01h-16.11
		c-0.56,0-1.01-0.46-1.01-1.01v-8.45h18.14V402z M-274.33,393.1h-18.14v-0.39c0-0.56,0.46-1.01,1.01-1.01h16.11
		c0.56,0,1.01,0.46,1.01,1.01V393.1z"/>
	<path class="st0" d="M-276.58,402.22c0.47,0,0.84-0.38,0.84-0.84v-0.08h0.39c0.12,0,0.22-0.1,0.22-0.22v-0.62
		c0-0.39-0.27-0.72-0.64-0.82l-0.04-0.01l-0.57-1.43c-0.03-0.09-0.12-0.14-0.21-0.14c0,0,0,0,0,0h-2.48c0,0,0,0,0,0
		c-0.09,0-0.17,0.06-0.21,0.14l-0.57,1.43l-0.04,0.01c-0.38,0.09-0.64,0.43-0.64,0.82v0.62c0,0.12,0.1,0.22,0.22,0.22h0.39v0.08
		c0,0.47,0.38,0.84,0.84,0.84c0.47,0,0.84-0.38,0.84-0.84v-0.08h0.79v0.08C-277.43,401.84-277.05,402.22-276.58,402.22z
		 M-276.19,401.38c0,0.22-0.18,0.39-0.39,0.39s-0.39-0.18-0.39-0.39v-0.08h0.79V401.38z M-278.9,398.5h2.17l0.44,1.1h-3.04
		L-278.9,398.5z M-278.67,401.38c0,0.22-0.18,0.39-0.39,0.39c-0.22,0-0.39-0.18-0.39-0.39v-0.08h0.79V401.38z M-280.08,400.84v-0.39
		c0-0.22,0.18-0.39,0.39-0.39h3.72c0.22,0,0.39,0.18,0.39,0.39v0.39H-280.08z"/>
	<path class="st0" d="M-284.64,394.34h-6.82c-0.12,0-0.22,0.1-0.22,0.22V402c0,0.12,0.1,0.22,0.22,0.22h6.82
		c0.12,0,0.22-0.1,0.22-0.22v-7.44C-284.41,394.44-284.52,394.34-284.64,394.34z M-286.41,401.77h-0.48v-1.24h-0.45v1.24h-1.41
		v-1.24h-0.45v1.24h-0.48v-1.63c0-0.22,0.18-0.39,0.39-0.39h2.48c0.22,0,0.39,0.18,0.39,0.39V401.77z M-284.86,401.77h-1.1v-1.63
		c0-0.47-0.38-0.84-0.84-0.84h-2.48c-0.47,0-0.84,0.38-0.84,0.84v1.63h-1.1v-6.99h6.37V401.77z"/>
	<path class="st0" d="M-275.34,394.34h-8.06c-0.12,0-0.22,0.1-0.22,0.22v2.48c0,0.12,0.1,0.22,0.22,0.22h8.06
		c0.12,0,0.22-0.1,0.22-0.22v-2.48C-275.12,394.44-275.22,394.34-275.34,394.34z M-275.57,396.82h-7.61v-2.03h7.61V396.82z"/>
	<path class="st0" d="M-288.05,396.2c-0.64,0-1.15,0.52-1.15,1.15v0.62c0,0.64,0.52,1.15,1.15,1.15c0.64,0,1.15-0.52,1.15-1.15
		v-0.62C-286.89,396.71-287.41,396.2-288.05,396.2z M-287.34,397.97c0,0.39-0.32,0.7-0.7,0.7s-0.7-0.32-0.7-0.7v-0.62
		c0-0.39,0.32-0.7,0.7-0.7s0.7,0.32,0.7,0.7V397.97z"/>
	<rect x="-283.62" y="398.05" class="st0" width="2.62" height="0.45"/>
	<rect x="-283.62" y="399.29" class="st0" width="2.62" height="0.45"/>
	<rect x="-283.62" y="400.53" class="st0" width="2.62" height="0.45"/>
	<rect x="-283.62" y="401.77" class="st0" width="2.62" height="0.45"/>
	<rect x="-282.39" y="395.58" class="st0" width="6.03" height="0.45"/>
</g>
</svg>
