<?xml version="1.0" encoding="utf-8"?>
<!-- Generator: Adobe Illustrator 19.0.0, SVG Export Plug-In . SVG Version: 6.00 Build 0)  -->
<svg version="1.1" id="Layer_1" xmlns="http://www.w3.org/2000/svg" xmlns:xlink="http://www.w3.org/1999/xlink" x="0px" y="0px"
	 viewBox="-294 386.7 21.2 21.3" style="enable-background:new -294 386.7 21.2 21.3;" xml:space="preserve">
<style type="text/css">
	.st0{fill:#28336D;}
</style>
<g id="XMLID_191_">
	<g id="XMLID_333_">
		<circle id="XMLID_336_" class="st0" cx="-285.91" cy="397.35" r="0.74"/>
		<circle id="XMLID_335_" class="st0" cx="-283.45" cy="397.35" r="0.74"/>
		<circle id="XMLID_334_" class="st0" cx="-280.89" cy="397.35" r="0.74"/>
	</g>
	<g id="XMLID_330_">
		<path id="XMLID_352_" class="st0" d="M-274.49,394.06c-1.37-3.71-4.95-6.2-8.91-6.21c-3.45,0-6.64,1.88-8.31,4.9
			c-1.67,3.01-1.58,6.69,0.24,9.62l-1.39,3.56c-0.09,0.24-0.03,0.51,0.15,0.7c0.13,0.14,0.32,0.22,0.51,0.22
			c0.06,0,0.12-0.01,0.19-0.03l4.02-1.16c3.45,1.91,7.78,1.46,10.78-1.1C-274.21,401.99-273.12,397.77-274.49,394.06z
			 M-290.69,402.46c0.04-0.11,0.03-0.24-0.04-0.34c-2.18-3.36-1.81-7.76,0.91-10.7c2.72-2.94,7.07-3.67,10.6-1.76
			c3.52,1.91,5.29,5.96,4.31,9.84c-0.98,3.88-4.47,6.6-8.48,6.6h0c0,0-0.01,0-0.01,0c-1.52,0-3.03-0.4-4.35-1.16
			c-0.06-0.03-0.13-0.05-0.19-0.05c-0.03,0-0.07,0-0.1,0.01l-4.05,1.17L-290.69,402.46z"/>
		<path id="XMLID_351_" class="st0" d="M-285.11,390.25c-1.68,0.56-3.11,1.7-4.03,3.21c-0.07,0.11-0.19,0.18-0.32,0.18
			c0,0-0.01,0-0.01,0c-0.13,0-0.26-0.08-0.32-0.2c-0.06-0.12-0.06-0.26,0.01-0.38c1.01-1.66,2.59-2.92,4.43-3.54
			c0.1-0.03,0.2-0.02,0.29,0.02c0.09,0.05,0.16,0.12,0.19,0.22C-284.8,389.97-284.91,390.18-285.11,390.25z"/>
		<path id="XMLID_342_" class="st0" d="M-290.72,394.93l0.38-0.81c0.04-0.08,0.11-0.15,0.2-0.18c0.04-0.01,0.08-0.02,0.12-0.02
			c0.05,0,0.1,0.01,0.15,0.03c0.08,0.04,0.15,0.11,0.18,0.2s0.03,0.18-0.01,0.26l-0.38,0.81c-0.04,0.08-0.11,0.15-0.2,0.18
			c-0.09,0.03-0.18,0.03-0.26-0.01C-290.72,395.31-290.8,395.11-290.72,394.93z"/>
	</g>
</g>
</svg>
