<?xml version="1.0" encoding="utf-8"?>
<!-- Generator: Adobe Illustrator 24.3.0, SVG Export Plug-In . SVG Version: 6.00 Build 0)  -->
<svg version="1.1" id="Layer_1" xmlns="http://www.w3.org/2000/svg" xmlns:xlink="http://www.w3.org/1999/xlink" x="0px" y="0px"
	 viewBox="-294 386.7 21.2 21.3" style="enable-background:new -294 386.7 21.2 21.3;" xml:space="preserve">
<style type="text/css">
	.st0{fill:#28336D;}
</style>
<path class="st0" d="M-1956.28,7.65c0,1.16,0.94,2.1,2.1,2.1h5.1l0.06,0.17c0.47,1.31,1.7,2.19,3.08,2.19
	c1.37,0,2.61-0.88,3.08-2.19l0.06-0.17h10.2l0.06,0.17c0.47,1.31,1.7,2.19,3.08,2.19c1.37,0,2.61-0.88,3.08-2.19l0.06-0.17h5.1
	c1.16,0,2.1-0.94,2.1-2.1V-2.94c0-3.11-2.53-5.63-5.63-5.63h-6.28l-0.06-0.17c-0.47-1.31-1.7-2.19-3.08-2.19H-1953
	c-1.81,0-3.28,1.47-3.28,3.28V7.65z M-1920.98,0.84h-5.21v-1.43c0-0.79,0.64-1.43,1.43-1.43h3.78V0.84z M-1930.89-6.72h6.13
	c1.59,0,3.01,1.01,3.55,2.52l0.12,0.33h-3.67c-1.81,0-3.28,1.47-3.28,3.28v3.28h7.06V7.9h-5.35l-0.06-0.17
	c-0.47-1.31-1.7-2.19-3.08-2.19c-0.35,0-0.71,0.07-1.09,0.2l-0.33,0.12V-6.72z M-1929.46,7.4c0.79,0,1.43,0.64,1.43,1.43
	s-0.64,1.43-1.43,1.43s-1.43-0.64-1.43-1.43S-1930.25,7.4-1929.46,7.4z M-1945.94,10.25c-0.79,0-1.43-0.64-1.43-1.43
	s0.64-1.43,1.43-1.43s1.43,0.64,1.43,1.43S-1945.15,10.25-1945.94,10.25z M-1954.42-7.65c0-0.79,0.64-1.43,1.43-1.43h18.83
	c0.79,0,1.43,0.64,1.43,1.43V7.9h-10.06l-0.06-0.17c-0.47-1.31-1.7-2.19-3.08-2.19c-1.38,0-2.61,0.88-3.08,2.19l-0.06,0.17h-5.35
	V-7.65z"/>
<rect x="-1951.57" y="-6.22" class="st0" width="1.85" height="8.91"/>
<rect x="-1946.86" y="-6.22" class="st0" width="1.85" height="8.91"/>
<rect x="-1942.16" y="-6.22" class="st0" width="1.85" height="8.91"/>
<rect x="-1937.45" y="-6.22" class="st0" width="1.85" height="8.91"/>
<path class="st0" d="M-1957.7-60.35h-18.83c-1.37,0-2.61,0.88-3.08,2.19l-0.06,0.17h-6.28c-3.11,0-5.63,2.53-5.63,5.63v10.59
	c0,1.16,0.94,2.1,2.1,2.1h5.1l0.06,0.17c0.47,1.31,1.7,2.19,3.08,2.19s2.61-0.88,3.08-2.19l0.06-0.17h10.2l0.06,0.17
	c0.47,1.31,1.7,2.19,3.08,2.19s2.61-0.88,3.08-2.19l0.06-0.17h5.1c1.16,0,2.1-0.94,2.1-2.1v-15.3
	C-1954.42-58.88-1955.89-60.35-1957.7-60.35z M-1989.72-51.43h3.78c0.79,0,1.43,0.64,1.43,1.43v1.43h-5.21V-51.43z M-1981.23-39.17
	c-0.79,0-1.43-0.64-1.43-1.43s0.64-1.43,1.43-1.43s1.43,0.64,1.43,1.43S-1980.45-39.17-1981.23-39.17z M-1979.81-43.55l-0.33-0.12
	c-0.38-0.14-0.74-0.2-1.09-0.2c-1.37,0-2.61,0.88-3.08,2.19l-0.06,0.17h-5.35v-5.21h7.06v-3.28c0-1.81-1.47-3.28-3.28-3.28h-3.67
	l0.12-0.33c0.54-1.51,1.96-2.52,3.55-2.52h6.13V-43.55z M-1964.76-39.17c-0.79,0-1.43-0.64-1.43-1.43s0.64-1.43,1.43-1.43
	s1.43,0.64,1.43,1.43S-1963.98-39.17-1964.76-39.17z M-1956.28-41.52h-5.35l-0.06-0.17c-0.47-1.31-1.7-2.19-3.08-2.19
	c-1.37,0-2.61,0.88-3.08,2.19l-0.06,0.17h-10.06v-15.55c0-0.79,0.64-1.43,1.43-1.43h18.83c0.79,0,1.43,0.64,1.43,1.43V-41.52z"/>
<rect x="-1960.98" y="-55.64" class="st0" width="1.85" height="8.91"/>
<rect x="-1965.69" y="-55.64" class="st0" width="1.85" height="8.91"/>
<rect x="-1970.4" y="-55.64" class="st0" width="1.85" height="8.91"/>
<rect x="-1975.1" y="-55.64" class="st0" width="1.85" height="8.91"/>
<path class="st0" d="M-1947.11-34.46h-16.47c-1.16,0-2.1,0.94-2.1,2.1v16.47c0,1.16,0.94,2.1,2.1,2.1h16.47c1.16,0,2.1-0.94,2.1-2.1
	v-16.47C-1945.01-33.52-1945.95-34.46-1947.11-34.46z M-1956.78-32.61h2.85v2.85h-2.85V-32.61z M-1963.84-15.63v-16.97h5.21v4.71
	h6.56v-4.71h5.21l0,16.97H-1963.84z"/>
<rect x="-1951.57" y="-20.34" class="st0" width="1.85" height="1.85"/>
<rect x="-1956.28" y="-20.34" class="st0" width="1.85" height="1.85"/>
<rect x="-1942.16" y="-25.05" class="st0" width="1.85" height="1.85"/>
<rect x="-1937.45" y="-25.05" class="st0" width="1.85" height="1.85"/>
<path class="st0" d="M-1919.12-37.06c0-7.65-6.22-13.87-13.87-13.87h-14.24l2.95-2.95l-1.31-1.31l-5.19,5.18l5.19,5.19l1.31-1.31
	l-2.95-2.95h14.24c6.63,0,12.02,5.39,12.02,12.02c0,6.54-5.26,11.88-11.77,12.01v1.85C-1925.21-23.33-1919.12-29.5-1919.12-37.06z"
	/>
<rect x="-1970.4" y="-25.05" class="st0" width="1.85" height="1.85"/>
<rect x="-1975.1" y="-25.05" class="st0" width="1.85" height="1.85"/>
<path class="st0" d="M-1959.92,1.76l-5.19-5.19l-1.31,1.31l2.95,2.95h-14.24c-6.63,0-12.02-5.39-12.02-12.02
	c0-6.54,5.26-11.88,11.77-12.01v-1.85c-7.53,0.13-13.62,6.3-13.62,13.87c0,7.65,6.22,13.87,13.87,13.87h14.24l-2.95,2.95l1.31,1.31
	L-1959.92,1.76z"/>
<g>
	<path class="st0" d="M-273.66,398.99v-5.68c0-0.87-0.71-1.57-1.57-1.57h-16.33c-0.87,0-1.57,0.71-1.57,1.57v5.68
		c0,0.87,0.71,1.57,1.57,1.57h12.69l3.46,2.41v-2.41l0.19,0C-274.36,400.56-273.66,399.85-273.66,398.99z M-275.23,400.19h-0.56
		v2.07l-2.97-2.07h-12.81c-0.66,0-1.2-0.54-1.2-1.2v-5.68c0-0.66,0.54-1.2,1.2-1.2h16.33c0.66,0,1.2,0.54,1.2,1.2v5.68
		C-274.03,399.65-274.57,400.19-275.23,400.19z"/>
	<path class="st0" d="M-285.44,396.08c-0.05-0.16-0.18-0.27-0.35-0.29l-0.52-0.08c-0.03,0-0.05-0.02-0.06-0.04l-0.23-0.47
		c-0.07-0.15-0.22-0.24-0.39-0.24c-0.17,0-0.31,0.09-0.39,0.24l-0.23,0.47c-0.01,0.02-0.03,0.04-0.06,0.04l-0.52,0.08
		c-0.16,0.02-0.3,0.14-0.35,0.29c-0.05,0.16-0.01,0.33,0.11,0.44l0.38,0.37c0.02,0.02,0.03,0.04,0.02,0.07l-0.09,0.52
		c-0.03,0.16,0.04,0.33,0.17,0.42c0.13,0.1,0.31,0.11,0.46,0.03l0.47-0.25c0.01-0.01,0.02-0.01,0.04-0.01s0.02,0,0.04,0.01
		l0.47,0.25c0.14,0.08,0.32,0.06,0.46-0.03c0.13-0.1,0.2-0.26,0.17-0.42l-0.09-0.52c0-0.03,0-0.05,0.02-0.07l0.38-0.37
		C-285.43,396.41-285.39,396.24-285.44,396.08z M-285.79,396.27l-0.38,0.37c-0.1,0.1-0.15,0.24-0.12,0.38l0.09,0.52
		c0.01,0.04-0.02,0.07-0.03,0.08c-0.01,0.01-0.03,0.02-0.05,0.02c-0.01,0-0.02,0-0.04-0.01l-0.47-0.25c-0.12-0.06-0.28-0.07-0.4,0
		l-0.47,0.25c-0.04,0.02-0.07,0-0.08-0.01c-0.01-0.01-0.04-0.03-0.03-0.08l0.09-0.52c0.02-0.14-0.02-0.28-0.12-0.38l-0.38-0.37
		c-0.03-0.03-0.03-0.06-0.02-0.08c0.01-0.02,0.02-0.05,0.06-0.05l0.52-0.08c0.14-0.02,0.26-0.11,0.33-0.24l0.23-0.47
		c0.02-0.04,0.06-0.04,0.07-0.04c0.02,0,0.05,0.01,0.07,0.04l0.23,0.47c0.06,0.13,0.18,0.22,0.33,0.24l0.52,0.08
		c0.04,0.01,0.06,0.04,0.06,0.05C-285.77,396.21-285.76,396.24-285.79,396.27z"/>
	<path class="st0" d="M-289.06,396.08c-0.05-0.16-0.18-0.27-0.35-0.29l-0.52-0.08c-0.03,0-0.05-0.02-0.06-0.04l-0.23-0.47
		c-0.07-0.15-0.22-0.24-0.39-0.24c-0.17,0-0.31,0.09-0.39,0.24l-0.23,0.47c-0.01,0.02-0.03,0.04-0.06,0.04l-0.52,0.08
		c-0.16,0.02-0.3,0.14-0.35,0.29c-0.05,0.16-0.01,0.33,0.11,0.44l0.38,0.37c0.02,0.02,0.03,0.04,0.02,0.07l-0.09,0.52
		c-0.03,0.16,0.04,0.33,0.17,0.42c0.13,0.1,0.31,0.11,0.46,0.03l0.47-0.25c0.01-0.01,0.02-0.01,0.04-0.01c0.01,0,0.02,0,0.04,0.01
		l0.47,0.25c0.14,0.08,0.32,0.06,0.46-0.03c0.13-0.1,0.2-0.26,0.17-0.42h0l-0.09-0.52c0-0.03,0-0.05,0.02-0.07l0.38-0.37
		C-289.05,396.41-289.01,396.24-289.06,396.08z M-289.41,396.27l-0.38,0.37c-0.1,0.1-0.15,0.24-0.12,0.38l0.09,0.52
		c0.01,0.04-0.02,0.07-0.03,0.08c-0.01,0.01-0.03,0.02-0.05,0.02c-0.01,0-0.02,0-0.04-0.01l-0.47-0.25c-0.12-0.06-0.28-0.06-0.4,0
		l-0.47,0.25c-0.04,0.02-0.07,0-0.08-0.01c-0.01-0.01-0.04-0.03-0.03-0.08l0.09-0.52c0.02-0.14-0.02-0.28-0.12-0.38l-0.38-0.37
		c-0.03-0.03-0.02-0.07-0.02-0.08c0.01-0.03,0.03-0.05,0.06-0.05l0.52-0.08c0.14-0.02,0.26-0.11,0.33-0.24l0.23-0.47
		c0.02-0.04,0.05-0.04,0.07-0.04c0.01,0,0.05,0,0.07,0.04l0.23,0.47c0.06,0.13,0.18,0.22,0.33,0.24l0.52,0.08
		c0.04,0.01,0.06,0.04,0.06,0.05C-289.39,396.21-289.38,396.24-289.41,396.27z"/>
	<path class="st0" d="M-281.81,396.08c-0.05-0.16-0.18-0.27-0.35-0.29l-0.52-0.08c-0.03,0-0.05-0.02-0.06-0.04l-0.23-0.47
		c-0.07-0.15-0.22-0.24-0.39-0.24c-0.17,0-0.31,0.09-0.39,0.24l-0.23,0.47c-0.01,0.02-0.03,0.04-0.06,0.04l-0.52,0.08
		c-0.16,0.02-0.3,0.14-0.35,0.29c-0.05,0.16-0.01,0.33,0.11,0.44l0.38,0.37c0.02,0.02,0.03,0.04,0.02,0.07l-0.09,0.52
		c-0.03,0.16,0.04,0.33,0.17,0.42c0.13,0.1,0.31,0.11,0.46,0.03l0.47-0.25c0.01-0.01,0.02-0.01,0.04-0.01c0.01,0,0.02,0,0.04,0.01
		l0.47,0.25c0.14,0.08,0.32,0.06,0.46-0.03c0.13-0.1,0.2-0.26,0.17-0.42l-0.09-0.52c0-0.03,0-0.05,0.02-0.07l0.38-0.37
		C-281.81,396.41-281.76,396.24-281.81,396.08z M-282.17,396.27l-0.38,0.37c-0.1,0.1-0.15,0.24-0.12,0.38l0.09,0.52
		c0.01,0.04-0.02,0.07-0.03,0.08c-0.01,0.01-0.03,0.02-0.05,0.02c-0.01,0-0.02,0-0.04-0.01l-0.47-0.25c-0.12-0.06-0.28-0.07-0.4,0
		l-0.47,0.25c-0.04,0.02-0.07,0-0.08-0.01c-0.01-0.01-0.04-0.03-0.03-0.08l0.09-0.52c0.02-0.14-0.02-0.28-0.12-0.38l-0.38-0.37
		c-0.03-0.03-0.03-0.06-0.02-0.08c0.01-0.03,0.03-0.05,0.06-0.05l0.52-0.08c0.14-0.02,0.26-0.11,0.33-0.24l0.23-0.47
		c0.02-0.04,0.06-0.04,0.07-0.04c0.02,0,0.05,0.01,0.07,0.04l0.23,0.47c0.06,0.13,0.18,0.22,0.33,0.24l0.52,0.08
		c0.04,0.01,0.06,0.04,0.06,0.05C-282.15,396.21-282.14,396.24-282.17,396.27z"/>
	<path class="st0" d="M-278.19,396.08c-0.05-0.16-0.18-0.27-0.35-0.29l-0.52-0.08c-0.03,0-0.05-0.02-0.06-0.04l-0.23-0.47
		c-0.07-0.15-0.22-0.24-0.39-0.24c-0.17,0-0.31,0.09-0.39,0.24l-0.23,0.47c-0.01,0.02-0.03,0.04-0.06,0.04l-0.52,0.08
		c-0.16,0.02-0.3,0.14-0.35,0.29c-0.05,0.16-0.01,0.33,0.11,0.44l0.38,0.37c0.02,0.02,0.03,0.04,0.02,0.07l-0.09,0.52
		c-0.03,0.16,0.04,0.33,0.17,0.42c0.13,0.1,0.31,0.11,0.46,0.03l0.47-0.25c0.01-0.01,0.02-0.01,0.04-0.01s0.02,0,0.04,0.01
		l0.47,0.25c0.14,0.08,0.32,0.06,0.46-0.03c0.13-0.1,0.2-0.26,0.17-0.42l-0.09-0.52c0-0.03,0-0.05,0.02-0.07l0.38-0.37
		C-278.18,396.41-278.14,396.24-278.19,396.08z M-278.55,396.27l-0.38,0.37c-0.1,0.1-0.15,0.24-0.12,0.38l0.09,0.52
		c0.01,0.04-0.02,0.07-0.03,0.08c-0.01,0.01-0.03,0.02-0.05,0.02c-0.01,0-0.02,0-0.04-0.01l-0.47-0.25c-0.12-0.06-0.28-0.07-0.4,0
		l-0.47,0.25c-0.04,0.02-0.07,0-0.08-0.01c-0.03-0.02-0.04-0.05-0.03-0.08l0.09-0.52c0.02-0.14-0.02-0.28-0.12-0.38l-0.38-0.37
		c-0.03-0.03-0.03-0.06-0.02-0.08c0.01-0.02,0.02-0.05,0.06-0.05l0.52-0.08c0.14-0.02,0.26-0.11,0.33-0.24l0.23-0.47
		c0.02-0.04,0.06-0.04,0.07-0.04c0.02,0,0.05,0.01,0.07,0.04l0.23,0.47c0.06,0.13,0.18,0.22,0.33,0.24l0.52,0.08
		c0.04,0.01,0.06,0.04,0.06,0.05C-278.53,396.21-278.52,396.24-278.55,396.27z"/>
	<path class="st0" d="M-274.57,396.08c-0.05-0.16-0.18-0.27-0.35-0.29l-0.52-0.08c-0.03,0-0.05-0.02-0.06-0.04l-0.23-0.47
		c-0.07-0.15-0.22-0.24-0.39-0.24c-0.17,0-0.31,0.09-0.39,0.24l-0.23,0.47c-0.01,0.02-0.03,0.04-0.06,0.04l-0.52,0.08
		c-0.16,0.02-0.3,0.14-0.35,0.29c-0.05,0.16-0.01,0.33,0.11,0.44l0.38,0.37c0.02,0.02,0.03,0.04,0.02,0.07l-0.09,0.52
		c-0.03,0.16,0.04,0.33,0.17,0.42c0.13,0.1,0.31,0.11,0.46,0.03l0.47-0.25c0.01-0.01,0.02-0.01,0.04-0.01c0.01,0,0.02,0,0.04,0.01
		l0.47,0.25c0.14,0.08,0.32,0.06,0.46-0.03c0.13-0.1,0.2-0.26,0.17-0.42l-0.09-0.52c0-0.03,0-0.05,0.02-0.07l0.38-0.37
		C-274.56,396.41-274.52,396.24-274.57,396.08z M-274.93,396.27l-0.38,0.37c-0.1,0.1-0.15,0.24-0.12,0.38l0.09,0.52
		c0.01,0.04-0.02,0.07-0.03,0.08c-0.01,0.01-0.03,0.02-0.05,0.02c-0.01,0-0.02,0-0.04-0.01l-0.47-0.25c-0.12-0.06-0.28-0.07-0.4,0
		l-0.47,0.25c-0.04,0.02-0.07,0-0.08-0.01c-0.01-0.01-0.04-0.03-0.03-0.08l0.09-0.52c0.02-0.14-0.02-0.28-0.12-0.38l-0.38-0.37
		c-0.03-0.03-0.03-0.06-0.02-0.08c0.01-0.03,0.03-0.05,0.06-0.05l0.52-0.08c0.14-0.02,0.26-0.11,0.33-0.24l0.23-0.47
		c0.02-0.04,0.06-0.04,0.07-0.04c0.01,0,0.05,0,0.07,0.04l0.23,0.47c0.06,0.13,0.18,0.22,0.33,0.24l0.52,0.08
		c0.04,0.01,0.06,0.04,0.06,0.05C-274.9,396.21-274.9,396.24-274.93,396.27z"/>
</g>
</svg>
