<?xml version="1.0" encoding="utf-8"?>
<!-- Generator: Adobe Illustrator 24.3.0, SVG Export Plug-In . SVG Version: 6.00 Build 0)  -->
<svg version="1.1" id="Layer_1" xmlns="http://www.w3.org/2000/svg" xmlns:xlink="http://www.w3.org/1999/xlink" x="0px" y="0px"
	 viewBox="-294 386.7 21.2 21.3" style="enable-background:new -294 386.7 21.2 21.3;" xml:space="preserve">
<style type="text/css">
	.st0{fill:#28336D;}
</style>
<g>
	<path class="st0" d="M-274.7,387.81h-3.72c-0.15,0-0.28,0.13-0.28,0.28s0.13,0.28,0.28,0.28h3.72c0.15,0,0.28,0.13,0.28,0.28v5.63
		c0,0.15-0.13,0.28-0.28,0.28h-7.7v-0.13c0-0.55-0.44-0.99-0.99-0.99c-0.55,0-0.99,0.44-0.99,0.99v0.13h-2.85
		c-0.15,0-0.28,0.13-0.28,0.28c0,0.15,0.13,0.28,0.28,0.28h2.85v4.93l-0.66-0.75c-0.41-0.46-1-0.72-1.62-0.72
		c-0.23,0-0.44,0.12-0.55,0.32s-0.12,0.44-0.01,0.64l1.11,2.05c0.28,0.51,0.63,0.97,1.05,1.37l1.19,1.13v0.6
		c-0.29,0.06-0.51,0.32-0.51,0.63v0.93c0,0.35,0.29,0.64,0.64,0.64h4.41c0.35,0,0.64-0.29,0.64-0.64v-0.93
		c0-0.3-0.21-0.55-0.49-0.62v-0.62c0.26-0.32,1.05-1.5,1.05-3.77v-1.71c0-0.55-0.44-0.99-0.99-0.99c-0.18,0-0.35,0.05-0.5,0.14
		c-0.15-0.37-0.5-0.62-0.92-0.62c-0.18,0-0.35,0.05-0.5,0.14c-0.15-0.37-0.5-0.62-0.92-0.62c-0.15,0-0.3,0.04-0.43,0.1v-1.59h7.7
		c0.46,0,0.84-0.38,0.84-0.84v-5.63C-273.86,388.19-274.24,387.81-274.7,387.81L-274.7,387.81z M-281.98,397.18
		c0.24,0,0.43,0.19,0.43,0.43v0.49c0,0.15,0.13,0.28,0.28,0.28s0.28-0.13,0.28-0.28c0-0.24,0.19-0.43,0.43-0.43
		c0.24,0,0.43,0.19,0.43,0.43v0.49c0,0.15,0.13,0.28,0.28,0.28s0.28-0.13,0.28-0.28c0-0.24,0.19-0.43,0.43-0.43s0.43,0.19,0.43,0.43
		v1.71c0,2.4-0.96,3.47-0.97,3.48c-0.05,0.05-0.08,0.12-0.08,0.19v0.71h-0.68c-0.15,0-0.28,0.13-0.28,0.28s0.13,0.28,0.28,0.28h1.09
		c0.04,0,0.08,0.04,0.08,0.08v0.93c0,0.04-0.04,0.08-0.08,0.08h-4.41c-0.04,0-0.08-0.04-0.08-0.08v-0.93c0-0.04,0.04-0.08,0.08-0.08
		h2.21c0.15,0,0.28-0.13,0.28-0.28s-0.13-0.28-0.28-0.28h-1.78v-0.71c0-0.08-0.03-0.15-0.09-0.2l-1.28-1.21
		c-0.38-0.36-0.69-0.77-0.94-1.23l-1.11-2.05c-0.03-0.07,0-0.11,0.07-0.13c0.46,0,0.89,0.2,1.2,0.54l1.14,1.28
		c0.16,0.19,0.51,0.07,0.5-0.19v-6.35c0-0.24,0.19-0.43,0.43-0.43s0.43,0.19,0.43,0.43v3.18c0,0.15,0.13,0.28,0.28,0.28
		s0.28-0.13,0.28-0.28C-282.41,397.38-282.21,397.18-281.98,397.18L-281.98,397.18z"/>
	<path class="st0" d="M-288.36,394.57h-3.74c-0.15,0-0.28-0.13-0.28-0.28v-5.63c0-0.15,0.13-0.28,0.28-0.28h12.56
		c0.15,0,0.28-0.13,0.28-0.28s-0.13-0.28-0.28-0.28h-12.56c-0.46,0-0.84,0.38-0.84,0.84v5.63c0,0.46,0.38,0.84,0.84,0.84h3.74
		c0.15,0,0.28-0.13,0.28-0.28S-288.2,394.57-288.36,394.57L-288.36,394.57z"/>
	<path class="st0" d="M-281.56,391.26c0.16-0.16,0.22-0.4,0.15-0.61s-0.26-0.37-0.48-0.41l-0.65-0.09c-0.01,0-0.02-0.01-0.03-0.02
		l-0.29-0.59c-0.1-0.21-0.31-0.33-0.54-0.33c-0.23,0-0.44,0.13-0.54,0.33l-0.29,0.59c-0.01,0.01-0.02,0.02-0.03,0.02l-0.65,0.09
		c-0.23,0.03-0.41,0.19-0.48,0.41c-0.07,0.22-0.01,0.45,0.15,0.61l0.47,0.46c0.01,0.01,0.01,0.02,0.01,0.03l-0.11,0.65
		c-0.04,0.23,0.05,0.45,0.24,0.59c0.19,0.14,0.43,0.15,0.63,0.05l0.58-0.31c0.01-0.01,0.03-0.01,0.04,0l0.58,0.31
		c0.09,0.05,0.18,0.07,0.28,0.07c0.12,0,0.25-0.04,0.35-0.12c0.19-0.14,0.28-0.36,0.24-0.59l-0.11-0.65c0-0.01,0-0.03,0.01-0.03
		L-281.56,391.26z M-282.42,391.32c-0.14,0.14-0.21,0.34-0.17,0.53l0.11,0.65c0,0.01,0,0.02-0.02,0.04c-0.02,0.01-0.04,0.01-0.04,0
		l-0.58-0.31c-0.09-0.05-0.18-0.07-0.28-0.07c-0.1,0-0.19,0.02-0.28,0.07l-0.58,0.31c-0.01,0-0.02,0.01-0.04,0
		c-0.02-0.01-0.02-0.03-0.02-0.04l0.11-0.65c0.03-0.19-0.03-0.39-0.17-0.53l-0.47-0.46c0,0-0.02-0.02-0.01-0.04
		c0.01-0.02,0.03-0.03,0.03-0.03l0.65-0.09c0.2-0.03,0.36-0.15,0.45-0.33l0.29-0.59c0-0.01,0.01-0.02,0.04-0.02
		c0.02,0,0.03,0.02,0.04,0.02l0.29,0.59c0.09,0.18,0.26,0.3,0.45,0.33l0.65,0.09c0.01,0,0.02,0,0.03,0.03
		c0.01,0.02-0.01,0.04-0.01,0.04L-282.42,391.32z"/>
	<path class="st0" d="M-287.51,392.4l-0.11-0.65c0-0.01,0-0.03,0.01-0.03l0.47-0.46c0.16-0.16,0.22-0.4,0.15-0.61
		c-0.07-0.22-0.26-0.37-0.48-0.41l-0.65-0.09c-0.01,0-0.02-0.01-0.03-0.02l-0.29-0.59c-0.1-0.21-0.31-0.33-0.54-0.33
		c-0.23,0-0.44,0.13-0.54,0.33l-0.29,0.59c-0.01,0.01-0.02,0.02-0.03,0.02l-0.65,0.09c-0.23,0.03-0.41,0.19-0.48,0.41
		c-0.07,0.22-0.01,0.45,0.15,0.61l0.47,0.46c0.01,0.01,0.01,0.02,0.01,0.03l-0.11,0.65c-0.04,0.23,0.05,0.45,0.24,0.59
		c0.19,0.14,0.43,0.15,0.63,0.05l0.58-0.31c0.01-0.01,0.03-0.01,0.04,0l0.58,0.31c0.09,0.05,0.18,0.07,0.28,0.07
		c0.12,0,0.25-0.04,0.35-0.12C-287.56,392.86-287.47,392.63-287.51,392.4L-287.51,392.4z M-288,391.32
		c-0.14,0.14-0.21,0.34-0.17,0.53l0.11,0.65c0,0.01,0,0.02-0.02,0.04c-0.02,0.01-0.04,0.01-0.04,0l-0.58-0.31
		c-0.09-0.05-0.18-0.07-0.28-0.07s-0.19,0.02-0.28,0.07l-0.58,0.31c-0.01,0-0.02,0.01-0.04,0c-0.02-0.01-0.02-0.03-0.02-0.04
		l0.11-0.65c0.03-0.19-0.03-0.39-0.17-0.53l-0.47-0.46c0,0-0.02-0.02-0.01-0.04c0.01-0.02,0.03-0.03,0.03-0.03l0.65-0.09
		c0.2-0.03,0.36-0.15,0.45-0.33l0.29-0.59c0-0.01,0.01-0.02,0.04-0.02s0.03,0.02,0.04,0.02l0.29,0.59c0.09,0.18,0.26,0.3,0.45,0.33
		l0.65,0.09c0.01,0,0.02,0,0.03,0.03c0.01,0.02-0.01,0.04-0.01,0.04L-288,391.32z"/>
	<path class="st0" d="M-275.98,391.26c0.16-0.16,0.22-0.4,0.15-0.61c-0.07-0.22-0.26-0.37-0.48-0.41l-0.65-0.09
		c-0.01,0-0.02-0.01-0.03-0.02l-0.29-0.59c-0.1-0.21-0.31-0.33-0.54-0.33c-0.23,0-0.44,0.13-0.54,0.33l-0.29,0.59
		c-0.01,0.01-0.02,0.02-0.03,0.02l-0.65,0.09c-0.23,0.03-0.41,0.19-0.48,0.41c-0.07,0.22-0.01,0.45,0.15,0.61l0.47,0.46
		c0.01,0.01,0.01,0.02,0.01,0.03l-0.11,0.65c-0.04,0.23,0.05,0.45,0.24,0.59c0.19,0.14,0.43,0.15,0.63,0.05l0.58-0.31
		c0.01-0.01,0.03-0.01,0.04,0l0.58,0.31c0.09,0.05,0.18,0.07,0.28,0.07c0.12,0,0.25-0.04,0.35-0.12c0.19-0.14,0.28-0.36,0.24-0.59
		l-0.11-0.65c0-0.01,0-0.03,0.01-0.03L-275.98,391.26z M-276.84,391.32c-0.14,0.14-0.21,0.34-0.17,0.53l0.11,0.65
		c0,0.01,0,0.02-0.02,0.04c-0.02,0.01-0.04,0.01-0.04,0l-0.58-0.31c-0.09-0.05-0.18-0.07-0.28-0.07s-0.19,0.02-0.28,0.07l-0.58,0.31
		c-0.01,0-0.02,0.01-0.04,0c-0.02-0.01-0.02-0.03-0.02-0.04l0.11-0.65c0.03-0.19-0.03-0.39-0.17-0.53l-0.47-0.46
		c0,0-0.02-0.02-0.01-0.04c0.01-0.02,0.03-0.03,0.03-0.03l0.65-0.09c0.2-0.03,0.36-0.15,0.45-0.33l0.29-0.59
		c0-0.01,0.01-0.02,0.04-0.02s0.03,0.02,0.04,0.02l0.29,0.59c0.09,0.18,0.26,0.3,0.45,0.33l0.65,0.09c0.01,0,0.02,0,0.03,0.03
		c0.01,0.02-0.01,0.04-0.01,0.04L-276.84,391.32z"/>
</g>
</svg>
