<?xml version="1.0" encoding="utf-8"?>
<!-- Generator: Adobe Illustrator 19.0.0, SVG Export Plug-In . SVG Version: 6.00 Build 0)  -->
<svg version="1.1" id="Layer_1" xmlns="http://www.w3.org/2000/svg" xmlns:xlink="http://www.w3.org/1999/xlink" x="0px" y="0px"
	 viewBox="-294 386.7 21.2 21.3" style="enable-background:new -294 386.7 21.2 21.3;" xml:space="preserve">
<style type="text/css">
	.st0{fill:#28336D;}
</style>
<g id="XMLID_545_">
	<g id="XMLID_546_">
		<g id="XMLID_547_">
			<path id="XMLID_543_" class="st0" d="M-278.41,403.85l-3.22-2.14c-0.14-0.09-0.34-0.06-0.44,0.07l-0.94,1.2
				c-0.3,0.4-0.85,0.51-1.29,0.27l-0.17-0.1c-0.62-0.34-1.4-0.76-2.95-2.31s-1.97-2.32-2.31-2.95l-0.1-0.17
				c-0.24-0.43-0.13-0.98,0.27-1.29l1.2-0.94c0.14-0.11,0.17-0.3,0.07-0.44l-2.14-3.22c-0.1-0.15-0.29-0.19-0.44-0.1l-1.35,0.81
				c-0.29,0.17-0.5,0.44-0.59,0.76c-0.44,1.61-0.07,4.43,4.21,8.71c4.28,4.28,7.1,4.65,8.71,4.21c0.32-0.09,0.6-0.3,0.76-0.59
				l0.81-1.35C-278.22,404.14-278.26,403.95-278.41,403.85z"/>
			<path id="XMLID_548_" class="st0" d="M-273.92,388.38c-0.04-0.04-0.08-0.05-0.13-0.05h-14.27c-0.05,0-0.1,0.02-0.13,0.05
				s-0.05,0.08-0.05,0.13v4.96l0.81,1.21c0.29,0.44,0.2,1.03-0.22,1.36l-1.2,0.94c-0.13,0.1-0.17,0.27-0.09,0.42l0.1,0.18
				c0.31,0.59,0.69,1.15,1.14,1.66h13.93c0.1,0,0.19-0.08,0.19-0.18v-10.54C-273.86,388.46-273.88,388.41-273.92,388.38z
				 M-283.6,394.57L-283.6,394.57l-3.49,3.74c-0.13,0.14-0.34,0.15-0.48,0.02c-0.14-0.13-0.15-0.34-0.02-0.48l3.49-3.74
				c0.13-0.14,0.34-0.15,0.48-0.02C-283.48,394.22-283.47,394.44-283.6,394.57z M-281.19,394.31c-0.25,0-0.48-0.08-0.68-0.22
				l-5.69-4.32c-0.15-0.11-0.18-0.33-0.06-0.48c0.11-0.15,0.33-0.18,0.48-0.06l5.69,4.32c0.16,0.12,0.38,0.12,0.54,0l5.69-4.32
				c0.15-0.11,0.36-0.08,0.48,0.07c0.11,0.15,0.08,0.36-0.07,0.48l-5.69,4.32C-280.7,394.23-280.94,394.31-281.19,394.31z
				 M-274.79,398.33c-0.07,0.06-0.15,0.09-0.24,0.09s-0.18-0.04-0.24-0.11l-3.49-3.74c-0.12-0.14-0.11-0.35,0.03-0.47
				c0.13-0.12,0.34-0.12,0.47,0.01l3.49,3.74C-274.64,397.98-274.65,398.2-274.79,398.33z"/>
		</g>
	</g>
</g>
</svg>
