<?xml version="1.0" encoding="utf-8"?>
<!-- Generator: Adobe Illustrator 19.0.0, SVG Export Plug-In . SVG Version: 6.00 Build 0)  -->
<svg version="1.1" id="Layer_1" xmlns="http://www.w3.org/2000/svg" xmlns:xlink="http://www.w3.org/1999/xlink" x="0px" y="0px"
	 viewBox="-294 386.7 21.2 21.3" style="enable-background:new -294 386.7 21.2 21.3;" xml:space="preserve">
<style type="text/css">
	.st0{fill:#28336D;}
</style>
<g>
	<path id="XMLID_67_" class="st0" d="M-274.03,406.17l-2.07-2.06l0.05-0.07c0.41-0.58,0.57-1.28,0.45-1.98
		c-0.12-0.7-0.5-1.31-1.08-1.72c-0.58-0.41-1.28-0.57-1.98-0.45c-0.7,0.12-1.31,0.5-1.72,1.08c-0.41,0.58-0.57,1.28-0.45,1.98
		c0.12,0.7,0.5,1.31,1.08,1.71c0.85,0.6,1.98,0.65,2.88,0.12l0.07-0.04l0.03,0.03l2.05,2.04c0.09,0.1,0.21,0.15,0.35,0.15
		c0.12,0,0.24-0.05,0.32-0.13c0.09-0.09,0.15-0.21,0.15-0.33C-273.89,406.39-273.94,406.26-274.03,406.17z M-278.15,404.39v0.04
		l-0.12,0l0-0.04c-1.01-0.03-1.81-0.86-1.82-1.87c0-1.03,0.84-1.87,1.87-1.88c1.03,0,1.87,0.84,1.87,1.87
		C-276.34,403.53-277.15,404.36-278.15,404.39z"/>
	<path id="XMLID_71_" class="st0" d="M-281.44,403.73h-1.38l-0.18-0.92l1.6-2.2c0.11,0.02,0.22,0.05,0.33,0.07
		c0.14-0.23,0.29-0.45,0.47-0.65c-0.11-0.02-0.22-0.06-0.32-0.08l0.01-0.02c0.09-0.09,0.12-0.21,0.08-0.32l-0.25-0.99
		c0.69-0.99,1.08-2.2,1.08-3.35v-1h0.73c0.22,0,0.38-0.16,0.38-0.38c0-0.22-0.16-0.38-0.38-0.38h-0.17v-0.17
		c0-2.19-1.44-4.07-3.59-4.71c-0.01-0.5-0.42-0.91-0.93-0.91h-1.1c-0.51,0-0.92,0.41-0.93,0.91c-2.15,0.64-3.59,2.52-3.59,4.71v0.17
		h-0.17c-0.22,0-0.38,0.16-0.38,0.38c0,0.22,0.16,0.38,0.38,0.38h0.73v1c0,1.14,0.39,2.36,1.08,3.35l-0.25,1.01
		c0,0.07,0,0.21,0.08,0.28l0.02,0.03c-1.09,0.21-2.3,0.68-3.9,1.53c-0.55,0.26-0.89,0.81-0.89,1.44v1.19c0,0.22,0.15,0.38,0.38,0.38
		h11.4C-281.26,404.25-281.36,404-281.44,403.73z M-281.92,390.02c0.3,0.22,0.56,0.47,0.77,0.72l-0.96,0.19L-281.92,390.02z
		 M-287.13,390.02l0.19,0.91l-0.96-0.19C-287.69,390.49-287.42,390.24-287.13,390.02z M-288.84,393.27
		c0.01-0.64,0.17-1.28,0.47-1.84l1.86,0.36h0.06c0.08,0,0.14-0.02,0.21-0.04l0.05-0.02l0.02-0.01c0.12-0.08,0.17-0.23,0.13-0.35
		l-0.36-1.77c0.13-0.06,0.27-0.12,0.41-0.16v0.6c0,0.22,0.15,0.38,0.38,0.38c0.22,0,0.38-0.16,0.38-0.38v-1.38
		c0-0.08,0.07-0.17,0.17-0.17h1.1c0.08,0,0.17,0.07,0.17,0.17v1.38c0,0.22,0.16,0.38,0.38,0.38s0.38-0.16,0.38-0.38v-0.6
		c0.15,0.05,0.29,0.11,0.43,0.17l-0.36,1.75c0,0.1,0.03,0.24,0.11,0.32c0.08,0.08,0.16,0.11,0.26,0.11l0.08,0l1.82-0.38
		c0.32,0.59,0.48,1.26,0.48,1.94v0.17h-8.63V393.27z M-288.29,395.28v-1h7.53v1c0,1.08-0.35,2.15-0.99,3l-0.12,0.11
		c-0.14,0.18-0.28,0.35-0.43,0.49c-0.64,0.59-1.38,0.94-2.09,0.98c-0.09-0.03-0.19-0.03-0.27,0c-0.43-0.02-0.87-0.16-1.3-0.4
		c-0.44-0.25-0.85-0.62-1.23-1.08l-0.08-0.08l-0.02-0.02C-287.93,397.43-288.29,396.36-288.29,395.28z M-283.99,402.35h-1.04
		l0.51-1.17L-283.99,402.35z M-286.22,403.73h-5.93v-0.81c0-0.33,0.18-0.62,0.47-0.77c1.71-0.91,2.96-1.38,4.06-1.53l1.59,2.18
		L-286.22,403.73z M-287.13,400.01c-0.01-0.01-0.02-0.02-0.02-0.02h0l-0.28-0.38l0.06-0.27c0.67,0.67,1.45,1.1,2.27,1.23l-0.62,1.39
		L-287.13,400.01z M-285.44,403.73l0.13-0.63h1.58l0.12,0.63H-285.44z M-283.96,400.58c0.81-0.13,1.59-0.55,2.25-1.21l0.02-0.02
		l0.06,0.27l-0.25,0.34c-0.02,0.02-0.04,0.04-0.06,0.06l-1.41,1.95L-283.96,400.58z"/>
</g>
</svg>
