<?xml version="1.0" encoding="utf-8"?>
<!-- Generator: Adobe Illustrator 19.0.0, SVG Export Plug-In . SVG Version: 6.00 Build 0)  -->
<svg version="1.1" id="Layer_1" xmlns="http://www.w3.org/2000/svg" xmlns:xlink="http://www.w3.org/1999/xlink" x="0px" y="0px"
	 viewBox="-294 386.7 21.2 21.3" style="enable-background:new -294 386.7 21.2 21.3;" xml:space="preserve">
<style type="text/css">
	.st0{fill:#28336D;}
</style>
<g>
	<path class="st0" d="M-273.86,399.38l-0.59-0.24l-1.19,2.98h0.69L-273.86,399.38z"/>
	<path class="st0" d="M-279.57,391.3h0.64v1.91h-0.64V391.3z"/>
	<path class="st0" d="M-278.3,391.94h0.64v1.27h-0.64V391.94z"/>
	<path class="st0" d="M-280.84,391.94h0.64v1.27h-0.64V391.94z"/>
	<path class="st0" d="M-285.3,394.8c0.35,0,0.64-0.29,0.64-0.64c0-0.35-0.29-0.64-0.64-0.64V394.8z"/>
	<path class="st0" d="M-286.89,398.08l-0.56,0.84l0.56,0.7V398.08z"/>
	<path class="st0" d="M-284.66,392.58h-0.64v0.32c0.23,0,0.45,0.07,0.64,0.18V392.58z"/>
	<path class="st0" d="M-284.03,391.94v-0.64h-7.64h0l0,0.64H-284.03z"/>
	<path class="st0" d="M-288.57,396.4l-0.2,0.59l0.92,1.38l0.92-1.38l-0.2-0.59H-288.57z"/>
	<path class="st0" d="M-279.57,397.67h-3.18v4.46h3.18V397.67z M-281.48,401.49h-0.64v-3.18h0.64V401.49z M-280.21,401.49h-0.64
		v-3.18h0.64V401.49z"/>
	<path class="st0" d="M-278.93,402.12h2.55v-3.18h-2.55V402.12z M-278.3,399.58h1.27v0.64h-1.27V399.58z M-278.3,400.85h1.27v0.64
		h-1.27V400.85z"/>
	<path class="st0" d="M-278.93,398.3h1.91v-4.46h-4.46v3.18h2.55V398.3z M-278.3,394.49h0.64v0.64h-0.64V394.49z M-278.3,395.76
		h0.64v0.64h-0.64V395.76z M-278.3,397.03h0.64v0.64h-0.64V397.03z M-279.57,394.49h0.64v0.64h-0.64V394.49z M-280.21,396.4h-0.64
		v-0.64h0.64V396.4z M-280.21,395.12h-0.64v-0.64h0.64V395.12z M-279.57,396.4v-0.64h0.64v0.64H-279.57z"/>
	<path class="st0" d="M-288.8,399.63l0.56-0.7l-0.56-0.84V399.63z"/>
	<path class="st0" d="M-286.89,388.27v2.4h2.16C-284.96,389.51-285.8,388.61-286.89,388.27z"/>
	<path class="st0" d="M-287.53,388.14c-0.1-0.01-0.21-0.02-0.32-0.02c-0.11,0-0.21,0.01-0.32,0.02v2.53h0.64V388.14z"/>
	<path class="st0" d="M-288.8,388.27c-1.09,0.34-1.93,1.25-2.16,2.4h2.16V388.27z"/>
	<path class="st0" d="M-285.93,404.99c0-0.18-0.14-0.32-0.32-0.32h-0.64v-0.32c0-0.18-0.14-0.32-0.32-0.32h-0.37
		c-0.08,0-0.17,0.03-0.23,0.09l-0.36,0.36v0.82h1.91C-286.08,405.31-285.93,405.16-285.93,404.99L-285.93,404.99z"/>
	<path class="st0" d="M-285.36,402.12h1.18l-1.1-2.75l0.59-0.24l1.19,2.98h0.1v-2.33c-0.62-1.12-1.65-1.95-2.86-2.34v6.58
		c0.53,0,0.95,0.43,0.95,0.95c0,0.53-0.43,0.95-0.95,0.95v0.64h1.59v-2.77c-0.32-0.36-0.55-0.81-0.63-1.31L-285.36,402.12z"/>
	<path class="st0" d="M-284.03,406.58h1.27v-1.91c-0.46,0-0.9-0.13-1.27-0.34V406.58z"/>
	<path class="st0" d="M-282.73,404.03h1.62c0.13-0.37,0.48-0.64,0.9-0.64h1.27c0.41,0,0.76,0.27,0.9,0.64h1.62
		c0.84,0,1.56-0.52,1.84-1.27h-10C-284.28,403.52-283.56,404.03-282.73,404.03z"/>
	<path class="st0" d="M-288.8,405.94h1.91v0.64h-1.91V405.94z"/>
	<path class="st0" d="M-278.93,404.03h-1.27c-0.18,0-0.32,0.14-0.32,0.32c0,0.53,0.43,0.95,0.95,0.95c0.53,0,0.95-0.43,0.95-0.95
		C-278.61,404.18-278.76,404.03-278.93,404.03z"/>
	<path class="st0" d="M-285.93,394.8v-2.23h-3.82v2.23c0,0.53,0.43,0.95,0.95,0.95h1.91C-286.36,395.76-285.93,395.33-285.93,394.8z
		"/>
	<path class="st0" d="M-290.39,392.58h-0.64v0.5c0.19-0.11,0.4-0.18,0.64-0.18V392.58z"/>
	<path class="st0" d="M-288.8,403.95l0.22,0.05l0.33-0.33c0.18-0.18,0.42-0.28,0.68-0.28h0.37c0.11,0,0.22,0.02,0.32,0.06v-2.81
		l-0.95-1.19l-0.95,1.19V403.95z"/>
	<path class="st0" d="M-291.03,405.81v0.77h1.59v-0.64h-0.64C-290.4,405.94-290.72,405.89-291.03,405.81z"/>
	<path class="st0" d="M-290.39,394.8v-1.27c-0.35,0-0.64,0.29-0.64,0.64C-291.03,394.52-290.74,394.8-290.39,394.8z"/>
	<path class="st0" d="M-288.8,405.31v-0.7l-1.12-0.25c-1.03-0.23-1.74-1.12-1.74-2.17v-1.33h0.64v1.33c0,0.75,0.51,1.39,1.25,1.55
		l0.35,0.08v-6.36c-2.08,0.66-3.5,2.57-3.5,4.78v0.21c0,1.58,1.29,2.86,2.86,2.86H-288.8z"/>
</g>
</svg>
