<?xml version="1.0" encoding="utf-8"?>
<!-- Generator: Adobe Illustrator 19.0.0, SVG Export Plug-In . SVG Version: 6.00 Build 0)  -->
<svg version="1.1" id="Layer_1" xmlns="http://www.w3.org/2000/svg" xmlns:xlink="http://www.w3.org/1999/xlink" x="0px" y="0px"
	 viewBox="-294 386.7 21.2 21.3" style="enable-background:new -294 386.7 21.2 21.3;" xml:space="preserve">
<style type="text/css">
	.st0{fill:#28336D;}
</style>
<g>
	<path id="XMLID_63_" class="st0" d="M-276.3,392.03l-0.87,0.87c-0.11,0.11-0.3,0.11-0.41,0c-0.11-0.11-0.11-0.3,0-0.41l0.37-0.37
		h-1.04c-0.16,0-0.29-0.13-0.29-0.29c0-0.16,0.13-0.29,0.29-0.29h1.04l-0.37-0.37c-0.11-0.11-0.11-0.3,0-0.41
		c0.11-0.11,0.3-0.11,0.41,0l0.87,0.87C-276.19,391.73-276.19,391.92-276.3,392.03z"/>
	<path id="XMLID_62_" class="st0" d="M-288.8,397.99h-0.71l0.36-0.36c0.11-0.11,0.11-0.28,0-0.39c-0.11-0.11-0.28-0.11-0.39,0l0,0
		l-0.83,0.83c-0.11,0.11-0.11,0.28,0,0.39c0,0,0,0,0,0l0.83,0.83c0.11,0.11,0.28,0.11,0.39,0c0.11-0.11,0.11-0.28,0-0.39l-0.36-0.36
		h0.71c0.15,0,0.28-0.12,0.28-0.28C-288.52,398.12-288.65,397.99-288.8,397.99z"/>
	<path id="XMLID_75_" class="st0" d="M-285.21,399.38v-2.49c0-0.15-0.12-0.28-0.28-0.28h-1.1c-0.15,0-0.28,0.12-0.28,0.28v1.1h-0.83
		c-0.15,0-0.28,0.12-0.28,0.28v1.1c-0.15,0-0.28,0.12-0.28,0.28s0.12,0.28,0.28,0.28h2.76c0.15,0,0.28-0.12,0.28-0.28
		S-285.06,399.38-285.21,399.38z M-286.87,399.38h-0.55v-0.83h0.55V399.38z M-285.76,399.38h-0.55v-2.21h0.55V399.38z"/>
	<path id="XMLID_71_" class="st0" d="M-278.81,392.69h-0.29v-0.58c0.16,0,0.29-0.13,0.29-0.29c0-0.08-0.03-0.15-0.08-0.2l-1.16-1.16
		c-0.11-0.11-0.3-0.11-0.41,0l-1.16,1.16c-0.11,0.11-0.11,0.3,0,0.41c0.05,0.05,0.13,0.08,0.2,0.08v0.58h-0.29
		c-0.16,0-0.29,0.13-0.29,0.29c0,0.16,0.13,0.29,0.29,0.29h2.89c0.16,0,0.29-0.13,0.29-0.29
		C-278.53,392.82-278.65,392.69-278.81,392.69z M-280.26,391.08l0.46,0.46h-0.92L-280.26,391.08z M-279.68,392.69h-1.16v-0.58h1.16
		V392.69z"/>
	<g id="XMLID_13_">
		<path id="XMLID_66_" class="st0" d="M-273.91,391.61l-1.84-2.46c-0.07-0.09-0.17-0.14-0.28-0.14h-6.4v-0.87
			c0-0.2-0.16-0.35-0.35-0.35h-1.23c-0.2,0-0.35,0.16-0.35,0.35v7.32h-6.4c-0.11,0-0.22,0.05-0.28,0.14l-1.84,2.46
			c-0.09,0.13-0.09,0.3,0,0.42l1.84,2.46c0.07,0.09,0.17,0.14,0.28,0.14h6.4v5.12h-6.4c-0.2,0-0.35,0.16-0.35,0.35
			c0,0.19,0.16,0.35,0.35,0.35h13.43c0.2,0,0.35-0.16,0.35-0.35c0-0.2-0.16-0.35-0.35-0.35h-5.09v-11.57h6.4
			c0.11,0,0.22-0.05,0.28-0.14l1.84-2.45C-273.82,391.91-273.82,391.74-273.91,391.61z M-282.43,393.93v-4.2h6.22l1.58,2.1
			l-1.58,2.1H-282.43z M-283.14,388.5v17.71h-0.52V388.5H-283.14z M-284.37,396.17v4.2h-6.22l-1.58-2.1l1.58-2.1H-284.37z"/>
		<path id="XMLID_122_" class="st0" d="M-276.07,406.2h-0.31c-0.2,0-0.35,0.16-0.35,0.35c0,0.19,0.16,0.35,0.35,0.35h0.31
			c0.2,0,0.35-0.16,0.35-0.35C-275.72,406.36-275.88,406.2-276.07,406.2z"/>
	</g>
</g>
</svg>
