<?xml version="1.0" encoding="utf-8"?>
<!-- Generator: Adobe Illustrator 16.0.0, SVG Export Plug-In . SVG Version: 6.00 Build 0)  -->
<!DOCTYPE svg PUBLIC "-//W3C//DTD SVG 1.1//EN" "http://www.w3.org/Graphics/SVG/1.1/DTD/svg11.dtd">
<svg version="1.1" id="Layer_1" xmlns="http://www.w3.org/2000/svg" xmlns:xlink="http://www.w3.org/1999/xlink" x="0px" y="0px"
	 width="612px" height="792px" viewBox="0 0 612 792" enable-background="new 0 0 612 792" xml:space="preserve">
<g>
	<defs>
		<rect id="SVGID_1_" width="612" height="792"/>
	</defs>
	<clipPath id="SVGID_2_">
		<use xlink:href="#SVGID_1_"  overflow="visible"/>
	</clipPath>
	<path clip-path="url(#SVGID_2_)" fill="none" stroke="#030303" stroke-width="0.4" stroke-miterlimit="10" d="M29.035,432.151
		v167.288c0,0,0,79.913,90.58,79.913h190.5h192.021c0,0,82.042,0,82.042-108.679V426.818c0,0-106.524,90.552-277.571,90.552
		C135.614,517.37,29.035,432.151,29.035,432.151z"/>
	<path clip-path="url(#SVGID_2_)" fill="none" stroke="#030303" stroke-width="0.4" stroke-miterlimit="10" d="M584.177,385.231
		c0-115.063-88.425-116.141-88.425-116.141h-86.379c-0.719-22.824-6.632-83.009-48.966-83.009h-53.773h-53.829
		c-42.305,0-48.219,60.185-48.937,83.009h-81.075c-88.452,0-93.785,111.885-93.785,111.885s109.729,100.142,277.571,100.142
		C474.42,481.116,584.177,385.231,584.177,385.231z M273.226,221.783h35.259h0.027h31.446c25.479,0,30.534,31.612,31.501,47.307
		h-50.65h-78.975C242.747,253.395,247.776,221.783,273.226,221.783z"/>
	
		<line clip-path="url(#SVGID_2_)" fill="none" stroke="#030303" stroke-width="0.4" stroke-miterlimit="10" x1="511.282" y1="148.287" x2="511.282" y2="223.875"/>
	
		<line clip-path="url(#SVGID_2_)" fill="none" stroke="#030303" stroke-width="0.4" stroke-miterlimit="10" x1="554.891" y1="186.081" x2="467.674" y2="186.081"/>
	
		<circle clip-path="url(#SVGID_2_)" fill="none" stroke="#030303" stroke-width="0.4" stroke-miterlimit="10" cx="511.282" cy="186.081" r="57.88"/>
</g>
</svg>
