<?xml version="1.0" encoding="utf-8"?>
<!-- Generator: Adobe Illustrator 19.0.0, SVG Export Plug-In . SVG Version: 6.00 Build 0)  -->
<svg version="1.1" id="Layer_1" xmlns="http://www.w3.org/2000/svg" xmlns:xlink="http://www.w3.org/1999/xlink" x="0px" y="0px"
	 viewBox="-294 386.7 21.2 21.3" style="enable-background:new -294 386.7 21.2 21.3;" xml:space="preserve">
<style type="text/css">
	.st0{fill:#28336D;}
</style>
<g>
	<path id="XMLID_51_" class="st0" d="M-286.38,389.7h-4.28c-1.27,0-2.31,1.04-2.31,2.31v12.55c0,1.27,1.04,2.31,2.31,2.31h13.51
		c1.27,0,2.31-1.04,2.31-2.31v-4.28c0-0.21-0.17-0.39-0.39-0.39c-0.21,0-0.39,0.17-0.39,0.39v4.28c0,0.85-0.69,1.54-1.54,1.54
		h-13.51c-0.85,0-1.54-0.69-1.54-1.54v-12.55c0-0.85,0.69-1.54,1.54-1.54h4.28c0.21,0,0.39-0.17,0.39-0.39
		C-286,389.87-286.17,389.7-286.38,389.7z"/>
	<path id="XMLID_37_" class="st0" d="M-286.52,397.02c-0.05,0.05-0.08,0.11-0.1,0.17l-1.13,4.08c-0.04,0.13,0,0.28,0.1,0.38
		c0.1,0.1,0.24,0.14,0.38,0.1l4.08-1.13c0.06-0.02,0.12-0.05,0.17-0.1l8.59-8.59c0.81-0.81,0.81-2.12,0-2.93l-0.56-0.57
		c-0.4-0.4-0.93-0.61-1.47-0.61c-0.53,0-1.06,0.2-1.47,0.61L-286.52,397.02z M-286.82,400.82l0.78-2.83l2.04,2.04L-286.82,400.82z
		 M-276.17,392.57l-7.1,7.1l-2.4-2.4l0.07-0.07l7.1-7.1l2.4,2.4L-276.17,392.57z M-275.54,388.98l0.57,0.57
		c0.51,0.51,0.51,1.33,0,1.84h0l-0.58,0.58l-2.4-2.4l0.58-0.58C-276.87,388.47-276.05,388.47-275.54,388.98z"/>
</g>
</svg>
