<?xml version="1.0" encoding="utf-8"?>
<!-- Generator: Adobe Illustrator 24.3.0, SVG Export Plug-In . SVG Version: 6.00 Build 0)  -->
<svg version="1.1" id="Layer_1" xmlns="http://www.w3.org/2000/svg" xmlns:xlink="http://www.w3.org/1999/xlink" x="0px" y="0px"
	 viewBox="-294 386.7 21.2 21.3" style="enable-background:new -294 386.7 21.2 21.3;" xml:space="preserve">
<style type="text/css">
	.st0{fill:#28336D;}
</style>
<path class="st0" d="M-1956.28,7.65c0,1.16,0.94,2.1,2.1,2.1h5.1l0.06,0.17c0.47,1.31,1.7,2.19,3.08,2.19
	c1.37,0,2.61-0.88,3.08-2.19l0.06-0.17h10.2l0.06,0.17c0.47,1.31,1.7,2.19,3.08,2.19c1.37,0,2.61-0.88,3.08-2.19l0.06-0.17h5.1
	c1.16,0,2.1-0.94,2.1-2.1V-2.94c0-3.11-2.53-5.63-5.63-5.63h-6.28l-0.06-0.17c-0.47-1.31-1.7-2.19-3.08-2.19H-1953
	c-1.81,0-3.28,1.47-3.28,3.28V7.65z M-1920.98,0.84h-5.21v-1.43c0-0.79,0.64-1.43,1.43-1.43h3.78V0.84z M-1930.89-6.72h6.13
	c1.59,0,3.01,1.01,3.55,2.52l0.12,0.33h-3.67c-1.81,0-3.28,1.47-3.28,3.28v3.28h7.06V7.9h-5.35l-0.06-0.17
	c-0.47-1.31-1.7-2.19-3.08-2.19c-0.35,0-0.71,0.07-1.09,0.2l-0.33,0.12V-6.72z M-1929.46,7.4c0.79,0,1.43,0.64,1.43,1.43
	s-0.64,1.43-1.43,1.43s-1.43-0.64-1.43-1.43S-1930.25,7.4-1929.46,7.4z M-1945.94,10.25c-0.79,0-1.43-0.64-1.43-1.43
	s0.64-1.43,1.43-1.43s1.43,0.64,1.43,1.43S-1945.15,10.25-1945.94,10.25z M-1954.42-7.65c0-0.79,0.64-1.43,1.43-1.43h18.83
	c0.79,0,1.43,0.64,1.43,1.43V7.9h-10.06l-0.06-0.17c-0.47-1.31-1.7-2.19-3.08-2.19c-1.38,0-2.61,0.88-3.08,2.19l-0.06,0.17h-5.35
	V-7.65z"/>
<rect x="-1951.57" y="-6.22" class="st0" width="1.85" height="8.91"/>
<rect x="-1946.86" y="-6.22" class="st0" width="1.85" height="8.91"/>
<rect x="-1942.16" y="-6.22" class="st0" width="1.85" height="8.91"/>
<rect x="-1937.45" y="-6.22" class="st0" width="1.85" height="8.91"/>
<path class="st0" d="M-1957.7-60.35h-18.83c-1.37,0-2.61,0.88-3.08,2.19l-0.06,0.17h-6.28c-3.11,0-5.63,2.53-5.63,5.63v10.59
	c0,1.16,0.94,2.1,2.1,2.1h5.1l0.06,0.17c0.47,1.31,1.7,2.19,3.08,2.19s2.61-0.88,3.08-2.19l0.06-0.17h10.2l0.06,0.17
	c0.47,1.31,1.7,2.19,3.08,2.19s2.61-0.88,3.08-2.19l0.06-0.17h5.1c1.16,0,2.1-0.94,2.1-2.1v-15.3
	C-1954.42-58.88-1955.89-60.35-1957.7-60.35z M-1989.72-51.43h3.78c0.79,0,1.43,0.64,1.43,1.43v1.43h-5.21V-51.43z M-1981.23-39.17
	c-0.79,0-1.43-0.64-1.43-1.43s0.64-1.43,1.43-1.43s1.43,0.64,1.43,1.43S-1980.45-39.17-1981.23-39.17z M-1979.81-43.55l-0.33-0.12
	c-0.38-0.14-0.74-0.2-1.09-0.2c-1.37,0-2.61,0.88-3.08,2.19l-0.06,0.17h-5.35v-5.21h7.06v-3.28c0-1.81-1.47-3.28-3.28-3.28h-3.67
	l0.12-0.33c0.54-1.51,1.96-2.52,3.55-2.52h6.13V-43.55z M-1964.76-39.17c-0.79,0-1.43-0.64-1.43-1.43s0.64-1.43,1.43-1.43
	s1.43,0.64,1.43,1.43S-1963.98-39.17-1964.76-39.17z M-1956.28-41.52h-5.35l-0.06-0.17c-0.47-1.31-1.7-2.19-3.08-2.19
	c-1.37,0-2.61,0.88-3.08,2.19l-0.06,0.17h-10.06v-15.55c0-0.79,0.64-1.43,1.43-1.43h18.83c0.79,0,1.43,0.64,1.43,1.43V-41.52z"/>
<rect x="-1960.98" y="-55.64" class="st0" width="1.85" height="8.91"/>
<rect x="-1965.69" y="-55.64" class="st0" width="1.85" height="8.91"/>
<rect x="-1970.4" y="-55.64" class="st0" width="1.85" height="8.91"/>
<rect x="-1975.1" y="-55.64" class="st0" width="1.85" height="8.91"/>
<path class="st0" d="M-1947.11-34.46h-16.47c-1.16,0-2.1,0.94-2.1,2.1v16.47c0,1.16,0.94,2.1,2.1,2.1h16.47c1.16,0,2.1-0.94,2.1-2.1
	v-16.47C-1945.01-33.52-1945.95-34.46-1947.11-34.46z M-1956.78-32.61h2.85v2.85h-2.85V-32.61z M-1963.84-15.63v-16.97h5.21v4.71
	h6.56v-4.71h5.21l0,16.97H-1963.84z"/>
<rect x="-1951.57" y="-20.34" class="st0" width="1.85" height="1.85"/>
<rect x="-1956.28" y="-20.34" class="st0" width="1.85" height="1.85"/>
<rect x="-1942.16" y="-25.05" class="st0" width="1.85" height="1.85"/>
<rect x="-1937.45" y="-25.05" class="st0" width="1.85" height="1.85"/>
<path class="st0" d="M-1919.12-37.06c0-7.65-6.22-13.87-13.87-13.87h-14.24l2.95-2.95l-1.31-1.31l-5.19,5.18l5.19,5.19l1.31-1.31
	l-2.95-2.95h14.24c6.63,0,12.02,5.39,12.02,12.02c0,6.54-5.26,11.88-11.77,12.01v1.85C-1925.21-23.33-1919.12-29.5-1919.12-37.06z"
	/>
<rect x="-1970.4" y="-25.05" class="st0" width="1.85" height="1.85"/>
<rect x="-1975.1" y="-25.05" class="st0" width="1.85" height="1.85"/>
<path class="st0" d="M-1959.92,1.76l-5.19-5.19l-1.31,1.31l2.95,2.95h-14.24c-6.63,0-12.02-5.39-12.02-12.02
	c0-6.54,5.26-11.88,11.77-12.01v-1.85c-7.53,0.13-13.62,6.3-13.62,13.87c0,7.65,6.22,13.87,13.87,13.87h14.24l-2.95,2.95l1.31,1.31
	L-1959.92,1.76z"/>
<g>
	<path class="st0" d="M-273.9,404.64c-0.02,0.06-0.05,0.13-0.07,0.19c-0.18,0.41-0.49,0.65-0.94,0.66
		c-0.48,0.01-0.95,0.01-1.43,0.01c-2.93,0-5.85,0-8.78,0c-0.07,0-0.14,0-0.2,0c-0.16-0.01-0.25-0.12-0.25-0.27
		c0-0.15,0.09-0.25,0.24-0.28c0.07-0.01,0.14,0,0.2,0c3.35,0,6.7,0,10.04,0c0.46,0,0.64-0.18,0.64-0.64c0-3.55,0-7.09,0-10.64
		c0-0.46-0.19-0.64-0.64-0.64c-3.2,0-6.4,0-9.6,0c-0.06,0-0.11,0-0.17,0c-0.11,0.22-0.21,0.44-0.33,0.69c0.08,0,0.15,0,0.21,0
		c0.83,0,1.66,0,2.49,0c0.06,0,0.12,0,0.19,0.01c0.14,0.02,0.22,0.1,0.24,0.24c0.01,0.14-0.05,0.24-0.18,0.29
		c-0.07,0.02-0.15,0.02-0.22,0.02c-1.01,0-2.03,0-3.04,0c-0.12,0-0.21,0.03-0.29,0.12c-0.26,0.28-0.52,0.56-0.75,0.8
		c0.21,0.21,0.41,0.41,0.62,0.6c0.04,0.03,0.11,0.04,0.17,0.04c0.42,0.01,0.84-0.01,1.26,0.04c0.85,0.11,1.48,0.82,1.48,1.64
		c0.01,0.81-0.61,1.55-1.47,1.65c-0.54,0.07-1.1,0.03-1.65,0.05c-0.32,0.01-0.61,0.1-0.86,0.3c-0.56,0.47-0.53,1.26,0.06,1.69
		c0.25,0.18,0.53,0.25,0.84,0.25c1.58,0,3.16,0,4.73-0.01c0.07,0,0.15-0.06,0.2-0.11c0.19-0.17,0.38-0.34,0.58-0.52
		c-0.32-0.34-0.66-0.71-1-1.09c-1.53-1.66-0.73-4.31,1.45-4.85c1.84-0.46,3.65,0.99,3.61,2.89c-0.02,0.82-0.33,1.51-0.91,2.08
		c-0.32,0.32-0.63,0.66-0.94,0.98c0.16,0.11,0.32,0.2,0.45,0.31c0.37,0.34,0.38,0.81,0.01,1.15c-0.26,0.25-0.58,0.37-0.93,0.43
		c-0.59,0.12-1.17,0.09-1.73-0.15c-0.25-0.11-0.46-0.26-0.62-0.49c-0.04-0.05-0.14-0.08-0.22-0.08c-1.55,0-3.11,0-4.66,0
		c-0.64,0-1.19-0.22-1.58-0.74c-0.66-0.89-0.25-2.14,0.84-2.51c0.23-0.08,0.48-0.1,0.73-0.12c0.5-0.03,1.01,0.01,1.5-0.05
		c0.75-0.09,1.2-0.87,0.9-1.51c-0.23-0.48-0.64-0.68-1.15-0.7c-0.32-0.01-0.64,0-0.97,0c-0.05,0-0.12,0.02-0.14,0.05
		c-0.24,0.39-0.62,0.56-1.04,0.66c-0.6,0.14-1.21,0.12-1.78-0.12c-0.18-0.08-0.36-0.19-0.5-0.33c-0.33-0.32-0.32-0.77,0.02-1.08
		c0.13-0.13,0.29-0.22,0.46-0.34c-0.28-0.3-0.57-0.62-0.86-0.92c-0.03-0.03-0.1-0.03-0.16-0.03c-0.38,0-0.76,0.01-1.13-0.01
		c-0.19-0.01-0.24,0.05-0.24,0.24c0.01,2.55,0,5.1,0,7.65c0,0.43,0,0.85,0,1.28c0,0.25,0,0.25,0.24,0.25c2.56,0,5.11,0,7.67,0
		c2.46,0,4.91,0,7.37,0c0.25,0,0.25,0,0.25-0.25c0-2.97,0-5.94,0-8.91c0-0.24,0-0.24-0.25-0.24c-1.68,0-3.37,0-5.05,0
		c-0.08,0-0.16,0-0.24-0.03c-0.12-0.05-0.18-0.15-0.16-0.28c0.01-0.13,0.09-0.22,0.22-0.24c0.07-0.01,0.14-0.01,0.2-0.01
		c1.68,0,3.37,0,5.05,0c0.22,0,0.43,0.03,0.6,0.19c0.16,0.16,0.19,0.36,0.19,0.58c0,1.61,0,3.22,0,4.83c0,1.38,0,2.76,0,4.14
		c0,0.56-0.24,0.81-0.8,0.81c-5.02,0-10.05,0-15.07,0c-0.22,0-0.42-0.02-0.59-0.18c-0.18-0.17-0.22-0.38-0.22-0.61
		c0-2.43,0-4.86,0-7.3c0-0.57,0-1.14,0-1.71c0-0.5,0.25-0.75,0.75-0.76c0.27,0,0.54,0,0.83,0c-0.1-0.23-0.19-0.43-0.29-0.63
		c-0.02-0.03-0.08-0.05-0.12-0.05c-0.42,0-0.84-0.01-1.26,0c-0.32,0.01-0.52,0.22-0.52,0.55c0,0.45,0,0.89,0,1.34
		c0,3.12,0,6.25,0,9.37c0,0.47,0.18,0.65,0.65,0.65c1.65,0,3.29,0,4.94,0c0.07,0,0.15,0,0.22,0.03c0.13,0.05,0.21,0.17,0.16,0.29
		c-0.03,0.09-0.14,0.16-0.23,0.23c-0.03,0.02-0.08,0.01-0.13,0.01c-1.68,0-3.37,0-5.05,0c-0.56,0-0.97-0.32-1.09-0.84
		c-0.02-0.08-0.02-0.17-0.02-0.26c0-3.61,0-7.22,0-10.82c0-0.67,0.45-1.11,1.12-1.11c0.39,0,0.79,0,1.2,0
		c-0.07-0.96,0.21-1.78,0.89-2.45c0.52-0.51,1.15-0.77,1.88-0.82c1.68-0.1,3.28,1.36,3.09,3.27c0.07,0,0.15,0,0.22,0
		c3.1,0,6.2,0.01,9.3-0.01c0.66,0,1.11,0.22,1.32,0.86C-273.9,397.09-273.9,400.87-273.9,404.64z M-290.03,392.25
		c0.02,0.48,0.17,0.95,0.51,1.33c0.5,0.57,1.03,1.12,1.56,1.67c0.24,0.24,0.29,0.24,0.53,0c0.51-0.51,1.03-1.02,1.51-1.56
		c0.52-0.58,0.74-1.27,0.57-2.04c-0.27-1.27-1.42-2.05-2.72-1.86C-289.2,389.96-290.12,391.09-290.03,392.25z M-279.51,395.39
		c-0.06,0-0.19,0-0.31,0.02c-0.9,0.17-1.55,0.68-1.86,1.55c-0.31,0.87-0.14,1.68,0.47,2.37c0.48,0.54,0.98,1.05,1.47,1.57
		c0.2,0.21,0.32,0.2,0.53-0.01c0.48-0.49,0.96-0.98,1.44-1.47c0.67-0.68,0.87-1.69,0.51-2.56
		C-277.64,395.95-278.48,395.38-279.51,395.39z M-287.67,396.63c0.08,0,0.16,0.01,0.24,0c0.31-0.03,0.61-0.1,0.87-0.29
		c0.19-0.14,0.19-0.27,0-0.41c-0.1-0.07-0.21-0.12-0.32-0.17c-0.12-0.06-0.21-0.04-0.31,0.05c-0.33,0.27-0.63,0.28-0.97,0.01
		c-0.12-0.09-0.21-0.1-0.33-0.04c-0.07,0.03-0.14,0.06-0.2,0.1c-0.29,0.18-0.29,0.36,0,0.53
		C-288.39,396.58-288.04,396.64-287.67,396.63z M-279.32,402.27c0.17-0.04,0.48-0.09,0.76-0.2c0.14-0.05,0.32-0.2,0.34-0.32
		c0.03-0.18-0.19-0.26-0.34-0.34c-0.16-0.08-0.3-0.11-0.47,0.03c-0.3,0.25-0.6,0.24-0.91-0.01c-0.13-0.1-0.23-0.12-0.37-0.04
		c-0.06,0.03-0.12,0.06-0.18,0.09c-0.29,0.18-0.29,0.35,0,0.52C-280.18,402.21-279.82,402.25-279.32,402.27z"/>
	<path class="st0" d="M-287.67,390.83c0.73,0,1.31,0.57,1.31,1.3c0,0.72-0.57,1.3-1.29,1.3c-0.73,0-1.31-0.58-1.31-1.3
		C-288.97,391.41-288.39,390.83-287.67,390.83z M-287.67,391.39c-0.4,0-0.74,0.35-0.74,0.75c0,0.4,0.35,0.74,0.75,0.74
		c0.4,0,0.74-0.34,0.74-0.75C-286.93,391.72-287.27,391.39-287.67,391.39z"/>
	<path class="st0" d="M-280.76,397.74c0.01-0.71,0.6-1.3,1.31-1.3c0.72,0,1.31,0.6,1.31,1.32c-0.01,0.71-0.6,1.3-1.3,1.3
		C-280.17,399.06-280.76,398.46-280.76,397.74z M-279.46,398.49c0.42,0,0.74-0.32,0.74-0.73c0-0.42-0.32-0.74-0.74-0.74
		c-0.41,0-0.73,0.32-0.73,0.73C-280.19,398.16-279.87,398.49-279.46,398.49z"/>
</g>
</svg>
