<?xml version="1.0" encoding="utf-8"?>
<!-- Generator: Adobe Illustrator 24.3.0, SVG Export Plug-In . SVG Version: 6.00 Build 0)  -->
<svg version="1.1" id="Layer_1" xmlns="http://www.w3.org/2000/svg" xmlns:xlink="http://www.w3.org/1999/xlink" x="0px" y="0px"
	 viewBox="-294 386.7 21.2 21.3" style="enable-background:new -294 386.7 21.2 21.3;" xml:space="preserve">
<style type="text/css">
	.st0{fill:#28336D;}
</style>
<g>
	<path class="st0" d="M-273.9,404.64c-0.02,0.06-0.05,0.13-0.07,0.19c-0.18,0.41-0.49,0.65-0.94,0.66
		c-0.48,0.01-0.95,0.01-1.43,0.01c-2.92,0-5.85,0-8.77,0c-0.07,0-0.14,0-0.2,0c-0.16-0.01-0.25-0.12-0.25-0.27
		c0-0.15,0.09-0.25,0.24-0.28c0.07-0.01,0.14,0,0.2,0c3.35,0,6.69,0,10.04,0c0.46,0,0.64-0.18,0.64-0.64c0-3.54,0-7.09,0-10.63
		c0-0.46-0.18-0.64-0.64-0.64c-3.2,0-6.39,0-9.59,0c-0.06,0-0.11,0-0.17,0c-0.11,0.22-0.21,0.44-0.33,0.69c0.08,0,0.15,0,0.21,0
		c0.83,0,1.66,0,2.49,0c0.06,0,0.12,0,0.19,0.01c0.14,0.02,0.22,0.1,0.24,0.24c0.01,0.14-0.05,0.24-0.18,0.29
		c-0.07,0.02-0.15,0.02-0.22,0.02c-1.01,0-2.03,0-3.04,0c-0.12,0-0.21,0.03-0.29,0.12c-0.26,0.28-0.52,0.56-0.75,0.8
		c0.21,0.21,0.41,0.41,0.62,0.6c0.04,0.03,0.11,0.04,0.17,0.04c0.42,0.01,0.84-0.01,1.26,0.04c0.85,0.11,1.48,0.82,1.48,1.64
		c0.01,0.81-0.61,1.55-1.46,1.65c-0.54,0.07-1.1,0.03-1.65,0.04c-0.32,0.01-0.61,0.1-0.86,0.3c-0.56,0.47-0.53,1.26,0.06,1.69
		c0.25,0.18,0.53,0.25,0.84,0.25c1.58,0,3.15,0,4.73-0.01c0.07,0,0.15-0.06,0.2-0.11c0.19-0.17,0.38-0.34,0.58-0.52
		c-0.32-0.34-0.66-0.71-1-1.09c-1.53-1.66-0.73-4.31,1.45-4.85c1.84-0.46,3.65,0.99,3.61,2.89c-0.02,0.82-0.33,1.51-0.91,2.08
		c-0.32,0.32-0.63,0.66-0.94,0.98c0.16,0.11,0.32,0.2,0.45,0.31c0.37,0.34,0.38,0.81,0.01,1.15c-0.26,0.25-0.58,0.37-0.93,0.43
		c-0.59,0.12-1.17,0.09-1.73-0.15c-0.25-0.11-0.46-0.26-0.61-0.49c-0.04-0.05-0.14-0.08-0.22-0.08c-1.55,0-3.1,0-4.66,0
		c-0.64,0-1.19-0.22-1.58-0.74c-0.66-0.89-0.25-2.14,0.84-2.51c0.23-0.08,0.48-0.1,0.73-0.11c0.5-0.03,1,0.01,1.5-0.05
		c0.75-0.09,1.2-0.87,0.9-1.51c-0.23-0.48-0.64-0.68-1.15-0.7c-0.32-0.01-0.64,0-0.96,0c-0.05,0-0.12,0.02-0.14,0.05
		c-0.24,0.39-0.62,0.56-1.03,0.66c-0.6,0.14-1.21,0.12-1.78-0.12c-0.18-0.08-0.36-0.19-0.5-0.33c-0.33-0.32-0.32-0.77,0.02-1.08
		c0.13-0.13,0.29-0.22,0.46-0.34c-0.28-0.3-0.57-0.61-0.86-0.92c-0.03-0.03-0.1-0.03-0.16-0.03c-0.38,0-0.75,0.01-1.13-0.01
		c-0.19-0.01-0.24,0.05-0.24,0.24c0.01,2.55,0,5.1,0,7.64c0,0.43,0,0.85,0,1.28c0,0.25,0,0.25,0.24,0.25c2.55,0,5.11,0,7.66,0
		c2.45,0,4.91,0,7.36,0c0.25,0,0.25,0,0.25-0.25c0-2.97,0-5.94,0-8.9c0-0.24,0-0.24-0.24-0.24c-1.68,0-3.36,0-5.05,0
		c-0.08,0-0.16,0-0.24-0.03c-0.12-0.05-0.18-0.15-0.16-0.28c0.01-0.13,0.09-0.22,0.22-0.24c0.07-0.01,0.14-0.01,0.2-0.01
		c1.68,0,3.36,0,5.05,0c0.22,0,0.43,0.03,0.6,0.19c0.16,0.16,0.19,0.36,0.19,0.58c0,1.61,0,3.22,0,4.82c0,1.38,0,2.76,0,4.14
		c0,0.56-0.24,0.81-0.8,0.81c-5.02,0-10.04,0-15.06,0c-0.22,0-0.42-0.02-0.59-0.18c-0.18-0.17-0.22-0.38-0.22-0.61
		c0-2.43,0-4.86,0-7.29c0-0.57,0-1.14,0-1.71c0-0.5,0.25-0.75,0.75-0.76c0.27,0,0.54,0,0.83,0c-0.1-0.23-0.19-0.43-0.29-0.63
		c-0.02-0.03-0.08-0.05-0.12-0.05c-0.42,0-0.84-0.01-1.26,0c-0.32,0.01-0.52,0.22-0.52,0.55c0,0.45,0,0.89,0,1.34
		c0,3.12,0,6.25,0,9.37c0,0.47,0.18,0.65,0.65,0.65c1.64,0,3.29,0,4.93,0c0.07,0,0.15,0,0.22,0.03c0.13,0.05,0.21,0.17,0.16,0.29
		c-0.03,0.09-0.14,0.16-0.23,0.23c-0.03,0.02-0.08,0.01-0.13,0.01c-1.68,0-3.36,0-5.05,0c-0.56,0-0.97-0.32-1.09-0.84
		c-0.02-0.08-0.02-0.17-0.02-0.26c0-3.6,0-7.21,0-10.81c0-0.67,0.45-1.11,1.12-1.11c0.39,0,0.79,0,1.2,0
		c-0.07-0.96,0.21-1.78,0.89-2.45c0.52-0.51,1.15-0.77,1.88-0.82c1.68-0.1,3.28,1.36,3.08,3.26c0.07,0,0.15,0,0.22,0
		c3.1,0,6.2,0.01,9.29-0.01c0.66,0,1.11,0.22,1.32,0.86C-273.9,397.09-273.9,400.87-273.9,404.64z M-290.02,392.26
		c0.02,0.48,0.17,0.95,0.51,1.33c0.5,0.57,1.03,1.12,1.56,1.67c0.24,0.24,0.29,0.24,0.53,0c0.51-0.51,1.03-1.02,1.51-1.56
		c0.52-0.58,0.74-1.27,0.57-2.04c-0.27-1.27-1.42-2.05-2.72-1.86C-289.2,389.96-290.11,391.1-290.02,392.26z M-279.51,395.39
		c-0.06,0-0.19,0-0.31,0.02c-0.9,0.17-1.55,0.68-1.85,1.55c-0.31,0.87-0.14,1.68,0.47,2.37c0.47,0.54,0.98,1.05,1.47,1.57
		c0.2,0.21,0.32,0.2,0.53-0.01c0.48-0.49,0.96-0.98,1.44-1.47c0.67-0.68,0.87-1.69,0.51-2.55
		C-277.64,395.95-278.49,395.39-279.51,395.39z M-287.67,396.63c0.08,0,0.16,0.01,0.24,0c0.31-0.03,0.61-0.1,0.86-0.29
		c0.19-0.14,0.19-0.27,0-0.41c-0.1-0.07-0.21-0.12-0.32-0.17c-0.11-0.06-0.21-0.04-0.31,0.05c-0.33,0.27-0.63,0.28-0.97,0.01
		c-0.12-0.09-0.21-0.1-0.33-0.04c-0.07,0.03-0.14,0.06-0.2,0.1c-0.29,0.18-0.29,0.36,0,0.53
		C-288.38,396.58-288.03,396.64-287.67,396.63z M-279.33,402.27c0.17-0.04,0.48-0.09,0.76-0.2c0.14-0.05,0.32-0.2,0.34-0.32
		c0.03-0.18-0.19-0.26-0.34-0.34c-0.16-0.08-0.3-0.11-0.47,0.03c-0.3,0.25-0.6,0.24-0.91-0.01c-0.13-0.1-0.23-0.12-0.37-0.04
		c-0.06,0.03-0.12,0.06-0.18,0.09c-0.29,0.18-0.29,0.35,0,0.52C-280.18,402.2-279.82,402.24-279.33,402.27z"/>
	<path class="st0" d="M-287.67,390.84c0.73,0,1.31,0.57,1.3,1.3c0,0.72-0.57,1.3-1.29,1.3c-0.73,0-1.31-0.58-1.31-1.3
		C-288.96,391.41-288.39,390.84-287.67,390.84z M-287.67,391.39c-0.4,0-0.74,0.35-0.74,0.75c0,0.4,0.35,0.74,0.75,0.74
		c0.4,0,0.74-0.34,0.74-0.75C-286.93,391.72-287.26,391.39-287.67,391.39z"/>
	<path class="st0" d="M-280.76,397.74c0.01-0.71,0.6-1.3,1.31-1.3c0.71,0,1.31,0.6,1.31,1.31c-0.01,0.71-0.59,1.3-1.3,1.3
		C-280.17,399.06-280.77,398.46-280.76,397.74z M-279.46,398.49c0.42,0,0.74-0.32,0.74-0.73c0-0.42-0.32-0.74-0.74-0.74
		c-0.41,0-0.73,0.32-0.73,0.73C-280.2,398.16-279.87,398.49-279.46,398.49z"/>
</g>
</svg>
