<?xml version="1.0" encoding="utf-8"?>
<!-- Generator: Adobe Illustrator 19.0.0, SVG Export Plug-In . SVG Version: 6.00 Build 0)  -->
<svg version="1.1" id="Layer_1" xmlns="http://www.w3.org/2000/svg" xmlns:xlink="http://www.w3.org/1999/xlink" x="0px" y="0px"
	 viewBox="-294 386.7 21.2 21.3" style="enable-background:new -294 386.7 21.2 21.3;" xml:space="preserve">
<style type="text/css">
	.st0{fill:#28336D;}
	.st1{fill:none;}
	.st2{opacity:0.55;fill:#28336D;}
</style>
<g id="XMLID_32_">
	<path id="XMLID_33_" class="st0" d="M-274.67,406.13l-1.87-1.86l0.04-0.06c0.37-0.52,0.51-1.16,0.4-1.78
		c-0.11-0.63-0.45-1.18-0.97-1.55c-0.52-0.37-1.15-0.51-1.78-0.4c-0.63,0.11-1.18,0.45-1.55,0.98c-0.37,0.52-0.51,1.16-0.4,1.78
		c0.11,0.63,0.45,1.18,0.98,1.55c0.77,0.54,1.79,0.58,2.6,0.11l0.06-0.04l0.03,0.03l1.85,1.84c0.08,0.09,0.19,0.13,0.32,0.14
		c0.11,0,0.21-0.04,0.29-0.12c0.08-0.08,0.13-0.19,0.13-0.3C-274.55,406.32-274.59,406.21-274.67,406.13z M-278.4,404.52v0.04
		l-0.11,0l0-0.04c-0.91-0.03-1.64-0.78-1.64-1.69c0-0.93,0.76-1.69,1.69-1.69c0.93,0,1.69,0.76,1.69,1.69
		C-276.76,403.74-277.49,404.49-278.4,404.52z"/>
	<rect id="XMLID_35_" x="-280.58" y="390.5" class="st1" width="0.54" height="0.75"/>
	<rect id="XMLID_36_" x="-280.58" y="396.96" class="st1" width="0.54" height="0.75"/>
	<rect id="XMLID_37_" x="-282.73" y="396.96" class="st1" width="0.54" height="0.75"/>
	<rect id="XMLID_204_" x="-282.73" y="393.73" class="st1" width="0.54" height="0.75"/>
	<rect id="XMLID_205_" x="-282.73" y="390.5" class="st1" width="0.54" height="0.75"/>
	<rect id="XMLID_206_" x="-278.43" y="390.5" class="st1" width="0.54" height="0.75"/>
	<path id="XMLID_207_" class="st1" d="M-280.58,400.3c0.05-0.04,0.1-0.08,0.15-0.12h-0.15V400.3z"/>
	<rect id="XMLID_210_" x="-278.43" y="396.96" class="st1" width="0.54" height="0.75"/>
	<rect id="XMLID_211_" x="-278.43" y="393.73" class="st1" width="0.54" height="0.75"/>
	<rect id="XMLID_212_" x="-280.58" y="393.73" class="st1" width="0.54" height="0.75"/>
	<path id="XMLID_213_" class="st1" d="M-285.94,400.23c0.04,0.02,0.08,0.04,0.12,0.06c0.31,0.15,0.63,0.27,0.95,0.35
		c0.17,0.04,0.35,0.08,0.52,0.1l0,0v-0.6h-1.76C-286.05,400.17-285.99,400.2-285.94,400.23z"/>
	<path id="XMLID_214_" class="st1" d="M-287.83,399.47c0.02,0,0.04,0.01,0.06,0.01v-0.57c0-0.22,0.18-0.39,0.39-0.39h3.04v-0.63
		h-3.04c-0.22,0-0.39-0.18-0.39-0.39v-0.83c0-0.22,0.18-0.39,0.39-0.39h3.04v-0.63h-3.04c-0.22,0-0.39-0.18-0.39-0.39v-0.83
		c0-0.22,0.18-0.39,0.39-0.39h3.04v-0.72h-3.65v6.14l0.04,0.01L-287.83,399.47z"/>
	<rect id="XMLID_215_" x="-287.08" y="396.96" class="st1" width="2.74" height="0.23"/>
	<polygon id="XMLID_216_" class="st1" points="-282.19,400.93 -282.19,400.18 -282.73,400.18 -282.73,400.93 -282.72,400.93 	"/>
	<rect id="XMLID_217_" x="-287.08" y="399.22" class="st1" width="2.74" height="0.23"/>
	<rect id="XMLID_218_" x="-287.15" y="392.19" class="st1" width="1.69" height="0.41"/>
	<rect id="XMLID_219_" x="-287.08" y="394.71" class="st1" width="2.74" height="0.23"/>
	<path id="XMLID_222_" class="st0" d="M-281.92,389.81H-283c-0.23,0-0.42,0.19-0.42,0.42v1.3c0,0.23,0.19,0.42,0.42,0.42h1.08
		c0.23,0,0.42-0.19,0.42-0.42v-1.3C-281.5,390-281.69,389.81-281.92,389.81z M-282.19,391.26h-0.54v-0.75h0.54V391.26z"/>
	<path id="XMLID_225_" class="st0" d="M-280.85,391.95h1.08c0.23,0,0.42-0.19,0.42-0.42v-1.3c0-0.23-0.19-0.42-0.42-0.42h-1.08
		c-0.23,0-0.42,0.19-0.42,0.42v1.3C-281.27,391.76-281.08,391.95-280.85,391.95z M-280.58,390.5h0.54v0.75h-0.54V390.5z"/>
	<path id="XMLID_228_" class="st0" d="M-278.7,391.95h1.08c0.23,0,0.42-0.19,0.42-0.42v-1.3c0-0.23-0.19-0.42-0.42-0.42h-1.08
		c-0.23,0-0.42,0.19-0.42,0.42v1.3C-279.12,391.76-278.93,391.95-278.7,391.95z M-278.43,390.5h0.54v0.75h-0.54V390.5z"/>
	<path id="XMLID_231_" class="st0" d="M-281.92,393.04H-283c-0.23,0-0.42,0.19-0.42,0.42v1.3c0,0.23,0.19,0.42,0.42,0.42h1.08
		c0.23,0,0.42-0.19,0.42-0.42v-1.3C-281.5,393.22-281.69,393.04-281.92,393.04z M-282.19,394.48h-0.54v-0.75h0.54V394.48z"/>
	<path id="XMLID_234_" class="st0" d="M-280.85,395.18h1.08c0.23,0,0.42-0.19,0.42-0.42v-1.3c0-0.23-0.19-0.42-0.42-0.42h-1.08
		c-0.23,0-0.42,0.19-0.42,0.42v1.3C-281.27,394.99-281.08,395.18-280.85,395.18z M-280.58,393.73h0.54v0.75h-0.54V393.73z"/>
	<path id="XMLID_237_" class="st0" d="M-278.7,395.18h1.08c0.23,0,0.42-0.19,0.42-0.42v-1.3c0-0.23-0.19-0.42-0.42-0.42h-1.08
		c-0.23,0-0.42,0.19-0.42,0.42v1.3C-279.12,394.99-278.93,395.18-278.7,395.18z M-278.43,393.73h0.54v0.75h-0.54V393.73z"/>
	<path id="XMLID_240_" class="st0" d="M-281.92,396.26H-283c-0.23,0-0.42,0.19-0.42,0.42v1.3c0,0.23,0.19,0.42,0.42,0.42h1.08
		c0.23,0,0.42-0.19,0.42-0.42v-1.3C-281.5,396.45-281.69,396.26-281.92,396.26z M-282.19,397.71h-0.54v-0.75h0.54V397.71z"/>
	<path id="XMLID_243_" class="st0" d="M-280.85,398.4h1.08c0.23,0,0.42-0.19,0.42-0.42v-1.3c0-0.23-0.19-0.42-0.42-0.42h-1.08
		c-0.23,0-0.42,0.19-0.42,0.42v1.3C-281.27,398.21-281.08,398.4-280.85,398.4z M-280.58,396.96h0.54v0.75h-0.54V396.96z"/>
	<path id="XMLID_246_" class="st0" d="M-278.7,398.4h1.08c0.23,0,0.42-0.19,0.42-0.42v-1.3c0-0.23-0.19-0.42-0.42-0.42h-1.08
		c-0.23,0-0.42,0.19-0.42,0.42v1.3C-279.12,398.21-278.93,398.4-278.7,398.4z M-278.43,396.96h0.54v0.75h-0.54V396.96z"/>
	<path id="XMLID_248_" class="st0" d="M-279.77,399.49h-1.08c-0.23,0-0.42,0.19-0.42,0.42v1.17c0.19-0.3,0.42-0.55,0.69-0.78v-0.12
		h0.15c0.3-0.22,0.64-0.39,1-0.51C-279.5,399.57-279.62,399.49-279.77,399.49z"/>
	<path id="XMLID_251_" class="st0" d="M-284.89,406.35c-0.16,0.03-0.32,0.01-0.48-0.03l-3.95-1.5v-4.78h0.36
		c0.19,0,0.39,0.01,0.59,0.04c0.04,0,0.08,0.01,0.14,0.02c0.1,0.01,0.2,0.03,0.29,0.05l0.14,0.03c0.04,0.01,0.08,0.02,0.12,0.03
		l0.02-0.07l0,0.07c0.31,0.08,0.61,0.2,0.9,0.34l0.03-0.06l-0.01,0.07c0.04,0.02,0.07,0.04,0.11,0.06l0.03,0.02
		c0.03,0.02,0.06,0.03,0.1,0.05l0.03,0.02c0.12,0.07,0.24,0.13,0.36,0.19c0.53,0.26,1.1,0.43,1.69,0.52l2.83,0.33
		c0.08-0.23,0.18-0.45,0.31-0.66c-0.04-0.01-0.08-0.02-0.13-0.02l-0.09-0.01v-1.17c0-0.23-0.19-0.42-0.42-0.42H-283
		c-0.23,0-0.42,0.19-0.42,0.42v0.94l-0.22-0.03v-11.61h6.67v10.63c0.25,0.12,0.48,0.27,0.69,0.45v-11.08
		c0.23-0.01,0.42-0.2,0.42-0.43v-0.71c0-0.24-0.19-0.43-0.43-0.43h-1.76c-0.19,0-0.35,0.16-0.35,0.35s0.16,0.35,0.35,0.35h1.5v0.18
		h-7.59v-0.18h4.37c0.19,0,0.35-0.16,0.35-0.35s-0.16-0.35-0.35-0.35h-4.63c-0.24,0-0.43,0.19-0.43,0.43v0.71
		c0,0.24,0.19,0.43,0.43,0.43h0.07v3.39h-0.42V392c0-0.28-0.22-0.5-0.5-0.5h-2.08c-0.28,0-0.5,0.22-0.5,0.5v0.61h-0.32
		c-0.29,0-0.52,0.23-0.52,0.52v6.24c-0.09,0-0.19-0.01-0.28-0.01h-0.36v-0.07c0-0.57-0.47-1.04-1.04-1.04h-0.84
		c-0.57,0-1.04,0.47-1.04,1.04v3.93c0,0.19,0.16,0.35,0.35,0.35c0.19,0,0.35-0.16,0.35-0.35v-3.93c0-0.19,0.16-0.35,0.35-0.35h0.84
		c0.19,0,0.35,0.16,0.35,0.35v6.2c0,0.19-0.16,0.35-0.35,0.35h-0.84c-0.19,0-0.35-0.16-0.35-0.35v-0.54c0-0.19-0.16-0.35-0.35-0.35
		s-0.35,0.16-0.35,0.35v0.54c0,0.57,0.47,1.04,1.04,1.04h0.84c0.54,0,0.99-0.41,1.04-0.95l3.72,1.41c0.01,0,0.02,0.01,0.03,0.01
		c0.17,0.05,0.35,0.07,0.52,0.07c0.09,0,0.19-0.01,0.28-0.02l5.63-0.81c0.04-0.01,0.08-0.02,0.12-0.03
		c-0.46-0.08-0.89-0.26-1.27-0.51L-284.89,406.35z M-282.73,400.18h0.54v0.75l-0.52,0l-0.01,0V400.18z M-284.34,400.75
		L-284.34,400.75c-0.17-0.02-0.35-0.06-0.52-0.1c-0.33-0.08-0.65-0.2-0.95-0.35c-0.04-0.02-0.08-0.04-0.12-0.06
		c-0.05-0.03-0.11-0.06-0.16-0.09h1.76V400.75z M-284.34,399.45h-2.74v-0.23h2.74V399.45z M-284.34,397.2h-2.74v-0.23h2.74V397.2z
		 M-284.34,394.95h-2.74v-0.23h2.74V394.95z M-287.15,392.19h1.69v0.41h-1.69V392.19z M-287.99,393.3h3.65v0.72h-3.04
		c-0.22,0-0.39,0.18-0.39,0.39v0.83c0,0.22,0.18,0.39,0.39,0.39h3.04v0.63h-3.04c-0.22,0-0.39,0.18-0.39,0.39v0.83
		c0,0.22,0.18,0.39,0.39,0.39h3.04v0.63h-3.04c-0.22,0-0.39,0.18-0.39,0.39v0.57c-0.02,0-0.04-0.01-0.06-0.01l-0.13-0.02l-0.04-0.01
		V393.3z"/>
	<path id="XMLID_303_" class="st0" d="M-285.93,402.3c-0.07,0.06-0.12,0.14-0.13,0.23c-0.02,0.19,0.12,0.36,0.31,0.38l3.98,0.39
		c-0.02-0.14-0.04-0.28-0.04-0.42c0-0.1,0.02-0.18,0.03-0.28l-3.9-0.38C-285.77,402.22-285.86,402.24-285.93,402.3z"/>
	<path id="XMLID_311_" class="st2" d="M-281.27,401.08c0,0.01-0.01,0.02-0.01,0.02c0,0,0.01,0,0.01,0V401.08z"/>
</g>
</svg>
