<?xml version="1.0" encoding="utf-8"?>
<!-- Generator: Adobe Illustrator 24.2.3, SVG Export Plug-In . SVG Version: 6.00 Build 0)  -->
<svg version="1.1" id="Layer_1" xmlns="http://www.w3.org/2000/svg" xmlns:xlink="http://www.w3.org/1999/xlink" x="0px" y="0px"
	 viewBox="-294 386.7 21.2 21.3" style="enable-background:new -294 386.7 21.2 21.3;" xml:space="preserve">
<style type="text/css">
	.st0{fill:none;}
	.st1{fill:#28346D;}
</style>
<path class="st0" d="M-282.51,395.84v0.81c0,0.03,0.02,0.05,0.05,0.05h3.29v-0.9h-3.29C-282.49,395.79-282.51,395.81-282.51,395.84z
	"/>
<path class="st0" d="M-282.51,395.84v0.81c0,0.03,0.02,0.05,0.05,0.05h3.29v-0.9h-3.29C-282.49,395.79-282.51,395.81-282.51,395.84z
	"/>
<path class="st1" d="M-274.09,401.32c-0.01-0.05-0.03-0.09-0.04-0.13c-0.01-0.04-0.02-0.08-0.04-0.12l-0.01,0.01
	c-0.02-0.03-0.02-0.06-0.04-0.09c-0.28-0.41-0.84-0.52-1.26-0.24l-1.24,0.83v-13.89h0h-1.77h-5.94v4.94h-1.17v-1
	c0-0.09-0.07-0.16-0.16-0.16h-2.18c-0.09,0-0.16,0.07-0.16,0.16v1h-0.7c-0.1,0-0.18,0.08-0.18,0.18v6.93
	c-0.22-0.03-0.44-0.04-0.66-0.04h-0.74v-0.44c0-0.1-0.02-0.2-0.06-0.28c-0.04-0.09-0.09-0.17-0.16-0.23
	c-0.02-0.02-0.05-0.03-0.08-0.05c-0.12-0.1-0.27-0.16-0.44-0.16h-0.44h-0.44c-0.4,0-0.73,0.33-0.73,0.73v6.49
	c0,0.4,0.33,0.73,0.73,0.73h0.44h0.44c0.4,0,0.73-0.33,0.73-0.73v0v-0.43l4.38,1.66c0.11,0.03,0.22,0.05,0.34,0.06
	c0.03,0,0.06,0,0.09,0c0.09,0,0.17,0,0.26-0.02c0,0,0,0,0,0l5.89-0.85c0.13-0.02,0.26-0.05,0.38-0.09c0.01,0,0.02,0,0.04-0.01
	c0.03-0.01,0.05-0.02,0.08-0.03c0.02-0.01,0.04-0.02,0.06-0.03c0.08-0.03,0.17-0.07,0.25-0.12c0.03-0.01,0.05-0.02,0.08-0.04
	c0.02-0.01,0.05-0.03,0.07-0.04c0.06-0.04,0.11-0.08,0.16-0.12c0.04-0.03,0.08-0.05,0.12-0.08l3.81-3.43
	c0.08-0.07,0.15-0.16,0.2-0.25c0.02-0.03,0.02-0.07,0.04-0.1c0.02-0.06,0.05-0.13,0.06-0.19c0.01-0.04,0-0.08,0-0.13
	C-274.08,401.44-274.08,401.38-274.09,401.32z M-288.04,394.15c0-0.03,0.02-0.05,0.05-0.05h3.54v0.97h-3.54
	c-0.03,0-0.05-0.02-0.05-0.05V394.15z M-288.04,396.5c0-0.03,0.02-0.05,0.05-0.05h3.54v0.97h-3.54c-0.03,0-0.05-0.02-0.05-0.05
	V396.5z M-288.04,398.86c0-0.03,0.02-0.05,0.05-0.05h3.54v0.97h-3.54c-0.03,0-0.05-0.02-0.05-0.05V398.86z M-282.2,401.26
	c0,0.04-0.03,0.08-0.08,0.08h-0.86l-0.33-0.04c-0.01-0.01-0.02-0.02-0.02-0.04v-1.36c0-0.04,0.03-0.08,0.08-0.08h1.13
	c0.04,0,0.08,0.03,0.08,0.08V401.26z M-282.2,397.88c0,0.04-0.03,0.08-0.08,0.08h-1.13c-0.04,0-0.08-0.03-0.08-0.08v-1.36
	c0-0.04,0.03-0.08,0.08-0.08h1.13c0.04,0,0.08,0.03,0.08,0.08V397.88z M-282.2,394.5c0,0.04-0.03,0.08-0.08,0.08h-1.13
	c-0.04,0-0.08-0.03-0.08-0.08v-1.36c0-0.04,0.03-0.08,0.08-0.08h1.13c0.04,0,0.08,0.03,0.08,0.08V394.5z M-282.2,391.13
	c0,0.04-0.03,0.08-0.08,0.08h-1.13c-0.04,0-0.08-0.03-0.08-0.08v-1.36c0-0.04,0.03-0.08,0.08-0.08h1.13c0.04,0,0.08,0.03,0.08,0.08
	V391.13z M-279.94,401.26c0,0.04-0.03,0.08-0.08,0.08h-1.13c-0.04,0-0.08-0.03-0.08-0.08v-1.36c0-0.04,0.03-0.08,0.08-0.08h1.13
	c0.04,0,0.08,0.03,0.08,0.08V401.26z M-279.94,397.88c0,0.04-0.03,0.08-0.08,0.08h-1.13c-0.04,0-0.08-0.03-0.08-0.08v-1.36
	c0-0.04,0.03-0.08,0.08-0.08h1.13c0.04,0,0.08,0.03,0.08,0.08V397.88z M-279.94,394.5c0,0.04-0.03,0.08-0.08,0.08h-1.13
	c-0.04,0-0.08-0.03-0.08-0.08v-1.36c0-0.04,0.03-0.08,0.08-0.08h1.13c0.04,0,0.08,0.03,0.08,0.08V394.5z M-279.94,391.13
	c0,0.04-0.03,0.08-0.08,0.08h-1.13c-0.04,0-0.08-0.03-0.08-0.08v-1.36c0-0.04,0.03-0.08,0.08-0.08h1.13c0.04,0,0.08,0.03,0.08,0.08
	V391.13z M-277.69,401.26c0,0.04-0.03,0.08-0.08,0.08h-1.13c-0.04,0-0.08-0.03-0.08-0.08v-1.36c0-0.04,0.03-0.08,0.08-0.08h1.13
	c0.04,0,0.08,0.03,0.08,0.08V401.26z M-277.69,397.88c0,0.04-0.03,0.08-0.08,0.08h-1.13c-0.04,0-0.08-0.03-0.08-0.08v-1.36
	c0-0.04,0.03-0.08,0.08-0.08h1.13c0.04,0,0.08,0.03,0.08,0.08V397.88z M-277.69,394.5c0,0.04-0.03,0.08-0.08,0.08h-1.13
	c-0.04,0-0.08-0.03-0.08-0.08v-1.36c0-0.04,0.03-0.08,0.08-0.08h1.13c0.04,0,0.08,0.03,0.08,0.08V394.5z M-277.69,391.13
	c0,0.04-0.03,0.08-0.08,0.08h-1.13c-0.04,0-0.08-0.03-0.08-0.08v-1.36c0-0.04,0.03-0.08,0.08-0.08h1.13c0.04,0,0.08,0.03,0.08,0.08
	V391.13z"/>
</svg>
