<?xml version="1.0" encoding="utf-8"?>
<!-- Generator: Adobe Illustrator 24.3.0, SVG Export Plug-In . SVG Version: 6.00 Build 0)  -->
<svg version="1.1" id="Layer_1" xmlns="http://www.w3.org/2000/svg" xmlns:xlink="http://www.w3.org/1999/xlink" x="0px" y="0px"
	 viewBox="-294 386.7 21.2 21.3" style="enable-background:new -294 386.7 21.2 21.3;" xml:space="preserve">
<style type="text/css">
	.st0{fill:#28336D;}
</style>
<g>
	<path class="st0" d="M-284.53,406.97c-0.37-0.05-0.74-0.09-1.11-0.15c-1.35-0.24-2.6-0.7-3.67-1.59c-1.31-1.09-1.93-2.5-1.93-4.18
		c0-1.85,0.66-3.46,1.83-4.87c0.48-0.58,0.99-1.13,1.48-1.71c0.22-0.26,0.41-0.54,0.59-0.77c-0.2-0.15-0.41-0.27-0.56-0.43
		c-0.17-0.17-0.2-0.41-0.17-0.65c0.05-0.4,0.35-0.67,0.87-0.78c-0.07-0.11-0.14-0.21-0.21-0.31c-0.53-0.76-0.81-1.62-0.96-2.52
		c-0.05-0.3,0.17-0.45,0.46-0.32c0.84,0.38,1.74,0.46,2.7,0.43c-0.12-0.29-0.22-0.57-0.33-0.83c-0.06-0.14-0.16-0.28-0.04-0.44
		c0.12-0.15,0.27-0.12,0.43-0.09c1.45,0.25,2.91,0.35,4.39,0.19c0.45-0.05,0.89-0.13,1.34-0.21c0.31-0.05,0.5,0.1,0.42,0.41
		c-0.14,0.52-0.28,1.04-0.47,1.54c-0.2,0.52-0.47,1.02-0.71,1.53c-0.06,0.13-0.11,0.23,0.05,0.33c0.05,0.03,0.09,0.1,0.14,0.17
		c0.47-0.13,0.94-0.26,1.42-0.39c0.4-0.11,0.81-0.23,1.21-0.34c0.54-0.14,1.03,0.2,1.12,0.74c0.06,0.41-0.18,0.81-0.6,0.96
		c-0.17,0.06-0.35,0.11-0.58,0.18c0.41,0.09,0.76,0.17,1.11,0.25c0.66,0.16,0.95,0.74,0.66,1.32c-0.16,0.32-0.56,0.53-0.92,0.45
		c-1.05-0.23-2.09-0.47-3.13-0.71c-0.1-0.02-0.19-0.04-0.31-0.03c0.19,0.23,0.39,0.47,0.58,0.7c0.46,0.54,0.95,1.07,1.39,1.63
		c0.76,0.97,1.29,2.05,1.5,3.28c0.16,1,0.18,1.99-0.12,2.97c-0.34,1.11-0.98,1.99-1.9,2.68c-1.1,0.83-2.36,1.26-3.7,1.46
		c-0.3,0.04-0.6,0.08-0.89,0.12C-283.63,406.97-284.08,406.97-284.53,406.97z M-281.71,392.43c-0.08,0-0.15,0-0.21,0
		c-0.84,0-1.68,0-2.52,0c-0.86,0-1.72,0-2.58,0c-0.31,0-0.47,0.11-0.47,0.32c-0.01,0.21,0.16,0.32,0.46,0.32c0.35,0,0.69,0,1.04,0
		c0.2,0,0.33,0.12,0.34,0.28c0,0.16-0.12,0.28-0.33,0.29c-0.17,0.01-0.34,0.01-0.51,0c-0.11,0-0.16,0.04-0.22,0.13
		c-0.22,0.33-0.42,0.67-0.67,0.97c-0.52,0.63-1.08,1.23-1.6,1.87c-1.26,1.54-1.86,3.29-1.59,5.28c0.12,0.89,0.49,1.66,1.08,2.33
		c0.75,0.85,1.71,1.38,2.77,1.73c1.29,0.42,2.61,0.52,3.96,0.38c1.16-0.12,2.26-0.43,3.28-1.01c1-0.58,1.76-1.38,2.18-2.47
		c0.4-1.04,0.38-2.11,0.17-3.18c-0.25-1.29-0.91-2.37-1.75-3.36c-0.57-0.66-1.13-1.33-1.7-1.99c-0.04-0.04-0.11-0.07-0.17-0.08
		c-0.35-0.02-0.64-0.16-0.8-0.47c-0.06-0.12-0.13-0.14-0.25-0.14c-0.87,0-1.73,0-2.6,0c-0.08,0-0.16-0.01-0.24-0.02
		c-0.13-0.03-0.22-0.13-0.2-0.25c0.02-0.1,0.1-0.2,0.18-0.27c0.05-0.04,0.16-0.03,0.24-0.03c0.85,0,1.7,0,2.54,0
		c0.07,0,0.13,0,0.2,0C-281.71,392.84-281.71,392.64-281.71,392.43z M-284.66,389.1c0.34-0.05,0.67-0.1,1-0.15
		c0.23-0.04,0.39,0.06,0.4,0.28c0.03,0.73,0.27,1.39,0.55,2.05c0.08,0.19,0.14,0.46,0.29,0.55c0.16,0.1,0.43,0.04,0.64,0.03
		c0.06,0,0.13-0.05,0.16-0.11c0.15-0.24,0.34-0.41,0.62-0.48c0.07-0.02,0.14-0.07,0.17-0.13c0.23-0.46,0.47-0.92,0.68-1.4
		c0.19-0.44,0.34-0.89,0.5-1.31c-0.88,0.06-1.74,0.15-2.6,0.15c-0.86,0-1.73-0.09-2.59-0.14
		C-284.78,388.63-284.72,388.84-284.66,389.1z M-287.69,389.39c0,0.05,0,0.07,0.01,0.08c0.2,0.84,0.58,1.59,1.14,2.26
		c0.08,0.09,0.14,0.13,0.26,0.13c1-0.01,2.01,0,3.01,0c0.05,0,0.11-0.01,0.19-0.01c-0.34-0.74-0.62-1.49-0.74-2.29
		C-285.12,389.77-286.4,389.78-287.69,389.39z M-279.91,393.53c0.03,0.01,0.05,0.02,0.08,0.02c0.82,0.19,1.64,0.38,2.47,0.56
		c0.29,0.07,0.58,0.14,0.88,0.19c0.18,0.03,0.32-0.09,0.34-0.25c0.02-0.17-0.06-0.29-0.22-0.35c-0.05-0.02-0.1-0.03-0.14-0.04
		c-0.91-0.21-1.83-0.42-2.74-0.63c-0.21-0.05-0.43-0.09-0.66-0.14C-279.91,393.12-279.91,393.32-279.91,393.53z M-279.87,392.27
		c0,0.01,0,0.02,0,0.03c0.39,0.09,0.77,0.18,1.16,0.27c0.05,0.01,0.11,0,0.17-0.01c0.47-0.13,0.94-0.26,1.41-0.4
		c0.23-0.06,0.33-0.23,0.28-0.41c-0.05-0.17-0.22-0.26-0.44-0.2c-0.48,0.13-0.97,0.27-1.45,0.4
		C-279.12,392.06-279.49,392.16-279.87,392.27z M-280.49,392.76c0-0.2,0-0.4,0-0.6c-0.01-0.19-0.13-0.32-0.3-0.33
		c-0.16-0.01-0.31,0.11-0.32,0.3c-0.01,0.41-0.02,0.83,0,1.24c0.01,0.2,0.15,0.31,0.33,0.3c0.17-0.01,0.28-0.13,0.29-0.33
		C-280.49,393.14-280.49,392.95-280.49,392.76z"/>
	<path class="st0" d="M-281.29,398.33c0,0.13,0.01,0.25,0,0.38c-0.03,0.41-0.35,0.71-0.74,0.7c-0.41-0.01-0.73-0.33-0.73-0.75
		c0-0.14,0-0.28,0-0.41c-0.01-0.37-0.23-0.62-0.6-0.65c-0.27-0.02-0.54-0.02-0.81,0.01c-0.47,0.05-0.77,0.42-0.74,0.9
		c0.02,0.43,0.37,0.76,0.83,0.78c0.33,0.02,0.67,0.01,0.99,0.07c1.03,0.22,1.76,1.12,1.8,2.2c0.04,1.03-0.62,1.97-1.62,2.28
		c-0.15,0.05-0.21,0.11-0.2,0.27c0.01,0.18,0.01,0.37-0.04,0.54c-0.08,0.33-0.43,0.56-0.76,0.53c-0.36-0.04-0.63-0.3-0.67-0.65
		c-0.02-0.14-0.02-0.29-0.01-0.43c0.01-0.12-0.04-0.16-0.15-0.19c-0.84-0.2-1.39-0.72-1.6-1.56c-0.05-0.21-0.07-0.45-0.04-0.66
		c0.06-0.35,0.38-0.57,0.74-0.55c0.34,0.01,0.62,0.25,0.69,0.59c0.14,0.7,0.23,0.77,0.95,0.77c0.2,0,0.41,0,0.6-0.04
		c0.4-0.09,0.67-0.49,0.63-0.87c-0.05-0.44-0.38-0.78-0.82-0.79c-0.43-0.01-0.85,0.01-1.26-0.14c-0.93-0.34-1.58-1.25-1.56-2.2
		c0.02-1.04,0.66-1.91,1.64-2.21c0.13-0.04,0.2-0.1,0.19-0.25c-0.01-0.15,0-0.3,0.02-0.45c0.05-0.37,0.37-0.64,0.74-0.63
		c0.38,0.01,0.7,0.3,0.72,0.68c0.01,0.17-0.05,0.38,0.03,0.5c0.07,0.11,0.29,0.12,0.45,0.18
		C-281.75,396.62-281.28,397.33-281.29,398.33z M-284.01,404.02c0,0.13-0.02,0.27,0.01,0.39c0.01,0.06,0.09,0.14,0.15,0.15
		c0.06,0,0.12-0.07,0.17-0.13c0.02-0.03,0.01-0.1,0.01-0.15c0-0.19,0-0.39,0-0.58c0-0.19,0.08-0.31,0.27-0.34
		c0.06-0.01,0.11-0.02,0.17-0.03c1.1-0.22,1.71-1.51,1.19-2.5c-0.33-0.62-0.86-0.94-1.56-0.97c-0.26-0.01-0.53,0-0.79-0.05
		c-0.66-0.14-1.19-0.78-1.08-1.6c0.08-0.64,0.67-1.18,1.36-1.2c0.21-0.01,0.41,0,0.62,0c0.8,0,1.29,0.49,1.3,1.28
		c0,0.13-0.02,0.26,0.01,0.37c0.02,0.06,0.11,0.13,0.18,0.14c0.04,0,0.14-0.1,0.14-0.15c0-0.28,0.01-0.57-0.06-0.84
		c-0.2-0.72-0.71-1.07-1.44-1.14c-0.23-0.02-0.31-0.11-0.31-0.34c0-0.23,0.01-0.45-0.01-0.68c-0.01-0.07-0.1-0.17-0.16-0.18
		c-0.12-0.02-0.17,0.08-0.17,0.19c0,0.22,0,0.44,0,0.66c0,0.22-0.08,0.32-0.3,0.37c-0.06,0.01-0.12,0.02-0.18,0.04
		c-0.77,0.18-1.3,0.84-1.33,1.65c-0.03,0.77,0.47,1.51,1.22,1.7c0.36,0.09,0.74,0.09,1.12,0.12c0.61,0.05,1.13,0.5,1.27,1.13
		c0.13,0.57-0.16,1.22-0.68,1.51c-0.54,0.3-1.13,0.25-1.69,0.14c-0.57-0.1-0.85-0.53-0.91-1.1c-0.01-0.12-0.05-0.22-0.19-0.2
		c-0.13,0.02-0.14,0.12-0.13,0.23c0.02,0.7,0.54,1.33,1.24,1.42C-283.91,403.41-284.01,403.57-284.01,404.02z"/>
</g>
</svg>
