<?xml version="1.0" encoding="utf-8"?>
<!-- Generator: Adobe Illustrator 24.3.0, SVG Export Plug-In . SVG Version: 6.00 Build 0)  -->
<svg version="1.1" id="Layer_1" xmlns="http://www.w3.org/2000/svg" xmlns:xlink="http://www.w3.org/1999/xlink" x="0px" y="0px"
	 viewBox="-294 386.7 21.2 21.3" style="enable-background:new -294 386.7 21.2 21.3;" xml:space="preserve">
<style type="text/css">
	.st0{fill:#28336D;}
</style>
<g>
	<path class="st0" d="M-274.43,398.06L-274.43,398.06l-1.9-2.97l0.06-0.03c0.25-0.13,0.41-0.39,0.41-0.68c0-0.32-0.19-0.6-0.48-0.71
		l-0.05-0.02l0.58-2.02c0.02-0.06,0-0.13-0.05-0.18c-0.35-0.35-0.92-0.35-1.28,0c-0.2,0.2-0.55,0.2-0.76,0
		c-0.35-0.35-0.92-0.35-1.27,0c-0.22,0.21-0.55,0.21-0.76,0.01c-0.28-0.28-0.71-0.34-1.07-0.15l-0.03,0.02l-0.03-0.02
		c-0.35-0.19-0.78-0.13-1.06,0.15c-0.2,0.2-0.55,0.2-0.76,0c-0.35-0.35-0.92-0.35-1.27,0c-0.22,0.21-0.55,0.21-0.76,0.01
		c-0.25-0.25-0.63-0.33-0.97-0.2l-0.02,0.01l-0.02-0.01c-0.33-0.13-0.71-0.05-0.96,0.2c-0.2,0.2-0.55,0.2-0.76,0
		c-0.35-0.35-0.92-0.35-1.27,0c-0.22,0.21-0.55,0.21-0.76,0.01c-0.35-0.35-0.93-0.35-1.28,0c-0.05,0.05-0.07,0.12-0.05,0.18
		l0.58,2.02l-0.05,0.02c-0.29,0.12-0.48,0.4-0.48,0.71c0,0.29,0.16,0.55,0.41,0.68l0.06,0.03l-1.9,2.97
		c-0.71,1.11-0.75,2.46-0.12,3.62c0.63,1.15,1.8,1.84,3.11,1.84h2.22c0.43,0,0.85-0.08,1.25-0.22l0.02-0.01l0.02,0.01
		c0.4,0.15,0.82,0.22,1.25,0.22h2.22c0.47,0,0.93-0.09,1.36-0.26l0.02-0.01l0.02,0.01c0.43,0.18,0.89,0.26,1.36,0.26h2.22
		c1.32,0,2.48-0.69,3.11-1.84C-273.68,400.52-273.72,399.17-274.43,398.06z M-280.82,391.61c0.02-0.01,0.05-0.02,0.07-0.03l0,0
		c0.2-0.07,0.42-0.03,0.57,0.12c0.35,0.35,0.92,0.35,1.27,0c0.22-0.21,0.55-0.21,0.76-0.01c0.35,0.35,0.92,0.35,1.28,0
		c0.17-0.17,0.43-0.2,0.64-0.09l0.04,0.02l-0.57,1.98h-3.54l-0.57-1.98L-280.82,391.61z M-281.02,392.43l0.35,1.22l-0.05,0.02
		c-0.09,0.04-0.18,0.1-0.26,0.17l-0.04,0.04l-0.04-0.04c-0.08-0.08-0.16-0.13-0.26-0.17l-0.05-0.02L-281.02,392.43z M-285.8,391.61
		c0.1-0.05,0.2-0.07,0.31-0.06c0.12,0.01,0.23,0.07,0.32,0.15c0.35,0.35,0.92,0.35,1.27,0c0.22-0.21,0.55-0.21,0.76-0.01
		c0.35,0.35,0.92,0.35,1.28,0c0.15-0.15,0.37-0.2,0.57-0.12l0.03,0.01l0.05,0.17l-0.53,1.85h-3.54l-0.57-1.98L-285.8,391.61z
		 M-285.89,392.8l0.24,0.85l-0.05,0.02c-0.05,0.02-0.1,0.05-0.16,0.09l-0.03,0.02l-0.03-0.02c-0.05-0.04-0.11-0.07-0.16-0.09
		l-0.05-0.02L-285.89,392.8z M-290.61,391.64l0.04-0.02c0.21-0.11,0.47-0.08,0.64,0.09c0.35,0.35,0.92,0.35,1.27,0
		c0.22-0.21,0.55-0.21,0.76-0.01c0.35,0.35,0.92,0.35,1.28,0c0.09-0.09,0.2-0.14,0.32-0.15l0.05-0.01l0.14,0.65l-0.41,1.42h-3.54
		L-290.61,391.64z M-286.53,403.09c-0.21,0.04-0.42,0.06-0.64,0.06h-2.22c-1.18,0-2.22-0.62-2.79-1.65
		c-0.57-1.03-0.53-2.25,0.11-3.24l1.98-3.11h0.71c0.1,0,0.18-0.08,0.18-0.18c0-0.1-0.08-0.18-0.18-0.18h-0.81
		c-0.22,0-0.4-0.18-0.4-0.4c0-0.22,0.18-0.4,0.4-0.4h3.81c0.07,0,0.15,0.02,0.21,0.06l0.04,0.03l-0.02,0.05
		c-0.03,0.09-0.05,0.18-0.05,0.27c0,0.09,0.02,0.18,0.05,0.27c0.06,0.15,0.15,0.27,0.28,0.36c0.03,0.02,0.06,0.04,0.09,0.05
		l0.06,0.03l-1.34,2.1l-0.05-0.04c-0.22-0.18-0.49-0.27-0.77-0.27c-0.68,0-1.23,0.55-1.23,1.23v1.17h-0.9v0.36h0.89l-0.02,0.14
		c-0.07,0.5-0.25,0.96-0.53,1.39c-0.04,0.06-0.04,0.13-0.01,0.19c0.03,0.06,0.09,0.1,0.16,0.1h1.68l0.02,0.03
		c0.03,0.07,0.06,0.13,0.1,0.2c0.29,0.54,0.72,0.99,1.22,1.3l0.13,0.08L-286.53,403.09z M-288.01,401.01l0.02,0.08h-1.21l0.08-0.17
		c0.18-0.36,0.29-0.76,0.34-1.17l0.01-0.1h0.6l0,0.06C-288.19,400.15-288.14,400.58-288.01,401.01z M-288.09,399.23l-0.01,0.05
		h-0.64v-1.17c0-0.48,0.39-0.87,0.87-0.87c0.21,0,0.42,0.08,0.58,0.23l0.04,0.03l-0.36,0.56
		C-287.84,398.42-288,398.82-288.09,399.23z M-281.6,403.05c-0.26,0.07-0.53,0.1-0.8,0.1h-2.22c-0.21,0-0.43-0.02-0.64-0.06
		c-0.22-0.04-0.45-0.11-0.66-0.21c-0.62-0.27-1.13-0.74-1.47-1.35l-0.02-0.03c-0.08-0.14-0.15-0.3-0.21-0.46
		c-0.34-0.93-0.22-1.94,0.31-2.78l1.98-3.11h0.71c0.1,0,0.18-0.08,0.18-0.18c0-0.1-0.08-0.18-0.18-0.18h-0.81
		c-0.07,0-0.15-0.02-0.21-0.06c-0.12-0.07-0.19-0.2-0.19-0.34c0-0.14,0.07-0.27,0.19-0.34c0.06-0.04,0.14-0.06,0.21-0.06h3.81
		c0.21,0,0.39,0.17,0.4,0.38l0,0l0,0.01l0,0.02c-0.01,0.21-0.19,0.38-0.4,0.38h-0.81c-0.1,0-0.18,0.08-0.18,0.18
		c0,0.1,0.08,0.18,0.18,0.18h0.71l1.98,3.1c0.13,0.21,0.24,0.43,0.32,0.66c0.09,0.24,0.14,0.49,0.17,0.73
		c0.04,0.41,0,0.83-0.12,1.23c-0.07,0.22-0.15,0.43-0.26,0.62c-0.32,0.58-0.8,1.04-1.38,1.33
		C-281.18,402.93-281.39,403-281.6,403.05z M-277.42,403.15h-2.22c-0.27,0-0.54-0.03-0.8-0.1l-0.13-0.03l0.11-0.07
		c0.49-0.32,0.88-0.75,1.17-1.27c0.08-0.15,0.15-0.31,0.22-0.47l0.03-0.07l0.06,0.05c0.41,0.31,0.9,0.47,1.42,0.47
		c0.25,0,0.42-0.04,0.65-0.13l-0.07-0.35c-0.67,0.21-1.41,0.04-1.93-0.44l-0.02-0.02l0.01-0.03c0.04-0.18,0.06-0.35,0.07-0.53
		l0-0.06h1.18v-0.38h-1.18l0-0.05c-0.02-0.25-0.07-0.49-0.15-0.73l-0.02-0.08h1.36v-0.38h-1.51l-0.02-0.03
		c-0.02-0.04-0.04-0.08-0.06-0.12l-0.02-0.03l0.02-0.03c0.36-0.6,1.01-0.97,1.7-0.97c0.2,0,0.39,0.03,0.58,0.09l0.07-0.35
		c-0.23-0.09-0.4-0.13-0.65-0.13c-0.75,0-1.44,0.34-1.89,0.94l-0.05,0.07l-1.8-2.83l0.06-0.03c0.07-0.03,0.13-0.08,0.18-0.14
		c0.14-0.14,0.22-0.33,0.23-0.53l0-0.02l0-0.02c0.01-0.21,0.18-0.38,0.4-0.38h3.81c0.22,0,0.4,0.18,0.4,0.4c0,0.22-0.18,0.4-0.4,0.4
		h-0.81c-0.1,0-0.18,0.08-0.18,0.18c0,0.1,0.08,0.18,0.18,0.18h0.71l1.98,3.11c0.63,0.99,0.67,2.21,0.11,3.24
		C-275.2,402.54-276.24,403.15-277.42,403.15z"/>
	<path class="st0" d="M-283.36,394.82c-0.04-0.04-0.09-0.06-0.14-0.06s-0.1,0.02-0.14,0.06c-0.04,0.04-0.06,0.09-0.06,0.14
		c0,0.05,0.02,0.1,0.06,0.14c0.07,0.07,0.21,0.07,0.28,0c0.04-0.04,0.06-0.09,0.06-0.14C-283.31,394.91-283.33,394.86-283.36,394.82
		z"/>
	<path class="st0" d="M-278.77,394.76c-0.05,0-0.1,0.02-0.14,0.06c-0.04,0.04-0.06,0.09-0.06,0.14c0,0.05,0.02,0.1,0.06,0.14
		c0.07,0.07,0.21,0.07,0.28,0c0.04-0.04,0.06-0.09,0.06-0.14c0-0.05-0.02-0.1-0.06-0.14C-278.67,394.79-278.72,394.76-278.77,394.76
		z"/>
	<path class="st0" d="M-287.6,394.82c-0.04-0.04-0.09-0.06-0.14-0.06s-0.1,0.02-0.14,0.06c-0.04,0.04-0.06,0.09-0.06,0.14
		c0,0.05,0.02,0.1,0.06,0.14c0.07,0.07,0.21,0.07,0.28,0c0.04-0.04,0.06-0.09,0.06-0.14C-287.54,394.91-287.56,394.86-287.6,394.82z
		"/>
	<polygon class="st0" points="-286.16,392.19 -286.16,392.19 -286.16,392.19 	"/>
	<path class="st0" d="M-282.66,400.53c0.15-0.17,0.23-0.37,0.23-0.6c0-0.07-0.01-0.15-0.03-0.21c-0.02-0.07-0.04-0.13-0.07-0.17
		c-0.03-0.04-0.06-0.09-0.11-0.14c-0.06-0.05-0.11-0.09-0.15-0.12c-0.04-0.03-0.1-0.06-0.18-0.1c-0.08-0.04-0.14-0.07-0.19-0.09
		c-0.05-0.02-0.12-0.05-0.21-0.08c-0.08-0.03-0.14-0.06-0.19-0.07c-0.04-0.02-0.1-0.04-0.16-0.07c-0.07-0.03-0.13-0.06-0.17-0.09
		c-0.04-0.03-0.07-0.06-0.11-0.09c-0.05-0.05-0.09-0.1-0.11-0.15c-0.02-0.05-0.03-0.11-0.03-0.17c0-0.16,0.07-0.29,0.21-0.39
		c0.12-0.09,0.28-0.13,0.47-0.13c0.08,0,0.17,0.01,0.25,0.03c0.08,0.02,0.15,0.05,0.21,0.07c0.06,0.03,0.11,0.06,0.17,0.09
		c0.05,0.03,0.09,0.06,0.11,0.08c0,0,0.01,0.01,0.01,0.01l0.18-0.32c0,0-0.01-0.01-0.01-0.01c-0.01-0.01-0.04-0.03-0.09-0.07
		c-0.05-0.03-0.1-0.06-0.15-0.09c-0.05-0.03-0.12-0.05-0.21-0.08c-0.08-0.03-0.17-0.05-0.26-0.05l-0.11-0.01v-0.53h-0.28v0.53
		l-0.1,0.02c-0.25,0.05-0.45,0.15-0.6,0.31c-0.15,0.16-0.22,0.34-0.22,0.55c0,0.06,0.01,0.12,0.02,0.18
		c0.01,0.06,0.03,0.11,0.05,0.15c0.02,0.04,0.04,0.08,0.08,0.12c0.04,0.05,0.07,0.08,0.1,0.12c0.03,0.03,0.07,0.06,0.12,0.1
		c0.05,0.04,0.1,0.07,0.14,0.09c0.04,0.02,0.09,0.05,0.15,0.07c0.07,0.03,0.12,0.05,0.16,0.07l0.16,0.07
		c0.09,0.04,0.17,0.07,0.21,0.09c0.05,0.02,0.11,0.05,0.18,0.09c0.08,0.04,0.14,0.08,0.18,0.12c0.04,0.04,0.08,0.08,0.11,0.14
		c0.04,0.06,0.06,0.13,0.06,0.2c0,0.18-0.07,0.32-0.21,0.42c-0.18,0.12-0.41,0.16-0.66,0.11c-0.23-0.05-0.46-0.16-0.66-0.33
		l-0.22,0.29c0.01,0.01,0.01,0.01,0.02,0.02c0.02,0.02,0.06,0.05,0.11,0.09c0.05,0.04,0.11,0.08,0.18,0.12
		c0.06,0.04,0.15,0.07,0.25,0.11c0.1,0.04,0.2,0.06,0.31,0.07l0.1,0.01v0.52h0.28v-0.52l0.1-0.02
		C-283.01,400.81-282.81,400.7-282.66,400.53z"/>
</g>
</svg>
