<?xml version="1.0" encoding="utf-8"?>
<!-- Generator: Adobe Illustrator 19.0.0, SVG Export Plug-In . SVG Version: 6.00 Build 0)  -->
<svg version="1.1" id="Layer_1" xmlns="http://www.w3.org/2000/svg" xmlns:xlink="http://www.w3.org/1999/xlink" x="0px" y="0px"
	 viewBox="-294 386.7 21.2 21.3" style="enable-background:new -294 386.7 21.2 21.3;" xml:space="preserve">
<style type="text/css">
	.st0{display:none;}
	.st1{display:inline;}
	.st2{fill:none;stroke:#002459;stroke-width:0.4;stroke-miterlimit:10;}
	.st3{display:inline;fill:none;stroke:#002459;stroke-width:0.3;stroke-miterlimit:10;}
	.st4{fill:#28336D;}
</style>
<g class="st0">
	<g class="st1">
		<path class="st2" d="M-287,403.7c-2.7,0-2.6-2.2-2.6-2.2c0.9,0,1.8,0,2.7,0c0.9,0,1.8,0,2.7,0C-284.3,401.5-284.2,403.7-287,403.7
			z"/>
		<path class="st2" d="M-286.9,383.8c1.4,0,1.2,1.3,1.2,1.3c0.4,0.1,0.7,0.2,1.1,0.3c0.3,0.1,0.7,0.3,1,0.4c1.5,0.8,2.4,2.1,2.8,3.7
			c0.3,1,0.3,2,0.3,3c0,1.1,0.1,2.2,0.3,3.4c0.3,2,1.5,3.4,3.1,4.5c0,0,0,0,0,0c-6.6,0-13.2,0-19.8,0c0,0,0,0,0,0
			c0.2-0.1,0.3-0.2,0.5-0.4c0.5-0.5,1-0.9,1.5-1.4c0.9-1,1.2-2.3,1.3-3.7c0.1-1,0.1-1.9,0.1-2.9c0-1,0.1-1.9,0.4-2.9
			c0.6-2,1.9-3.3,3.9-3.8c0.3-0.1,0.6-0.2,0.9-0.2C-288.2,385.1-288.3,383.8-286.9,383.8z"/>
	</g>
	<path class="st3" d="M-285.4,386.8c0,0,2,0.7,2.4,2.7"/>
</g>
<path id="XMLID_135_" class="st4" d="M-275.6,396.3C-275.6,396.3-275.6,396.3-275.6,396.3l-6.7-6.7c-0.3-0.3-0.7-0.4-1.1-0.4
	c-0.4,0-0.8,0.2-1.1,0.4l-6.7,6.7c0,0,0,0,0,0c-0.6,0.6-0.6,1.6,0,2.1c0.3,0.3,0.6,0.4,1,0.4c0,0,0,0,0,0h0.3v4.9
	c0,1,0.8,1.8,1.8,1.8h2.6c0.3,0,0.5-0.2,0.5-0.5v-3.9c0-0.4,0.4-0.8,0.8-0.8h1.6c0.4,0,0.8,0.4,0.8,0.8v3.9c0,0.3,0.2,0.5,0.5,0.5
	h2.6c1,0,1.8-0.8,1.8-1.8v-4.9h0.2c0.4,0,0.8-0.2,1.1-0.4C-275,397.8-275,396.9-275.6,396.3z"/>
<path id="XMLID_59_" class="st4" d="M-300.7,309.7h2.7c0.9,0,1.6-0.7,1.6-1.6v-5.2h0.4c0.4,0,0.7-0.1,1-0.4c0.5-0.5,0.5-1.4,0-1.9
	l0,0l-6.8-6.8c-0.3-0.3-0.6-0.4-1-0.4c-0.4,0-0.7,0.1-1,0.4l-6.9,6.9c-0.5,0.5-0.5,1.4,0,2c0.2,0.2,0.6,0.4,0.9,0.4c0,0,0,0,0,0h0.4
	v5.2c0,0.9,0.7,1.6,1.6,1.6h2.7c0.2,0,0.3-0.1,0.3-0.3v-4c0-0.5,0.4-1,1-1h1.6c0.5,0,1,0.4,1,1v4
	C-301,309.5-300.9,309.7-300.7,309.7z M-302,303.7h-1.6c-0.9,0-1.6,0.7-1.6,1.6v3.6h-2.4c-0.5,0-1-0.4-1-1v-5.5
	c0-0.2-0.1-0.3-0.3-0.3h-0.7l0-0.2l0,0l0,0.2c-0.2,0-0.4-0.1-0.5-0.2c-0.3-0.3-0.3-0.7,0-1l6.9-6.9c0.1-0.1,0.3-0.2,0.5-0.2
	c0.2,0,0.4,0.1,0.5,0.2l6.9,6.9c0.3,0.3,0.3,0.8,0,1l0,0l0,0l0,0c-0.1,0.1-0.3,0.2-0.5,0.2h-0.7c-0.2,0-0.3,0.1-0.3,0.3v5.5
	c0,0.5-0.4,1-1,1h-2.4v-3.6C-300.4,304.5-301.1,303.7-302,303.7z"/>
<path id="XMLID_34_" class="st4" d="M-281.6,260.2h-3.5c-0.7,0-1.3,0.6-1.3,1.3v9c0,0.7,0.6,1.3,1.3,1.3h13.8c0.7,0,1.3-0.6,1.3-1.3
	v-9c0-0.7-0.6-1.3-1.3-1.3h-3.5v-0.8c0-0.7-0.6-1.3-1.3-1.3h-4.1c-0.7,0-1.3,0.6-1.3,1.3V260.2z M-270.6,270.5
	c0,0.4-0.3,0.8-0.8,0.8h-13.8c-0.4,0-0.8-0.3-0.8-0.8v-5.2l0.1,0.1c0.2,0.1,0.4,0.2,0.6,0.2h5.6v1.1c0,0.1,0.1,0.3,0.3,0.3h2.1
	c0.1,0,0.3-0.1,0.3-0.3v-1.1h5.6c0.2,0,0.4-0.1,0.6-0.2l0.1-0.1V270.5z M-279,266.4v-1.5h1.5v1.5H-279z M-281.1,259.4
	c0-0.4,0.3-0.8,0.8-0.8h4.1c0.4,0,0.8,0.3,0.8,0.8v0.8h-5.7V259.4z M-271.4,260.7c0.4,0,0.8,0.3,0.8,0.8v2.8c0,0.4-0.3,0.8-0.8,0.8
	h-5.6v-0.4c0-0.1-0.1-0.3-0.3-0.3h-2.1c-0.1,0-0.3,0.1-0.3,0.3v0.4h-5.6c-0.4,0-0.8-0.3-0.8-0.8v-2.8c0-0.4,0.3-0.8,0.8-0.8H-271.4z
	"/>
<g id="XMLID_21_">
	<g id="XMLID_22_">
		<g id="XMLID_23_">
			<path id="XMLID_25_" class="st4" d="M-294,260.2h-3.4v-0.7c0-0.8-0.6-1.4-1.4-1.4h-4.1c-0.8,0-1.4,0.6-1.4,1.4v0.7h-3.4
				c-0.8,0-1.4,0.6-1.4,1.4v2c0,0.8,0.6,1.4,1.4,1.4h5.5v-0.3c0-0.2,0.2-0.3,0.3-0.3h2c0.2,0,0.3,0.2,0.3,0.3v0.3h5.5
				c0.8,0,1.4-0.6,1.4-1.4v-2C-292.7,260.8-293.3,260.2-294,260.2z M-298.8,260.2h-4.1v-0.7h4.1V260.2z"/>
			<path id="XMLID_24_" class="st4" d="M-292.9,265.3c-0.1-0.1-0.3,0-0.4,0c-0.2,0.2-0.5,0.3-0.8,0.3h-5.5v1c0,0.2-0.2,0.3-0.3,0.3
				h-2c-0.2,0-0.3-0.2-0.3-0.3v-1h-5.5c-0.3,0-0.6-0.1-0.8-0.3c-0.1-0.1-0.2-0.1-0.4,0c-0.1,0.1-0.2,0.2-0.2,0.3v4.8
				c0,0.8,0.6,1.4,1.4,1.4h13.6c0.8,0,1.4-0.6,1.4-1.4v-4.8C-292.7,265.5-292.7,265.4-292.9,265.3z"/>
		</g>
	</g>
</g>
</svg>
