<?xml version="1.0" encoding="utf-8"?>
<!-- Generator: Adobe Illustrator 19.0.0, SVG Export Plug-In . SVG Version: 6.00 Build 0)  -->
<svg version="1.1" id="Layer_1" xmlns="http://www.w3.org/2000/svg" xmlns:xlink="http://www.w3.org/1999/xlink" x="0px" y="0px"
	 viewBox="-294 386.7 21.2 21.3" style="enable-background:new -294 386.7 21.2 21.3;" xml:space="preserve">
<style type="text/css">
	.st0{fill:#28336D;}
</style>
<g>
	<g id="XMLID_84_">
		<path id="XMLID_86_" class="st0" d="M-284.61,396.42c1.2,0,2.24-0.43,3.09-1.28c0.85-0.85,1.28-1.89,1.28-3.09
			c0-1.2-0.43-2.24-1.28-3.09c-0.85-0.85-1.89-1.28-3.09-1.28c-1.2,0-2.24,0.43-3.09,1.28s-1.28,1.89-1.28,3.09
			c0,1.2,0.43,2.24,1.28,3.09C-286.85,395.99-285.81,396.42-284.61,396.42z"/>
		<path id="XMLID_85_" class="st0" d="M-282.84,403.72c0-2.02,1.64-3.66,3.66-3.66c0.78,0,1.51,0.25,2.11,0.67
			c-0.01-0.08-0.03-0.16-0.04-0.25c-0.07-0.41-0.17-0.8-0.28-1.15c-0.12-0.37-0.28-0.73-0.47-1.07c-0.2-0.36-0.44-0.67-0.71-0.93
			c-0.28-0.27-0.63-0.49-1.03-0.64c-0.4-0.16-0.84-0.24-1.31-0.24c-0.19,0-0.36,0.08-0.71,0.3c-0.21,0.14-0.46,0.3-0.74,0.48
			c-0.24,0.15-0.56,0.29-0.96,0.42c-0.39,0.13-0.78,0.19-1.17,0.19s-0.78-0.06-1.17-0.19c-0.4-0.13-0.72-0.27-0.96-0.42
			c-0.28-0.18-0.52-0.34-0.74-0.48c-0.35-0.23-0.52-0.3-0.71-0.3c-0.47,0-0.91,0.08-1.31,0.24c-0.4,0.16-0.74,0.37-1.03,0.64
			c-0.27,0.26-0.51,0.57-0.71,0.93c-0.2,0.35-0.36,0.71-0.47,1.07c-0.11,0.35-0.21,0.74-0.28,1.15c-0.07,0.41-0.12,0.79-0.15,1.15
			c-0.02,0.35-0.04,0.71-0.04,1.07c0,0.95,0.3,1.71,0.89,2.28c0.59,0.56,1.36,0.84,2.3,0.84h6.68
			C-282.59,405.22-282.84,404.5-282.84,403.72z"/>
	</g>
	<g id="XMLID_81_">
		<g id="XMLID_82_">
			<path id="XMLID_83_" class="st0" d="M-281.81,404.07c0,0.1,0.04,0.2,0.11,0.27l2.55,2.55c0.07,0.07,0.17,0.11,0.27,0.11
				c0.1,0,0.2-0.04,0.27-0.11l0.23-0.23c0.07-0.07,0.11-0.17,0.11-0.27c0-0.1-0.04-0.2-0.11-0.27l-1.51-1.5h4.75
				c0.21,0,0.38-0.18,0.38-0.4v-0.33c0-0.21-0.17-0.38-0.38-0.38h-4.73l1.49-1.49c0.07-0.07,0.11-0.17,0.11-0.28
				c0-0.1-0.04-0.2-0.11-0.27l-0.23-0.23c-0.07-0.07-0.17-0.11-0.27-0.11c-0.1,0-0.2,0.04-0.27,0.11l-2.55,2.55
				C-281.77,403.87-281.81,403.97-281.81,404.07z"/>
		</g>
	</g>
</g>
</svg>
