<?xml version="1.0" encoding="utf-8"?>
<!-- Generator: Adobe Illustrator 19.0.0, SVG Export Plug-In . SVG Version: 6.00 Build 0)  -->
<svg version="1.1" id="Layer_1" xmlns="http://www.w3.org/2000/svg" xmlns:xlink="http://www.w3.org/1999/xlink" x="0px" y="0px"
	 viewBox="-294 386.7 21.2 21.3" style="enable-background:new -294 386.7 21.2 21.3;" xml:space="preserve">
<style type="text/css">
	.st0{fill:#28336D;}
</style>
<g id="XMLID_19_">
	<path id="XMLID_32_" class="st0" d="M-279.89,402.04h2.44v1.25h-2.44V402.04z"/>
	<path id="XMLID_27_" class="st0" d="M-288.68,396.61l5.28,3.33l5.28-3.33c0-1.74,0-6.47,0-8.16c0-0.31-0.25-0.55-0.55-0.55h-9.45
		c-0.31,0-0.55,0.25-0.55,0.55V396.61z M-285.76,390.89h4.72c0.31,0,0.55,0.25,0.55,0.55s-0.25,0.55-0.55,0.55h-4.72
		c-0.31,0-0.55-0.25-0.55-0.55S-286.07,390.89-285.76,390.89z M-285.76,393.25h4.72c0.31,0,0.55,0.25,0.55,0.55
		c0,0.31-0.25,0.55-0.55,0.55h-4.72c-0.31,0-0.55-0.25-0.55-0.55C-286.32,393.5-286.07,393.25-285.76,393.25z M-285.76,395.62h4.72
		c0.31,0,0.55,0.25,0.55,0.55c0,0.31-0.25,0.55-0.55,0.55h-4.72c-0.31,0-0.55-0.25-0.55-0.55
		C-286.32,395.86-286.07,395.62-285.76,395.62z"/>
	<path id="XMLID_26_" class="st0" d="M-289.79,395.92v-3.44c-0.65,0.47-1.33,0.96-2.53,1.84L-289.79,395.92z"/>
	<path id="XMLID_21_" class="st0" d="M-283.1,401.07c-0.18,0.11-0.41,0.11-0.59,0c-4.82-3.04-2.99-1.89-9.15-5.77v9.84
		c0,0.92,0.75,1.66,1.66,1.66h15.58c0.92,0,1.66-0.75,1.66-1.66v-9.84C-278.7,398.29-274.83,395.85-283.1,401.07z M-286.35,404.4
		h-3.54c-0.31,0-0.55-0.25-0.55-0.55s0.25-0.55,0.55-0.55h3.54c0.31,0,0.55,0.25,0.55,0.55S-286.05,404.4-286.35,404.4z
		 M-286.35,402.04h-3.54c-0.31,0-0.55-0.25-0.55-0.55c0-0.31,0.25-0.55,0.55-0.55h3.54c0.31,0,0.55,0.25,0.55,0.55
		C-285.8,401.79-286.05,402.04-286.35,402.04z M-276.35,403.85c0,0.31-0.25,0.55-0.55,0.55h-3.54c-0.31,0-0.55-0.25-0.55-0.55v-2.36
		c0-0.31,0.25-0.55,0.55-0.55h3.54c0.31,0,0.55,0.25,0.55,0.55V403.85z"/>
	<path id="XMLID_20_" class="st0" d="M-277.01,395.92l2.53-1.6c-1.01-0.73-2.02-1.47-2.53-1.84V395.92z"/>
</g>
</svg>
