<?xml version="1.0" encoding="utf-8"?>
<!-- Generator: Adobe Illustrator 19.0.0, SVG Export Plug-In . SVG Version: 6.00 Build 0)  -->
<svg version="1.1" id="Layer_1" xmlns="http://www.w3.org/2000/svg" xmlns:xlink="http://www.w3.org/1999/xlink" x="0px" y="0px"
	 viewBox="-294 386.7 21.2 21.3" style="enable-background:new -294 386.7 21.2 21.3;" xml:space="preserve">
<style type="text/css">
	.st0{fill:#28336D;}
</style>
<g>
	<g id="XMLID_58_">
		<g id="XMLID_59_">
			<path id="XMLID_60_" class="st0" d="M-276.6,398h-1.48c0.15,0.41,0.23,0.86,0.23,1.32v5.59c0,0.19-0.03,0.38-0.09,0.55h2.44
				c0.91,0,1.66-0.74,1.66-1.66v-3.05C-273.84,399.23-275.08,398-276.6,398z"/>
		</g>
	</g>
	<g id="XMLID_55_">
		<g id="XMLID_56_">
			<path id="XMLID_57_" class="st0" d="M-288.95,399.32c0-0.46,0.08-0.91,0.23-1.32h-1.48c-1.52,0-2.76,1.24-2.76,2.76v3.05
				c0,0.91,0.74,1.66,1.66,1.66h2.44c-0.06-0.17-0.09-0.36-0.09-0.55V399.32z"/>
		</g>
	</g>
	<g id="XMLID_52_">
		<g id="XMLID_53_">
			<path id="XMLID_54_" class="st0" d="M-281.71,396.56h-3.38c-1.52,0-2.76,1.24-2.76,2.76v5.59c0,0.3,0.25,0.55,0.55,0.55h7.8
				c0.3,0,0.55-0.25,0.55-0.55v-5.59C-278.95,397.8-280.19,396.56-281.71,396.56z"/>
		</g>
	</g>
	<g id="XMLID_49_">
		<g id="XMLID_50_">
			<path id="XMLID_51_" class="st0" d="M-283.4,389.24c-1.83,0-3.32,1.49-3.32,3.32c0,1.24,0.69,2.33,1.7,2.89
				c0.48,0.27,1.03,0.42,1.62,0.42c0.59,0,1.14-0.15,1.62-0.42c1.01-0.57,1.7-1.65,1.7-2.89
				C-280.08,390.73-281.57,389.24-283.4,389.24z"/>
		</g>
	</g>
	<g id="XMLID_46_">
		<g id="XMLID_47_">
			<path id="XMLID_48_" class="st0" d="M-289.23,392.34c-1.37,0-2.48,1.11-2.48,2.48s1.11,2.48,2.48,2.48c0.35,0,0.68-0.07,0.98-0.2
				c0.52-0.22,0.95-0.62,1.21-1.11c0.19-0.35,0.29-0.74,0.29-1.17C-286.75,393.45-287.86,392.34-289.23,392.34z"/>
		</g>
	</g>
	<g id="XMLID_43_">
		<g id="XMLID_44_">
			<path id="XMLID_45_" class="st0" d="M-277.57,392.34c-1.37,0-2.48,1.11-2.48,2.48c0,0.42,0.11,0.82,0.29,1.17
				c0.26,0.5,0.69,0.89,1.21,1.11c0.3,0.13,0.63,0.2,0.98,0.2c1.37,0,2.48-1.11,2.48-2.48S-276.2,392.34-277.57,392.34z"/>
		</g>
	</g>
</g>
</svg>
