<?xml version="1.0" encoding="utf-8"?>
<!-- Generator: Adobe Illustrator 19.0.0, SVG Export Plug-In . SVG Version: 6.00 Build 0)  -->
<svg version="1.1" id="Layer_1" xmlns="http://www.w3.org/2000/svg" xmlns:xlink="http://www.w3.org/1999/xlink" x="0px" y="0px"
	 viewBox="-294 386.7 21.2 21.3" style="enable-background:new -294 386.7 21.2 21.3;" xml:space="preserve">
<style type="text/css">
	.st0{fill:#28336D;}
</style>
<g id="XMLID_503_">
	<g id="XMLID_98_">
		<path id="XMLID_496_" class="st0" d="M-283.4,407.05l-0.11-0.04c-3.61-1.25-5.91-3.34-7.03-6.4c-0.97-2.62-0.91-5.5-0.86-8.04
			c0.01-0.54,0.02-1.05,0.02-1.55v-0.35h0.35c3.08,0,5.43-0.89,7.4-2.8l0.24-0.24l0.24,0.24c1.96,1.91,4.32,2.8,7.4,2.8h0.35v0.35
			c0,0.5,0.01,1.01,0.02,1.55c0.05,2.54,0.1,5.42-0.86,8.04c-1.13,3.06-3.43,5.15-7.04,6.4L-283.4,407.05z M-290.7,391.37
			c0,0.39-0.01,0.8-0.02,1.22c-0.09,4.93-0.21,11.06,7.31,13.73c7.53-2.67,7.41-8.8,7.31-13.73c-0.01-0.42-0.02-0.82-0.02-1.22
			c-2.98-0.06-5.32-0.95-7.3-2.76C-285.38,390.43-287.71,391.31-290.7,391.37z"/>
	</g>
	<path id="XMLID_498_" class="st0" d="M-282.02,395.98c-0.13-0.13-0.33-0.13-0.46,0l-0.91,0.91l-0.93-0.91
		c-0.13-0.13-0.33-0.13-0.46,0c-0.13,0.13-0.13,0.33,0,0.46l0.91,0.91l-0.91,0.91c-0.13,0.13-0.13,0.33,0,0.46
		c0.13,0.13,0.33,0.13,0.46,0l0.93-0.91l0.91,0.91c0.13,0.13,0.33,0.13,0.46,0c0.13-0.13,0.13-0.33,0-0.46l-0.91-0.91l0.91-0.91
		C-281.89,396.31-281.89,396.11-282.02,395.98z"/>
	<g id="XMLID_494_">
		<path id="XMLID_504_" class="st0" d="M-283.4,400.67c-1.83,0-3.32-1.49-3.32-3.32c0-1.83,1.49-3.32,3.32-3.32s3.32,1.49,3.32,3.32
			C-280.08,399.18-281.57,400.67-283.4,400.67z M-283.4,394.73c-1.45,0-2.62,1.18-2.62,2.62s1.18,2.62,2.62,2.62
			s2.62-1.18,2.62-2.62S-281.95,394.73-283.4,394.73z"/>
	</g>
</g>
</svg>
