<?xml version="1.0" encoding="utf-8"?>
<!-- Generator: Adobe Illustrator 24.2.3, SVG Export Plug-In . SVG Version: 6.00 Build 0)  -->
<svg version="1.1" id="Layer_1" xmlns="http://www.w3.org/2000/svg" xmlns:xlink="http://www.w3.org/1999/xlink" x="0px" y="0px"
	 viewBox="-294 386.7 21.2 21.3" style="enable-background:new -294 386.7 21.2 21.3;" xml:space="preserve">
<style type="text/css">
	.st0{fill:#27346D;}
</style>
<g>
	<g>
		<g>
			<path class="st0" d="M-274.89,403.58c-1.89-0.99-3.33-1.55-4.62-1.76l0.14-0.19c0.05-0.08,0.07-0.17,0.05-0.26l-0.29-1.17
				c0.78-1.1,1.25-2.48,1.25-3.79v-1.26h0.31h0.63c0.17,0,0.31-0.14,0.31-0.31c0-0.17-0.14-0.31-0.31-0.31h-0.31v-0.31
				c0-0.88-0.21-1.7-0.58-2.44l-2.83,0.54c-0.02,0-0.04,0.01-0.06,0.01c-0.08,0-0.16-0.03-0.22-0.09c-0.07-0.07-0.11-0.18-0.09-0.28
				l0.52-2.71c-0.27-0.12-0.55-0.22-0.84-0.31v-0.07c0-0.52-0.43-0.95-0.95-0.95h-1.25c-0.52,0-0.95,0.43-0.95,0.95v0.07
				c-0.29,0.08-0.57,0.19-0.84,0.31l0.52,2.71c0.02,0.1-0.01,0.21-0.09,0.28c-0.06,0.06-0.14,0.09-0.22,0.09
				c-0.02,0-0.04,0-0.06-0.01l-2.83-0.54c-0.37,0.73-0.58,1.56-0.58,2.44v0.31h-0.31c-0.17,0-0.31,0.14-0.31,0.31
				c0,0.17,0.14,0.31,0.31,0.31h0.63h0.31v1.26c0,1.31,0.46,2.69,1.25,3.79l-0.29,1.17c-0.02,0.09,0,0.19,0.05,0.26l0.14,0.19
				c-1.28,0.22-2.73,0.77-4.62,1.76c-0.58,0.3-0.94,0.9-0.94,1.55v1.35c0,0.17,0.14,0.31,0.31,0.31h7.56h0h0.12c0,0,0,0,0,0l2.9,0
				c0.01,0,0.01,0,0.01,0h7.67c0.17,0,0.31-0.14,0.31-0.31v-1.35C-273.95,404.48-274.31,403.89-274.89,403.58z M-287.81,396.41
				v-1.26h8.82v1.26c0,1.42-0.5,2.67-1.24,3.6c-0.01,0.01-0.03,0.02-0.03,0.03c-0.11,0.14-0.22,0.27-0.34,0.39c0,0,0,0,0,0
				c-0.08,0.08-0.16,0.15-0.24,0.23c-0.77,0.69-1.68,1.1-2.56,1.1c-0.87,0-1.79-0.41-2.56-1.1c-0.08-0.07-0.16-0.15-0.24-0.23
				c0,0,0,0,0,0c-0.12-0.12-0.23-0.25-0.34-0.39c-0.01-0.01-0.02-0.02-0.03-0.03C-287.31,399.07-287.81,397.82-287.81,396.41z
				 M-286.84,401.38l0.14-0.56c0,0,0,0,0,0c0.76,0.83,1.73,1.41,2.82,1.54c0,0,0,0,0,0l-0.85,1.92L-286.84,401.38z M-284.59,406.17
				l0.19-0.94h2l0.08,0.4l0.11,0.54L-284.59,406.17z M-282.07,404.28l-0.85-1.92c0,0,0,0,0,0c1.09-0.13,2.06-0.72,2.82-1.54
				c0,0,0,0,0,0l0.14,0.56L-282.07,404.28z"/>
			<path class="st0" d="M-280.41,389.53l-0.39,2.07l2.15-0.41C-279.09,390.52-279.69,389.96-280.41,389.53z"/>
			<path class="st0" d="M-286.39,389.53c-0.72,0.43-1.31,0.99-1.76,1.65l2.15,0.41L-286.39,389.53z"/>
		</g>
	</g>
</g>
</svg>
