<?xml version="1.0" encoding="utf-8"?>
<!-- Generator: Adobe Illustrator 19.0.0, SVG Export Plug-In . SVG Version: 6.00 Build 0)  -->
<svg version="1.1" id="Layer_1" xmlns="http://www.w3.org/2000/svg" xmlns:xlink="http://www.w3.org/1999/xlink" x="0px" y="0px"
	 viewBox="-294 386.7 21.2 21.3" style="enable-background:new -294 386.7 21.2 21.3;" xml:space="preserve">
<style type="text/css">
	.st0{fill:#28336D;}
</style>
<g id="XMLID_64_">
	<path id="XMLID_77_" class="st0" d="M-275.54,390.09c-0.92,0-1.68,0.75-1.68,1.68v0.56h3.35v-0.56
		C-273.86,390.84-274.62,390.09-275.54,390.09z"/>
	<path id="XMLID_76_" class="st0" d="M-275.54,405.77c0.24,0,0.45-0.15,0.53-0.38l0.99-3.01h-3.04l0.99,3.01
		C-275.99,405.61-275.78,405.77-275.54,405.77z"/>
	<path id="XMLID_75_" class="st0" d="M-277.22,393.44h3.35v7.82h-3.35V393.44z"/>
	<path id="XMLID_74_" class="st0" d="M-285.64,387.81c-0.31,0-0.56,0.25-0.56,0.56v1.68h3.35v-1.68c0-0.31-0.25-0.56-0.56-0.56
		H-285.64z"/>
	<path id="XMLID_73_" class="st0" d="M-291.82,406.89h9.55c-0.35-0.47-0.57-1.05-0.57-1.68c0-0.31-0.25-0.56-0.56-0.56h-8.98
		c-0.31,0-0.56,0.25-0.56,0.56v0.56C-292.94,406.38-292.43,406.89-291.82,406.89z"/>
	<path id="XMLID_65_" class="st0" d="M-279.93,406.88c0.91-0.06,1.6-0.83,1.6-1.74v-15.65c0-0.31-0.25-0.56-0.56-0.56h-2.83v1.68
		c0,0.31-0.25,0.56-0.56,0.56h-4.47c-0.31,0-0.56-0.25-0.56-0.56v-1.68h-2.83c-0.31,0-0.56,0.25-0.56,0.56v14.04h7.3
		c0.93,0,1.68,0.75,1.68,1.68C-281.72,406.17-280.91,406.95-279.93,406.88z M-284.52,394h3.34c0.3,0,0.56,0.23,0.57,0.53
		c0.01,0.32-0.24,0.59-0.56,0.59h-3.34c-0.3,0-0.56-0.23-0.57-0.53C-285.09,394.26-284.84,394-284.52,394L-284.52,394z
		 M-280.61,397.94c-0.01,0.3-0.27,0.53-0.57,0.53h-3.32c-0.3,0-0.56-0.23-0.57-0.53c-0.01-0.32,0.24-0.59,0.56-0.59h3.35
		C-280.85,397.35-280.59,397.61-280.61,397.94L-280.61,397.94z M-288.25,393.03c0.22-0.2,0.57-0.18,0.78,0.03l0.71,0.71l0.71-0.71
		c0.21-0.21,0.56-0.23,0.78-0.03c0.24,0.22,0.24,0.58,0.02,0.81l-1.12,1.12c-0.11,0.11-0.25,0.16-0.4,0.16
		c-0.14,0-0.29-0.05-0.4-0.16l-1.12-1.12C-288.49,393.61-288.48,393.24-288.25,393.03L-288.25,393.03z M-288.25,396.38
		c0.22-0.2,0.57-0.18,0.78,0.03l0.71,0.71l0.71-0.71c0.21-0.21,0.56-0.23,0.78-0.03c0.24,0.22,0.24,0.58,0.02,0.81l-1.12,1.12
		c-0.11,0.11-0.25,0.16-0.4,0.16c-0.14,0-0.29-0.05-0.4-0.16l-1.12-1.12C-288.49,396.96-288.48,396.59-288.25,396.38z
		 M-286.36,401.66c-0.11,0.11-0.25,0.16-0.4,0.16c-0.14,0-0.29-0.05-0.4-0.16l-1.11-1.11c-0.21-0.21-0.23-0.56-0.03-0.78
		c0.22-0.24,0.58-0.24,0.81-0.02l0.72,0.72l0.71-0.71c0.21-0.21,0.56-0.23,0.78-0.03c0.24,0.22,0.24,0.58,0.02,0.81L-286.36,401.66z
		 M-284.52,401.82c-0.32,0-0.57-0.26-0.56-0.59c0.01-0.3,0.27-0.53,0.57-0.53h3.32c0.3,0,0.56,0.23,0.57,0.53
		c0.01,0.32-0.24,0.59-0.56,0.59H-284.52z"/>
</g>
</svg>
