<?xml version="1.0" encoding="utf-8"?>
<!-- Generator: Adobe Illustrator 19.0.0, SVG Export Plug-In . SVG Version: 6.00 Build 0)  -->
<svg version="1.1" id="Layer_1" xmlns="http://www.w3.org/2000/svg" xmlns:xlink="http://www.w3.org/1999/xlink" x="0px" y="0px"
	 viewBox="-294 386.7 21.2 21.3" style="enable-background:new -294 386.7 21.2 21.3;" xml:space="preserve">
<style type="text/css">
	.st0{fill:#28336D;}
</style>
<g id="XMLID_14_">
	<path id="XMLID_46_" class="st0" d="M-283.33,388.62c-2.19,0-3.96,1.77-3.96,3.96c0,3.33,3.96,6.39,3.96,6.39s3.96-3.06,3.96-6.39
		C-279.37,390.39-281.15,388.62-283.33,388.62z M-283.33,394.15c-0.87,0-1.58-0.71-1.58-1.58s0.71-1.58,1.58-1.58
		s1.58,0.71,1.58,1.58C-281.75,393.45-282.46,394.15-283.33,394.15z"/>
	<polygon id="XMLID_44_" class="st0" points="-291.51,397.75 -291.52,397.76 -291.83,399.49 -291.83,399.49 	"/>
	<polygon id="XMLID_62_" class="st0" points="-278.43,398.89 -278.34,399.96 -273.78,405.46 -274.06,403.92 -278.43,398.85 	"/>
	<polygon id="XMLID_67_" class="st0" points="-278.26,401.02 -278.02,404.09 -274.35,405.74 	"/>
	<polygon id="XMLID_69_" class="st0" points="-278.33,396 -278.66,395.82 -278.64,396.08 	"/>
	<path id="XMLID_73_" class="st0" d="M-279.28,395.76l-1.2,0.63c-0.15,0.21-0.31,0.42-0.48,0.63l1.72-0.75L-279.28,395.76z"/>
	<polygon id="XMLID_75_" class="st0" points="-278.24,398.13 -274.28,402.73 -275.19,397.75 -275.58,397.54 	"/>
	<polygon id="XMLID_76_" class="st0" points="-288.36,399.99 -292.3,402.08 -293.02,406.04 -288.68,404.09 	"/>
	<path id="XMLID_78_" class="st0" d="M-283.04,399.13v0.33l2.47-1.07c0.1-0.04,0.22-0.03,0.31,0.04l1.27,0.99l-0.19-2.51l-2.75,1.21
		C-282.44,398.62-282.86,398.98-283.04,399.13z"/>
	<path id="XMLID_79_" class="st0" d="M-287.6,398.1l-0.05,0.65l-0.05,0.64l4.05,6.15v-1.47l-2.74-4.31c-0.06-0.1-0.06-0.23,0-0.33
		c0.06-0.1,0.18-0.15,0.29-0.14l2.44,0.29v-0.49c-0.13-0.1-0.33-0.28-0.59-0.51L-287.6,398.1z"/>
	<polygon id="XMLID_80_" class="st0" points="-288.07,404.1 -284.18,405.85 -287.78,400.38 	"/>
	<polygon id="XMLID_81_" class="st0" points="-283.66,402.93 -283.66,400.19 -285.53,399.97 	"/>
	<polygon id="XMLID_82_" class="st0" points="-288.23,398.28 -291.97,400.25 -291.98,400.28 -292.17,401.32 -288.3,399.28 	"/>
	<path id="XMLID_242_" class="st0" d="M-287.56,397.49l2.59,0.37c-0.19-0.2-0.38-0.41-0.58-0.65c-0.22-0.27-0.43-0.53-0.62-0.79
		l-1.26-0.66L-287.56,397.49z"/>
	<polygon id="XMLID_254_" class="st0" points="-288.17,397.56 -288.12,396.95 -288.04,395.82 -291.51,397.75 -291.83,399.49 	"/>
	<polygon id="XMLID_255_" class="st0" points="-283.05,406.08 -282.14,405.67 -283.05,404.73 	"/>
	<polygon id="XMLID_256_" class="st0" points="-283.05,403.85 -281.54,405.41 -278.63,404.1 -278.93,400.24 -280.5,399.02 
		-283.05,400.12 	"/>
	<polygon id="XMLID_302_" class="st0" points="-278.6,396.69 -278.53,397.57 -276.38,397.09 -277.54,396.44 	"/>
</g>
</svg>
