<?xml version="1.0" encoding="utf-8"?>
<!-- Generator: Adobe Illustrator 19.0.0, SVG Export Plug-In . SVG Version: 6.00 Build 0)  -->
<svg version="1.1" id="Layer_1" xmlns="http://www.w3.org/2000/svg" xmlns:xlink="http://www.w3.org/1999/xlink" x="0px" y="0px"
	 viewBox="-294 386.7 21.2 21.3" style="enable-background:new -294 386.7 21.2 21.3;" xml:space="preserve">
<style type="text/css">
	.st0{fill:#28336D;}
</style>
<g id="XMLID_494_">
	<g id="XMLID_532_">
		<g id="XMLID_533_">
			<path id="XMLID_534_" class="st0" d="M-275.56,387.83h-15.69c-0.92,0-1.67,0.75-1.67,1.67v2.83h19.03v-2.83
				C-273.88,388.58-274.63,387.83-275.56,387.83z M-290.13,391.18c-0.31,0-0.56-0.25-0.56-0.56c0-0.31,0.25-0.56,0.56-0.56
				s0.56,0.25,0.56,0.56C-289.57,390.93-289.82,391.18-290.13,391.18z M-287.9,391.18c-0.31,0-0.56-0.25-0.56-0.56
				c0-0.31,0.25-0.56,0.56-0.56s0.56,0.25,0.56,0.56C-287.34,390.93-287.59,391.18-287.9,391.18z M-285.67,391.18
				c-0.31,0-0.56-0.25-0.56-0.56c0-0.31,0.25-0.56,0.56-0.56s0.56,0.25,0.56,0.56C-285.11,390.93-285.36,391.18-285.67,391.18z"/>
		</g>
	</g>
	<g id="XMLID_520_">
		<g id="XMLID_524_">
			<path id="XMLID_525_" class="st0" d="M-292.92,393.45v11.75c0,0.92,0.75,1.67,1.67,1.67h15.69c0.92,0,1.67-0.75,1.67-1.67v-11.75
				H-292.92z M-290.69,395.16c0-0.31,0.25-0.56,0.56-0.56h5.58c0.31,0,0.56,0.25,0.56,0.56v4.46c0,0.31-0.25,0.56-0.56,0.56h-5.58
				c-0.31,0-0.56-0.25-0.56-0.56V395.16z M-276.67,404.64h-13.46c-0.31,0-0.56-0.25-0.56-0.56c0-0.31,0.25-0.56,0.56-0.56h13.46
				c0.31,0,0.56,0.25,0.56,0.56C-276.11,404.39-276.36,404.64-276.67,404.64z M-276.67,402.41h-13.46c-0.31,0-0.56-0.25-0.56-0.56
				c0-0.31,0.25-0.56,0.56-0.56h13.46c0.31,0,0.56,0.25,0.56,0.56C-276.11,402.16-276.36,402.41-276.67,402.41z M-276.67,400.18
				h-5.65c-0.31,0-0.56-0.25-0.56-0.56c0-0.31,0.25-0.56,0.56-0.56h5.65c0.31,0,0.56,0.25,0.56,0.56
				C-276.11,399.93-276.36,400.18-276.67,400.18z M-276.67,397.94h-5.65c-0.31,0-0.56-0.25-0.56-0.56c0-0.31,0.25-0.56,0.56-0.56
				h5.65c0.31,0,0.56,0.25,0.56,0.56C-276.11,397.7-276.36,397.94-276.67,397.94z"/>
		</g>
	</g>
	<g id="XMLID_506_">
		<g id="XMLID_508_">
			<rect id="XMLID_519_" x="-289.57" y="395.71" class="st0" width="4.46" height="3.35"/>
		</g>
	</g>
</g>
</svg>
