<?xml version="1.0" encoding="utf-8"?>
<!-- Generator: Adobe Illustrator 19.0.0, SVG Export Plug-In . SVG Version: 6.00 Build 0)  -->
<svg version="1.1" id="Layer_1" xmlns="http://www.w3.org/2000/svg" xmlns:xlink="http://www.w3.org/1999/xlink" x="0px" y="0px"
	 viewBox="-294 386.7 21.2 21.3" style="enable-background:new -294 386.7 21.2 21.3;" xml:space="preserve">
<style type="text/css">
	.st0{fill:#28336D;}
</style>
<g id="XMLID_6_">
	<path id="XMLID_99_" class="st0" d="M-275.17,393.34c0-1.16,0-1.97,0-2.05c0-0.86-0.7-1.56-1.56-1.56h-0.21v1.91
		c0,0.29-0.23,0.52-0.52,0.52c-0.29,0-0.52-0.23-0.52-0.52c0-0.58,0-2.19,0-2.78c0-0.29-0.23-0.52-0.52-0.52
		c-0.29,0-0.52,0.23-0.52,0.52v0.87h-3.47v1.91c0,0.29-0.23,0.52-0.52,0.52s-0.52-0.23-0.52-0.52c0-0.58,0-2.19,0-2.78
		c0-0.29-0.23-0.52-0.52-0.52c-0.29,0-0.52,0.23-0.52,0.52v0.87h-3.47v1.91c0,0.29-0.23,0.52-0.52,0.52c-0.29,0-0.52-0.23-0.52-0.52
		c0-0.58,0-2.19,0-2.78c0-0.29-0.23-0.52-0.52-0.52s-0.52,0.23-0.52,0.52v0.87h-1.25c-0.86,0-1.56,0.7-1.56,1.56v2.05H-275.17z"/>
	<g id="XMLID_87_">
		<g id="XMLID_88_">
			<path id="XMLID_89_" class="st0" d="M-277.74,398.43c-2.1,0-3.79,1.7-3.79,3.79c0,2.09,1.7,3.79,3.79,3.79s3.79-1.7,3.79-3.79
				C-273.94,400.12-275.64,398.43-277.74,398.43z M-276.1,402.94h-1.61c-0.01,0-0.01,0-0.02,0c-0.01,0-0.01,0-0.02,0
				c-0.14,0-0.26-0.12-0.26-0.26V400c0-0.14,0.12-0.26,0.26-0.26s0.26,0.12,0.26,0.26v2.42h1.38c0.14,0,0.26,0.12,0.26,0.26
				C-275.83,402.82-275.95,402.94-276.1,402.94z"/>
		</g>
	</g>
	<path id="XMLID_95_" class="st0" d="M-282.44,402.11c0-2.52,2.04-4.56,4.56-4.56c1.01,0,1.95,0.33,2.71,0.89c0-1.35,0-2.81,0-4.05
		c-0.32,0-17.59,0-17.77,0v8.43c0,0.86,0.7,1.56,1.56,1.56h9.54C-282.22,403.71-282.44,402.93-282.44,402.11z M-280.16,396.12h1.11
		c0.29,0,0.52,0.23,0.52,0.52c0,0.29-0.23,0.52-0.52,0.52h-1.11c-0.29,0-0.52-0.23-0.52-0.52
		C-280.69,396.35-280.45,396.12-280.16,396.12z M-287.94,401.6h-1.11c-0.29,0-0.52-0.23-0.52-0.52c0-0.29,0.23-0.52,0.52-0.52h1.11
		c0.29,0,0.52,0.23,0.52,0.52C-287.42,401.37-287.65,401.6-287.94,401.6z M-287.94,399.38h-1.11c-0.29,0-0.52-0.23-0.52-0.52
		s0.23-0.52,0.52-0.52h1.11c0.29,0,0.52,0.23,0.52,0.52S-287.65,399.38-287.94,399.38z M-287.94,397.16h-1.11
		c-0.29,0-0.52-0.23-0.52-0.52c0-0.29,0.23-0.52,0.52-0.52h1.11c0.29,0,0.52,0.23,0.52,0.52
		C-287.42,396.92-287.65,397.16-287.94,397.16z M-283.5,401.6h-1.11c-0.29,0-0.52-0.23-0.52-0.52c0-0.29,0.23-0.52,0.52-0.52h1.11
		c0.29,0,0.52,0.23,0.52,0.52C-282.98,401.37-283.21,401.6-283.5,401.6z M-283.5,399.38h-1.11c-0.29,0-0.52-0.23-0.52-0.52
		s0.23-0.52,0.52-0.52h1.11c0.29,0,0.52,0.23,0.52,0.52S-283.21,399.38-283.5,399.38z M-283.5,397.16h-1.11
		c-0.29,0-0.52-0.23-0.52-0.52c0-0.29,0.23-0.52,0.52-0.52h1.11c0.29,0,0.52,0.23,0.52,0.52
		C-282.98,396.92-283.21,397.16-283.5,397.16z"/>
</g>
</svg>
