<?xml version="1.0" encoding="utf-8"?>
<!-- Generator: Adobe Illustrator 19.0.0, SVG Export Plug-In . SVG Version: 6.00 Build 0)  -->
<svg version="1.1" id="Layer_1" xmlns="http://www.w3.org/2000/svg" xmlns:xlink="http://www.w3.org/1999/xlink" x="0px" y="0px"
	 viewBox="-294 386.7 21.2 21.3" style="enable-background:new -294 386.7 21.2 21.3;" xml:space="preserve">
<style type="text/css">
	.st0{fill:#28336D;}
</style>
<g id="XMLID_549_">
	<g id="XMLID_570_">
		<g id="XMLID_571_">
			<path id="XMLID_572_" class="st0" d="M-275.45,395.71l-7.52-7.52c-0.44-0.44-1.16-0.44-1.6,0c-0.44,0.44-0.44,1.16,0,1.6
				l7.52,7.52c0.44,0.44,1.16,0.44,1.6,0C-275.01,396.87-275.01,396.16-275.45,395.71z"/>
		</g>
	</g>
	<g id="XMLID_567_">
		<g id="XMLID_568_">
			<path id="XMLID_569_" class="st0" d="M-285.13,390.83l-0.06,0.28c-0.4,2-1.37,3.89-2.68,5.43l4.09,4.09
				c1.54-1.31,3.41-2.31,5.4-2.71l0.28-0.06L-285.13,390.83z"/>
		</g>
	</g>
	<g id="XMLID_562_">
		<g id="XMLID_563_">
			<path id="XMLID_564_" class="st0" d="M-288.62,397.39l-2.8,2.8c-0.66,0.66-0.66,1.73,0,2.4l1.6,1.6c0.66,0.66,1.73,0.66,2.4,0
				l2.8-2.8L-288.62,397.39z M-288.22,401.78c-0.22,0.22-0.58,0.22-0.8,0c-0.22-0.22-0.22-0.58,0-0.8l0.8-0.8
				c0.22-0.22,0.58-0.22,0.8,0c0.22,0.22,0.22,0.58,0,0.8L-288.22,401.78z"/>
		</g>
	</g>
	<g id="XMLID_559_">
		<g id="XMLID_560_">
			<path id="XMLID_561_" class="st0" d="M-282.26,404.48l0.77-0.77c0.66-0.66,0.66-1.74,0-2.4l-0.57-0.57
				c-0.32,0.21-0.62,0.44-0.91,0.69l0.68,0.68c0.22,0.22,0.22,0.58,0,0.8l-0.78,0.78l-1.15-1.11l-1.6,1.6l2.56,2.48
				c0.44,0.44,1.16,0.44,1.6,0c0.44-0.44,0.44-1.16,0-1.6L-282.26,404.48z"/>
		</g>
	</g>
	<g id="XMLID_556_">
		<g id="XMLID_557_">
			<path id="XMLID_558_" class="st0" d="M-279.98,387.7c-0.31,0-0.57,0.25-0.57,0.57v1.13c0,0.31,0.25,0.57,0.57,0.57
				c0.31,0,0.57-0.25,0.57-0.57v-1.13C-279.41,387.96-279.66,387.7-279.98,387.7z"/>
		</g>
	</g>
	<g id="XMLID_553_">
		<g id="XMLID_554_">
			<path id="XMLID_555_" class="st0" d="M-275.46,392.23h-1.13c-0.31,0-0.57,0.25-0.57,0.57s0.25,0.57,0.57,0.57h1.13
				c0.31,0,0.57-0.25,0.57-0.57S-275.14,392.23-275.46,392.23z"/>
		</g>
	</g>
	<g id="XMLID_550_">
		<g id="XMLID_551_">
			<path id="XMLID_552_" class="st0" d="M-276.19,389c-0.22-0.22-0.58-0.22-0.8,0l-1.13,1.13c-0.22,0.22-0.22,0.58,0,0.8
				c0.22,0.22,0.58,0.22,0.8,0l1.13-1.13C-275.97,389.58-275.97,389.22-276.19,389z"/>
		</g>
	</g>
</g>
</svg>
