<?xml version="1.0" encoding="utf-8"?>
<!-- Generator: Adobe Illustrator 19.0.0, SVG Export Plug-In . SVG Version: 6.00 Build 0)  -->
<svg version="1.1" id="Layer_1" xmlns="http://www.w3.org/2000/svg" xmlns:xlink="http://www.w3.org/1999/xlink" x="0px" y="0px"
	 viewBox="-294 386.7 21.2 21.3" style="enable-background:new -294 386.7 21.2 21.3;" xml:space="preserve">
<style type="text/css">
	.st0{fill:#28336D;}
</style>
<g id="XMLID_33_">
	<path id="XMLID_42_" class="st0" d="M-275.81,399.27c-1.05,0-1.97-0.52-2.53-1.32c-0.56,0.8-1.49,1.32-2.53,1.32
		s-1.97-0.52-2.53-1.32c-0.56,0.8-1.49,1.32-2.53,1.32s-1.97-0.52-2.53-1.32c-0.56,0.8-1.49,1.32-2.53,1.32
		c-0.29,0-0.58-0.04-0.85-0.12v6.66h16.88v-6.66C-275.23,399.23-275.51,399.27-275.81,399.27z"/>
	<path id="XMLID_41_" class="st0" d="M-278.93,388.89l1.06,6.09h3.8l-2.13-6.09H-278.93z"/>
	<path id="XMLID_40_" class="st0" d="M-282.84,394.99h3.83l-1.06-6.09h-2.77V394.99z"/>
	<path id="XMLID_39_" class="st0" d="M-283.96,394.99v-6.09h-2.77l-1.06,6.09H-283.96z"/>
	<path id="XMLID_38_" class="st0" d="M-288.93,394.99l1.06-6.09h-2.74l-2.13,6.09H-288.93z"/>
	<path id="XMLID_37_" class="st0" d="M-290.99,398.15c1.09,0,1.97-0.88,1.97-1.97v-0.07h-3.94v0.07
		C-292.96,397.26-292.08,398.15-290.99,398.15z"/>
	<path id="XMLID_36_" class="st0" d="M-283.96,396.18v-0.07h-3.94v0.07c0,1.09,0.88,1.97,1.97,1.97
		C-284.84,398.15-283.96,397.26-283.96,396.18z"/>
	<path id="XMLID_35_" class="st0" d="M-278.9,396.18v-0.07h-3.94v0.07c0,1.09,0.88,1.97,1.97,1.97S-278.9,397.26-278.9,396.18z"/>
	<path id="XMLID_34_" class="st0" d="M-275.81,398.15c1.09,0,1.97-0.88,1.97-1.97v-0.07h-3.94v0.07
		C-277.78,397.26-276.89,398.15-275.81,398.15z"/>
</g>
</svg>
