<?xml version="1.0" encoding="utf-8"?>
<!-- Generator: Adobe Illustrator 19.0.0, SVG Export Plug-In . SVG Version: 6.00 Build 0)  -->
<svg version="1.1" id="Layer_1" xmlns="http://www.w3.org/2000/svg" xmlns:xlink="http://www.w3.org/1999/xlink" x="0px" y="0px"
	 viewBox="-294 386.7 21.2 21.3" style="enable-background:new -294 386.7 21.2 21.3;" xml:space="preserve">
<style type="text/css">
	.st0{fill:#28336D;}
</style>
<g id="XMLID_573_">
	<g id="XMLID_574_">
		<g id="XMLID_575_">
			<path id="XMLID_577_" class="st0" d="M-273.94,396.25c-0.04-0.1-0.1-0.18-0.17-0.26l-2.38-2.38c-0.31-0.31-0.81-0.31-1.12,0
				c-0.31,0.31-0.31,0.81,0,1.12l1.03,1.03h-4.43c-0.44,0-0.79,0.36-0.79,0.79s0.35,0.79,0.79,0.79h4.43l-1.03,1.03
				c-0.31,0.31-0.31,0.81,0,1.12c0.15,0.16,0.36,0.23,0.56,0.23c0.2,0,0.41-0.08,0.56-0.23l2.38-2.38c0.07-0.07,0.13-0.16,0.17-0.26
				C-273.86,396.67-273.86,396.45-273.94,396.25z"/>
			<path id="XMLID_576_" class="st0" d="M-279.43,398.94c-0.44,0-0.79,0.36-0.79,0.79v3.97h-3.17v-12.69c0-0.35-0.23-0.66-0.57-0.76
				l-2.75-0.83h6.49v3.97c0,0.44,0.35,0.79,0.79,0.79c0.44,0,0.79-0.36,0.79-0.79v-4.76c0-0.44-0.35-0.79-0.79-0.79h-12.69
				c-0.03,0-0.05,0.01-0.08,0.02c-0.04,0-0.07,0.01-0.11,0.02c-0.08,0.02-0.16,0.05-0.23,0.1c-0.02,0.01-0.04,0.01-0.06,0.02
				c-0.01,0-0.01,0.01-0.02,0.02c-0.09,0.07-0.16,0.15-0.21,0.25c-0.01,0.02-0.01,0.04-0.02,0.07c-0.03,0.06-0.05,0.12-0.06,0.19
				c0,0.02,0,0.05,0,0.07c0,0.02-0.01,0.03-0.01,0.05v15.86c0,0.38,0.27,0.7,0.64,0.78l7.93,1.59c0.05,0.01,0.1,0.02,0.16,0.02
				c0.18,0,0.36-0.06,0.5-0.18c0.18-0.15,0.29-0.38,0.29-0.61v-0.79h3.97c0.44,0,0.79-0.36,0.79-0.79v-4.76
				C-278.64,399.29-279,398.94-279.43,398.94z"/>
		</g>
	</g>
</g>
</svg>
