<?xml version="1.0" encoding="utf-8"?>
<!-- Generator: Adobe Illustrator 19.0.0, SVG Export Plug-In . SVG Version: 6.00 Build 0)  -->
<svg version="1.1" id="Layer_1" xmlns="http://www.w3.org/2000/svg" xmlns:xlink="http://www.w3.org/1999/xlink" x="0px" y="0px"
	 viewBox="-294 386.7 21.2 21.3" style="enable-background:new -294 386.7 21.2 21.3;" xml:space="preserve">
<style type="text/css">
	.st0{fill:#28336D;}
</style>
<g id="XMLID_543_">
	<path id="XMLID_528_" class="st0" d="M-275.48,390.74c-3.28,0-5.79-0.94-7.92-3c-2.13,2.07-4.64,3-7.92,3
		c0,5.38-1.11,13.09,7.92,16.22C-274.37,403.83-275.48,396.12-275.48,390.74z M-283.39,400.43c-1.69,0-3.09-1.4-3.09-3.09
		s1.4-3.07,3.09-3.07s3.07,1.38,3.07,3.07S-281.7,400.43-283.39,400.43z"/>
	<g id="XMLID_518_">
		<path id="XMLID_532_" class="st0" d="M-283.52,398.54c-0.23,0-0.42,0.19-0.42,0.43c0,0.23,0.18,0.43,0.42,0.43s0.43-0.2,0.43-0.43
			C-283.09,398.74-283.28,398.54-283.52,398.54z"/>
		<path id="XMLID_531_" class="st0" d="M-283.44,395.3c-0.75,0-1.1,0.44-1.1,0.75c0,0.22,0.18,0.32,0.33,0.32
			c0.3,0,0.18-0.43,0.75-0.43c0.28,0,0.5,0.12,0.5,0.38c0,0.3-0.31,0.47-0.49,0.63c-0.16,0.14-0.37,0.37-0.37,0.85
			c0,0.29,0.08,0.37,0.31,0.37c0.27,0,0.33-0.12,0.33-0.23c0-0.29,0.01-0.46,0.31-0.7c0.15-0.12,0.62-0.49,0.62-1.02
			S-282.73,395.3-283.44,395.3z"/>
	</g>
</g>
</svg>
