<?xml version="1.0" encoding="utf-8"?>
<!-- Generator: Adobe Illustrator 19.0.0, SVG Export Plug-In . SVG Version: 6.00 Build 0)  -->
<svg version="1.1" id="Layer_1" xmlns="http://www.w3.org/2000/svg" xmlns:xlink="http://www.w3.org/1999/xlink" x="0px" y="0px"
	 viewBox="-294 386.7 21.2 21.3" style="enable-background:new -294 386.7 21.2 21.3;" xml:space="preserve">
<style type="text/css">
	.st0{fill:#28336D;}
</style>
<g id="XMLID_540_">
	<path id="XMLID_515_" class="st0" d="M-275.51,390.76c-3.27,0-5.77-0.93-7.89-2.99c-2.12,2.06-4.62,2.99-7.89,2.99
		c0,5.36-1.11,13.05,7.89,16.17C-274.4,403.81-275.51,396.13-275.51,390.76z M-283.39,400.42c-1.69,0-3.08-1.4-3.08-3.08
		s1.4-3.06,3.08-3.06s3.06,1.37,3.06,3.06S-281.7,400.42-283.39,400.42z"/>
	<path id="XMLID_542_" class="st0" d="M-284.85,397.18c-0.04-0.04-0.1-0.06-0.15-0.06s-0.11,0.02-0.15,0.06l-0.15,0.15
		c-0.04,0.04-0.06,0.09-0.06,0.15c0,0.06,0.02,0.11,0.06,0.15l1.19,1.19c0.04,0.04,0.11,0.04,0.15,0l2.46-2.46
		c0.04-0.04,0.06-0.09,0.06-0.15c0-0.06-0.02-0.11-0.06-0.15l-0.15-0.15c-0.08-0.08-0.22-0.08-0.3,0l-2.08,2.08L-284.85,397.18z"/>
</g>
</svg>
