<?xml version="1.0" encoding="utf-8"?>
<!-- Generator: Adobe Illustrator 19.0.0, SVG Export Plug-In . SVG Version: 6.00 Build 0)  -->
<svg version="1.1" id="Layer_1" xmlns="http://www.w3.org/2000/svg" xmlns:xlink="http://www.w3.org/1999/xlink" x="0px" y="0px"
	 viewBox="-294 386.7 21.2 21.3" style="enable-background:new -294 386.7 21.2 21.3;" xml:space="preserve">
<style type="text/css">
	.st0{fill:#28336D;}
</style>
<g id="XMLID_87_">
	<path id="XMLID_505_" class="st0" d="M-281.95,395.92c-0.13-0.13-0.35-0.13-0.48,0l-0.95,0.95l-0.97-0.95
		c-0.13-0.13-0.35-0.13-0.48,0c-0.13,0.13-0.13,0.35,0,0.48l0.95,0.95l-0.95,0.95c-0.13,0.13-0.13,0.35,0,0.48
		c0.13,0.13,0.35,0.13,0.48,0l0.97-0.95l0.95,0.95c0.13,0.13,0.35,0.13,0.48,0c0.13-0.13,0.13-0.35,0-0.48l-0.95-0.95l0.95-0.95
		C-281.82,396.26-281.82,396.05-281.95,395.92z"/>
	<path id="XMLID_509_" class="st0" d="M-275.41,390.68c-3.31,0-5.85-0.95-7.99-3.03c-2.15,2.09-4.68,3.03-7.99,3.03
		c0,5.43-1.12,13.22,7.99,16.38C-274.28,403.89-275.41,396.11-275.41,390.68z M-283.39,400.46c-1.71,0-3.12-1.41-3.12-3.12
		c0-1.71,1.41-3.1,3.12-3.1c1.71,0,3.1,1.39,3.1,3.1C-280.29,399.04-281.68,400.46-283.39,400.46z"/>
</g>
</svg>
