<?xml version="1.0" encoding="utf-8"?>
<!-- Generator: Adobe Illustrator 19.0.0, SVG Export Plug-In . SVG Version: 6.00 Build 0)  -->
<svg version="1.1" id="Layer_1" xmlns="http://www.w3.org/2000/svg" xmlns:xlink="http://www.w3.org/1999/xlink" x="0px" y="0px"
	 viewBox="-294 386.7 21.2 21.3" style="enable-background:new -294 386.7 21.2 21.3;" xml:space="preserve">
<style type="text/css">
	.st0{fill:#28336D;}
</style>
<g id="XMLID_544_">
	<g id="XMLID_533_">
		<path id="XMLID_534_" class="st0" d="M-283.4,407.1l-0.11-0.04c-3.62-1.26-5.94-3.36-7.07-6.43c-0.97-2.63-0.91-5.53-0.87-8.08
			c0.01-0.54,0.02-1.06,0.02-1.55v-0.35h0.35c3.1,0,5.46-0.89,7.44-2.81l0.24-0.24l0.24,0.24c1.97,1.92,4.34,2.81,7.44,2.81h0.35
			V391c0,0.5,0.01,1.01,0.02,1.55c0.05,2.55,0.1,5.45-0.87,8.08c-1.13,3.07-3.45,5.17-7.07,6.43L-283.4,407.1z M-290.73,391.34
			c0,0.39-0.01,0.8-0.02,1.22c-0.09,4.95-0.21,11.11,7.35,13.8c7.56-2.68,7.45-8.84,7.35-13.8c-0.01-0.42-0.02-0.83-0.02-1.22
			c-3-0.06-5.35-0.95-7.33-2.78C-285.39,390.39-287.73,391.28-290.73,391.34z"/>
	</g>
	<g id="XMLID_524_">
		<path id="XMLID_525_" class="st0" d="M-283.4,400.69c-1.84,0-3.34-1.5-3.34-3.34c0-1.84,1.5-3.34,3.34-3.34s3.34,1.5,3.34,3.34
			C-280.06,399.19-281.56,400.69-283.4,400.69z M-283.4,394.71c-1.45,0-2.64,1.18-2.64,2.64s1.18,2.64,2.64,2.64
			c1.45,0,2.64-1.18,2.64-2.64S-281.95,394.71-283.4,394.71z"/>
	</g>
	<g id="XMLID_537_">
		<path id="XMLID_539_" class="st0" d="M-283.51,398.51c-0.23,0-0.41,0.19-0.41,0.42c0,0.22,0.18,0.42,0.41,0.42
			c0.23,0,0.42-0.19,0.42-0.42C-283.1,398.7-283.29,398.51-283.51,398.51z"/>
		<path id="XMLID_538_" class="st0" d="M-283.44,395.36c-0.73,0-1.06,0.43-1.06,0.72c0,0.21,0.18,0.31,0.32,0.31
			c0.29,0,0.17-0.42,0.72-0.42c0.27,0,0.49,0.12,0.49,0.37c0,0.29-0.3,0.46-0.48,0.61c-0.16,0.13-0.36,0.36-0.36,0.82
			c0,0.28,0.08,0.36,0.3,0.36c0.26,0,0.32-0.12,0.32-0.22c0-0.28,0.01-0.44,0.3-0.67c0.15-0.11,0.6-0.48,0.6-0.99
			C-282.29,395.75-282.75,395.36-283.44,395.36z"/>
	</g>
</g>
</svg>
