<?xml version="1.0" encoding="utf-8"?>
<!-- Generator: Adobe Illustrator 19.0.0, SVG Export Plug-In . SVG Version: 6.00 Build 0)  -->
<svg version="1.1" id="Layer_1" xmlns="http://www.w3.org/2000/svg" xmlns:xlink="http://www.w3.org/1999/xlink" x="0px" y="0px"
	 viewBox="-294 386.7 21.2 21.3" style="enable-background:new -294 386.7 21.2 21.3;" xml:space="preserve">
<style type="text/css">
	.st0{fill:#28336D;}
</style>
<g id="_29-auction">
	<g id="Glyph">
		<path id="XMLID_18_" class="st0" d="M-292.88,405.24h11.16v1.59h-11.16V405.24z"/>
		<path id="XMLID_17_" class="st0" d="M-283.32,403.63c0-0.44-0.36-0.8-0.8-0.8h-6.38c-0.44,0-0.8,0.36-0.8,0.8v0.81h7.97V403.63z"
			/>
		<path id="XMLID_16_" class="st0" d="M-282.04,397.12c-0.37,0.4-0.68,0.84-0.92,1.33l6.56,6.56c0.31,0.31,0.82,0.31,1.13,0
			l1.13-1.13c0.31-0.31,0.31-0.82,0-1.13c0,0,0,0,0,0l-6.56-6.56C-281.2,396.43-281.64,396.74-282.04,397.12L-282.04,397.12z"/>
		<path id="XMLID_12_" class="st0" d="M-285.98,393.17c-0.6,0.56-1.3,1.01-2.06,1.32l4.12,4.12c0.32-0.76,0.76-1.46,1.32-2.06
			c0.6-0.56,1.3-1.01,2.06-1.32l-4.12-4.12C-284.98,391.87-285.43,392.57-285.98,393.17z"/>
		<path id="XMLID_11_" class="st0" d="M-284.29,389.23l1.13-1.13c0.31-0.31,0.82-0.31,1.13,0l4.51,4.51c0.31,0.31,0.31,0.82,0,1.13
			l-1.13,1.13c-0.31,0.31-0.82,0.31-1.13,0l-4.51-4.51C-284.61,390.04-284.61,389.54-284.29,389.23z"/>
		<path id="XMLID_7_" class="st0" d="M-291.06,395.99l1.13-1.13c0.31-0.31,0.82-0.31,1.13,0l4.51,4.51c0.31,0.31,0.31,0.82,0,1.13
			l-1.13,1.13c-0.31,0.31-0.82,0.31-1.13,0l-4.51-4.51C-291.37,396.8-291.37,396.3-291.06,395.99z"/>
	</g>
</g>
</svg>
