<?xml version="1.0" encoding="utf-8"?>
<!-- Generator: Adobe Illustrator 19.0.0, SVG Export Plug-In . SVG Version: 6.00 Build 0)  -->
<svg version="1.1" id="Layer_1" xmlns="http://www.w3.org/2000/svg" xmlns:xlink="http://www.w3.org/1999/xlink" x="0px" y="0px"
	 viewBox="-294 386.7 21.2 21.3" style="enable-background:new -294 386.7 21.2 21.3;" xml:space="preserve">
<style type="text/css">
	.st0{fill:#28336D;}
</style>
<g id="XMLID_5_">
	<g id="XMLID_13_">
		<g id="XMLID_14_">
			<path id="XMLID_15_" class="st0" d="M-280.42,400.55c0.04-0.46,0.03-0.92-0.04-1.37l1.04-0.46c-0.1-0.5-0.25-1-0.46-1.48
				c-0.21-0.48-0.48-0.92-0.79-1.33l-1.04,0.46c-0.29-0.35-0.62-0.67-0.99-0.94l0.41-1.06c-0.42-0.29-0.88-0.53-1.37-0.71
				c-0.49-0.19-0.99-0.32-1.5-0.39l-0.41,1.06c-0.46-0.04-0.92-0.03-1.37,0.04l-0.46-1.03c-1.02,0.2-1.98,0.64-2.8,1.26l0.46,1.02
				c-0.35,0.29-0.67,0.62-0.94,0.99l-1.06-0.4c-0.29,0.42-0.53,0.88-0.72,1.37c-0.19,0.49-0.31,0.99-0.39,1.5l1.06,0.41
				c-0.04,0.46-0.03,0.92,0.04,1.37l-1.04,0.46c0.1,0.5,0.25,1,0.46,1.48c0.21,0.48,0.48,0.92,0.79,1.33l1.04-0.46
				c0.29,0.35,0.62,0.67,0.99,0.94l-0.41,1.06c0.42,0.29,0.88,0.53,1.37,0.71c0.49,0.19,0.99,0.32,1.5,0.39l0.41-1.06
				c0.46,0.04,0.92,0.03,1.37-0.04l0.46,1.03c1.02-0.2,1.98-0.64,2.8-1.26l-0.46-1.02c0.35-0.29,0.67-0.62,0.94-0.99l1.05,0.4
				c0.29-0.42,0.53-0.88,0.72-1.37c0.19-0.49,0.32-0.99,0.39-1.5L-280.42,400.55z M-283.24,401.12c-0.61,1.59-2.39,2.38-3.97,1.77
				c-1.58-0.61-2.38-2.39-1.77-3.97c0.61-1.58,2.39-2.38,3.97-1.77C-283.42,397.75-282.63,399.53-283.24,401.12z"/>
		</g>
	</g>
	<g id="XMLID_8_">
		<g id="XMLID_9_">
			<path id="XMLID_10_" class="st0" d="M-274.69,392.11c0-0.21-0.02-0.41-0.06-0.6l0.79-0.46c-0.19-0.73-0.57-1.39-1.1-1.9
				l-0.8,0.46c-0.3-0.26-0.66-0.46-1.04-0.6v-0.92c-0.35-0.1-0.72-0.15-1.1-0.15s-0.75,0.06-1.1,0.15v0.92
				c-0.38,0.14-0.74,0.34-1.04,0.6l-0.8-0.46c-0.52,0.52-0.9,1.17-1.1,1.9l0.79,0.46c-0.04,0.2-0.06,0.4-0.06,0.6
				c0,0.21,0.02,0.41,0.06,0.6l-0.79,0.46c0.19,0.73,0.57,1.39,1.1,1.9l0.8-0.46c0.3,0.26,0.66,0.46,1.04,0.6v0.92
				c0.35,0.1,0.72,0.15,1.1,0.15s0.75-0.06,1.1-0.15v-0.92c0.38-0.14,0.74-0.34,1.04-0.6l0.8,0.46c0.52-0.52,0.9-1.17,1.1-1.9
				l-0.79-0.46C-274.71,392.52-274.69,392.32-274.69,392.11z M-277.98,393.65c-0.85,0-1.54-0.69-1.54-1.54
				c0-0.85,0.69-1.54,1.54-1.54c0.85,0,1.54,0.69,1.54,1.54S-277.14,393.65-277.98,393.65z"/>
		</g>
	</g>
</g>
</svg>
