<?xml version="1.0" encoding="utf-8"?>
<!-- Generator: Adobe Illustrator 19.0.0, SVG Export Plug-In . SVG Version: 6.00 Build 0)  -->
<svg version="1.1" id="Layer_1" xmlns="http://www.w3.org/2000/svg" xmlns:xlink="http://www.w3.org/1999/xlink" x="0px" y="0px"
	 viewBox="-294 386.7 21.2 21.3" style="enable-background:new -294 386.7 21.2 21.3;" xml:space="preserve">
<style type="text/css">
	.st0{fill:#28336D;}
</style>
<g id="XMLID_541_">
	<g id="XMLID_520_">
		<path id="XMLID_521_" class="st0" d="M-283.4,407.08l-0.11-0.04c-3.61-1.25-5.92-3.35-7.05-6.41c-0.97-2.62-0.91-5.51-0.86-8.06
			c0.01-0.54,0.02-1.05,0.02-1.55v-0.35h0.35c3.09,0,5.45-0.89,7.42-2.81l0.24-0.24l0.24,0.24c1.97,1.91,4.33,2.81,7.42,2.81h0.35
			v0.35c0,0.5,0.01,1.01,0.02,1.55c0.05,2.55,0.1,5.44-0.86,8.06c-1.13,3.06-3.44,5.16-7.05,6.41L-283.4,407.08z M-290.71,391.36
			c0,0.39-0.01,0.8-0.02,1.22c-0.09,4.94-0.21,11.08,7.33,13.76c7.54-2.68,7.43-8.82,7.33-13.76c-0.01-0.42-0.02-0.82-0.02-1.22
			c-2.99-0.06-5.33-0.95-7.31-2.77C-285.38,390.41-287.72,391.3-290.71,391.36z"/>
	</g>
	<g id="XMLID_511_">
		<path id="XMLID_512_" class="st0" d="M-283.4,400.68c-1.83,0-3.33-1.49-3.33-3.33c0-1.83,1.49-3.33,3.33-3.33s3.33,1.49,3.33,3.33
			C-280.07,399.18-281.57,400.68-283.4,400.68z M-283.4,394.72c-1.45,0-2.63,1.18-2.63,2.63c0,1.45,1.18,2.63,2.63,2.63
			s2.63-1.18,2.63-2.63C-280.77,395.9-281.95,394.72-283.4,394.72z"/>
	</g>
	<path id="XMLID_519_" class="st0" d="M-284.81,397.18c-0.04-0.04-0.09-0.06-0.15-0.06c-0.05,0-0.11,0.02-0.15,0.06l-0.14,0.14
		c-0.04,0.04-0.06,0.09-0.06,0.15c0,0.06,0.02,0.11,0.06,0.15l1.16,1.16c0.04,0.04,0.11,0.04,0.15,0l2.38-2.38
		c0.04-0.04,0.06-0.09,0.06-0.15c0-0.06-0.02-0.11-0.06-0.15l-0.14-0.14c-0.08-0.08-0.21-0.08-0.29,0l-2.02,2.02L-284.81,397.18z"/>
</g>
</svg>
