<?xml version="1.0" encoding="utf-8"?>
<!-- Generator: Adobe Illustrator 19.0.0, SVG Export Plug-In . SVG Version: 6.00 Build 0)  -->
<svg version="1.1" id="Layer_1" xmlns="http://www.w3.org/2000/svg" xmlns:xlink="http://www.w3.org/1999/xlink" x="0px" y="0px"
	 viewBox="-294 386.7 21.2 21.3" style="enable-background:new -294 386.7 21.2 21.3;" xml:space="preserve">
<style type="text/css">
	.st0{fill:none;stroke:#002459;stroke-width:0.4;stroke-miterlimit:10;}
	.st1{fill:none;stroke:#002459;stroke-width:0.3;stroke-miterlimit:10;}
	.st2{fill:none;stroke:#000000;stroke-width:0.4;stroke-miterlimit:10;}
	.st3{fill:none;stroke:#000000;stroke-width:0.2;stroke-miterlimit:10;}
	.st4{fill:#28336D;}
</style>
<g>
	<g>
		<path class="st0" d="M-581,790.4c-2.7,0-2.6-2.2-2.6-2.2c0.9,0,1.8,0,2.7,0s1.8,0,2.7,0C-578.3,788.2-578.2,790.4-581,790.4z"/>
		<path class="st0" d="M-580.9,770.5c1.4,0,1.2,1.3,1.2,1.3c0.4,0.1,0.7,0.2,1.1,0.3c0.3,0.1,0.7,0.3,1,0.4c1.5,0.8,2.4,2.1,2.8,3.7
			c0.3,1,0.3,2,0.3,3c0,1.1,0.1,2.2,0.3,3.4c0.3,2,1.5,3.4,3.1,4.5l0,0c-6.6,0-13.2,0-19.8,0l0,0c0.2-0.1,0.3-0.2,0.5-0.4
			c0.5-0.5,1-0.9,1.5-1.4c0.9-1,1.2-2.3,1.3-3.7c0.1-1,0.1-1.9,0.1-2.9s0.1-1.9,0.4-2.9c0.6-2,1.9-3.3,3.9-3.8
			c0.3-0.1,0.6-0.2,0.9-0.2C-582.2,771.8-582.3,770.5-580.9,770.5z"/>
	</g>
	<path class="st1" d="M-579.4,773.5c0,0,2,0.7,2.4,2.7"/>
</g>
<g>
	<polygon class="st2" points="-570.9,777.2 -570.9,781.1 -567.6,783.8 -570.1,783.8 -570.1,792.5 -574.8,792.5 -574.8,786.8 
		-577.4,786.8 -580.1,786.8 -580.1,792.5 -584.7,792.5 -584.7,783.8 -587.2,783.8 -577.4,775.6 -572.2,780 -572.2,777.2 	"/>
	<polygon class="st3" points="-577.4,777.5 -584.2,783.3 -585.3,783.3 -577.4,776.7 -569.5,783.3 -570.6,783.3 	"/>
	<g>
		<rect x="-579.3" y="780.9" class="st3" width="3.7" height="3.7"/>
		<line class="st3" x1="-575.6" y1="782.7" x2="-579.3" y2="782.7"/>
		<line class="st3" x1="-577.4" y1="780.9" x2="-577.4" y2="784.6"/>
	</g>
</g>
<g id="XMLID_642_">
	<path id="XMLID_650_" class="st4" d="M-281.07,405.41v-4.08c0-1.02-0.83-1.85-1.85-1.85h-1.78c-1.02,0-1.85,0.83-1.85,1.85v4.08
		h-2.65c-0.62,0-1.12-0.5-1.12-1.12v-6.22c0-0.2-0.16-0.36-0.36-0.36h-0.82l-0.03-0.19l0,0.19c-0.21,0-0.42-0.09-0.57-0.24
		c-0.32-0.32-0.32-0.84,0-1.16l7.7-7.7c0.15-0.16,0.36-0.24,0.58-0.24c0.22,0,0.43,0.09,0.58,0.24l7.7,7.7
		c0.32,0.32,0.32,0.84,0,1.16l0,0l0,0l0,0l0,0c-0.16,0.16-0.36,0.24-0.58,0.24h-0.84c-0.2,0-0.36,0.16-0.36,0.36v2.34
		c0.21-0.04,0.43-0.06,0.65-0.06c0.03,0,0.05,0,0.08,0v-1.92h0.47c0.41,0,0.8-0.16,1.1-0.45c0.6-0.6,0.6-1.57,0.01-2.18l-0.01-0.01
		l0,0l-7.7-7.7c-0.29-0.29-0.68-0.45-1.1-0.45c-0.41,0-0.8,0.16-1.1,0.45l-7.7,7.7c-0.61,0.61-0.61,1.59,0,2.19
		c0.27,0.27,0.64,0.43,1.03,0.45c0.02,0,0.03,0,0.05,0h0.5v5.86c0,1.02,0.83,1.85,1.85,1.85h3.01c0.2,0,0.36-0.16,0.36-0.36v-4.44
		c0-0.62,0.5-1.12,1.12-1.12h1.78c0.62,0,1.12,0.5,1.12,1.12v4.44c0,0.2,0.16,0.36,0.36,0.36h1.51c-0.14-0.23-0.25-0.47-0.34-0.73
		H-281.07z"/>
	<g id="XMLID_645_">
		<path id="XMLID_647_" class="st4" d="M-276.65,401.26c-1.6,0-2.9,1.3-2.9,2.9c0,1.6,1.3,2.9,2.9,2.9s2.9-1.3,2.9-2.9
			C-273.75,402.56-275.05,401.26-276.65,401.26z M-276.65,406.35c-1.2,0-2.18-0.98-2.18-2.18c0-1.2,0.98-2.18,2.18-2.18
			c1.2,0,2.18,0.98,2.18,2.18C-274.47,405.37-275.45,406.35-276.65,406.35z"/>
		<path id="XMLID_646_" class="st4" d="M-275.58,403.78h-0.71v-0.71c0-0.2-0.16-0.36-0.36-0.36c-0.2,0-0.36,0.16-0.36,0.36v0.71
			h-0.71c-0.2,0-0.36,0.16-0.36,0.36c0,0.2,0.16,0.36,0.36,0.36h0.71v0.71c0,0.2,0.16,0.36,0.36,0.36c0.2,0,0.36-0.16,0.36-0.36
			v-0.71h0.71c0.2,0,0.36-0.16,0.36-0.36C-275.22,403.95-275.38,403.78-275.58,403.78z"/>
	</g>
</g>
</svg>
