<?xml version="1.0" encoding="utf-8"?>
<!-- Generator: Adobe Illustrator 19.0.0, SVG Export Plug-In . SVG Version: 6.00 Build 0)  -->
<svg version="1.1" id="Layer_1" xmlns="http://www.w3.org/2000/svg" xmlns:xlink="http://www.w3.org/1999/xlink" x="0px" y="0px"
	 viewBox="-294 386.7 21.2 21.3" style="enable-background:new -294 386.7 21.2 21.3;" xml:space="preserve">
<style type="text/css">
	.st0{fill:#28336D;}
</style>
<g id="XMLID_132_">
	<g id="XMLID_138_">
		<g id="XMLID_139_">
			<path id="XMLID_140_" class="st0" d="M-273.92,405.49l-1.11-6.13c-0.03-0.15-0.17-0.25-0.32-0.22c-0.15,0.03-0.25,0.17-0.22,0.32
				l0.47,2.59l-3.62-4.21l2.44-0.54l0.36,0.2l0.16,0.86c0.03,0.15,0.17,0.25,0.32,0.22c0.15-0.03,0.25-0.17,0.22-0.32l-0.18-0.99
				c-0.01-0.08-0.07-0.15-0.14-0.19l-0.57-0.32h0l-1.8-1h0l-1.39-0.77l0,0c0,0,0,0,0,0c-0.01-0.01-0.02-0.01-0.03-0.02
				c0,0-0.01,0-0.01,0c-0.01,0-0.02-0.01-0.02-0.01c0,0-0.01,0-0.01,0c-0.01,0-0.01,0-0.02,0c0,0-0.01,0-0.01,0
				c-0.01,0-0.01,0-0.02,0c-0.01,0-0.01,0-0.01,0c-0.01,0-0.01,0-0.02,0c-0.01,0-0.01,0-0.01,0c-0.01,0-0.01,0-0.02,0
				c-0.01,0-0.01,0-0.01,0c-0.01,0-0.01,0-0.02,0.01c0,0-0.01,0-0.01,0.01c0,0,0,0-0.01,0l-0.64,0.33c0.47-0.88,0.71-1.74,0.71-2.55
				c0-2.15-1.75-3.89-3.89-3.89s-3.89,1.75-3.89,3.89c0,0.83,0.24,1.69,0.73,2.58l-0.69-0.36c0,0,0,0-0.01,0c0,0-0.01,0-0.01-0.01
				c-0.01,0-0.01-0.01-0.02-0.01c0,0-0.01,0-0.01,0c-0.01,0-0.01,0-0.02,0c0,0-0.01,0-0.02,0c-0.01,0-0.01,0-0.02,0
				c-0.01,0-0.01,0-0.02,0c-0.01,0-0.01,0-0.02,0c-0.01,0-0.01,0-0.02,0c-0.01,0-0.01,0-0.02,0c0,0-0.01,0-0.01,0
				c-0.01,0-0.02,0-0.02,0.01c0,0-0.01,0-0.01,0c-0.01,0-0.02,0.01-0.03,0.02c0,0,0,0,0,0l0,0l-3.75,2.09
				c-0.07,0.04-0.12,0.11-0.14,0.19l-1.06,5.82c-0.03,0.15,0.07,0.3,0.22,0.32c0.15,0.03,0.3-0.07,0.32-0.22l0.32-1.75l3.6-1.9
				l-0.29,3.74l-3.97,1.78l0.14-0.77c0.03-0.15-0.07-0.3-0.22-0.32c-0.15-0.03-0.3,0.07-0.32,0.22l-0.23,1.29
				c-0.02,0.1,0.02,0.21,0.1,0.27c0.05,0.04,0.11,0.06,0.17,0.06c0.04,0,0.08-0.01,0.11-0.02l4.49-2.02l4.49,2.01c0,0,0,0,0,0l0,0
				c0,0,0.01,0,0.01,0c0,0,0.01,0,0.01,0c0,0,0.01,0,0.01,0c0,0,0.01,0,0.01,0c0,0,0.01,0,0.01,0c0.01,0,0.01,0,0.02,0
				c0,0,0.01,0,0.01,0c0,0,0,0,0.01,0c0.01,0,0.02,0,0.03,0c0,0,0,0,0,0c0,0,0,0,0,0c0.01,0,0.02,0,0.03,0c0,0,0,0,0,0
				c0,0,0,0,0.01,0c0.01,0,0.02,0,0.03-0.01c0,0,0,0,0.01,0c0,0,0,0,0,0c0,0,0,0,0,0c0.01,0,0.02-0.01,0.03-0.01l4.49-2.02
				l4.49,2.02c0,0,0.01,0,0.01,0.01c0,0,0.01,0,0.01,0.01c0.01,0,0.01,0,0.02,0c0,0,0.01,0,0.01,0c0.01,0,0.01,0,0.02,0
				c0,0,0.01,0,0.01,0c0.01,0,0.02,0,0.03,0h0h0c0.01,0,0.03,0,0.04,0c0,0,0.01,0,0.01,0c0.01,0,0.03-0.01,0.04-0.01c0,0,0,0,0,0
				c0.01,0,0.02-0.01,0.03-0.01c0,0,0,0,0.01,0c0.01,0,0.01-0.01,0.02-0.01c0.01,0,0.01-0.01,0.02-0.01c0,0,0,0,0.01,0
				c0,0,0.01-0.01,0.01-0.01c0,0,0.01-0.01,0.01-0.01c0.01-0.01,0.02-0.02,0.02-0.03c0,0,0,0,0-0.01c0.01-0.01,0.02-0.02,0.02-0.04
				c0,0,0-0.01,0-0.01c0-0.01,0.01-0.02,0.01-0.03c0,0,0-0.01,0-0.01c0-0.01,0-0.02,0.01-0.03c0-0.01,0-0.01,0-0.02
				c0-0.01,0-0.02,0-0.03c0,0,0-0.01,0-0.01C-273.92,405.52-273.92,405.51-273.92,405.49z M-278.81,395.91l-0.29,0.07l-0.02-0.24
				L-278.81,395.91z M-279.42,399.02l-1.16-0.91c-0.08-0.06-0.19-0.08-0.28-0.04l-2.25,0.98v-0.31c0.17-0.14,0.55-0.46,1.01-0.92
				l2.51-1.1L-279.42,399.02z M-279.68,395.68l0.04,0.46l-1.57,0.69c0.16-0.19,0.3-0.39,0.44-0.58L-279.68,395.68z M-287.12,395.68
				l1.15,0.6c0.17,0.24,0.36,0.48,0.56,0.73c0.18,0.21,0.36,0.41,0.53,0.59l-2.37-0.34L-287.12,395.68z M-287.93,398.89l-3.53,1.86
				l0.17-0.95l0-0.02l3.42-1.8L-287.93,398.89z M-287.8,397.33l-3.35,1.76l0.29-1.58l3.18-1.77l-0.08,1.03L-287.8,397.33z
				 M-287.71,403.3l0.26-3.4l3.29,5L-287.71,403.3z M-283.68,402.23l-1.71-2.7l1.71,0.21V402.23z M-283.68,399.17l-2.23-0.27
				c-0.11-0.01-0.21,0.04-0.27,0.13c-0.06,0.09-0.06,0.21,0,0.3l2.5,3.94v1.34l-3.7-5.62l0.09-1.18l3.07,0.44
				c0.23,0.21,0.42,0.37,0.54,0.47L-283.68,399.17L-283.68,399.17z M-283.38,398.25c-0.7-0.59-3.34-2.98-3.34-5.48
				c0-1.84,1.5-3.34,3.34-3.34s3.34,1.5,3.34,3.34C-280.04,395.27-282.68,397.66-283.38,398.25z M-283.12,405.11v-1.24l0.83,0.86
				L-283.12,405.11z M-281.75,404.5l-1.37-1.42v-3.41l2.33-1.01l1.43,1.12l0.27,3.53L-281.75,404.5z M-279.06,396.53l0.97-0.23
				l0.68,0.38l0.38,0.21l-1.97,0.44L-279.06,396.53z M-278.53,403.29l-0.22-2.81l3.58,4.31L-278.53,403.29z M-278.82,399.52
				l-0.08-0.98l0-0.04l3.99,4.63l0.26,1.41L-278.82,399.52z"/>
		</g>
	</g>
	<g id="XMLID_133_">
		<g id="XMLID_136_">
			<path id="XMLID_137_" class="st0" d="M-283.38,391.05c-0.15,0-0.28,0.12-0.28,0.28c0,0.15,0.12,0.28,0.28,0.28
				c0.64,0,1.16,0.52,1.16,1.16c0,0.64-0.52,1.16-1.16,1.16s-1.16-0.52-1.16-1.16c0-0.31,0.12-0.6,0.33-0.82
				c0.11-0.11,0.11-0.29,0-0.39c-0.11-0.11-0.29-0.11-0.39,0c-0.32,0.32-0.49,0.75-0.49,1.21c0,0.95,0.77,1.72,1.72,1.72
				c0.95,0,1.72-0.77,1.72-1.72C-281.66,391.82-282.43,391.05-283.38,391.05z"/>
		</g>
	</g>
</g>
</svg>
