<?xml version="1.0" encoding="utf-8"?>
<!-- Generator: Adobe Illustrator 16.0.0, SVG Export Plug-In . SVG Version: 6.00 Build 0)  -->
<!DOCTYPE svg PUBLIC "-//W3C//DTD SVG 1.1//EN" "http://www.w3.org/Graphics/SVG/1.1/DTD/svg11.dtd">
<svg version="1.1" id="Layer_1" xmlns="http://www.w3.org/2000/svg" xmlns:xlink="http://www.w3.org/1999/xlink" x="0px" y="0px"
	 width="21.186px" height="21.336px" viewBox="0 0 21.186 21.336" enable-background="new 0 0 21.186 21.336" xml:space="preserve">
<g display="none">
	<g display="inline">
		<path fill="none" stroke="#002459" stroke-width="0.4" stroke-miterlimit="10" d="M7.018,17.073c-2.745,0-2.639-2.189-2.639-2.189
			c0.885,0,1.792,0.002,2.674,0.002c0.881,0,1.793-0.002,2.673-0.002C9.728,14.883,9.764,17.073,7.018,17.073z"/>
		<path fill="none" stroke="#002459" stroke-width="0.4" stroke-miterlimit="10" d="M7.053-2.823c1.358,0,1.249,1.274,1.249,1.274
			c0.369,0.092,0.727,0.162,1.07,0.278c0.349,0.117,0.7,0.253,1.024,0.426c1.497,0.792,2.356,2.08,2.801,3.679
			c0.275,0.995,0.326,2.016,0.337,3.042c0.008,1.129,0.099,2.249,0.272,3.37c0.318,2.004,1.533,3.363,3.117,4.482
			c0,0.013,0,0.028,0,0.041c-6.584,0-13.168,0-19.752,0c0-0.017,0-0.028,0-0.041c0.167-0.127,0.346-0.246,0.503-0.39
			c0.494-0.457,1.025-0.883,1.456-1.393C0.015,10.9,0.298,9.609,0.427,8.289c0.094-0.956,0.114-1.922,0.146-2.884
			c0.029-0.981,0.131-1.946,0.436-2.886c0.639-1.956,1.917-3.256,3.898-3.837C5.208-1.407,5.517-1.47,5.824-1.543
			C5.824-1.543,5.698-2.823,7.053-2.823z"/>
	</g>
	<path display="inline" fill="none" stroke="#002459" stroke-width="0.3" stroke-miterlimit="10" d="M8.621,0.097
		c0,0,2.031,0.707,2.409,2.691"/>
</g>
<g>
	<path fill="#2A326D" d="M6.655,12.302c0,0.135-0.107,0.243-0.242,0.243H3.454c-0.135,0-0.243-0.108-0.243-0.243V9.344
		c0-0.135,0.108-0.243,0.243-0.243h2.958c0.135,0,0.242,0.108,0.242,0.243V12.302z"/>
	<path fill="none" stroke="#020202" stroke-width="0.4" stroke-miterlimit="10" d="M6.547,6.605c0,0.126-0.101,0.229-0.227,0.229
		H3.546c-0.126,0-0.228-0.103-0.228-0.229V3.832c0-0.126,0.102-0.228,0.228-0.228H6.32c0.126,0,0.227,0.102,0.227,0.228V6.605z"/>
	<path fill="none" stroke="#020202" stroke-width="0.4" stroke-miterlimit="10" d="M6.547,17.504c0,0.128-0.101,0.229-0.227,0.229
		H3.546c-0.126,0-0.228-0.101-0.228-0.229v-2.773c0-0.124,0.102-0.228,0.228-0.228H6.32c0.126,0,0.227,0.104,0.227,0.228V17.504z"/>
	<line fill="none" stroke="#020202" stroke-width="0.5" stroke-miterlimit="10" x1="7.648" y1="6.833" x2="17.976" y2="6.833"/>
	<line fill="none" stroke="#2A326D" stroke-width="0.5" stroke-miterlimit="10" x1="7.648" y1="12.229" x2="17.976" y2="12.229"/>
	<line fill="none" stroke="#020202" stroke-width="0.5" stroke-miterlimit="10" x1="7.648" y1="17.733" x2="17.976" y2="17.733"/>
	<polyline fill="none" stroke="#FFFFFF" stroke-width="0.4" stroke-miterlimit="10" points="3.465,11.379 4.338,12.036 6.233,9.96 	
		"/>
</g>
</svg>
