<?xml version="1.0" encoding="utf-8"?>
<!-- Generator: Adobe Illustrator 19.0.0, SVG Export Plug-In . SVG Version: 6.00 Build 0)  -->
<svg version="1.1" id="Layer_1" xmlns="http://www.w3.org/2000/svg" xmlns:xlink="http://www.w3.org/1999/xlink" x="0px" y="0px"
	 viewBox="-294 386.7 21.2 21.3" style="enable-background:new -294 386.7 21.2 21.3;" xml:space="preserve">
<style type="text/css">
	.st0{fill:#28336D;}
</style>
<path class="st0" d="M-275.32,406.32h-0.26V388c0-0.21-0.17-0.38-0.37-0.38h-7.44c-0.21,0-0.37,0.17-0.37,0.38v4.64h-7.07
	c-0.21,0-0.37,0.17-0.37,0.38v13.3h-0.26c-0.21,0-0.37,0.17-0.37,0.38c0,0.21,0.17,0.38,0.37,0.38h0.63h3.72h2.23h1.49h3.72h2.23
	h1.49h0h0h0.63c0.21,0,0.37-0.17,0.37-0.38S-275.12,406.32-275.32,406.32z M-287.37,396.51h0.56c0.21,0,0.37,0.17,0.37,0.38v0.57
	c0,0.21-0.17,0.38-0.37,0.38h-0.56c-0.21,0-0.37-0.17-0.37-0.38v-0.57C-287.74,396.68-287.58,396.51-287.37,396.51z M-287.74,395.18
	v-0.57c0-0.21,0.17-0.38,0.37-0.38h0.56c0.21,0,0.37,0.17,0.37,0.38v0.57c0,0.21-0.17,0.38-0.37,0.38h-0.56
	C-287.58,395.56-287.74,395.39-287.74,395.18z M-287.37,398.79h0.56c0.21,0,0.37,0.17,0.37,0.38v0.57c0,0.21-0.17,0.38-0.37,0.38
	h-0.56c-0.21,0-0.37-0.17-0.37-0.38v-0.57C-287.74,398.96-287.58,398.79-287.37,398.79z M-287.37,401.07h0.56
	c0.21,0,0.37,0.17,0.37,0.38v0.57c0,0.21-0.17,0.38-0.37,0.38h-0.56c-0.21,0-0.37-0.17-0.37-0.38v-0.57
	C-287.74,401.24-287.58,401.07-287.37,401.07z M-286.72,404.87h1.49v1.52h-1.49V404.87z M-285.42,402.4c-0.21,0-0.37-0.17-0.37-0.38
	v-0.57c0-0.21,0.17-0.38,0.37-0.38h0.56c0.21,0,0.37,0.17,0.37,0.38v0.57c0,0.21-0.17,0.38-0.37,0.38H-285.42z M-284.86,400.12
	h-0.56c-0.21,0-0.37-0.17-0.37-0.38v-0.57c0-0.21,0.17-0.38,0.37-0.38h0.56c0.21,0,0.37,0.17,0.37,0.38v0.57
	C-284.49,399.95-284.65,400.12-284.86,400.12z M-284.86,397.84h-0.56c-0.21,0-0.37-0.17-0.37-0.38v-0.57c0-0.21,0.17-0.38,0.37-0.38
	h0.56c0.21,0,0.37,0.17,0.37,0.38v0.57C-284.49,397.67-284.65,397.84-284.86,397.84z M-284.86,395.56h-0.56
	c-0.21,0-0.37-0.17-0.37-0.38v-0.57c0-0.21,0.17-0.38,0.37-0.38h0.56c0.21,0,0.37,0.17,0.37,0.38v0.57
	C-284.49,395.39-284.65,395.56-284.86,395.56z M-288.23,405.25c0,0.2-0.15,0.36-0.35,0.38v0h-0.01c0,0-0.01,0-0.01,0
	c0,0-0.01,0-0.01,0c-0.21,0-0.38-0.17-0.38-0.38s0.17-0.38,0.38-0.38c0,0,0.01,0,0.01,0c0,0,0.01,0,0.01,0h0.01v0
	C-288.39,404.89-288.23,405.05-288.23,405.25z M-289.32,396.51h0.56c0.21,0,0.37,0.17,0.37,0.38v0.57c0,0.21-0.17,0.38-0.37,0.38
	h-0.56c-0.21,0-0.37-0.17-0.37-0.38v-0.57C-289.7,396.68-289.53,396.51-289.32,396.51z M-289.7,395.18v-0.57
	c0-0.21,0.17-0.38,0.37-0.38h0.56c0.21,0,0.37,0.17,0.37,0.38v0.57c0,0.21-0.17,0.38-0.37,0.38h-0.56
	C-289.53,395.56-289.7,395.39-289.7,395.18z M-289.32,398.79h0.56c0.21,0,0.37,0.17,0.37,0.38v0.57c0,0.21-0.17,0.38-0.37,0.38
	h-0.56c-0.21,0-0.37-0.17-0.37-0.38v-0.57C-289.7,398.96-289.53,398.79-289.32,398.79z M-289.7,401.45c0-0.21,0.17-0.38,0.37-0.38
	h0.56c0.21,0,0.37,0.17,0.37,0.38v0.57c0,0.21-0.17,0.38-0.37,0.38h-0.56c-0.21,0-0.37-0.17-0.37-0.38V401.45z M-281.84,398.82h0.56
	c0.21,0,0.37,0.17,0.37,0.38v0.57c0,0.21-0.17,0.38-0.37,0.38h-0.56c-0.21,0-0.37-0.17-0.37-0.38v-0.57
	C-282.21,398.99-282.05,398.82-281.84,398.82z M-282.21,397.49v-0.57c0-0.21,0.17-0.38,0.37-0.38h0.56c0.21,0,0.37,0.17,0.37,0.38
	v0.57c0,0.21-0.17,0.38-0.37,0.38h-0.56C-282.05,397.87-282.21,397.7-282.21,397.49z M-281.84,401.1h0.56
	c0.21,0,0.37,0.17,0.37,0.38v0.57c0,0.21-0.17,0.38-0.37,0.38h-0.56c-0.21,0-0.37-0.17-0.37-0.38v-0.57
	C-282.21,401.27-282.05,401.1-281.84,401.1z M-281.11,404.9L-281.11,404.9c0.21,0,0.38,0.17,0.38,0.38c0,0.21-0.17,0.38-0.37,0.38
	h-0.01c-0.21,0-0.37-0.17-0.37-0.38C-281.48,405.07-281.31,404.9-281.11,404.9z M-280.91,395.21c0,0.21-0.17,0.38-0.37,0.38h-0.56
	c-0.21,0-0.37-0.17-0.37-0.38v-0.57c0-0.21,0.17-0.38,0.37-0.38h0.56c0.21,0,0.37,0.17,0.37,0.38V395.21z M-280.95,390.59
	c0,0.21-0.17,0.38-0.37,0.38h-0.56c-0.21,0-0.37-0.17-0.37-0.38v-0.57c0-0.21,0.17-0.38,0.37-0.38h0.56c0.21,0,0.37,0.17,0.37,0.38
	V390.59z M-281.88,391.92h0.56c0.21,0,0.37,0.17,0.37,0.38v0.57c0,0.21-0.17,0.38-0.37,0.38h-0.56c-0.21,0-0.37-0.17-0.37-0.38
	v-0.57C-282.25,392.09-282.09,391.92-281.88,391.92z M-277.97,391.92h0.56c0.21,0,0.37,0.17,0.37,0.38v0.57
	c0,0.21-0.17,0.38-0.37,0.38h-0.56c-0.21,0-0.37-0.17-0.37-0.38v-0.57C-278.35,392.09-278.18,391.92-277.97,391.92z M-278.35,390.59
	v-0.57c0-0.21,0.17-0.38,0.37-0.38h0.56c0.21,0,0.37,0.17,0.37,0.38v0.57c0,0.21-0.17,0.38-0.37,0.38h-0.56
	C-278.18,390.97-278.35,390.8-278.35,390.59z M-277.38,400.15h-0.56c-0.21,0-0.37-0.17-0.37-0.38v-0.57c0-0.21,0.17-0.38,0.37-0.38
	h0.56c0.21,0,0.37,0.17,0.37,0.38v0.57C-277,399.98-277.17,400.15-277.38,400.15z M-277,401.48v0.57c0,0.21-0.17,0.38-0.37,0.38
	h-0.56c-0.21,0-0.37-0.17-0.37-0.38v-0.57c0-0.21,0.17-0.38,0.37-0.38h0.56C-277.17,401.1-277,401.27-277,401.48z M-277.38,397.87
	h-0.56c-0.21,0-0.37-0.17-0.37-0.38v-0.57c0-0.21,0.17-0.38,0.37-0.38h0.56c0.21,0,0.37,0.17,0.37,0.38v0.57
	C-277,397.7-277.17,397.87-277.38,397.87z M-277.79,404.9h0.04v1.52h-1.49v-0.02v-1.5H-277.79z M-279.89,398.82h0.56
	c0.21,0,0.37,0.17,0.37,0.38v0.57c0,0.21-0.17,0.38-0.37,0.38h-0.56c-0.21,0-0.37-0.17-0.37-0.38v-0.57
	C-280.26,398.99-280.09,398.82-279.89,398.82z M-280.26,397.49v-0.57c0-0.21,0.17-0.38,0.37-0.38h0.56c0.21,0,0.37,0.17,0.37,0.38
	v0.57c0,0.21-0.17,0.38-0.37,0.38h-0.56C-280.09,397.87-280.26,397.7-280.26,397.49z M-279.89,401.1h0.56
	c0.21,0,0.37,0.17,0.37,0.38v0.57c0,0.21-0.17,0.38-0.37,0.38h-0.56c-0.21,0-0.37-0.17-0.37-0.38v-0.57
	C-280.26,401.27-280.09,401.1-279.89,401.1z M-278.96,395.21c0,0.21-0.17,0.38-0.37,0.38h-0.56c-0.21,0-0.37-0.17-0.37-0.38v-0.57
	c0-0.21,0.17-0.38,0.37-0.38h0.56c0.21,0,0.37,0.17,0.37,0.38V395.21z M-279,390.59c0,0.21-0.17,0.38-0.37,0.38h-0.56
	c-0.21,0-0.37-0.17-0.37-0.38v-0.57c0-0.21,0.17-0.38,0.37-0.38h0.56c0.21,0,0.37,0.17,0.37,0.38V390.59z M-279.93,391.92h0.56
	c0.21,0,0.37,0.17,0.37,0.38v0.57c0,0.21-0.17,0.38-0.37,0.38h-0.56c-0.21,0-0.37-0.17-0.37-0.38v-0.57
	C-280.3,392.09-280.13,391.92-279.93,391.92z M-277,395.21c0,0.21-0.17,0.38-0.37,0.38h-0.56c-0.21,0-0.37-0.17-0.37-0.38v-0.57
	c0-0.21,0.17-0.38,0.37-0.38h0.56c0.21,0,0.37,0.17,0.37,0.38V395.21z"/>
</svg>
