<?xml version="1.0" encoding="utf-8"?>
<!-- Generator: Adobe Illustrator 19.0.0, SVG Export Plug-In . SVG Version: 6.00 Build 0)  -->
<svg version="1.1" id="Layer_1" xmlns="http://www.w3.org/2000/svg" xmlns:xlink="http://www.w3.org/1999/xlink" x="0px" y="0px"
	 viewBox="-294 386.7 21.2 21.3" style="enable-background:new -294 386.7 21.2 21.3;" xml:space="preserve">
<style type="text/css">
	.st0{fill:none;stroke:#002459;stroke-width:0.4;stroke-miterlimit:10;}
	.st1{fill:none;stroke:#002459;stroke-width:0.3;stroke-miterlimit:10;}
	.st2{fill:none;stroke:#000000;stroke-width:0.4;stroke-miterlimit:10;}
	.st3{fill:none;stroke:#000000;stroke-width:0.2;stroke-miterlimit:10;}
	.st4{fill:#28336D;}
</style>
<g>
	<g>
		<path class="st0" d="M-581,790.4c-2.7,0-2.6-2.2-2.6-2.2c0.9,0,1.8,0,2.7,0s1.8,0,2.7,0C-578.3,788.2-578.2,790.4-581,790.4z"/>
		<path class="st0" d="M-580.9,770.5c1.4,0,1.2,1.3,1.2,1.3c0.4,0.1,0.7,0.2,1.1,0.3c0.3,0.1,0.7,0.3,1,0.4c1.5,0.8,2.4,2.1,2.8,3.7
			c0.3,1,0.3,2,0.3,3c0,1.1,0.1,2.2,0.3,3.4c0.3,2,1.5,3.4,3.1,4.5l0,0c-6.6,0-13.2,0-19.8,0l0,0c0.2-0.1,0.3-0.2,0.5-0.4
			c0.5-0.5,1-0.9,1.5-1.4c0.9-1,1.2-2.3,1.3-3.7c0.1-1,0.1-1.9,0.1-2.9s0.1-1.9,0.4-2.9c0.6-2,1.9-3.3,3.9-3.8
			c0.3-0.1,0.6-0.2,0.9-0.2C-582.2,771.8-582.3,770.5-580.9,770.5z"/>
	</g>
	<path class="st1" d="M-579.4,773.5c0,0,2,0.7,2.4,2.7"/>
</g>
<g>
	<polygon class="st2" points="-570.9,777.2 -570.9,781.1 -567.6,783.8 -570.1,783.8 -570.1,792.5 -574.8,792.5 -574.8,786.8 
		-577.4,786.8 -580.1,786.8 -580.1,792.5 -584.7,792.5 -584.7,783.8 -587.2,783.8 -577.4,775.6 -572.2,780 -572.2,777.2 	"/>
	<polygon class="st3" points="-577.4,777.5 -584.2,783.3 -585.3,783.3 -577.4,776.7 -569.5,783.3 -570.6,783.3 	"/>
	<g>
		<rect x="-579.3" y="780.9" class="st3" width="3.7" height="3.7"/>
		<line class="st3" x1="-575.6" y1="782.7" x2="-579.3" y2="782.7"/>
		<line class="st3" x1="-577.4" y1="780.9" x2="-577.4" y2="784.6"/>
	</g>
</g>
<g id="XMLID_1062_">
	<path id="XMLID_68_" class="st4" d="M-291.75,403.74c-0.45,0-0.82-0.37-0.82-0.82v-5.51l0.13,0.08c0.22,0.13,0.45,0.19,0.69,0.19
		h5.97v1.19c0,0.16,0.13,0.28,0.28,0.28h2.21c0.16,0,0.28-0.13,0.28-0.28v-1.19h5.97c0.24,0,0.47-0.06,0.69-0.19l0.13-0.08v2.31
		c0.09-0.01,0.18-0.01,0.28-0.01c0.1,0,0.19,0,0.28,0.01v-6.37c0-0.76-0.62-1.39-1.39-1.39h-3.77v-0.82c0-0.76-0.62-1.39-1.39-1.39
		h-4.42c-0.76,0-1.39,0.62-1.39,1.39v0.82h-3.77c-0.76,0-1.39,0.62-1.39,1.39v9.57c0,0.76,0.62,1.39,1.39,1.39h13.29
		c-0.11-0.18-0.21-0.36-0.28-0.56H-291.75z M-283.57,398.58h-1.64v-1.64h1.64V398.58z M-287.42,391.14c0-0.45,0.37-0.82,0.82-0.82
		h4.42c0.45,0,0.82,0.37,0.82,0.82v0.82h-6.06V391.14z M-276.21,396.29c0,0.45-0.37,0.82-0.82,0.82H-283v-0.45
		c0-0.16-0.13-0.28-0.28-0.28h-2.21c-0.16,0-0.28,0.13-0.28,0.28v0.45h-5.97c-0.45,0-0.82-0.37-0.82-0.82v-2.94
		c0-0.45,0.37-0.82,0.82-0.82h14.72c0.45,0,0.82,0.37,0.82,0.82"/>
	<g id="XMLID_56_">
		<path id="XMLID_64_" class="st4" d="M-275.93,400.43c-1.25,0-2.26,1.01-2.26,2.26c0,1.25,1.01,2.26,2.26,2.26s2.26-1.01,2.26-2.26
			C-273.67,401.44-274.68,400.43-275.93,400.43z M-275.93,404.39c-0.94,0-1.7-0.76-1.7-1.7c0-0.94,0.76-1.7,1.7-1.7
			c0.94,0,1.7,0.76,1.7,1.7C-274.23,403.62-274.99,404.39-275.93,404.39z"/>
		<path id="XMLID_63_" class="st4" d="M-275.1,402.39h-0.55v-0.55c0-0.15-0.13-0.28-0.28-0.28s-0.28,0.13-0.28,0.28v0.55h-0.55
			c-0.15,0-0.28,0.13-0.28,0.28s0.13,0.28,0.28,0.28h0.55v0.55c0,0.15,0.13,0.28,0.28,0.28s0.28-0.13,0.28-0.28v-0.55h0.55
			c0.15,0,0.28-0.13,0.28-0.28S-274.94,402.39-275.1,402.39z"/>
	</g>
</g>
</svg>
