<?xml version="1.0" encoding="utf-8"?>
<!-- Generator: Adobe Illustrator 19.0.0, SVG Export Plug-In . SVG Version: 6.00 Build 0)  -->
<svg version="1.1" id="Layer_1" xmlns="http://www.w3.org/2000/svg" xmlns:xlink="http://www.w3.org/1999/xlink" x="0px" y="0px"
	 viewBox="-294 386.7 21.2 21.3" style="enable-background:new -294 386.7 21.2 21.3;" xml:space="preserve">
<style type="text/css">
	.st0{fill:none;stroke:#002459;stroke-width:0.4;stroke-miterlimit:10;}
	.st1{fill:none;stroke:#002459;stroke-width:0.3;stroke-miterlimit:10;}
	.st2{fill:none;stroke:#000000;stroke-width:0.4;stroke-miterlimit:10;}
	.st3{fill:none;stroke:#000000;stroke-width:0.2;stroke-miterlimit:10;}
	.st4{fill:#28336D;}
</style>
<g>
	<g>
		<path class="st0" d="M-581,790.4c-2.7,0-2.6-2.2-2.6-2.2c0.9,0,1.8,0,2.7,0s1.8,0,2.7,0C-578.3,788.2-578.2,790.4-581,790.4z"/>
		<path class="st0" d="M-580.9,770.5c1.4,0,1.2,1.3,1.2,1.3c0.4,0.1,0.7,0.2,1.1,0.3c0.3,0.1,0.7,0.3,1,0.4c1.5,0.8,2.4,2.1,2.8,3.7
			c0.3,1,0.3,2,0.3,3c0,1.1,0.1,2.2,0.3,3.4c0.3,2,1.5,3.4,3.1,4.5l0,0c-6.6,0-13.2,0-19.8,0l0,0c0.2-0.1,0.3-0.2,0.5-0.4
			c0.5-0.5,1-0.9,1.5-1.4c0.9-1,1.2-2.3,1.3-3.7c0.1-1,0.1-1.9,0.1-2.9s0.1-1.9,0.4-2.9c0.6-2,1.9-3.3,3.9-3.8
			c0.3-0.1,0.6-0.2,0.9-0.2C-582.2,771.8-582.3,770.5-580.9,770.5z"/>
	</g>
	<path class="st1" d="M-579.4,773.5c0,0,2,0.7,2.4,2.7"/>
</g>
<g>
	<polygon class="st2" points="-570.9,777.2 -570.9,781.1 -567.6,783.8 -570.1,783.8 -570.1,792.5 -574.8,792.5 -574.8,786.8 
		-577.4,786.8 -580.1,786.8 -580.1,792.5 -584.7,792.5 -584.7,783.8 -587.2,783.8 -577.4,775.6 -572.2,780 -572.2,777.2 	"/>
	<polygon class="st3" points="-577.4,777.5 -584.2,783.3 -585.3,783.3 -577.4,776.7 -569.5,783.3 -570.6,783.3 	"/>
	<g>
		<rect x="-579.3" y="780.9" class="st3" width="3.7" height="3.7"/>
		<line class="st3" x1="-575.6" y1="782.7" x2="-579.3" y2="782.7"/>
		<line class="st3" x1="-577.4" y1="780.9" x2="-577.4" y2="784.6"/>
	</g>
</g>
<path id="XMLID_135_" class="st4" d="M-274.23,396.09C-274.23,396.09-274.23,396.09-274.23,396.09l-7.91-7.91
	c-0.34-0.34-0.79-0.52-1.26-0.52s-0.92,0.19-1.26,0.52l-7.9,7.9c0,0-0.01,0.01-0.01,0.01c-0.69,0.7-0.69,1.83,0,2.52
	c0.32,0.32,0.74,0.5,1.18,0.52c0.02,0,0.04,0,0.06,0h0.32v5.82c0,1.15,0.94,2.09,2.09,2.09h3.09c0.31,0,0.57-0.25,0.57-0.57v-4.56
	c0-0.53,0.43-0.95,0.95-0.95h1.82c0.53,0,0.95,0.43,0.95,0.95v4.56c0,0.31,0.25,0.57,0.57,0.57h3.09c1.15,0,2.09-0.94,2.09-2.09
	v-5.82h0.29c0.48,0,0.92-0.19,1.26-0.52C-273.54,397.92-273.53,396.79-274.23,396.09z"/>
</svg>
