<?xml version="1.0" encoding="utf-8"?>
<!-- Generator: Adobe Illustrator 19.0.0, SVG Export Plug-In . SVG Version: 6.00 Build 0)  -->
<svg version="1.1" id="Layer_1" xmlns="http://www.w3.org/2000/svg" xmlns:xlink="http://www.w3.org/1999/xlink" x="0px" y="0px"
	 viewBox="-294 386.7 21.2 21.3" style="enable-background:new -294 386.7 21.2 21.3;" xml:space="preserve">
<style type="text/css">
	.st0{fill:none;stroke:#002459;stroke-width:0.4;stroke-miterlimit:10;}
	.st1{fill:none;stroke:#002459;stroke-width:0.3;stroke-miterlimit:10;}
	.st2{fill:none;stroke:#000000;stroke-width:0.4;stroke-miterlimit:10;}
	.st3{fill:none;stroke:#000000;stroke-width:0.2;stroke-miterlimit:10;}
	.st4{fill:#28336D;}
</style>
<g>
	<g>
		<path class="st0" d="M-581,790.4c-2.7,0-2.6-2.2-2.6-2.2c0.9,0,1.8,0,2.7,0s1.8,0,2.7,0C-578.3,788.2-578.2,790.4-581,790.4z"/>
		<path class="st0" d="M-580.9,770.5c1.4,0,1.2,1.3,1.2,1.3c0.4,0.1,0.7,0.2,1.1,0.3c0.3,0.1,0.7,0.3,1,0.4c1.5,0.8,2.4,2.1,2.8,3.7
			c0.3,1,0.3,2,0.3,3c0,1.1,0.1,2.2,0.3,3.4c0.3,2,1.5,3.4,3.1,4.5l0,0c-6.6,0-13.2,0-19.8,0l0,0c0.2-0.1,0.3-0.2,0.5-0.4
			c0.5-0.5,1-0.9,1.5-1.4c0.9-1,1.2-2.3,1.3-3.7c0.1-1,0.1-1.9,0.1-2.9s0.1-1.9,0.4-2.9c0.6-2,1.9-3.3,3.9-3.8
			c0.3-0.1,0.6-0.2,0.9-0.2C-582.2,771.8-582.3,770.5-580.9,770.5z"/>
	</g>
	<path class="st1" d="M-579.4,773.5c0,0,2,0.7,2.4,2.7"/>
</g>
<g>
	<polygon class="st2" points="-570.9,777.2 -570.9,781.1 -567.6,783.8 -570.1,783.8 -570.1,792.5 -574.8,792.5 -574.8,786.8 
		-577.4,786.8 -580.1,786.8 -580.1,792.5 -584.7,792.5 -584.7,783.8 -587.2,783.8 -577.4,775.6 -572.2,780 -572.2,777.2 	"/>
	<polygon class="st3" points="-577.4,777.5 -584.2,783.3 -585.3,783.3 -577.4,776.7 -569.5,783.3 -570.6,783.3 	"/>
	<g>
		<rect x="-579.3" y="780.9" class="st3" width="3.7" height="3.7"/>
		<line class="st3" x1="-575.6" y1="782.7" x2="-579.3" y2="782.7"/>
		<line class="st3" x1="-577.4" y1="780.9" x2="-577.4" y2="784.6"/>
	</g>
</g>
<path id="XMLID_59_" class="st4" d="M-280.9,407.09h3.17c1.07,0,1.94-0.87,1.94-1.94v-6.17h0.5c0.44,0,0.85-0.17,1.15-0.48
	c0.63-0.63,0.64-1.66,0.01-2.29l-0.02-0.02l-8.1-8.1c-0.31-0.31-0.72-0.48-1.15-0.48c-0.44,0-0.85,0.17-1.15,0.48l-8.11,8.11
	c-0.64,0.64-0.64,1.68,0,2.31c0.29,0.29,0.67,0.46,1.08,0.48c0.02,0,0.04,0,0.05,0h0.52v6.17c0,1.07,0.87,1.94,1.94,1.94h3.17
	c0.21,0,0.38-0.17,0.38-0.38v-4.68c0-0.65,0.53-1.18,1.18-1.18h1.87c0.65,0,1.18,0.53,1.18,1.18v4.68
	C-281.29,406.92-281.12,407.09-280.9,407.09z M-282.46,400.09h-1.87c-1.07,0-1.94,0.87-1.94,1.94v4.3h-2.79
	c-0.65,0-1.18-0.53-1.18-1.18v-6.55c0-0.21-0.17-0.38-0.38-0.38h-0.87l-0.03,0c-0.23,0-0.44-0.09-0.6-0.25
	c-0.34-0.34-0.34-0.89,0-1.22l8.11-8.11c0.16-0.16,0.38-0.25,0.61-0.25c0.23,0,0.45,0.09,0.61,0.25l8.11,8.11
	c0.34,0.34,0.34,0.89,0,1.23l0,0l0,0l0,0c-0.16,0.16-0.38,0.25-0.61,0.25h-0.88c-0.21,0-0.38,0.17-0.38,0.38v6.55
	c0,0.65-0.53,1.18-1.18,1.18h-2.79v-4.3C-280.52,400.96-281.39,400.09-282.46,400.09z"/>
</svg>
