<?xml version="1.0" encoding="utf-8"?>
<!-- Generator: Adobe Illustrator 16.0.0, SVG Export Plug-In . SVG Version: 6.00 Build 0)  -->
<!DOCTYPE svg PUBLIC "-//W3C//DTD SVG 1.1//EN" "http://www.w3.org/Graphics/SVG/1.1/DTD/svg11.dtd">
<svg version="1.1" id="Layer_1" xmlns="http://www.w3.org/2000/svg" xmlns:xlink="http://www.w3.org/1999/xlink" x="0px" y="0px"
	 width="21.186px" height="21.336px" viewBox="0 0 21.186 21.336" enable-background="new 0 0 21.186 21.336" xml:space="preserve">
<g display="none">
	<g display="inline">
		<path fill="none" stroke="#002459" stroke-width="0.4" stroke-miterlimit="10" d="M7.018,17.073c-2.745,0-2.639-2.189-2.639-2.189
			c0.885,0,1.792,0.002,2.674,0.002c0.881,0,1.793-0.002,2.673-0.002C9.728,14.883,9.764,17.073,7.018,17.073z"/>
		<path fill="none" stroke="#002459" stroke-width="0.4" stroke-miterlimit="10" d="M7.053-2.823c1.358,0,1.249,1.274,1.249,1.274
			c0.369,0.092,0.727,0.162,1.07,0.278c0.349,0.117,0.698,0.253,1.023,0.426c1.497,0.792,2.356,2.08,2.8,3.679
			c0.276,0.995,0.327,2.016,0.339,3.042c0.008,1.129,0.099,2.249,0.271,3.37c0.318,2.004,1.533,3.363,3.117,4.482
			c0,0.013,0,0.027,0,0.041c-6.584,0-13.168,0-19.752,0c0-0.018,0-0.028,0-0.041c0.167-0.127,0.346-0.246,0.503-0.391
			c0.494-0.457,1.025-0.883,1.456-1.393C0.015,10.9,0.298,9.609,0.427,8.289c0.094-0.956,0.114-1.922,0.146-2.884
			c0.028-0.981,0.131-1.946,0.436-2.886c0.639-1.956,1.917-3.256,3.898-3.837C5.208-1.407,5.517-1.47,5.824-1.543
			C5.824-1.543,5.698-2.823,7.053-2.823z"/>
	</g>
	<path display="inline" fill="none" stroke="#002459" stroke-width="0.3" stroke-miterlimit="10" d="M8.621,0.097
		c0,0,2.03,0.707,2.407,2.691"/>
</g>
<g>
	<polygon fill="none" stroke="#2A326D" stroke-width="0.4" stroke-miterlimit="10" points="10.593,18.922 1.687,18.922 
		4.889,10.648 8.892,10.648 10.593,13.018 10.594,13.018 12.294,10.648 16.297,10.648 19.499,18.922 	"/>
	<path fill="none" stroke="#2A326D" stroke-width="0.4" stroke-miterlimit="10" d="M10.593,2.414c-1.584,0-2.869,1.285-2.869,2.869
		c0,0.254,0.033,0.501,0.094,0.735c0,0,0.168,0.579,0.498,1.231c0.621,1.229,2.277,3.851,2.277,3.851s1.656-2.622,2.276-3.851
		c0.33-0.652,0.498-1.231,0.498-1.231c0.063-0.234,0.095-0.481,0.095-0.735C13.462,3.699,12.177,2.414,10.593,2.414z M10.593,6.534
		c-0.715,0-1.294-0.579-1.294-1.295c0-0.715,0.58-1.295,1.294-1.295s1.294,0.58,1.294,1.295C11.887,5.955,11.308,6.534,10.593,6.534
		z"/>
	<line fill="none" stroke="#2A326D" stroke-width="0.4" stroke-miterlimit="10" x1="17.622" y1="14.07" x2="15.482" y2="14.07"/>
	<line fill="none" stroke="#2A326D" stroke-width="0.4" stroke-miterlimit="10" x1="5.747" y1="14.07" x2="3.606" y2="14.07"/>
	<g>
		<line fill="none" stroke="#2A326D" stroke-width="0.4" stroke-miterlimit="10" x1="13.383" y1="18.922" x2="13.383" y2="16.936"/>
		<line fill="none" stroke="#2A326D" stroke-width="0.4" stroke-miterlimit="10" x1="7.802" y1="18.922" x2="7.802" y2="16.936"/>
	</g>
</g>
</svg>
