<?xml version="1.0" encoding="utf-8"?>
<!-- Generator: Adobe Illustrator 19.0.0, SVG Export Plug-In . SVG Version: 6.00 Build 0)  -->
<svg version="1.1" id="Layer_1" xmlns="http://www.w3.org/2000/svg" xmlns:xlink="http://www.w3.org/1999/xlink" x="0px" y="0px"
	 viewBox="-294 386.7 21.2 21.3" style="enable-background:new -294 386.7 21.2 21.3;" xml:space="preserve">
<style type="text/css">
	.st0{fill:none;stroke:#002459;stroke-width:0.4;stroke-miterlimit:10;}
	.st1{fill:none;stroke:#002459;stroke-width:0.3;stroke-miterlimit:10;}
	.st2{fill:none;stroke:#000000;stroke-width:0.4;stroke-miterlimit:10;}
	.st3{fill:none;stroke:#000000;stroke-width:0.2;stroke-miterlimit:10;}
	.st4{fill:#28336D;}
</style>
<g>
	<g>
		<path class="st0" d="M-581,790.4c-2.7,0-2.6-2.2-2.6-2.2c0.9,0,1.8,0,2.7,0s1.8,0,2.7,0C-578.3,788.2-578.2,790.4-581,790.4z"/>
		<path class="st0" d="M-580.9,770.5c1.4,0,1.2,1.3,1.2,1.3c0.4,0.1,0.7,0.2,1.1,0.3c0.3,0.1,0.7,0.3,1,0.4c1.5,0.8,2.4,2.1,2.8,3.7
			c0.3,1,0.3,2,0.3,3c0,1.1,0.1,2.2,0.3,3.4c0.3,2,1.5,3.4,3.1,4.5l0,0c-6.6,0-13.2,0-19.8,0l0,0c0.2-0.1,0.3-0.2,0.5-0.4
			c0.5-0.5,1-0.9,1.5-1.4c0.9-1,1.2-2.3,1.3-3.7c0.1-1,0.1-1.9,0.1-2.9s0.1-1.9,0.4-2.9c0.6-2,1.9-3.3,3.9-3.8
			c0.3-0.1,0.6-0.2,0.9-0.2C-582.2,771.8-582.3,770.5-580.9,770.5z"/>
	</g>
	<path class="st1" d="M-579.4,773.5c0,0,2,0.7,2.4,2.7"/>
</g>
<g>
	<polygon class="st2" points="-570.9,777.2 -570.9,781.1 -567.6,783.8 -570.1,783.8 -570.1,792.5 -574.8,792.5 -574.8,786.8 
		-577.4,786.8 -580.1,786.8 -580.1,792.5 -584.7,792.5 -584.7,783.8 -587.2,783.8 -577.4,775.6 -572.2,780 -572.2,777.2 	"/>
	<polygon class="st3" points="-577.4,777.5 -584.2,783.3 -585.3,783.3 -577.4,776.7 -569.5,783.3 -570.6,783.3 	"/>
	<g>
		<rect x="-579.3" y="780.9" class="st3" width="3.7" height="3.7"/>
		<line class="st3" x1="-575.6" y1="782.7" x2="-579.3" y2="782.7"/>
		<line class="st3" x1="-577.4" y1="780.9" x2="-577.4" y2="784.6"/>
	</g>
</g>
<g id="XMLID_89_">
	<g id="XMLID_90_">
		<g id="XMLID_91_">
			<path id="XMLID_131_" class="st4" d="M-289.38,395.48h0.56c0.21,0,0.37-0.17,0.37-0.38v-0.57c0-0.21-0.17-0.38-0.37-0.38h-0.56
				c-0.21,0-0.37,0.17-0.37,0.38v0.57C-289.76,395.31-289.59,395.48-289.38,395.48z"/>
			<path id="XMLID_130_" class="st4" d="M-289.38,397.77h0.56c0.21,0,0.37-0.17,0.37-0.38v-0.57c0-0.21-0.17-0.38-0.37-0.38h-0.56
				c-0.21,0-0.37,0.17-0.37,0.38v0.57C-289.76,397.6-289.59,397.77-289.38,397.77z"/>
			<path id="XMLID_129_" class="st4" d="M-289.38,400.06h0.56c0.21,0,0.37-0.17,0.37-0.38v-0.57c0-0.21-0.17-0.38-0.37-0.38h-0.56
				c-0.21,0-0.37,0.17-0.37,0.38v0.57C-289.76,399.89-289.59,400.06-289.38,400.06z"/>
			<path id="XMLID_128_" class="st4" d="M-289.38,402.35h0.56c0.21,0,0.37-0.17,0.37-0.38v-0.57c0-0.21-0.17-0.38-0.37-0.38h-0.56
				c-0.21,0-0.37,0.17-0.37,0.38v0.57C-289.76,402.18-289.59,402.35-289.38,402.35z"/>
			<path id="XMLID_127_" class="st4" d="M-287.42,395.48h0.56c0.21,0,0.37-0.17,0.37-0.38v-0.57c0-0.21-0.17-0.38-0.37-0.38h-0.56
				c-0.21,0-0.37,0.17-0.37,0.38v0.57C-287.79,395.31-287.63,395.48-287.42,395.48z"/>
			<path id="XMLID_126_" class="st4" d="M-287.42,397.77h0.56c0.21,0,0.37-0.17,0.37-0.38v-0.57c0-0.21-0.17-0.38-0.37-0.38h-0.56
				c-0.21,0-0.37,0.17-0.37,0.38v0.57C-287.79,397.6-287.63,397.77-287.42,397.77z"/>
			<path id="XMLID_125_" class="st4" d="M-287.42,400.06h0.56c0.21,0,0.37-0.17,0.37-0.38v-0.57c0-0.21-0.17-0.38-0.37-0.38h-0.56
				c-0.21,0-0.37,0.17-0.37,0.38v0.57C-287.79,399.89-287.63,400.06-287.42,400.06z"/>
			<path id="XMLID_124_" class="st4" d="M-287.42,402.35h0.56c0.21,0,0.37-0.17,0.37-0.38v-0.57c0-0.21-0.17-0.38-0.37-0.38h-0.56
				c-0.21,0-0.37,0.17-0.37,0.38v0.57C-287.79,402.18-287.63,402.35-287.42,402.35z"/>
			<path id="XMLID_123_" class="st4" d="M-285.46,395.48h0.56c0.21,0,0.37-0.17,0.37-0.38v-0.57c0-0.21-0.17-0.38-0.37-0.38h-0.56
				c-0.21,0-0.37,0.17-0.37,0.38v0.57C-285.83,395.31-285.66,395.48-285.46,395.48z"/>
			<path id="XMLID_122_" class="st4" d="M-285.46,397.77h0.56c0.21,0,0.37-0.17,0.37-0.38v-0.57c0-0.21-0.17-0.38-0.37-0.38h-0.56
				c-0.21,0-0.37,0.17-0.37,0.38v0.57C-285.83,397.6-285.66,397.77-285.46,397.77z"/>
			<path id="XMLID_121_" class="st4" d="M-285.46,400.06h0.56c0.21,0,0.37-0.17,0.37-0.38v-0.57c0-0.21-0.17-0.38-0.37-0.38h-0.56
				c-0.21,0-0.37,0.17-0.37,0.38v0.57C-285.83,399.89-285.66,400.06-285.46,400.06z"/>
			<path id="XMLID_120_" class="st4" d="M-285.46,402.35h0.56c0.21,0,0.37-0.17,0.37-0.38v-0.57c0-0.21-0.17-0.38-0.37-0.38h-0.56
				c-0.21,0-0.37,0.17-0.37,0.38v0.57C-285.83,402.18-285.66,402.35-285.46,402.35z"/>
			<path id="XMLID_119_" class="st4" d="M-281.9,395.48h0.56c0.21,0,0.37-0.17,0.37-0.38v-0.57c0-0.21-0.17-0.38-0.37-0.38h-0.56
				c-0.21,0-0.37,0.17-0.37,0.38v0.57C-282.28,395.31-282.11,395.48-281.9,395.48z"/>
			<path id="XMLID_118_" class="st4" d="M-281.9,393.19h0.56c0.21,0,0.37-0.17,0.37-0.38v-0.57c0-0.21-0.17-0.38-0.37-0.38h-0.56
				c-0.21,0-0.37,0.17-0.37,0.38v0.57C-282.28,393.02-282.11,393.19-281.9,393.19z"/>
			<path id="XMLID_117_" class="st4" d="M-281.9,390.9h0.56c0.21,0,0.37-0.17,0.37-0.38v-0.57c0-0.21-0.17-0.38-0.37-0.38h-0.56
				c-0.21,0-0.37,0.17-0.37,0.38v0.57C-282.28,390.73-282.11,390.9-281.9,390.9z"/>
			<path id="XMLID_116_" class="st4" d="M-281.9,397.77h0.56c0.21,0,0.37-0.17,0.37-0.38v-0.57c0-0.21-0.17-0.38-0.37-0.38h-0.56
				c-0.21,0-0.37,0.17-0.37,0.38v0.57C-282.28,397.6-282.11,397.77-281.9,397.77z"/>
			<path id="XMLID_115_" class="st4" d="M-281.9,400.06h0.56c0.21,0,0.37-0.17,0.37-0.38v-0.57c0-0.21-0.17-0.38-0.37-0.38h-0.56
				c-0.21,0-0.37,0.17-0.37,0.38v0.57C-282.28,399.89-282.11,400.06-281.9,400.06z"/>
			<path id="XMLID_114_" class="st4" d="M-281.9,402.35h0.56c0.21,0,0.37-0.17,0.37-0.38v-0.57c0-0.21-0.17-0.38-0.37-0.38h-0.56
				c-0.21,0-0.37,0.17-0.37,0.38v0.57C-282.28,402.18-282.11,402.35-281.9,402.35z"/>
			<path id="XMLID_113_" class="st4" d="M-279.94,395.48h0.56c0.21,0,0.37-0.17,0.37-0.38v-0.57c0-0.21-0.17-0.38-0.37-0.38h-0.56
				c-0.21,0-0.37,0.17-0.37,0.38v0.57C-280.32,395.31-280.15,395.48-279.94,395.48z"/>
			<path id="XMLID_112_" class="st4" d="M-279.94,393.19h0.56c0.21,0,0.37-0.17,0.37-0.38v-0.57c0-0.21-0.17-0.38-0.37-0.38h-0.56
				c-0.21,0-0.37,0.17-0.37,0.38v0.57C-280.32,393.02-280.15,393.19-279.94,393.19z"/>
			<path id="XMLID_111_" class="st4" d="M-279.94,390.9h0.56c0.21,0,0.37-0.17,0.37-0.38v-0.57c0-0.21-0.17-0.38-0.37-0.38h-0.56
				c-0.21,0-0.37,0.17-0.37,0.38v0.57C-280.32,390.73-280.15,390.9-279.94,390.9z"/>
			<path id="XMLID_110_" class="st4" d="M-279.94,397.77h0.56c0.21,0,0.37-0.17,0.37-0.38v-0.57c0-0.21-0.17-0.38-0.37-0.38h-0.56
				c-0.21,0-0.37,0.17-0.37,0.38v0.57C-280.32,397.6-280.15,397.77-279.94,397.77z"/>
			<path id="XMLID_109_" class="st4" d="M-279.94,400.06h0.56c0.21,0,0.37-0.17,0.37-0.38v-0.57c0-0.21-0.17-0.38-0.37-0.38h-0.56
				c-0.21,0-0.37,0.17-0.37,0.38v0.57C-280.32,399.89-280.15,400.06-279.94,400.06z"/>
			<path id="XMLID_108_" class="st4" d="M-279.94,402.35h0.56c0.21,0,0.37-0.17,0.37-0.38v-0.57c0-0.21-0.17-0.38-0.37-0.38h-0.56
				c-0.21,0-0.37,0.17-0.37,0.38v0.57C-280.32,402.18-280.15,402.35-279.94,402.35z"/>
			<path id="XMLID_107_" class="st4" d="M-277.98,395.48h0.56c0.21,0,0.37-0.17,0.37-0.38v-0.57c0-0.21-0.17-0.38-0.37-0.38h-0.56
				c-0.21,0-0.37,0.17-0.37,0.38v0.57C-278.35,395.31-278.19,395.48-277.98,395.48z"/>
			<path id="XMLID_106_" class="st4" d="M-277.98,393.19h0.56c0.21,0,0.37-0.17,0.37-0.38v-0.57c0-0.21-0.17-0.38-0.37-0.38h-0.56
				c-0.21,0-0.37,0.17-0.37,0.38v0.57C-278.35,393.02-278.19,393.19-277.98,393.19z"/>
			<path id="XMLID_105_" class="st4" d="M-277.98,390.9h0.56c0.21,0,0.37-0.17,0.37-0.38v-0.57c0-0.21-0.17-0.38-0.37-0.38h-0.56
				c-0.21,0-0.37,0.17-0.37,0.38v0.57C-278.35,390.73-278.19,390.9-277.98,390.9z"/>
			<path id="XMLID_104_" class="st4" d="M-277.98,397.77h0.56c0.21,0,0.37-0.17,0.37-0.38v-0.57c0-0.21-0.17-0.38-0.37-0.38h-0.56
				c-0.21,0-0.37,0.17-0.37,0.38v0.57C-278.35,397.6-278.19,397.77-277.98,397.77z"/>
			<path id="XMLID_103_" class="st4" d="M-277.98,400.06h0.56c0.21,0,0.37-0.17,0.37-0.38v-0.57c0-0.21-0.17-0.38-0.37-0.38h-0.56
				c-0.21,0-0.37,0.17-0.37,0.38v0.57C-278.35,399.89-278.19,400.06-277.98,400.06z"/>
			<path id="XMLID_102_" class="st4" d="M-277.98,402.35h0.56c0.21,0,0.37-0.17,0.37-0.38v-0.57c0-0.21-0.17-0.38-0.37-0.38h-0.56
				c-0.21,0-0.37,0.17-0.37,0.38v0.57C-278.35,402.18-278.19,402.35-277.98,402.35z"/>
			<path id="XMLID_101_" class="st4" d="M-288.64,404.83c-0.21,0-0.37,0.17-0.37,0.38c0,0.21,0.17,0.38,0.37,0.38h0.01
				c0.21,0,0.37-0.17,0.37-0.38S-288.43,404.83-288.64,404.83L-288.64,404.83z"/>
			<path id="XMLID_100_" class="st4" d="M-281.17,404.83c-0.21,0-0.37,0.17-0.37,0.38c0,0.21,0.17,0.38,0.37,0.38h0.01
				c0.21,0,0.37-0.17,0.37-0.38C-280.78,405-280.95,404.83-281.17,404.83L-281.17,404.83z"/>
			<path id="XMLID_92_" class="st4" d="M-275.29,406.36h-0.26v-18.39c0-0.21-0.17-0.38-0.37-0.38h-7.48c-0.21,0-0.37,0.17-0.37,0.38
				v4.66h-7.1c-0.21,0-0.37,0.17-0.37,0.38v13.36h-0.26c-0.21,0-0.37,0.17-0.37,0.38s0.17,0.38,0.37,0.38h0.64h3.74h2.24h1.5h3.74
				h2.24h1.5h0h0h0.64c0.21,0,0.37-0.17,0.37-0.38C-274.91,406.53-275.08,406.36-275.29,406.36z M-285.27,406.36h-1.5v-1.53h1.5
				V406.36z M-283.77,406.36h-0.75v-1.91c0-0.21-0.17-0.38-0.37-0.38h-2.24c-0.21,0-0.37,0.17-0.37,0.38v1.91h-2.99v-0.76h0.79
				c0.21,0,0.37-0.17,0.37-0.38c0-0.21-0.17-0.38-0.37-0.38h-0.79v-11.45h6.73V406.36z M-277.79,406.36h-1.5v-1.53h1.5V406.36z
				 M-276.3,406.36h-0.75v-1.91c0-0.21-0.17-0.38-0.37-0.38h-2.24c-0.21,0-0.37,0.17-0.37,0.38v1.91h-2.99v-0.76h0.79
				c0.21,0,0.37-0.17,0.37-0.38c0-0.21-0.17-0.38-0.37-0.38h-0.79V393v-4.66h6.73V406.36z"/>
		</g>
	</g>
</g>
</svg>
