<?xml version="1.0" encoding="utf-8"?>
<!-- Generator: Adobe Illustrator 19.0.0, SVG Export Plug-In . SVG Version: 6.00 Build 0)  -->
<svg version="1.1" id="Layer_1" xmlns="http://www.w3.org/2000/svg" xmlns:xlink="http://www.w3.org/1999/xlink" x="0px" y="0px"
	 viewBox="-294 386.7 21.2 21.3" style="enable-background:new -294 386.7 21.2 21.3;" xml:space="preserve">
<style type="text/css">
	.st0{fill:none;stroke:#002459;stroke-width:0.4;stroke-miterlimit:10;}
	.st1{fill:none;stroke:#002459;stroke-width:0.3;stroke-miterlimit:10;}
	.st2{fill:none;stroke:#000000;stroke-width:0.4;stroke-miterlimit:10;}
	.st3{fill:none;stroke:#000000;stroke-width:0.2;stroke-miterlimit:10;}
	.st4{fill:#28336D;}
</style>
<g>
	<g>
		<path class="st0" d="M-581,790.4c-2.7,0-2.6-2.2-2.6-2.2c0.9,0,1.8,0,2.7,0s1.8,0,2.7,0C-578.3,788.2-578.2,790.4-581,790.4z"/>
		<path class="st0" d="M-580.9,770.5c1.4,0,1.2,1.3,1.2,1.3c0.4,0.1,0.7,0.2,1.1,0.3c0.3,0.1,0.7,0.3,1,0.4c1.5,0.8,2.4,2.1,2.8,3.7
			c0.3,1,0.3,2,0.3,3c0,1.1,0.1,2.2,0.3,3.4c0.3,2,1.5,3.4,3.1,4.5l0,0c-6.6,0-13.2,0-19.8,0l0,0c0.2-0.1,0.3-0.2,0.5-0.4
			c0.5-0.5,1-0.9,1.5-1.4c0.9-1,1.2-2.3,1.3-3.7c0.1-1,0.1-1.9,0.1-2.9s0.1-1.9,0.4-2.9c0.6-2,1.9-3.3,3.9-3.8
			c0.3-0.1,0.6-0.2,0.9-0.2C-582.2,771.8-582.3,770.5-580.9,770.5z"/>
	</g>
	<path class="st1" d="M-579.4,773.5c0,0,2,0.7,2.4,2.7"/>
</g>
<g>
	<polygon class="st2" points="-570.9,777.2 -570.9,781.1 -567.6,783.8 -570.1,783.8 -570.1,792.5 -574.8,792.5 -574.8,786.8 
		-577.4,786.8 -580.1,786.8 -580.1,792.5 -584.7,792.5 -584.7,783.8 -587.2,783.8 -577.4,775.6 -572.2,780 -572.2,777.2 	"/>
	<polygon class="st3" points="-577.4,777.5 -584.2,783.3 -585.3,783.3 -577.4,776.7 -569.5,783.3 -570.6,783.3 	"/>
	<g>
		<rect x="-579.3" y="780.9" class="st3" width="3.7" height="3.7"/>
		<line class="st3" x1="-575.6" y1="782.7" x2="-579.3" y2="782.7"/>
		<line class="st3" x1="-577.4" y1="780.9" x2="-577.4" y2="784.6"/>
	</g>
</g>
<path id="XMLID_629_" class="st4" d="M-275.43,404L-275.43,404l-1.38-2.3c-0.64-1.07-0.98-2.29-0.98-3.54v-2.02
	c0-2.48-1.62-4.59-3.87-5.33l0,0c-0.02-0.01-0.04-0.01-0.06-0.02c-0.01,0-0.02-0.01-0.04-0.01v0c-0.02-0.01-0.04-0.01-0.06-0.02
	v-1.47c0-0.87-0.71-1.58-1.58-1.58c-0.87,0-1.58,0.71-1.58,1.58v1.47c-0.1,0.03-0.16,0.05-0.16,0.05l0,0
	c-2.24,0.73-3.87,2.84-3.87,5.33v2.02c0,1.25-0.34,2.47-0.98,3.54l-1.38,2.3c-0.07,0.11-0.07,0.26-0.01,0.37
	c0.07,0.12,0.19,0.19,0.32,0.19h5.02h0.64h0.06c-0.03,0.14-0.05,0.29-0.05,0.43c0,1.09,0.89,1.98,1.98,1.98
	c1.09,0,1.98-0.89,1.98-1.98c0-0.15-0.02-0.29-0.05-0.43h0.06h0.09h5.56c0.13,0,0.26-0.07,0.32-0.19
	C-275.36,404.26-275.36,404.12-275.43,404z M-284.24,389.3c0-0.46,0.37-0.84,0.84-0.84s0.84,0.38,0.84,0.84v1.3
	c-0.11-0.02-0.22-0.03-0.33-0.04c-0.17-0.02-0.33-0.03-0.51-0.03c-0.26,0-0.52,0.02-0.77,0.05v0.01c-0.02,0-0.04,0.01-0.06,0.01
	V389.3z M-282.16,405c0,0.68-0.56,1.24-1.24,1.24c-0.68,0-1.24-0.56-1.24-1.24c0-0.15,0.03-0.3,0.08-0.43h0.07h2.19h0.07
	C-282.19,404.7-282.16,404.85-282.16,405z M-281.31,403.82h-0.48h-0.44h-2.34h-0.22c0,0,0,0,0,0c0,0,0,0,0,0h-0.22h-1.02h-4.36
	l1.05-1.74c0.71-1.18,1.09-2.54,1.09-3.92v-2.02c0-2.68,2.18-4.86,4.86-4.86s4.86,2.18,4.86,4.86v2.02c0,1.38,0.38,2.74,1.09,3.92
	l1.05,1.74H-281.31z"/>
</svg>
