<?xml version="1.0" encoding="utf-8"?>
<!-- Generator: Adobe Illustrator 19.0.0, SVG Export Plug-In . SVG Version: 6.00 Build 0)  -->
<svg version="1.1" id="Layer_1" xmlns="http://www.w3.org/2000/svg" xmlns:xlink="http://www.w3.org/1999/xlink" x="0px" y="0px"
	 viewBox="-294 386.7 21.2 21.3" style="enable-background:new -294 386.7 21.2 21.3;" xml:space="preserve">
<style type="text/css">
	.st0{fill:none;stroke:#002459;stroke-width:0.4;stroke-miterlimit:10;}
	.st1{fill:none;stroke:#002459;stroke-width:0.3;stroke-miterlimit:10;}
	.st2{fill:none;stroke:#000000;stroke-width:0.4;stroke-miterlimit:10;}
	.st3{fill:none;stroke:#000000;stroke-width:0.2;stroke-miterlimit:10;}
	.st4{fill:none;}
	.st5{fill:#28336D;}
</style>
<g>
	<g>
		<path class="st0" d="M-581,790.4c-2.7,0-2.6-2.2-2.6-2.2c0.9,0,1.8,0,2.7,0s1.8,0,2.7,0C-578.3,788.2-578.2,790.4-581,790.4z"/>
		<path class="st0" d="M-580.9,770.5c1.4,0,1.2,1.3,1.2,1.3c0.4,0.1,0.7,0.2,1.1,0.3c0.3,0.1,0.7,0.3,1,0.4c1.5,0.8,2.4,2.1,2.8,3.7
			c0.3,1,0.3,2,0.3,3c0,1.1,0.1,2.2,0.3,3.4c0.3,2,1.5,3.4,3.1,4.5l0,0c-6.6,0-13.2,0-19.8,0l0,0c0.2-0.1,0.3-0.2,0.5-0.4
			c0.5-0.5,1-0.9,1.5-1.4c0.9-1,1.2-2.3,1.3-3.7c0.1-1,0.1-1.9,0.1-2.9s0.1-1.9,0.4-2.9c0.6-2,1.9-3.3,3.9-3.8
			c0.3-0.1,0.6-0.2,0.9-0.2C-582.2,771.8-582.3,770.5-580.9,770.5z"/>
	</g>
	<path class="st1" d="M-579.4,773.5c0,0,2,0.7,2.4,2.7"/>
</g>
<g>
	<polygon class="st2" points="-570.9,777.2 -570.9,781.1 -567.6,783.8 -570.1,783.8 -570.1,792.5 -574.8,792.5 -574.8,786.8 
		-577.4,786.8 -580.1,786.8 -580.1,792.5 -584.7,792.5 -584.7,783.8 -587.2,783.8 -577.4,775.6 -572.2,780 -572.2,777.2 	"/>
	<polygon class="st3" points="-577.4,777.5 -584.2,783.3 -585.3,783.3 -577.4,776.7 -569.5,783.3 -570.6,783.3 	"/>
	<g>
		<rect x="-579.3" y="780.9" class="st3" width="3.7" height="3.7"/>
		<line class="st3" x1="-575.6" y1="782.7" x2="-579.3" y2="782.7"/>
		<line class="st3" x1="-577.4" y1="780.9" x2="-577.4" y2="784.6"/>
	</g>
</g>
<g id="XMLID_740_">
	<rect id="XMLID_755_" x="-288.14" y="404.16" class="st4" width="1.43" height="1.46"/>
	<path id="XMLID_739_" class="st4" d="M-280.98,405.62h0.83c-0.18-0.44-0.28-0.92-0.28-1.43c0-0.01,0-0.02,0-0.03h-0.55V405.62z"/>
	<path id="XMLID_719_" class="st5" d="M-283.84,389.9c0-0.2,0.16-0.37,0.36-0.37h0.54c0.2,0,0.36,0.16,0.36,0.37v0.55
		c0,0.2-0.16,0.37-0.36,0.37h-0.54c-0.2,0-0.36-0.16-0.36-0.37V389.9z M-283.84,392.1c0-0.2,0.16-0.37,0.36-0.37h0.54
		c0.2,0,0.36,0.16,0.36,0.37v0.55c0,0.2-0.16,0.37-0.36,0.37h-0.54c-0.2,0-0.36-0.16-0.36-0.37V392.1z M-283.84,394.29
		c0-0.2,0.16-0.37,0.36-0.37h0.54c0.2,0,0.36,0.16,0.36,0.37v0.55c0,0.2-0.16,0.37-0.36,0.37h-0.54c-0.2,0-0.36-0.16-0.36-0.37
		V394.29z M-283.84,396.48c0-0.2,0.16-0.37,0.36-0.37h0.54c0.2,0,0.36,0.16,0.36,0.37v0.55c0,0.2-0.16,0.37-0.36,0.37h-0.54
		c-0.2,0-0.36-0.16-0.36-0.37V396.48z M-283.84,398.67c0-0.2,0.16-0.37,0.36-0.37h0.54c0.2,0,0.36,0.16,0.36,0.37v0.55
		c0,0.2-0.16,0.37-0.36,0.37h-0.54c-0.2,0-0.36-0.16-0.36-0.37V398.67z M-283.49,401.78c-0.2,0-0.36-0.16-0.36-0.37v-0.55
		c0-0.2,0.16-0.37,0.36-0.37h0.54c0.2,0,0.36,0.16,0.36,0.37v0.55c0,0.2-0.16,0.37-0.36,0.37H-283.49z M-282.77,404.89
		L-282.77,404.89c-0.21,0-0.37-0.16-0.37-0.37c0-0.2,0.16-0.37,0.36-0.37h0.01c0.2,0,0.36,0.16,0.36,0.37
		C-282.41,404.72-282.57,404.89-282.77,404.89z M-280.71,401.41c0,0.2-0.16,0.37-0.36,0.37h-0.54c-0.2,0-0.36-0.16-0.36-0.37v-0.55
		c0-0.2,0.16-0.37,0.36-0.37h0.54c0.2,0,0.36,0.16,0.36,0.37V401.41z M-280.71,399.22c0,0.2-0.16,0.37-0.36,0.37h-0.54
		c-0.2,0-0.36-0.16-0.36-0.37v-0.55c0-0.2,0.16-0.37,0.36-0.37h0.54c0.2,0,0.36,0.16,0.36,0.37V399.22z M-280.71,397.03
		c0,0.2-0.16,0.37-0.36,0.37h-0.54c-0.2,0-0.36-0.16-0.36-0.37v-0.55c0-0.2,0.16-0.37,0.36-0.37h0.54c0.2,0,0.36,0.16,0.36,0.37
		V397.03z M-280.71,394.84c0,0.2-0.16,0.37-0.36,0.37h-0.54c-0.2,0-0.36-0.16-0.36-0.37v-0.55c0-0.2,0.16-0.37,0.36-0.37h0.54
		c0.2,0,0.36,0.16,0.36,0.37V394.84z M-280.71,392.65c0,0.2-0.16,0.37-0.36,0.37h-0.54c-0.2,0-0.36-0.16-0.36-0.37v-0.55
		c0-0.2,0.16-0.37,0.36-0.37h0.54c0.2,0,0.36,0.16,0.36,0.37V392.65z M-280.71,390.45c0,0.2-0.16,0.37-0.36,0.37h-0.54
		c-0.2,0-0.36-0.16-0.36-0.37v-0.55c0-0.2,0.16-0.37,0.36-0.37h0.54c0.2,0,0.36,0.16,0.36,0.37V390.45z M-278.83,399.22
		c0,0.2-0.16,0.37-0.36,0.37h-0.54c-0.2,0-0.36-0.16-0.36-0.37v-0.55c0-0.2,0.16-0.37,0.36-0.37h0.54c0.2,0,0.36,0.16,0.36,0.37
		V399.22z M-278.83,397.03c0,0.2-0.16,0.37-0.36,0.37h-0.54c-0.2,0-0.36-0.16-0.36-0.37v-0.55c0-0.2,0.16-0.37,0.36-0.37h0.54
		c0.2,0,0.36,0.16,0.36,0.37V397.03z M-278.83,394.84c0,0.2-0.16,0.37-0.36,0.37h-0.54c-0.2,0-0.36-0.16-0.36-0.37v-0.55
		c0-0.2,0.16-0.37,0.36-0.37h0.54c0.2,0,0.36,0.16,0.36,0.37V394.84z M-278.83,392.65c0,0.2-0.16,0.37-0.36,0.37h-0.54
		c-0.2,0-0.36-0.16-0.36-0.37v-0.55c0-0.2,0.16-0.37,0.36-0.37h0.54c0.2,0,0.36,0.16,0.36,0.37V392.65z M-279.19,390.82h-0.54
		c-0.2,0-0.36-0.16-0.36-0.37v-0.55c0-0.2,0.16-0.37,0.36-0.37h0.54c0.2,0,0.36,0.16,0.36,0.37v0.55
		C-278.83,390.65-278.99,390.82-279.19,390.82z"/>
	<path id="XMLID_718_" class="st5" d="M-290.65,395.2h0.54c0.2,0,0.36-0.16,0.36-0.37v-0.55c0-0.2-0.16-0.37-0.36-0.37h-0.54
		c-0.2,0-0.36,0.16-0.36,0.37v0.55C-291,395.04-290.84,395.2-290.65,395.2z"/>
	<path id="XMLID_717_" class="st5" d="M-290.65,397.4h0.54c0.2,0,0.36-0.16,0.36-0.37v-0.55c0-0.2-0.16-0.37-0.36-0.37h-0.54
		c-0.2,0-0.36,0.16-0.36,0.37v0.55C-291,397.23-290.84,397.4-290.65,397.4z"/>
	<path id="XMLID_716_" class="st5" d="M-290.65,399.59h0.54c0.2,0,0.36-0.16,0.36-0.37v-0.55c0-0.2-0.16-0.37-0.36-0.37h-0.54
		c-0.2,0-0.36,0.16-0.36,0.37v0.55C-291,399.42-290.84,399.59-290.65,399.59z"/>
	<path id="XMLID_715_" class="st5" d="M-290.65,401.78h0.54c0.2,0,0.36-0.16,0.36-0.37v-0.55c0-0.2-0.16-0.37-0.36-0.37h-0.54
		c-0.2,0-0.36,0.16-0.36,0.37v0.55C-291,401.62-290.84,401.78-290.65,401.78z"/>
	<path id="XMLID_714_" class="st5" d="M-288.77,395.2h0.54c0.2,0,0.36-0.16,0.36-0.37v-0.55c0-0.2-0.16-0.37-0.36-0.37h-0.54
		c-0.2,0-0.36,0.16-0.36,0.37v0.55C-289.12,395.04-288.96,395.2-288.77,395.2z"/>
	<path id="XMLID_713_" class="st5" d="M-288.77,397.4h0.54c0.2,0,0.36-0.16,0.36-0.37v-0.55c0-0.2-0.16-0.37-0.36-0.37h-0.54
		c-0.2,0-0.36,0.16-0.36,0.37v0.55C-289.12,397.23-288.96,397.4-288.77,397.4z"/>
	<path id="XMLID_712_" class="st5" d="M-288.77,399.59h0.54c0.2,0,0.36-0.16,0.36-0.37v-0.55c0-0.2-0.16-0.37-0.36-0.37h-0.54
		c-0.2,0-0.36,0.16-0.36,0.37v0.55C-289.12,399.42-288.96,399.59-288.77,399.59z"/>
	<path id="XMLID_711_" class="st5" d="M-288.77,401.78h0.54c0.2,0,0.36-0.16,0.36-0.37v-0.55c0-0.2-0.16-0.37-0.36-0.37h-0.54
		c-0.2,0-0.36,0.16-0.36,0.37v0.55C-289.12,401.62-288.96,401.78-288.77,401.78z"/>
	<path id="XMLID_710_" class="st5" d="M-286.89,395.2h0.54c0.2,0,0.36-0.16,0.36-0.37v-0.55c0-0.2-0.16-0.37-0.36-0.37h-0.54
		c-0.2,0-0.36,0.16-0.36,0.37v0.55C-287.25,395.04-287.08,395.2-286.89,395.2z"/>
	<path id="XMLID_709_" class="st5" d="M-286.89,397.4h0.54c0.2,0,0.36-0.16,0.36-0.37v-0.55c0-0.2-0.16-0.37-0.36-0.37h-0.54
		c-0.2,0-0.36,0.16-0.36,0.37v0.55C-287.25,397.23-287.08,397.4-286.89,397.4z"/>
	<path id="XMLID_708_" class="st5" d="M-286.89,399.59h0.54c0.2,0,0.36-0.16,0.36-0.37v-0.55c0-0.2-0.16-0.37-0.36-0.37h-0.54
		c-0.2,0-0.36,0.16-0.36,0.37v0.55C-287.25,399.42-287.08,399.59-286.89,399.59z"/>
	<path id="XMLID_707_" class="st5" d="M-286.89,401.78h0.54c0.2,0,0.36-0.16,0.36-0.37v-0.55c0-0.2-0.16-0.37-0.36-0.37h-0.54
		c-0.2,0-0.36,0.16-0.36,0.37v0.55C-287.25,401.62-287.08,401.78-286.89,401.78z"/>
	<path id="XMLID_706_" class="st5" d="M-283.49,395.2h0.54c0.2,0,0.36-0.16,0.36-0.37v-0.55c0-0.2-0.16-0.37-0.36-0.37h-0.54
		c-0.2,0-0.36,0.16-0.36,0.37v0.55C-283.84,395.04-283.68,395.2-283.49,395.2z"/>
	<path id="XMLID_705_" class="st5" d="M-283.49,393.01h0.54c0.2,0,0.36-0.16,0.36-0.37v-0.55c0-0.2-0.16-0.37-0.36-0.37h-0.54
		c-0.2,0-0.36,0.16-0.36,0.37v0.55C-283.84,392.85-283.68,393.01-283.49,393.01z"/>
	<path id="XMLID_704_" class="st5" d="M-283.49,390.82h0.54c0.2,0,0.36-0.16,0.36-0.37v-0.55c0-0.2-0.16-0.37-0.36-0.37h-0.54
		c-0.2,0-0.36,0.16-0.36,0.37v0.55C-283.84,390.65-283.68,390.82-283.49,390.82z"/>
	<path id="XMLID_703_" class="st5" d="M-283.49,397.4h0.54c0.2,0,0.36-0.16,0.36-0.37v-0.55c0-0.2-0.16-0.37-0.36-0.37h-0.54
		c-0.2,0-0.36,0.16-0.36,0.37v0.55C-283.84,397.23-283.68,397.4-283.49,397.4z"/>
	<path id="XMLID_702_" class="st5" d="M-283.49,399.59h0.54c0.2,0,0.36-0.16,0.36-0.37v-0.55c0-0.2-0.16-0.37-0.36-0.37h-0.54
		c-0.2,0-0.36,0.16-0.36,0.37v0.55C-283.84,399.42-283.68,399.59-283.49,399.59z"/>
	<path id="XMLID_701_" class="st5" d="M-282.59,401.41v-0.55c0-0.2-0.16-0.37-0.36-0.37h-0.54c-0.2,0-0.36,0.16-0.36,0.37v0.55
		c0,0.2,0.16,0.37,0.36,0.37h0.54C-282.75,401.78-282.59,401.62-282.59,401.41z"/>
	<path id="XMLID_700_" class="st5" d="M-281.07,393.92h-0.54c-0.2,0-0.36,0.16-0.36,0.37v0.55c0,0.2,0.16,0.37,0.36,0.37h0.54
		c0.2,0,0.36-0.16,0.36-0.37v-0.55C-280.71,394.09-280.87,393.92-281.07,393.92z"/>
	<path id="XMLID_699_" class="st5" d="M-281.07,391.73h-0.54c-0.2,0-0.36,0.16-0.36,0.37v0.55c0,0.2,0.16,0.37,0.36,0.37h0.54
		c0.2,0,0.36-0.16,0.36-0.37v-0.55C-280.71,391.9-280.87,391.73-281.07,391.73z"/>
	<path id="XMLID_698_" class="st5" d="M-281.07,389.54h-0.54c-0.2,0-0.36,0.16-0.36,0.37v0.55c0,0.2,0.16,0.37,0.36,0.37h0.54
		c0.2,0,0.36-0.16,0.36-0.37v-0.55C-280.71,389.7-280.87,389.54-281.07,389.54z"/>
	<path id="XMLID_697_" class="st5" d="M-281.07,396.12h-0.54c-0.2,0-0.36,0.16-0.36,0.37v0.55c0,0.2,0.16,0.37,0.36,0.37h0.54
		c0.2,0,0.36-0.16,0.36-0.37v-0.55C-280.71,396.28-280.87,396.12-281.07,396.12z"/>
	<path id="XMLID_696_" class="st5" d="M-281.07,398.31h-0.54c-0.2,0-0.36,0.16-0.36,0.37v0.55c0,0.2,0.16,0.37,0.36,0.37h0.54
		c0.2,0,0.36-0.16,0.36-0.37v-0.55C-280.71,398.47-280.87,398.31-281.07,398.31z"/>
	<path id="XMLID_695_" class="st5" d="M-281.07,400.5h-0.54c-0.2,0-0.36,0.16-0.36,0.37v0.55c0,0.2,0.16,0.37,0.36,0.37h0.54
		c0.2,0,0.36-0.16,0.36-0.37v-0.55C-280.71,400.66-280.87,400.5-281.07,400.5z"/>
	<path id="XMLID_694_" class="st5" d="M-279.19,393.92h-0.54c-0.2,0-0.36,0.16-0.36,0.37v0.55c0,0.2,0.16,0.37,0.36,0.37h0.54
		c0.2,0,0.36-0.16,0.36-0.37v-0.55C-278.83,394.09-278.99,393.92-279.19,393.92z"/>
	<path id="XMLID_693_" class="st5" d="M-279.19,391.73h-0.54c-0.2,0-0.36,0.16-0.36,0.37v0.55c0,0.2,0.16,0.37,0.36,0.37h0.54
		c0.2,0,0.36-0.16,0.36-0.37v-0.55C-278.83,391.9-278.99,391.73-279.19,391.73z"/>
	<path id="XMLID_692_" class="st5" d="M-279.19,389.54h-0.54c-0.2,0-0.36,0.16-0.36,0.37v0.55c0,0.2,0.16,0.37,0.36,0.37h0.54
		c0.2,0,0.36-0.16,0.36-0.37v-0.55C-278.83,389.7-278.99,389.54-279.19,389.54z"/>
	<path id="XMLID_691_" class="st5" d="M-279.19,396.12h-0.54c-0.2,0-0.36,0.16-0.36,0.37v0.55c0,0.2,0.16,0.37,0.36,0.37h0.54
		c0.2,0,0.36-0.16,0.36-0.37v-0.55C-278.83,396.28-278.99,396.12-279.19,396.12z"/>
	<path id="XMLID_690_" class="st5" d="M-279.19,398.31h-0.54c-0.2,0-0.36,0.16-0.36,0.37v0.55c0,0.2,0.16,0.37,0.36,0.37h0.54
		c0.2,0,0.36-0.16,0.36-0.37v-0.55C-278.83,398.47-278.99,398.31-279.19,398.31z"/>
	<path id="XMLID_689_" class="st5" d="M-279.19,400.5h-0.54c-0.2,0-0.36,0.16-0.36,0.37v0.55c0,0.2,0.16,0.37,0.36,0.37h0.16
		c0.21-0.26,0.46-0.49,0.74-0.69v-0.23C-278.83,400.66-278.99,400.5-279.19,400.5z"/>
	<path id="XMLID_688_" class="st5" d="M-289.94,404.16c-0.2,0-0.36,0.16-0.36,0.37c0,0.2,0.16,0.37,0.36,0.37h0.01
		c0.2,0,0.36-0.16,0.36-0.37S-289.73,404.16-289.94,404.16L-289.94,404.16z"/>
	<path id="XMLID_687_" class="st5" d="M-282.77,404.16L-282.77,404.16c-0.21,0-0.37,0.16-0.37,0.37c0,0.2,0.16,0.37,0.36,0.37h0.01
		c0.2,0,0.36-0.16,0.36-0.37C-282.41,404.32-282.57,404.16-282.77,404.16z"/>
	<path id="XMLID_682_" class="st5" d="M-280.98,405.62v-1.46h0.55c0-0.25,0.03-0.49,0.08-0.73h-0.99c-0.2,0-0.36,0.16-0.36,0.37
		v1.83h-2.86v-0.73h0.75c0.2,0,0.36-0.16,0.36-0.37c0-0.2-0.16-0.37-0.36-0.37h-0.75v-11.33v-4.46h6.44v12.32
		c0.23-0.1,0.47-0.17,0.72-0.22V388c0-0.2-0.16-0.37-0.36-0.37h-7.16c-0.2,0-0.36,0.16-0.36,0.37v4.46h-6.8
		c-0.2,0-0.36,0.16-0.36,0.37v12.79h-0.25c-0.2,0-0.36,0.16-0.36,0.37s0.16,0.37,0.36,0.37h0.61h3.58h2.15h1.43h3.58h1.58
		c-0.16-0.23-0.29-0.47-0.39-0.73H-280.98z M-286.71,405.62h-1.43v-1.46h1.43V405.62z M-285.28,405.62h-0.72v-1.83
		c0-0.2-0.16-0.37-0.36-0.37h-2.15c-0.2,0-0.36,0.16-0.36,0.37v1.83h-2.86v-0.73h0.75c0.2,0,0.36-0.16,0.36-0.37
		c0-0.2-0.16-0.37-0.36-0.37h-0.75v-10.96h6.44"/>
	<g id="XMLID_676_">
		<path id="XMLID_678_" class="st5" d="M-276.63,401.32c-1.58,0-2.87,1.29-2.87,2.87c0,1.58,1.29,2.87,2.87,2.87
			s2.87-1.29,2.87-2.87C-273.75,402.6-275.04,401.32-276.63,401.32z M-276.63,406.35c-1.19,0-2.16-0.97-2.16-2.16
			s0.97-2.16,2.16-2.16s2.16,0.97,2.16,2.16S-275.44,406.35-276.63,406.35z"/>
		<path id="XMLID_677_" class="st5" d="M-275.57,403.81h-0.7v-0.7c0-0.2-0.16-0.36-0.36-0.36c-0.2,0-0.36,0.16-0.36,0.36v0.7h-0.7
			c-0.2,0-0.36,0.16-0.36,0.36c0,0.2,0.16,0.36,0.36,0.36h0.7v0.7c0,0.2,0.16,0.36,0.36,0.36c0.2,0,0.36-0.16,0.36-0.36v-0.7h0.7
			c0.2,0,0.36-0.16,0.36-0.36C-275.22,403.97-275.37,403.81-275.57,403.81z"/>
	</g>
</g>
</svg>
