<?xml version="1.0" encoding="utf-8"?>
<!-- Generator: Adobe Illustrator 16.0.0, SVG Export Plug-In . SVG Version: 6.00 Build 0)  -->
<!DOCTYPE svg PUBLIC "-//W3C//DTD SVG 1.1//EN" "http://www.w3.org/Graphics/SVG/1.1/DTD/svg11.dtd">
<svg version="1.1" id="Layer_1" xmlns="http://www.w3.org/2000/svg" xmlns:xlink="http://www.w3.org/1999/xlink" x="0px" y="0px"
	 width="21.186px" height="21.336px" viewBox="0 0 21.186 21.336" enable-background="new 0 0 21.186 21.336" xml:space="preserve">
<g display="none">
	<g display="inline">
		<path fill="none" stroke="#002459" stroke-width="0.4" stroke-miterlimit="10" d="M7.018,17.073c-2.745,0-2.639-2.189-2.639-2.189
			c0.885,0,1.792,0.002,2.674,0.002c0.881,0,1.793-0.002,2.673-0.002C9.728,14.883,9.764,17.073,7.018,17.073z"/>
		<path fill="none" stroke="#002459" stroke-width="0.4" stroke-miterlimit="10" d="M7.053-2.823c1.358,0,1.249,1.274,1.249,1.274
			c0.369,0.092,0.727,0.162,1.07,0.278c0.349,0.117,0.698,0.253,1.023,0.426c1.497,0.792,2.356,2.08,2.8,3.679
			c0.276,0.995,0.327,2.016,0.339,3.042c0.008,1.129,0.099,2.249,0.271,3.37c0.318,2.004,1.533,3.363,3.117,4.482
			c0,0.013,0,0.027,0,0.041c-6.584,0-13.168,0-19.752,0c0-0.018,0-0.028,0-0.041c0.167-0.127,0.346-0.246,0.503-0.391
			c0.494-0.457,1.025-0.883,1.456-1.393C0.015,10.9,0.298,9.609,0.427,8.289c0.094-0.956,0.114-1.922,0.146-2.884
			c0.028-0.981,0.131-1.946,0.436-2.886c0.639-1.956,1.917-3.256,3.898-3.837C5.208-1.407,5.517-1.47,5.824-1.543
			C5.824-1.543,5.698-2.823,7.053-2.823z"/>
	</g>
	<path display="inline" fill="none" stroke="#002459" stroke-width="0.3" stroke-miterlimit="10" d="M8.621,0.097
		c0,0,2.03,0.707,2.407,2.691"/>
</g>
<path fill="#FFFFFF" stroke="#2A326D" stroke-width="0.4" stroke-miterlimit="10" d="M4.463,18.52
	c1.034-0.887,1.086-3.225,1.086-3.225c-2.8-0.946-4.793-3.392-4.793-6.258c0-3.688,3.299-6.678,7.369-6.678
	c4.069,0,7.368,2.99,7.368,6.678c0,3.688-3.299,6.678-7.368,6.678C8.125,15.715,6.673,18.136,4.463,18.52z"/>
<path fill="none" stroke="#2A326D" stroke-width="0.4" stroke-miterlimit="10" d="M16.519,9.022
	c0.001,3.209-2.523,6.325-5.658,7.383c0.429,0.063,0.868,0.095,1.317,0.095c0,0,1.625,2.711,4.101,3.141
	c-1.157-0.992-1.217-3.611-1.217-3.611c3.136-1.06,5.368-3.798,5.368-7.007c0-5.15-5.941-7.327-10.5-7.327
	C13.691,2.393,16.519,5.407,16.519,9.022"/>
<path fill="none" stroke="#FFFFFF" stroke-width="0.3" stroke-miterlimit="10" d="M15.268,3.276c0,0,1.771,0.236,2.999,1.903"/>
<line fill="none" stroke="#2A326D" stroke-miterlimit="10" x1="13.045" y1="7.939" x2="7.53" y2="7.939"/>
<line fill="none" stroke="#2A326D" stroke-miterlimit="10" x1="13.045" y1="5.613" x2="4.853" y2="5.613"/>
<path fill="none" stroke="#2A326D" stroke-width="0.4" stroke-miterlimit="10" d="M4.251,6.908c0,0-1.362,0.734-1.362,2.563v0.016
	c0,1.83,1.362,2.564,1.362,2.564"/>
<circle fill="#2A326D" cx="6.972" cy="12.402" r="0.7"/>
<circle fill="#2A326D" cx="9.785" cy="12.402" r="0.7"/>
<circle fill="#2A326D" cx="12.06" cy="12.402" r="0.7"/>
</svg>
