<?xml version="1.0" encoding="utf-8"?>
<!-- Generator: Adobe Illustrator 19.0.0, SVG Export Plug-In . SVG Version: 6.00 Build 0)  -->
<svg version="1.1" id="Layer_1" xmlns="http://www.w3.org/2000/svg" xmlns:xlink="http://www.w3.org/1999/xlink" x="0px" y="0px"
	 viewBox="-294 386.7 21.2 21.3" style="enable-background:new -294 386.7 21.2 21.3;" xml:space="preserve">
<style type="text/css">
	.st0{fill:none;stroke:#002459;stroke-width:0.4;stroke-miterlimit:10;}
	.st1{fill:none;stroke:#002459;stroke-width:0.3;stroke-miterlimit:10;}
	.st2{fill:none;stroke:#000000;stroke-width:0.4;stroke-miterlimit:10;}
	.st3{fill:none;stroke:#000000;stroke-width:0.2;stroke-miterlimit:10;}
	.st4{fill:#28336D;}
</style>
<g>
	<g>
		<path class="st0" d="M-581,790.4c-2.7,0-2.6-2.2-2.6-2.2c0.9,0,1.8,0,2.7,0s1.8,0,2.7,0C-578.3,788.2-578.2,790.4-581,790.4z"/>
		<path class="st0" d="M-580.9,770.5c1.4,0,1.2,1.3,1.2,1.3c0.4,0.1,0.7,0.2,1.1,0.3c0.3,0.1,0.7,0.3,1,0.4c1.5,0.8,2.4,2.1,2.8,3.7
			c0.3,1,0.3,2,0.3,3c0,1.1,0.1,2.2,0.3,3.4c0.3,2,1.5,3.4,3.1,4.5l0,0c-6.6,0-13.2,0-19.8,0l0,0c0.2-0.1,0.3-0.2,0.5-0.4
			c0.5-0.5,1-0.9,1.5-1.4c0.9-1,1.2-2.3,1.3-3.7c0.1-1,0.1-1.9,0.1-2.9s0.1-1.9,0.4-2.9c0.6-2,1.9-3.3,3.9-3.8
			c0.3-0.1,0.6-0.2,0.9-0.2C-582.2,771.8-582.3,770.5-580.9,770.5z"/>
	</g>
	<path class="st1" d="M-579.4,773.5c0,0,2,0.7,2.4,2.7"/>
</g>
<g>
	<polygon class="st2" points="-570.9,777.2 -570.9,781.1 -567.6,783.8 -570.1,783.8 -570.1,792.5 -574.8,792.5 -574.8,786.8 
		-577.4,786.8 -580.1,786.8 -580.1,792.5 -584.7,792.5 -584.7,783.8 -587.2,783.8 -577.4,775.6 -572.2,780 -572.2,777.2 	"/>
	<polygon class="st3" points="-577.4,777.5 -584.2,783.3 -585.3,783.3 -577.4,776.7 -569.5,783.3 -570.6,783.3 	"/>
	<g>
		<rect x="-579.3" y="780.9" class="st3" width="3.7" height="3.7"/>
		<line class="st3" x1="-575.6" y1="782.7" x2="-579.3" y2="782.7"/>
		<line class="st3" x1="-577.4" y1="780.9" x2="-577.4" y2="784.6"/>
	</g>
</g>
<path id="XMLID_34_" class="st4" d="M-287.4,391.71h-4.2c-0.85,0-1.54,0.69-1.54,1.54v10.66c0,0.85,0.69,1.54,1.54,1.54h16.4
	c0.85,0,1.54-0.69,1.54-1.54v-10.66c0-0.85-0.69-1.54-1.54-1.54h-4.2v-0.92c0-0.85-0.69-1.54-1.54-1.54h-4.92
	c-0.85,0-1.54,0.69-1.54,1.54V391.71z M-274.29,403.91c0,0.51-0.41,0.92-0.92,0.92h-16.4c-0.51,0-0.92-0.41-0.92-0.92v-6.13
	l0.14,0.08c0.24,0.14,0.5,0.21,0.77,0.21h6.66v1.33c0,0.17,0.14,0.31,0.31,0.31h2.46c0.17,0,0.31-0.14,0.31-0.31v-1.33h6.65
	c0.27,0,0.53-0.07,0.77-0.21l0.14-0.08V403.91z M-284.32,399.09v-1.83h1.83v1.83H-284.32z M-286.78,390.79
	c0-0.51,0.41-0.92,0.92-0.92h4.92c0.51,0,0.92,0.41,0.92,0.92v0.92h-6.75V390.79z M-275.2,392.33c0.51,0,0.92,0.41,0.92,0.92v3.28
	c0,0.51-0.41,0.92-0.92,0.92h-6.66v-0.51c0-0.17-0.14-0.31-0.31-0.31h-2.46c-0.17,0-0.31,0.14-0.31,0.31v0.51h-6.66
	c-0.51,0-0.92-0.41-0.92-0.92v-3.28c0-0.51,0.41-0.92,0.92-0.92H-275.2z"/>
</svg>
