<?xml version="1.0" encoding="utf-8"?>
<!-- Generator: Adobe Illustrator 19.0.0, SVG Export Plug-In . SVG Version: 6.00 Build 0)  -->
<svg version="1.1" id="Layer_1" xmlns="http://www.w3.org/2000/svg" xmlns:xlink="http://www.w3.org/1999/xlink" x="0px" y="0px"
	 viewBox="-294 386.7 21.2 21.3" style="enable-background:new -294 386.7 21.2 21.3;" xml:space="preserve">
<style type="text/css">
	.st0{fill:none;stroke:#002459;stroke-width:0.4;stroke-miterlimit:10;}
	.st1{fill:none;stroke:#002459;stroke-width:0.3;stroke-miterlimit:10;}
	.st2{fill:none;stroke:#000000;stroke-width:0.4;stroke-miterlimit:10;}
	.st3{fill:none;stroke:#000000;stroke-width:0.2;stroke-miterlimit:10;}
	.st4{fill:#28336D;}
</style>
<g>
	<g>
		<path class="st0" d="M-581,790.4c-2.7,0-2.6-2.2-2.6-2.2c0.9,0,1.8,0,2.7,0s1.8,0,2.7,0C-578.3,788.2-578.2,790.4-581,790.4z"/>
		<path class="st0" d="M-580.9,770.5c1.4,0,1.2,1.3,1.2,1.3c0.4,0.1,0.7,0.2,1.1,0.3c0.3,0.1,0.7,0.3,1,0.4c1.5,0.8,2.4,2.1,2.8,3.7
			c0.3,1,0.3,2,0.3,3c0,1.1,0.1,2.2,0.3,3.4c0.3,2,1.5,3.4,3.1,4.5l0,0c-6.6,0-13.2,0-19.8,0l0,0c0.2-0.1,0.3-0.2,0.5-0.4
			c0.5-0.5,1-0.9,1.5-1.4c0.9-1,1.2-2.3,1.3-3.7c0.1-1,0.1-1.9,0.1-2.9s0.1-1.9,0.4-2.9c0.6-2,1.9-3.3,3.9-3.8
			c0.3-0.1,0.6-0.2,0.9-0.2C-582.2,771.8-582.3,770.5-580.9,770.5z"/>
	</g>
	<path class="st1" d="M-579.4,773.5c0,0,2,0.7,2.4,2.7"/>
</g>
<g>
	<polygon class="st2" points="-570.9,777.2 -570.9,781.1 -567.6,783.8 -570.1,783.8 -570.1,792.5 -574.8,792.5 -574.8,786.8 
		-577.4,786.8 -580.1,786.8 -580.1,792.5 -584.7,792.5 -584.7,783.8 -587.2,783.8 -577.4,775.6 -572.2,780 -572.2,777.2 	"/>
	<polygon class="st3" points="-577.4,777.5 -584.2,783.3 -585.3,783.3 -577.4,776.7 -569.5,783.3 -570.6,783.3 	"/>
	<g>
		<rect x="-579.3" y="780.9" class="st3" width="3.7" height="3.7"/>
		<line class="st3" x1="-575.6" y1="782.7" x2="-579.3" y2="782.7"/>
		<line class="st3" x1="-577.4" y1="780.9" x2="-577.4" y2="784.6"/>
	</g>
</g>
<g id="XMLID_21_">
	<g id="XMLID_22_">
		<g id="XMLID_23_">
			<path id="XMLID_25_" class="st4" d="M-275.34,391.71h-4.03v-0.81c0-0.89-0.72-1.61-1.61-1.61h-4.84c-0.89,0-1.61,0.72-1.61,1.61
				v0.81h-4.03c-0.89,0-1.61,0.72-1.61,1.61v2.42c0,0.89,0.72,1.61,1.61,1.61h6.45v-0.4c0-0.22,0.18-0.4,0.4-0.4h2.42
				c0.22,0,0.4,0.18,0.4,0.4v0.4h6.45c0.89,0,1.61-0.72,1.61-1.61v-2.42C-273.73,392.43-274.45,391.71-275.34,391.71z
				 M-280.98,391.71h-4.84v-0.81h4.84V391.71z"/>
			<path id="XMLID_24_" class="st4" d="M-273.95,397.78c-0.14-0.07-0.3-0.05-0.42,0.04c-0.29,0.22-0.62,0.33-0.97,0.33h-6.45v1.21
				c0,0.22-0.18,0.4-0.4,0.4h-2.42c-0.22,0-0.4-0.18-0.4-0.4v-1.21h-6.45c-0.35,0-0.68-0.11-0.97-0.33
				c-0.12-0.09-0.29-0.11-0.42-0.04c-0.14,0.07-0.22,0.21-0.22,0.36v5.65c0,0.89,0.72,1.61,1.61,1.61h16.12
				c0.89,0,1.61-0.72,1.61-1.61v-5.65C-273.73,397.99-273.81,397.85-273.95,397.78z"/>
		</g>
	</g>
</g>
</svg>
