<?xml version="1.0" encoding="utf-8"?>
<!-- Generator: Adobe Illustrator 19.0.0, SVG Export Plug-In . SVG Version: 6.00 Build 0)  -->
<svg version="1.1" id="Layer_1" xmlns="http://www.w3.org/2000/svg" xmlns:xlink="http://www.w3.org/1999/xlink" x="0px" y="0px"
	 viewBox="-294 386.7 21.2 21.3" style="enable-background:new -294 386.7 21.2 21.3;" xml:space="preserve">
<style type="text/css">
	.st0{fill:#28336D;}
</style>
<path id="XMLID_314_" class="st0" d="M-279.04,406.72c0.47,0.22,0.97,0.34,1.49,0.34c1.26,0,2.44-0.68,3.05-1.77
	c0.9-1.59,0.42-3.63-1.1-4.64c-1.48-0.99-3.53-0.68-4.65,0.7l-0.12,0.15l-5.83-3.3l0.07-0.18c0.26-0.7,0.28-1.48,0.06-2.19
	l-0.06-0.19l5.55-2.77l0.11,0.17c0.63,0.99,1.76,1.61,2.93,1.61h0.02c1.49,0,2.82-0.95,3.31-2.36c0.49-1.42,0.02-2.99-1.17-3.91
	c-1.19-0.92-2.83-0.98-4.08-0.15c-1.22,0.81-1.81,2.31-1.47,3.74l0.04,0.18l-5.59,2.8l-0.11-0.16c-0.87-1.19-2.4-1.71-3.81-1.29
	c-1.45,0.43-2.45,1.74-2.49,3.25c-0.04,1.51,0.89,2.87,2.32,3.37c1.39,0.49,2.95,0.06,3.87-1.09l0.12-0.15l5.83,3.3l-0.07,0.18
	C-281.43,404.04-280.65,405.95-279.04,406.72z M-277.55,400.84L-277.55,400.84c1.49,0,2.71,1.21,2.71,2.71
	c0,1.49-1.21,2.71-2.71,2.71c-1.49,0-2.71-1.21-2.71-2.71C-280.25,402.06-279.04,400.84-277.55,400.84z M-277.55,388.46
	L-277.55,388.46c1.49,0,2.71,1.21,2.71,2.71c0,1.49-1.21,2.71-2.71,2.71c-1.49,0-2.71-1.21-2.71-2.71
	C-280.25,389.68-279.04,388.46-277.55,388.46z M-286.71,396.84c0,1.49-1.22,2.7-2.71,2.71c-1.49,0-2.71-1.21-2.71-2.71
	c0-1.49,1.21-2.71,2.71-2.71S-286.71,395.35-286.71,396.84L-286.71,396.84z"/>
</svg>
