<?xml version="1.0" encoding="utf-8"?>
<!-- Generator: Adobe Illustrator 24.3.0, SVG Export Plug-In . SVG Version: 6.00 Build 0)  -->
<svg version="1.1" id="Layer_1" xmlns="http://www.w3.org/2000/svg" xmlns:xlink="http://www.w3.org/1999/xlink" x="0px" y="0px"
	 viewBox="-294 386.7 21.2 21.3" style="enable-background:new -294 386.7 21.2 21.3;" xml:space="preserve">
<style type="text/css">
	.st0{fill:#28336D;}
</style>
<path class="st0" d="M-274.76,398.02l-0.13-0.12c-0.6-0.55-1.22-1.12-1.82-1.69c-0.59-0.57-1.25-0.83-2.04-0.81
	c-0.22,0.01-0.44,0-0.67,0c-0.11,0-0.21,0-0.32,0h-0.06v-0.06c0-0.03,0-0.06,0-0.09c0-0.05,0-0.1,0-0.14
	c-0.01-0.07-0.03-0.15-0.04-0.22c-0.03-0.19-0.06-0.38-0.13-0.54c-0.31-0.67-0.85-1.01-1.62-1.01c-0.69-0.01-1.39,0-2.07,0
	c-0.3,0-0.59,0-0.89,0h-0.27v-0.06c0-0.16,0-0.32,0-0.48c0-0.39,0-0.77,0-1.15c0-0.22-0.07-0.34-0.27-0.43
	c-1.07-0.52-2.21-1.08-3.57-1.75c-0.16-0.08-0.3-0.08-0.46,0c-0.55,0.27-1.1,0.54-1.64,0.81c-0.64,0.32-1.29,0.63-1.93,0.95
	c-0.06,0.03-0.12,0.09-0.18,0.14c-0.02,0.02-0.05,0.04-0.07,0.06v3.82l0.01,0.02c0.01,0.03,0.02,0.05,0.03,0.08
	c0.18,0.96,0.65,1.73,1.4,2.28c0.08,0.06,0.12,0.18,0.12,0.26c0.01,0.38,0.01,0.76,0,1.13l0,1.41l0,2.78c0,0.35,0.06,0.41,0.4,0.41
	c0.08,0,0.17,0,0.25,0c0.21,0,0.42,0,0.62-0.01c0.01,0,0.02,0,0.03,0c0.18,0,0.23,0.09,0.27,0.24c0.2,0.82,0.94,1.41,1.78,1.41
	c0,0,0,0,0,0c0.86,0,1.61-0.58,1.81-1.4c0.05-0.21,0.15-0.25,0.33-0.25c1.75,0,3.51,0,5.26,0l1.56,0l0.01,0.04
	c0.25,1.14,1.1,1.58,1.8,1.6c0.36,0.01,0.71-0.08,1.02-0.27c0.47-0.29,0.77-0.74,0.88-1.32l0.01-0.05l0.36,0c0.26,0,0.51,0,0.76,0
	c0.28,0,0.36-0.07,0.36-0.36c0-0.33,0-0.67,0-1c0-0.72,0-1.47,0.01-2.2C-273.85,399.25-274.15,398.58-274.76,398.02z
	 M-291.34,397.09c-0.68-0.53-1.05-1.28-1.07-2.17c-0.01-0.64-0.01-1.28-0.01-1.91c0-0.39,0-0.78,0-1.16c0-0.13,0.05-0.21,0.18-0.27
	c0.43-0.21,0.85-0.41,1.27-0.62c0.64-0.31,1.29-0.63,1.93-0.94c0.09-0.04,0.23-0.04,0.32,0c0.6,0.29,1.19,0.58,1.79,0.87
	c0.47,0.23,0.94,0.46,1.42,0.69c0.13,0.06,0.18,0.14,0.18,0.29c-0.01,0.37,0,0.74,0,1.11l0,0.46l-0.02,0c0,0.16,0,0.33,0.01,0.49
	c0.01,0.4,0.02,0.81-0.02,1.22c-0.08,0.84-0.5,1.56-1.21,2.07c-0.58,0.41-1.18,0.82-1.77,1.21l-0.38,0.26
	c-0.04,0.03-0.11,0.05-0.17,0.05c-0.03,0-0.06-0.01-0.09-0.02c-0.2-0.13-0.4-0.27-0.6-0.4
	C-290.17,397.93-290.78,397.53-291.34,397.09z M-287.99,404.77c-0.01,0-0.01,0-0.02,0c-0.35,0-0.69-0.13-0.94-0.38
	c-0.25-0.25-0.39-0.58-0.4-0.94c-0.01-0.74,0.58-1.34,1.3-1.35c0.37-0.01,0.72,0.13,0.97,0.37c0.25,0.25,0.39,0.59,0.4,0.96
	C-286.67,404.16-287.26,404.76-287.99,404.77z M-280.32,403.11h-5.83l-0.01-0.04c-0.27-0.95-0.87-1.45-1.77-1.48
	c-0.96-0.03-1.61,0.47-1.91,1.49l-0.01,0.04h-0.99v-3.08h10.52V403.11z M-280.31,399.32c0,0.02,0,0.04,0,0.07l-0.01,0.09h-8.49
	l0.01,0h-2.05v-1.39l1.97,1.33l1.29-0.88c0.13-0.09,0.27-0.18,0.4-0.27c0.29-0.19,0.59-0.39,0.88-0.6c0.95-0.69,1.46-1.64,1.5-2.84
	c0.01-0.2,0-0.4,0-0.62c0-0.1,0-0.2,0-0.3v-0.06l2.15,0c0.37,0,0.74,0,1.11,0c0.7,0.01,1.23,0.53,1.24,1.22c0,1.03,0,2.05,0,3.08
	L-280.31,399.32z M-277.41,397.01c0-0.18,0-0.36,0-0.53v-0.03l0.11-0.06l2.47,2.28l-0.21,0.02c-0.12,0.01-0.19,0.01-0.28,0.01
	c-0.3,0-0.6,0-0.9,0c-0.3,0-0.61,0-0.91,0c0,0-0.01,0-0.01,0c-0.08,0-0.16-0.01-0.21-0.06c-0.04-0.04-0.06-0.11-0.06-0.21
	C-277.41,397.94-277.41,397.47-277.41,397.01z M-276.26,404.37c-0.25,0.25-0.59,0.39-0.95,0.39c0,0,0,0,0,0
	c-0.36,0-0.7-0.15-0.96-0.41c-0.25-0.26-0.39-0.59-0.38-0.94c0.01-0.73,0.61-1.32,1.35-1.32c0,0,0.01,0,0.01,0
	c0.73,0.01,1.33,0.6,1.33,1.33C-275.86,403.79-276,404.12-276.26,404.37z M-274.39,402.22l0,0.75c0,0.02,0,0.04-0.01,0.06
	l-0.01,0.09l-0.25,0c-0.2,0-0.4,0-0.61-0.01c-0.09,0-0.15-0.14-0.16-0.18c-0.22-0.71-0.68-1.14-1.39-1.32
	c-0.9-0.23-1.91,0.36-2.15,1.24c-0.05,0.19-0.14,0.27-0.3,0.27c-0.02,0-0.04,0-0.07,0c-0.08-0.01-0.17-0.01-0.26,0
	c-0.04,0-0.09,0-0.13,0h-0.06v-7.22l0.51,0.03c0.37,0.02,0.74,0.04,1.11,0.06c0.21,0.01,0.23,0.16,0.23,0.28c0,0.42,0,0.84,0,1.27
	c0,0.31,0,0.63,0,0.94c0,0.35,0.12,0.56,0.39,0.67c0.12,0.05,0.27,0.06,0.38,0.06c0.59,0,1.18,0,1.77,0l0.89,0l0.01,0.05
	c0.01,0.07,0.02,0.14,0.04,0.2c0.03,0.15,0.06,0.3,0.06,0.45C-274.39,400.67-274.39,401.46-274.39,402.22z"/>
<path class="st0" d="M-290.53,394.2c-0.08,0.12-0.06,0.24,0.06,0.35c0.28,0.28,0.55,0.56,0.83,0.84c0.14,0.14,0.22,0.2,0.3,0.19
	c0.07,0,0.16-0.05,0.29-0.19c0.57-0.57,1.14-1.15,1.72-1.72l0.01-0.01c0.04-0.04,0.07-0.07,0.1-0.11c0.09-0.12,0.08-0.23-0.01-0.34
	c-0.09-0.1-0.23-0.11-0.35-0.02c-0.04,0.03-0.07,0.06-0.11,0.1l-1.46,1.46c-0.03,0.03-0.06,0.06-0.09,0.09l-0.09,0.08l-0.09-0.08
	c-0.03-0.03-0.06-0.06-0.09-0.09c-0.06-0.06-0.13-0.13-0.19-0.19c-0.13-0.13-0.26-0.26-0.39-0.39c-0.07-0.07-0.15-0.11-0.23-0.11
	c-0.01,0-0.02,0-0.03,0C-290.43,394.09-290.49,394.13-290.53,394.2z"/>
</svg>
