<?xml version="1.0" encoding="utf-8"?>
<!-- Generator: Adobe Illustrator 24.3.0, SVG Export Plug-In . SVG Version: 6.00 Build 0)  -->
<svg version="1.1" id="Layer_1" xmlns="http://www.w3.org/2000/svg" xmlns:xlink="http://www.w3.org/1999/xlink" x="0px" y="0px"
	 viewBox="-294 386.7 21.2 21.3" style="enable-background:new -294 386.7 21.2 21.3;" xml:space="preserve">
<style type="text/css">
	.st0{fill:#28336D;}
</style>
<path class="st0" d="M-1956.28,7.65c0,1.16,0.94,2.1,2.1,2.1h5.1l0.06,0.17c0.47,1.31,1.7,2.19,3.08,2.19
	c1.37,0,2.61-0.88,3.08-2.19l0.06-0.17h10.2l0.06,0.17c0.47,1.31,1.7,2.19,3.08,2.19c1.37,0,2.61-0.88,3.08-2.19l0.06-0.17h5.1
	c1.16,0,2.1-0.94,2.1-2.1V-2.94c0-3.11-2.53-5.63-5.63-5.63h-6.28l-0.06-0.17c-0.47-1.31-1.7-2.19-3.08-2.19H-1953
	c-1.81,0-3.28,1.47-3.28,3.28V7.65z M-1920.98,0.84h-5.21v-1.43c0-0.79,0.64-1.43,1.43-1.43h3.78V0.84z M-1930.89-6.72h6.13
	c1.59,0,3.01,1.01,3.55,2.52l0.12,0.33h-3.67c-1.81,0-3.28,1.47-3.28,3.28v3.28h7.06V7.9h-5.35l-0.06-0.17
	c-0.47-1.31-1.7-2.19-3.08-2.19c-0.35,0-0.71,0.07-1.09,0.2l-0.33,0.12V-6.72z M-1929.46,7.4c0.79,0,1.43,0.64,1.43,1.43
	s-0.64,1.43-1.43,1.43s-1.43-0.64-1.43-1.43S-1930.25,7.4-1929.46,7.4z M-1945.94,10.25c-0.79,0-1.43-0.64-1.43-1.43
	s0.64-1.43,1.43-1.43s1.43,0.64,1.43,1.43S-1945.15,10.25-1945.94,10.25z M-1954.42-7.65c0-0.79,0.64-1.43,1.43-1.43h18.83
	c0.79,0,1.43,0.64,1.43,1.43V7.9h-10.06l-0.06-0.17c-0.47-1.31-1.7-2.19-3.08-2.19c-1.38,0-2.61,0.88-3.08,2.19l-0.06,0.17h-5.35
	V-7.65z"/>
<rect x="-1951.57" y="-6.22" class="st0" width="1.85" height="8.91"/>
<rect x="-1946.86" y="-6.22" class="st0" width="1.85" height="8.91"/>
<rect x="-1942.16" y="-6.22" class="st0" width="1.85" height="8.91"/>
<rect x="-1937.45" y="-6.22" class="st0" width="1.85" height="8.91"/>
<path class="st0" d="M-1957.7-60.35h-18.83c-1.37,0-2.61,0.88-3.08,2.19l-0.06,0.17h-6.28c-3.11,0-5.63,2.53-5.63,5.63v10.59
	c0,1.16,0.94,2.1,2.1,2.1h5.1l0.06,0.17c0.47,1.31,1.7,2.19,3.08,2.19s2.61-0.88,3.08-2.19l0.06-0.17h10.2l0.06,0.17
	c0.47,1.31,1.7,2.19,3.08,2.19s2.61-0.88,3.08-2.19l0.06-0.17h5.1c1.16,0,2.1-0.94,2.1-2.1v-15.3
	C-1954.42-58.88-1955.89-60.35-1957.7-60.35z M-1989.72-51.43h3.78c0.79,0,1.43,0.64,1.43,1.43v1.43h-5.21V-51.43z M-1981.23-39.17
	c-0.79,0-1.43-0.64-1.43-1.43s0.64-1.43,1.43-1.43s1.43,0.64,1.43,1.43S-1980.45-39.17-1981.23-39.17z M-1979.81-43.55l-0.33-0.12
	c-0.38-0.14-0.74-0.2-1.09-0.2c-1.37,0-2.61,0.88-3.08,2.19l-0.06,0.17h-5.35v-5.21h7.06v-3.28c0-1.81-1.47-3.28-3.28-3.28h-3.67
	l0.12-0.33c0.54-1.51,1.96-2.52,3.55-2.52h6.13V-43.55z M-1964.76-39.17c-0.79,0-1.43-0.64-1.43-1.43s0.64-1.43,1.43-1.43
	s1.43,0.64,1.43,1.43S-1963.98-39.17-1964.76-39.17z M-1956.28-41.52h-5.35l-0.06-0.17c-0.47-1.31-1.7-2.19-3.08-2.19
	c-1.37,0-2.61,0.88-3.08,2.19l-0.06,0.17h-10.06v-15.55c0-0.79,0.64-1.43,1.43-1.43h18.83c0.79,0,1.43,0.64,1.43,1.43V-41.52z"/>
<rect x="-1960.98" y="-55.64" class="st0" width="1.85" height="8.91"/>
<rect x="-1965.69" y="-55.64" class="st0" width="1.85" height="8.91"/>
<rect x="-1970.4" y="-55.64" class="st0" width="1.85" height="8.91"/>
<rect x="-1975.1" y="-55.64" class="st0" width="1.85" height="8.91"/>
<path class="st0" d="M-1947.11-34.46h-16.47c-1.16,0-2.1,0.94-2.1,2.1v16.47c0,1.16,0.94,2.1,2.1,2.1h16.47c1.16,0,2.1-0.94,2.1-2.1
	v-16.47C-1945.01-33.52-1945.95-34.46-1947.11-34.46z M-1956.78-32.61h2.85v2.85h-2.85V-32.61z M-1963.84-15.63v-16.97h5.21v4.71
	h6.56v-4.71h5.21l0,16.97H-1963.84z"/>
<rect x="-1951.57" y="-20.34" class="st0" width="1.85" height="1.85"/>
<rect x="-1956.28" y="-20.34" class="st0" width="1.85" height="1.85"/>
<rect x="-1942.16" y="-25.05" class="st0" width="1.85" height="1.85"/>
<rect x="-1937.45" y="-25.05" class="st0" width="1.85" height="1.85"/>
<path class="st0" d="M-1919.12-37.06c0-7.65-6.22-13.87-13.87-13.87h-14.24l2.95-2.95l-1.31-1.31l-5.19,5.18l5.19,5.19l1.31-1.31
	l-2.95-2.95h14.24c6.63,0,12.02,5.39,12.02,12.02c0,6.54-5.26,11.88-11.77,12.01v1.85C-1925.21-23.33-1919.12-29.5-1919.12-37.06z"
	/>
<rect x="-1970.4" y="-25.05" class="st0" width="1.85" height="1.85"/>
<rect x="-1975.1" y="-25.05" class="st0" width="1.85" height="1.85"/>
<path class="st0" d="M-1959.92,1.76l-5.19-5.19l-1.31,1.31l2.95,2.95h-14.24c-6.63,0-12.02-5.39-12.02-12.02
	c0-6.54,5.26-11.88,11.77-12.01v-1.85c-7.53,0.13-13.62,6.3-13.62,13.87c0,7.65,6.22,13.87,13.87,13.87h14.24l-2.95,2.95l1.31,1.31
	L-1959.92,1.76z"/>
<g>
	<path class="st0" d="M-291.42,390.39v8.51c0,1.04,0.43,2.11,1.27,3.19c0.66,0.84,1.57,1.68,2.72,2.51c1.93,1.4,3.84,2.26,3.92,2.29
		c0.07,0.03,0.16,0.03,0.23,0c0.21-0.09,2.05-0.94,3.92-2.29c1.14-0.83,2.06-1.67,2.72-2.51c0.84-1.07,1.27-2.15,1.27-3.19v-8.51
		c0-0.13-0.08-0.24-0.2-0.27l-7.73-2.32c-0.03-0.01-0.05-0.01-0.08-0.01s-0.05,0-0.08,0.01l-7.73,2.32
		C-291.34,390.15-291.42,390.26-291.42,390.39z M-290.85,390.6l0.04-0.01l7.41-2.22l0.01,0l7.43,2.23v8.29
		c0,2.08-2.03,3.99-3.73,5.23c-1.49,1.08-3,1.85-3.59,2.13l-0.13,0.06l-0.13-0.06c-0.58-0.28-2.09-1.05-3.59-2.13
		c-1.7-1.24-3.73-3.14-3.73-5.23V390.6z"/>
	<path class="st0" d="M-280.69,401.28c0.27,0.27,0.63,0.42,1.01,0.42c0.38,0,0.74-0.15,1.01-0.42c0.27-0.27,0.42-0.63,0.42-1.01
		v-0.08h0.37c0.38,0,0.69-0.31,0.69-0.69v-1.98c0-0.27-0.16-0.53-0.42-0.64l-0.85-0.37l-0.01-0.02l-0.71-1.39
		c-0.19-0.38-0.58-0.62-1.01-0.62h-1.25v-0.36c0-0.63-0.51-1.14-1.13-1.14h-5.92c-0.62,0-1.13,0.51-1.13,1.14v5.36
		c0,0.19,0.07,0.36,0.2,0.49c0.13,0.13,0.3,0.21,0.49,0.21h0.19l-0.03,0.06c0,0.39,0.15,0.75,0.42,1.01
		c0.27,0.27,0.63,0.42,1.01,0.42c0.38,0,0.74-0.15,1.01-0.42c0.27-0.27,0.42-0.63,0.42-1.02v-0.06h4.8v0.06
		C-281.11,400.64-280.96,401-280.69,401.28z M-287.33,401.17c-0.49,0-0.89-0.4-0.89-0.89s0.4-0.89,0.89-0.89s0.89,0.4,0.89,0.89
		S-286.84,401.17-287.33,401.17z M-281.97,399.67h-4.06l-0.01-0.03c-0.23-0.49-0.74-0.8-1.29-0.8c-0.54,0-1.05,0.32-1.28,0.8
		l-0.01,0.03h-0.29c-0.09,0-0.15-0.07-0.15-0.16v-1.44h7.1V399.67z M-281.97,397.53h-7.1v-3.39c0-0.33,0.26-0.6,0.59-0.6h5.92
		c0.16,0,0.31,0.06,0.42,0.18s0.17,0.26,0.17,0.42V397.53z M-279.67,401.17c-0.49,0-0.89-0.4-0.89-0.89s0.4-0.89,0.89-0.89
		s0.89,0.4,0.89,0.89S-279.18,401.17-279.67,401.17z M-281.43,395.04h1.25c0.01,0,0.02,0,0.03,0c0.21,0,0.4,0.12,0.5,0.32l0.56,1.09
		h-2.35V395.04z M-281.43,399.67v-2.68l2.74,0l0.87,0.38c0.07,0.03,0.1,0.1,0.1,0.17v1.97c0,0.09-0.06,0.16-0.15,0.16h-0.5
		l-0.01-0.03c-0.16-0.33-0.45-0.59-0.8-0.72c-0.36-0.13-0.75-0.11-1.09,0.05c-0.3,0.14-0.54,0.38-0.68,0.67l-0.01,0.03H-281.43z"/>
</g>
</svg>
