<?xml version="1.0" encoding="utf-8"?>
<!-- Generator: Adobe Illustrator 19.0.0, SVG Export Plug-In . SVG Version: 6.00 Build 0)  -->
<svg version="1.1" id="Layer_1" xmlns="http://www.w3.org/2000/svg" xmlns:xlink="http://www.w3.org/1999/xlink" x="0px" y="0px"
	 viewBox="-294 386.7 21.2 21.3" style="enable-background:new -294 386.7 21.2 21.3;" xml:space="preserve">
<style type="text/css">
	.st0{fill:#28336D;}
</style>
<g>
	<path id="XMLID_341_" class="st0" d="M-273.87,404.35l-1.7-1.69l0.04-0.06c0.34-0.47,0.47-1.05,0.37-1.62
		c-0.1-0.57-0.41-1.07-0.89-1.41c-0.47-0.33-1.05-0.46-1.62-0.37c-0.57,0.1-1.07,0.41-1.41,0.89c-0.34,0.47-0.47,1.05-0.37,1.62
		c0.1,0.57,0.41,1.07,0.89,1.41c0.7,0.49,1.62,0.53,2.36,0.1l0.06-0.03l0.03,0.03l1.68,1.67c0.08,0.08,0.17,0.12,0.29,0.12
		c0.1,0,0.19-0.04,0.27-0.11c0.08-0.07,0.12-0.17,0.12-0.27C-273.75,404.52-273.79,404.42-273.87,404.35z M-277.25,402.89v0.03
		l-0.1,0l0-0.03c-0.82-0.03-1.49-0.71-1.49-1.54c0-0.85,0.69-1.54,1.54-1.54c0.85,0,1.54,0.69,1.54,1.54
		C-275.76,402.18-276.42,402.86-277.25,402.89z"/>
	<path id="XMLID_5_" class="st0" d="M-279.62,402.77h-11.96c-0.4,0-0.72-0.32-0.72-0.72v-5.1l0.05,0.03
		c0.21,0.12,0.44,0.19,0.68,0.19h5.57v1.07c0,0.17,0.14,0.31,0.31,0.31h2.08c0.17,0,0.32-0.14,0.32-0.31v-1.07h5.57
		c0.24,0,0.46-0.06,0.68-0.19l0.05-0.03v1.69c0.04,0,0.07-0.01,0.11-0.01c0.18,0,0.35,0.02,0.52,0.05v-5.64
		c0-0.75-0.61-1.35-1.35-1.35h-3.49v-0.72c0-0.75-0.61-1.35-1.35-1.35h-4.16c-0.75,0-1.35,0.61-1.35,1.35v0.72h-3.49
		c-0.75,0-1.35,0.61-1.35,1.35v9.01c0,0.75,0.61,1.35,1.35,1.35h12.34C-279.39,403.21-279.52,403-279.62,402.77z M-283.93,397.92
		h-1.45v-1.45h1.45V397.92z M-287.46,390.96c0-0.4,0.32-0.72,0.72-0.72h4.16c0.4,0,0.72,0.32,0.72,0.72v0.72h-5.6V390.96z
		 M-292.31,393.04c0-0.4,0.32-0.72,0.72-0.72h13.86c0.4,0,0.72,0.32,0.72,0.72v2.77c0,0.4-0.32,0.72-0.72,0.72h-5.57v-0.38
		c0-0.17-0.14-0.31-0.32-0.31h-2.08c-0.17,0-0.31,0.14-0.31,0.31v0.38h-5.57c-0.4,0-0.72-0.32-0.72-0.72V393.04z"/>
</g>
</svg>
