<?xml version="1.0" encoding="utf-8"?>
<!-- Generator: Adobe Illustrator 24.3.0, SVG Export Plug-In . SVG Version: 6.00 Build 0)  -->
<svg version="1.1" id="Layer_1" xmlns="http://www.w3.org/2000/svg" xmlns:xlink="http://www.w3.org/1999/xlink" x="0px" y="0px"
	 viewBox="-294 386.7 21.2 21.3" style="enable-background:new -294 386.7 21.2 21.3;" xml:space="preserve">
<style type="text/css">
	.st0{fill:#28336D;}
</style>
<g>
	<g>
		<path class="st0" d="M-275.35,401.05c-0.01,0.02-0.03,0.05-0.04,0.07c-0.05,0.05-0.1,0.09-0.16,0.12
			c-0.07,0.04-0.16,0.08-0.22,0.14c-0.03,0.03-0.06,0.07-0.1,0.09v0.67c0,0.76-0.62,1.38-1.38,1.38h-4.41
			c-0.15,0-0.28,0.13-0.28,0.28s0.13,0.28,0.28,0.28h4.41c1.07,0,1.94-0.87,1.94-1.94v-1.12
			C-275.33,401.03-275.34,401.04-275.35,401.05z"/>
		<path class="st0" d="M-286.96,403.89H-291c-0.76,0-1.38-0.62-1.38-1.38v-5.64c0.55,0.81,1.45,1.37,2.48,1.44v1.02
			c0,0.58,0.47,1.05,1.05,1.05c0.58,0,1.05-0.47,1.05-1.05v-1.01h5c0.01-0.03,0-0.07,0.01-0.11c0-0.04,0.01-0.08,0.01-0.12
			c-0.01,0-0.02-0.01-0.02-0.02c0.02-0.1,0.02-0.2,0.04-0.3h-5.04v-0.23c0-0.58-0.47-1.05-1.05-1.05c-0.58,0-1.05,0.47-1.05,1.05
			v0.22c-1.39-0.12-2.48-1.29-2.48-2.71v-1.15c0-0.76,0.62-1.38,1.38-1.38h13.74c0.76,0,1.38,0.62,1.38,1.38v0.6
			c0-0.01,0.01-0.01,0.02-0.01c0.04,0.03,0.1,0.04,0.13,0.09c0.03,0.06,0.09,0.07,0.12,0.12c0.04,0.06,0.09,0.1,0.15,0.14
			c0.04,0.03,0.08,0.08,0.13,0.11v-1.05c0-1.07-0.87-1.94-1.94-1.94h-3.4v-0.97c0-1.04-0.85-1.88-1.88-1.88h-3.18
			c-1.04,0-1.88,0.85-1.88,1.88v0.97h-3.4c-1.07,0-1.94,0.87-1.94,1.94v8.62c0,1.07,0.87,1.94,1.94,1.94h4.04
			c0.15,0,0.28-0.13,0.28-0.28C-286.68,404.02-286.8,403.89-286.96,403.89z M-289.34,397.54c0-0.27,0.22-0.49,0.49-0.49
			c0.27,0,0.49,0.22,0.49,0.49v0.94h-0.99V397.54z M-289.34,399.04h0.99v0.3c0,0.27-0.22,0.49-0.49,0.49
			c-0.27,0-0.49-0.22-0.49-0.49V399.04z M-282.37,391.96h-3.52v-0.97c0-0.09,0.08-0.17,0.17-0.17h3.18c0.09,0,0.17,0.08,0.17,0.17
			V391.96z M-287.05,390.99c0-0.73,0.59-1.33,1.33-1.33h3.18c0.73,0,1.33,0.59,1.33,1.33v0.97h-0.6v-0.97c0-0.4-0.33-0.73-0.73-0.73
			h-3.18c-0.4,0-0.73,0.33-0.73,0.73v0.97h-0.6V390.99z"/>
		<path class="st0" d="M-281.71,402.38l0.59-0.59c0,0,0.11,0.06,0.12,0.07c0.04,0.02,0.08,0.05,0.12,0.07
			c0.08,0.04,0.16,0.09,0.24,0.13c0.08,0.04,0.16,0.08,0.24,0.12c0.08,0.04,0.16,0.08,0.25,0.11c0.08,0.03,0.17,0.07,0.25,0.1
			c0.08,0.03,0.17,0.06,0.26,0.08c0.09,0.02,0.17,0.04,0.26,0.06c0.09,0.02,0.18,0.03,0.27,0.04c0.09,0.01,0.18,0.02,0.27,0.03
			c0.09,0.01,0.18,0.01,0.27,0.01c0.09,0,0.18,0,0.27,0c0.09,0,0.18-0.01,0.27-0.02c0.09-0.01,0.18-0.02,0.27-0.04
			c0.09-0.01,0.18-0.03,0.26-0.05c0.09-0.02,0.17-0.04,0.26-0.07c0.09-0.03,0.17-0.05,0.26-0.09c0.08-0.03,0.17-0.07,0.25-0.1
			c0.08-0.04,0.17-0.08,0.25-0.12c0.08-0.04,0.16-0.08,0.24-0.13c0.08-0.04,0.16-0.09,0.24-0.13c0.04-0.02,0.08-0.04,0.12-0.07
			c0,0,0,0,0,0.01c0,0,0.03-0.02,0.03-0.03c0.01-0.01,0.02-0.02,0.03-0.03c0.02-0.02,0.04-0.03,0.06-0.05
			c0.04-0.03,0.09-0.06,0.14-0.08c0.03-0.02,0.05-0.03,0.08-0.05c0.03-0.02,0.07-0.05,0.1-0.08c0.02-0.03,0.05-0.05,0.07-0.08
			c0.02-0.03,0.04-0.05,0.06-0.07v0c0.03-0.03,0.07-0.07,0.1-0.1c1.81-1.81,1.81-4.74,0-6.55c-0.02-0.02-0.03-0.04-0.05-0.06
			c-0.02-0.02-0.05-0.02-0.07-0.04c-0.06-0.03-0.12-0.08-0.18-0.13c-0.02-0.01-0.03-0.03-0.04-0.04c-0.03-0.03-0.05-0.06-0.08-0.09
			c-0.02-0.02-0.04-0.03-0.06-0.04c-0.02-0.02-0.04-0.03-0.05-0.06c-0.02-0.03-0.05-0.05-0.09-0.07c-0.02-0.01-0.05-0.03-0.07-0.04
			c-0.02-0.01-0.05-0.03-0.07-0.04c-0.05-0.03-0.09-0.05-0.14-0.08c-0.05-0.03-0.09-0.05-0.14-0.08c-0.05-0.02-0.09-0.05-0.14-0.07
			c-0.05-0.02-0.09-0.05-0.14-0.07c-0.05-0.02-0.09-0.04-0.14-0.07c-0.05-0.02-0.09-0.04-0.14-0.06c-0.05-0.02-0.09-0.04-0.14-0.06
			c-0.05-0.02-0.1-0.04-0.14-0.05c-0.05-0.02-0.1-0.03-0.15-0.05c-0.05-0.01-0.1-0.03-0.15-0.04c-0.05-0.01-0.1-0.03-0.15-0.04
			c-0.05-0.01-0.1-0.02-0.15-0.03c-0.05-0.01-0.1-0.02-0.15-0.03c-0.05-0.01-0.1-0.01-0.15-0.02c-0.05-0.01-0.1-0.01-0.15-0.01
			c-0.05,0-0.1-0.01-0.16-0.01c-0.05,0-0.1,0-0.16,0c-0.05,0-0.1,0-0.16,0c-0.05,0-0.1,0-0.16,0.01c-0.05,0-0.1,0.01-0.16,0.01
			c-0.05,0-0.1,0.01-0.16,0.02c-0.05,0.01-0.1,0.01-0.16,0.02c-0.05,0.01-0.1,0.02-0.15,0.03c-0.05,0.01-0.1,0.02-0.15,0.03
			c-0.05,0.01-0.1,0.02-0.15,0.04c-0.05,0.01-0.1,0.03-0.15,0.04s-0.1,0.03-0.15,0.05c-0.05,0.02-0.1,0.04-0.15,0.06
			c-0.05,0.02-0.1,0.04-0.14,0.06c-0.05,0.02-0.1,0.04-0.14,0.07c-0.05,0.02-0.09,0.05-0.14,0.07c-0.05,0.03-0.09,0.05-0.14,0.08
			c-0.05,0.03-0.09,0.06-0.14,0.08c-0.05,0.03-0.09,0.06-0.13,0.09c-0.04,0.03-0.09,0.06-0.13,0.09c-0.04,0.03-0.09,0.06-0.13,0.1
			c-0.04,0.03-0.09,0.07-0.13,0.1c-0.04,0.03-0.09,0.07-0.13,0.1c-0.04,0.03-0.09,0.07-0.13,0.1c-0.02,0.02-0.04,0.03-0.06,0.05
			c-0.02,0.02-0.04,0.03-0.06,0.05c-0.74,0.74-1.19,1.68-1.32,2.69c0,0,0,0.01,0,0.01c-0.01,0.09-0.02,0.18-0.03,0.27
			c0.01,0,0.01,0.01,0.01,0.02c0,0.08-0.01,0.17-0.01,0.25c0,0.01,0,0.03,0,0.04c0,0.95,0.29,1.85,0.81,2.62l-0.59,0.59
			c-0.21-0.06-0.44-0.01-0.6,0.16l-2.28,2.28c-0.45,0.45-0.45,1.18,0,1.64c0.45,0.45,1.18,0.45,1.64,0l2.28-2.28
			C-281.71,402.82-281.65,402.59-281.71,402.38z M-282.57,397.97c0-1.09,0.42-2.11,1.19-2.88c1.59-1.59,4.17-1.59,5.76,0
			c1.59,1.59,1.59,4.17,0,5.76c-1.59,1.59-4.17,1.59-5.76,0C-282.14,400.08-282.57,399.06-282.57,397.97z M-284.54,404.86
			c-0.23,0.23-0.61,0.23-0.85,0c-0.11-0.11-0.18-0.26-0.18-0.42s0.06-0.31,0.18-0.42l1.58-1.58l0.85,0.85L-284.54,404.86z
			 M-282.26,402.58l-0.3,0.3l-0.85-0.85l0.3-0.3c0.01-0.01,0.02-0.02,0.04-0.02s0.03,0.01,0.04,0.02c0,0,0,0,0,0l0.77,0.77
			C-282.24,402.53-282.24,402.56-282.26,402.58L-282.26,402.58z M-282.45,401.53l0.49-0.49c0.06,0.07,0.13,0.14,0.19,0.21
			c0.07,0.07,0.14,0.13,0.21,0.19l-0.49,0.49L-282.45,401.53z"/>
		<path class="st0" d="M-275.43,398.35c-0.15-0.03-0.3,0.06-0.33,0.21c-0.11,0.52-0.37,1-0.75,1.38c-1.09,1.09-2.86,1.09-3.96,0
			c-1.09-1.09-1.09-2.86,0-3.96c1.09-1.09,2.86-1.09,3.96,0c0.38,0.38,0.64,0.86,0.75,1.38c0.03,0.15,0.18,0.25,0.33,0.21
			c0.15-0.03,0.25-0.18,0.21-0.33c-0.14-0.63-0.45-1.2-0.91-1.65c-1.31-1.31-3.43-1.31-4.75,0c-1.31,1.31-1.31,3.44,0,4.75
			c1.31,1.31,3.44,1.31,4.75,0c0.46-0.46,0.77-1.03,0.91-1.66C-275.18,398.54-275.28,398.39-275.43,398.35z"/>
	</g>
</g>
</svg>
