<?xml version="1.0" encoding="utf-8"?>
<!-- Generator: Adobe Illustrator 19.0.0, SVG Export Plug-In . SVG Version: 6.00 Build 0)  -->
<svg version="1.1" id="Layer_1" xmlns="http://www.w3.org/2000/svg" xmlns:xlink="http://www.w3.org/1999/xlink" x="0px" y="0px"
	 viewBox="-294 386.7 21.2 21.3" style="enable-background:new -294 386.7 21.2 21.3;" xml:space="preserve">
<style type="text/css">
	.st0{fill:#28336D;}
</style>
<g id="XMLID_15_">
	<path id="XMLID_345_" class="st0" d="M-282.13,404.8c4.82-4.16,8.3-7.16,8.3-10.71c0-1.38-0.47-2.67-1.32-3.63h0
		c-0.89-1-2.12-1.55-3.47-1.55c-1.48,0-2.83,0.57-3.9,1.66c-0.32,0.32-0.6,0.67-0.85,1.05l-0.02,0.04l-0.02-0.04
		c-0.25-0.38-0.53-0.73-0.85-1.05c-1.07-1.08-2.42-1.66-3.9-1.66c-2.73,0-4.8,2.23-4.8,5.18c0,3.55,3.47,6.55,8.28,10.7
		c0.35,0.3,0.7,0.6,1.06,0.91c0.13,0.11,0.33,0.11,0.45,0C-282.82,405.4-282.47,405.1-282.13,404.8z M-283.4,404.98l-0.02-0.02
		c-0.28-0.24-0.55-0.48-0.83-0.71c-4.66-4.02-8.03-6.93-8.03-10.16c0-2.56,1.76-4.49,4.1-4.49c1.3,0,2.44,0.48,3.39,1.43
		c0.71,0.71,1.05,1.44,1.06,1.47c0.06,0.12,0.18,0.2,0.32,0.2c0.14,0,0.26-0.08,0.32-0.2c0-0.01,0.34-0.74,1.06-1.47
		c0.95-0.95,2.09-1.43,3.39-1.43c2.34,0,4.1,1.93,4.1,4.49c0,3.25-3.46,6.23-7.84,10c-0.33,0.29-0.67,0.58-1.01,0.87L-283.4,404.98z
		"/>
	<path id="XMLID_310_" class="st0" d="M-289.16,397.79c0.15-0.11,0.19-0.33,0.08-0.48c-1.04-1.45-1.49-2.63-1.44-3.71
		c0.03-0.56,0.2-1.12,0.47-1.58c0.1-0.16,0.04-0.38-0.12-0.47c-0.08-0.05-0.17-0.06-0.26-0.04c-0.09,0.02-0.16,0.08-0.21,0.16
		c-0.33,0.56-0.53,1.22-0.57,1.89c-0.07,1.25,0.43,2.57,1.57,4.15C-289.53,397.86-289.31,397.9-289.16,397.79z"/>
	<path id="XMLID_45_" class="st0" d="M-287.88,398.81l-0.58-0.7c-0.06-0.07-0.15-0.12-0.24-0.13c-0.04,0-0.08,0-0.12,0.01
		c-0.05,0.01-0.1,0.04-0.14,0.07c-0.07,0.06-0.12,0.15-0.13,0.24c-0.01,0.09,0.02,0.19,0.08,0.26l0.58,0.7
		c0.06,0.07,0.15,0.12,0.24,0.13c0.09,0.01,0.19-0.02,0.26-0.08C-287.78,399.19-287.76,398.96-287.88,398.81z"/>
</g>
</svg>
