<?xml version="1.0" encoding="utf-8"?>
<!-- Generator: Adobe Illustrator 19.0.0, SVG Export Plug-In . SVG Version: 6.00 Build 0)  -->
<svg version="1.1" id="Layer_1" xmlns="http://www.w3.org/2000/svg" xmlns:xlink="http://www.w3.org/1999/xlink" x="0px" y="0px"
	 viewBox="-294 386.7 21.2 21.3" style="enable-background:new -294 386.7 21.2 21.3;" xml:space="preserve">
<style type="text/css">
	.st0{fill:#28336D;}
</style>
<path id="XMLID_17_" class="st0" d="M-278.94,388.95c-1.03,0-1.98,0.33-2.82,0.97c-0.8,0.62-1.33,1.41-1.65,1.98
	c-0.31-0.57-0.85-1.36-1.65-1.98c-0.83-0.65-1.78-0.97-2.82-0.97c-2.88,0-5.06,2.36-5.06,5.49c0,3.38,2.71,5.69,6.82,9.19
	c0.7,0.59,1.49,1.27,2.31,1.99c0.11,0.09,0.25,0.15,0.39,0.15s0.28-0.05,0.39-0.15c0.82-0.72,1.61-1.39,2.31-1.99
	c4.11-3.5,6.82-5.81,6.82-9.19C-273.88,391.3-276.05,388.95-278.94,388.95z M-288.88,397.97c-0.07,0.05-0.16,0.07-0.24,0.06
	c-0.09-0.01-0.16-0.06-0.21-0.13c-1.12-1.56-1.62-2.87-1.55-4.11c0.03-0.67,0.23-1.31,0.56-1.87c0.09-0.15,0.29-0.21,0.45-0.11
	c0.15,0.09,0.21,0.29,0.11,0.45c-0.27,0.46-0.44,1.02-0.47,1.57c-0.06,1.08,0.4,2.26,1.43,3.7
	C-288.7,397.66-288.73,397.86-288.88,397.97z M-287.49,399.26c-0.01,0.08-0.05,0.16-0.12,0.21c-0.07,0.05-0.15,0.08-0.23,0.07
	c-0.08-0.01-0.16-0.05-0.21-0.12l-0.51-0.64c-0.11-0.14-0.09-0.34,0.05-0.44c0.06-0.05,0.13-0.07,0.2-0.07
	c0.09,0,0.19,0.04,0.25,0.12l0.51,0.64C-287.5,399.09-287.48,399.17-287.49,399.26z"/>
</svg>
