<?xml version="1.0" encoding="utf-8"?>
<!-- Generator: Adobe Illustrator 19.0.0, SVG Export Plug-In . SVG Version: 6.00 Build 0)  -->
<svg version="1.1" id="Layer_1" xmlns="http://www.w3.org/2000/svg" xmlns:xlink="http://www.w3.org/1999/xlink" x="0px" y="0px"
	 viewBox="-294 386.7 21.2 21.3" style="enable-background:new -294 386.7 21.2 21.3;" xml:space="preserve">
<style type="text/css">
	.st0{fill:#28336D;}
</style>
<g>
	<path id="XMLID_69_" class="st0" d="M-281.4,389.04l-0.02-0.05c-0.3-0.84-1.04-1.35-2-1.35c-0.03,0-0.05,0-0.08,0
		c-0.86,0-1.63,0.53-1.92,1.35l-0.02,0.05h-1.4c-0.16,0-0.44,0.06-0.44,0.3v0.87h-1.84c-1.01,0.01-1.83,0.81-1.88,1.82v13.34
		c0,0.94,0.84,1.7,1.88,1.7h11.45c1.04,0,1.88-0.76,1.88-1.7v-13.34c-0.05-1-0.87-1.8-1.88-1.81h-1.84v-0.87
		c0-0.21-0.24-0.3-0.46-0.3H-281.4z M-286.5,389.83h1.35c0.18-0.02,0.34-0.17,0.37-0.36c0.15-0.64,0.7-1.09,1.35-1.11
		c0.65,0.02,1.19,0.47,1.33,1.11c0.04,0.2,0.2,0.35,0.4,0.36l1.39,0v2.01h-6.2V389.83z M-279.51,392.24l0-1.25h1.84
		c0.58,0.01,1.05,0.45,1.1,1.02v13.35c0,0.57-0.56,0.91-1.1,0.91h-11.45c-0.54,0-1.1-0.34-1.1-0.91v-13.34
		c0.05-0.58,0.52-1.02,1.1-1.03h1.84v1.26c0.02,0.21,0.2,0.37,0.41,0.37c0.01,0,0.01,0,0.02,0l6.87,0
		C-279.75,392.63-279.55,392.47-279.51,392.24z"/>
	<path id="XMLID_47_" class="st0" d="M-288.56,399.33l0.95,0.98c0.07,0.08,0.16,0.12,0.26,0.12c0.11,0,0.21-0.04,0.29-0.12
		l1.82-1.72c0.07-0.07,0.12-0.16,0.12-0.26c0-0.1-0.03-0.19-0.1-0.27l-0.03-0.03c-0.15-0.15-0.39-0.16-0.55-0.02l-1.54,1.47
		l-0.68-0.7c-0.08-0.08-0.18-0.12-0.29-0.12c-0.09,0-0.19,0.03-0.26,0.1C-288.71,398.91-288.71,399.17-288.56,399.33z"/>
	<path id="XMLID_72_" class="st0" d="M-278.51,399.05h-5.35c-0.22,0-0.39,0.18-0.39,0.39c0,0.22,0.18,0.39,0.39,0.39h5.35
		c0.22,0,0.39-0.18,0.39-0.39C-278.12,399.23-278.29,399.05-278.51,399.05z"/>
	<path id="XMLID_44_" class="st0" d="M-288.56,395.6l0.95,0.98c0.07,0.08,0.16,0.12,0.26,0.12c0.11,0.01,0.21-0.04,0.29-0.12
		l1.82-1.72c0.07-0.07,0.12-0.16,0.12-0.26c0-0.1-0.03-0.19-0.1-0.27l-0.03-0.03c-0.15-0.15-0.39-0.16-0.55-0.02l-1.54,1.47
		l-0.68-0.7c-0.08-0.08-0.18-0.12-0.29-0.12c-0.09,0-0.19,0.03-0.26,0.1C-288.71,395.19-288.71,395.44-288.56,395.6z"/>
	<path id="XMLID_50_" class="st0" d="M-278.51,395.33h-5.35c-0.22,0-0.39,0.18-0.39,0.39s0.18,0.39,0.39,0.39h5.35
		c0.22,0,0.39-0.18,0.39-0.39S-278.29,395.33-278.51,395.33z"/>
	<path id="XMLID_49_" class="st0" d="M-288.56,403.05l0.95,0.98c0.07,0.08,0.17,0.13,0.27,0.12c0.1,0,0.2-0.04,0.28-0.12l1.82-1.72
		c0.15-0.14,0.16-0.37,0.02-0.52l-0.03-0.03c-0.15-0.15-0.39-0.16-0.55-0.02l-1.54,1.47l-0.68-0.7c-0.08-0.08-0.18-0.12-0.29-0.12
		c-0.09,0-0.19,0.03-0.26,0.1C-288.71,402.64-288.71,402.89-288.56,403.05z"/>
	<path id="XMLID_48_" class="st0" d="M-278.51,402.78h-5.35c-0.22,0-0.39,0.18-0.39,0.39c0,0.22,0.18,0.39,0.39,0.39h5.35
		c0.22,0,0.39-0.18,0.39-0.39C-278.12,402.95-278.29,402.78-278.51,402.78z"/>
</g>
</svg>
