<?xml version="1.0" encoding="utf-8"?>
<!-- Generator: Adobe Illustrator 16.0.0, SVG Export Plug-In . SVG Version: 6.00 Build 0)  -->
<!DOCTYPE svg PUBLIC "-//W3C//DTD SVG 1.1//EN" "http://www.w3.org/Graphics/SVG/1.1/DTD/svg11.dtd">
<svg version="1.1" id="Layer_1" xmlns="http://www.w3.org/2000/svg" xmlns:xlink="http://www.w3.org/1999/xlink" x="0px" y="0px"
	 width="25.124px" height="25.302px" viewBox="0 0 25.124 25.302" enable-background="new 0 0 25.124 25.302" xml:space="preserve">
<line fill="none" stroke="#020202" stroke-width="0.4" stroke-miterlimit="10" x1="18.19" y1="2.262" x2="18.19" y2="5.202"/>
<line fill="none" stroke="#020202" stroke-width="0.4" stroke-miterlimit="10" x1="19.887" y1="3.731" x2="16.495" y2="3.731"/>
<g display="none">
	<defs>
		<path id="SVGID_1_" d="M13.035,4.588c-2.711,2.273-5.42,4.548-8.135,6.817c-0.13,0.109-0.15,0.221-0.15,0.367
			c0.002,3.633,0.002,7.268,0.002,10.902c0,0.083,0,0.166,0,0.245h5c0-0.105,0-0.19,0-0.276c0-1.7-0.011-3.398,0.003-5.098
			c0.018-2.114,2.039-3.644,4.155-3.16c1.533,0.35,2.595,1.634,2.604,3.18c0.011,1.699,0.003,3.398,0.003,5.098
			c0,0.085,0,0.169,0,0.263h4.902v-0.247c0-3.642-0.002-7.283,0.005-10.925c0-0.167-0.06-0.271-0.186-0.377
			c-2.651-2.243-5.299-4.492-7.948-6.738c-0.052-0.044-0.11-0.083-0.163-0.123C13.085,4.548,13.06,4.567,13.035,4.588"/>
	</defs>
	<clipPath id="SVGID_2_" display="inline">
		<use xlink:href="#SVGID_1_"  overflow="visible"/>
	</clipPath>
	<rect x="3.613" y="4.504" display="inline" clip-path="url(#SVGID_2_)" fill="#2A326D" width="20.921" height="19.952"/>
</g>
<g>
	<defs>
		<rect id="SVGID_3_" width="25.124" height="25.302"/>
	</defs>
	<clipPath id="SVGID_4_">
		<use xlink:href="#SVGID_3_"  overflow="visible"/>
	</clipPath>
	<path clip-path="url(#SVGID_4_)" d="M13.127,4.669c0.031,0,0.076,0.008,0.118,0.045l7.605,6.71
		c0.138,0.122,0.169,0.205,0.173,0.205l0,0L21.02,22.691c0,0.103-0.084,0.187-0.188,0.187h-3.708c-0.115,0-0.21-0.094-0.211-0.209
		l-0.028-5.404v-0.031l-0.005-0.031c-0.498-3.005-2.761-3.329-3.711-3.329c-0.294,0-0.484,0.03-0.5,0.032
		c-3.261,0.488-3.314,3.727-3.314,3.762l-0.003,5.017c0,0.104-0.084,0.188-0.187,0.188H5.339c-0.105,0-0.187-0.08-0.187-0.181
		l-0.001-1.437L5.15,11.65c0.002-0.024,0.026-0.077,0.052-0.12l7.8-6.813C13.038,4.686,13.082,4.669,13.127,4.669 M13.127,4.269
		c-0.138,0-0.275,0.049-0.388,0.147L4.9,11.263c0,0-0.15,0.203-0.15,0.383c0,0.156,0.001,8.712,0.002,11.044
		c0,0.323,0.263,0.58,0.587,0.58h3.826c0.324,0,0.587-0.262,0.587-0.587l0.003-5.017c0,0,0.014-2.923,2.973-3.366
		c0,0,0.171-0.027,0.44-0.027c0.894,0,2.872,0.31,3.316,2.993l0.028,5.404c0.002,0.336,0.274,0.607,0.61,0.607h3.708
		c0.324,0,0.587-0.263,0.587-0.586l0.004-11.066c0,0,0.014-0.218-0.309-0.502c-0.277-0.245-6.049-5.338-7.604-6.71
		C13.4,4.317,13.265,4.269,13.127,4.269"/>
</g>
</svg>
