<?xml version="1.0" encoding="utf-8"?>
<!-- Generator: Adobe Illustrator 24.3.0, SVG Export Plug-In . SVG Version: 6.00 Build 0)  -->
<svg version="1.1" id="Layer_1" xmlns="http://www.w3.org/2000/svg" xmlns:xlink="http://www.w3.org/1999/xlink" x="0px" y="0px"
	 viewBox="-294 386.7 21.2 21.3" style="enable-background:new -294 386.7 21.2 21.3;" xml:space="preserve">
<style type="text/css">
	.st0{fill:#28336D;}
</style>
<g>
	<path class="st0" d="M-292.85,391.99c-0.06,0.13-0.09,0.27-0.09,0.4c0,4.28,0,8.56,0,12.84v1.8h19.07v-2.07c0-4.12,0-8.38,0-12.57
		c0-0.14-0.04-0.3-0.11-0.43c-0.27-0.49-0.55-0.99-0.82-1.48c-0.21-0.38-0.42-0.76-0.63-1.15c-0.05-0.09-0.08-0.22-0.09-0.34
		c-0.01-0.28-0.01-0.58,0-0.9c0.01-0.22-0.05-0.36-0.18-0.45h-15.72c-0.16,0.09-0.22,0.23-0.2,0.42c0.08,0.71-0.07,1.42-0.45,2.17
		c-0.24,0.46-0.44,0.94-0.64,1.4C-292.75,391.77-292.8,391.88-292.85,391.99z M-275.79,406.45h-4v-5.66h4V406.45z M-275.82,400.13
		c-0.06,0.07-0.17,0.07-0.39,0.07h-3.59v-0.04c0-0.06,0-0.12,0-0.17c0-0.12-0.01-0.23,0.01-0.33c0.03-0.29,0.28-0.51,0.57-0.51
		c1.02-0.01,1.95-0.01,2.85,0c0.31,0,0.56,0.25,0.58,0.59C-275.76,399.96-275.75,400.07-275.82,400.13z M-274.48,406.45h-0.72
		l0-1.99c0-1.54,0-3.09,0-4.63c0-0.61-0.35-1.09-0.91-1.23c-0.12-0.03-0.27-0.05-0.44-0.05c-0.8,0-1.62,0-2.4,0l-0.1,0
		c-0.84,0-1.35,0.5-1.35,1.34l0,6.57h-11.94v-9.33l0.06,0.04c0.01,0.01,0.02,0.02,0.03,0.02c0.02,0.01,0.04,0.03,0.05,0.04
		c0.45,0.4,0.97,0.59,1.59,0.59l0.11,0c0.41,0,0.83,0,1.23-0.16c0.5-0.2,0.88-0.53,1.18-0.99l0.03-0.05l0.03,0.05
		c0.3,0.48,0.63,0.77,1.03,0.93c0.3,0.12,0.6,0.19,0.86,0.21c0.39,0.03,0.78,0.02,1.16-0.04c0.49-0.07,0.94-0.32,1.31-0.76
		c0.02-0.02,0.04-0.05,0.06-0.07c0.01-0.01,0.02-0.02,0.02-0.03l-0.03-0.03l0.07-0.02c0,0,0,0,0.01,0l0.01-0.01l0.06,0.02l0,0.03
		c0,0,0,0,0,0.01c0.06,0.06,0.12,0.12,0.18,0.18c0.16,0.15,0.3,0.3,0.47,0.42c0.27,0.2,0.6,0.31,0.99,0.31
		c0.51,0.01,0.95,0.01,1.37,0c0.69-0.01,1.24-0.3,1.63-0.88l0.09-0.13l0.03,0.04c0.03,0.03,0.05,0.06,0.08,0.09
		c0.06,0.07,0.11,0.13,0.17,0.18c0.45,0.46,1,0.7,1.63,0.7c0,0,0.01,0,0.01,0c0.09,0,0.19,0,0.28,0c0.38,0.01,0.76,0.02,1.12-0.13
		c0.2-0.09,0.4-0.2,0.59-0.31c0.09-0.05,0.17-0.1,0.26-0.15l0.06-0.03V406.45z M-283.7,392.54l0,1.65c0,0.44,0,0.87,0,1.31
		c-0.01,0.85-0.5,1.49-1.28,1.66c-0.25,0.05-0.53,0.1-0.82,0.1c-0.34,0-0.7-0.06-1.04-0.25c-0.58-0.31-0.87-0.82-0.88-1.51
		c-0.01-0.67-0.01-1.35,0-2.01c0-0.27,0-0.53,0-0.8c0-0.02,0-0.04,0.01-0.07l0.01-0.07H-283.7z M-287.61,391.94l0.42-1.27
		c0.1-0.31,0.21-0.63,0.32-0.95c0.02-0.06,0.11-0.16,0.18-0.16c0.81-0.01,1.6-0.01,2.43-0.01l0.55,0v2.38H-287.61z M-279.08,392.54
		l0.01,0.1c0,0.04,0.01,0.08,0.01,0.12l0,0.63c0,0.79,0,1.58,0,2.37c0,0.63-0.26,1.07-0.77,1.32c-0.17,0.08-0.38,0.13-0.6,0.14
		c-0.2,0.01-0.4,0.01-0.6,0.01c-0.28,0-0.56-0.01-0.83-0.02c-0.65-0.03-1.2-0.56-1.22-1.17c-0.02-0.81-0.02-1.63-0.01-2.43
		c0-0.34,0-0.68,0-1.02v-0.04H-279.08z M-283.09,391.94v-2.37l0.09-0.01c0.04,0,0.08-0.01,0.12-0.01l0.81,0c0.63,0,1.26,0,1.89,0
		c0,0,0,0,0,0c0.13,0,0.22,0.03,0.26,0.18c0.15,0.48,0.31,0.96,0.47,1.42c0.06,0.19,0.13,0.38,0.19,0.57
		c0.01,0.03,0.02,0.07,0.03,0.1c0,0.02,0.01,0.04,0.01,0.06l0.01,0.05H-283.09z M-274.47,392.58c0,0.02,0,0.04,0,0.06
		c0,0.04,0.01,0.08,0.01,0.12l0,0.62c0,0.7,0,1.41,0,2.11c0,0.86-0.5,1.5-1.31,1.68c-0.27,0.06-0.53,0.09-0.77,0.09
		c-0.32,0-0.61-0.05-0.88-0.16c-0.68-0.27-1.05-0.8-1.07-1.55c-0.02-0.69-0.01-1.39-0.01-2.07c0-0.3,0-0.6,0-0.9v-0.04h4.02
		L-274.47,392.58z M-275.89,389.73c0.26,0.47,0.52,0.95,0.78,1.41l0.32,0.58c0.02,0.03,0.03,0.07,0.05,0.11l0.06,0.12l-0.13,0.01
		c-0.04,0-0.08,0.01-0.12,0.01l-0.91,0c-0.82,0-1.67,0-2.5,0.01c0,0,0,0-0.01,0c-0.17,0-0.25-0.06-0.3-0.22
		c-0.15-0.45-0.3-0.91-0.45-1.35c-0.06-0.19-0.13-0.38-0.19-0.57c-0.01-0.04-0.02-0.08-0.04-0.12l-0.03-0.12l0.12-0.01
		c0.04,0,0.08,0,0.12,0h0.82c0.71,0,1.41,0,2.12,0c0,0,0,0,0,0C-276.04,389.56-275.96,389.6-275.89,389.73z M-291.01,388.26h14.9
		v0.71h-14.9V388.26z M-292.14,391.89c0-0.02,0.01-0.03,0.01-0.05c0.01-0.03,0.02-0.07,0.03-0.1l0.3-0.67c0.2-0.45,0.4-0.9,0.6-1.36
		c0.04-0.09,0.1-0.16,0.23-0.16c0,0,0,0,0,0c0.83,0,1.67,0,2.5,0l0.88,0c0.01,0,0.03,0,0.05,0.01l0.09,0.01l-0.15,0.46
		c-0.14,0.42-0.28,0.84-0.41,1.25c-0.01,0.04-0.03,0.08-0.04,0.12c-0.04,0.13-0.08,0.26-0.14,0.38c-0.03,0.07-0.13,0.15-0.2,0.15
		c-0.71,0-1.42,0.01-2.13,0.01c-0.37,0-0.73,0-1.1,0l-0.43,0c-0.02,0-0.03,0-0.05-0.01l-0.07-0.01L-292.14,391.89z M-292.34,393.51
		c0-0.31,0-0.62,0-0.93v-0.04h4.01l0.01,0.09c0,0.03,0.01,0.06,0.01,0.09c0,0.25,0,0.49,0,0.74c0,0.61,0,1.25,0,1.87
		c-0.01,0.93-0.53,1.63-1.36,1.83c-0.29,0.07-0.55,0.1-0.8,0.1c-0.37,0-0.69-0.08-0.99-0.24c-0.54-0.29-0.85-0.75-0.87-1.3
		C-292.35,394.98-292.34,394.23-292.34,393.51z"/>
	<path class="st0" d="M-291.28,405.55v0.17h9.81l0-0.02c0-0.03,0-0.06,0-0.08c0-2.03,0-4.05,0-6.08c0-0.07,0-0.17-0.02-0.25
		c-0.12-0.48-0.49-0.74-1.04-0.74c-0.77,0-1.54,0-2.31,0c-1.75,0-3.56,0-5.35-0.01c0,0,0,0-0.01,0c-0.33,0-0.61,0.1-0.8,0.3
		c-0.19,0.19-0.29,0.47-0.29,0.8c0.01,1.41,0.01,2.84,0.01,4.23C-291.28,404.43-291.28,404.99-291.28,405.55z M-282.05,405.14h-8.64
		v-4.35h8.64V405.14z M-290.7,399.54c0.01-0.26,0.16-0.4,0.42-0.4c2.61,0,5.22,0,7.83,0c0.25,0,0.38,0.12,0.4,0.36
		c0.01,0.11,0.01,0.23,0.01,0.34c0,0.04,0,0.08,0,0.12c0,0.04,0,0.08-0.01,0.12l-0.01,0.1h-8.65v-0.04c0-0.07,0-0.13,0-0.2
		C-290.7,399.81-290.71,399.67-290.7,399.54z"/>
	<path class="st0" d="M-279.06,401.53v4.19h2.53v-4.19H-279.06z M-277.1,405.14h-1.38v-3.02h1.38V405.14z"/>
</g>
</svg>
