<?xml version="1.0" encoding="utf-8"?>
<!-- Generator: Adobe Illustrator 24.3.0, SVG Export Plug-In . SVG Version: 6.00 Build 0)  -->
<svg version="1.1" id="Layer_1" xmlns="http://www.w3.org/2000/svg" xmlns:xlink="http://www.w3.org/1999/xlink" x="0px" y="0px"
	 viewBox="-294 386.7 21.2 21.3" style="enable-background:new -294 386.7 21.2 21.3;" xml:space="preserve">
<style type="text/css">
	.st0{fill:#28336D;}
</style>
<path class="st0" d="M-1956.28,7.65c0,1.16,0.94,2.1,2.1,2.1h5.1l0.06,0.17c0.47,1.31,1.7,2.19,3.08,2.19
	c1.37,0,2.61-0.88,3.08-2.19l0.06-0.17h10.2l0.06,0.17c0.47,1.31,1.7,2.19,3.08,2.19c1.37,0,2.61-0.88,3.08-2.19l0.06-0.17h5.1
	c1.16,0,2.1-0.94,2.1-2.1V-2.94c0-3.11-2.53-5.63-5.63-5.63h-6.28l-0.06-0.17c-0.47-1.31-1.7-2.19-3.08-2.19H-1953
	c-1.81,0-3.28,1.47-3.28,3.28V7.65z M-1920.98,0.84h-5.21v-1.43c0-0.79,0.64-1.43,1.43-1.43h3.78V0.84z M-1930.89-6.72h6.13
	c1.59,0,3.01,1.01,3.55,2.52l0.12,0.33h-3.67c-1.81,0-3.28,1.47-3.28,3.28v3.28h7.06V7.9h-5.35l-0.06-0.17
	c-0.47-1.31-1.7-2.19-3.08-2.19c-0.35,0-0.71,0.07-1.09,0.2l-0.33,0.12V-6.72z M-1929.46,7.4c0.79,0,1.43,0.64,1.43,1.43
	s-0.64,1.43-1.43,1.43s-1.43-0.64-1.43-1.43S-1930.25,7.4-1929.46,7.4z M-1945.94,10.25c-0.79,0-1.43-0.64-1.43-1.43
	s0.64-1.43,1.43-1.43s1.43,0.64,1.43,1.43S-1945.15,10.25-1945.94,10.25z M-1954.42-7.65c0-0.79,0.64-1.43,1.43-1.43h18.83
	c0.79,0,1.43,0.64,1.43,1.43V7.9h-10.06l-0.06-0.17c-0.47-1.31-1.7-2.19-3.08-2.19c-1.38,0-2.61,0.88-3.08,2.19l-0.06,0.17h-5.35
	V-7.65z"/>
<rect x="-1951.57" y="-6.22" class="st0" width="1.85" height="8.91"/>
<rect x="-1946.86" y="-6.22" class="st0" width="1.85" height="8.91"/>
<rect x="-1942.16" y="-6.22" class="st0" width="1.85" height="8.91"/>
<rect x="-1937.45" y="-6.22" class="st0" width="1.85" height="8.91"/>
<path class="st0" d="M-1957.7-60.35h-18.83c-1.37,0-2.61,0.88-3.08,2.19l-0.06,0.17h-6.28c-3.11,0-5.63,2.53-5.63,5.63v10.59
	c0,1.16,0.94,2.1,2.1,2.1h5.1l0.06,0.17c0.47,1.31,1.7,2.19,3.08,2.19s2.61-0.88,3.08-2.19l0.06-0.17h10.2l0.06,0.17
	c0.47,1.31,1.7,2.19,3.08,2.19s2.61-0.88,3.08-2.19l0.06-0.17h5.1c1.16,0,2.1-0.94,2.1-2.1v-15.3
	C-1954.42-58.88-1955.89-60.35-1957.7-60.35z M-1989.72-51.43h3.78c0.79,0,1.43,0.64,1.43,1.43v1.43h-5.21V-51.43z M-1981.23-39.17
	c-0.79,0-1.43-0.64-1.43-1.43s0.64-1.43,1.43-1.43s1.43,0.64,1.43,1.43S-1980.45-39.17-1981.23-39.17z M-1979.81-43.55l-0.33-0.12
	c-0.38-0.14-0.74-0.2-1.09-0.2c-1.37,0-2.61,0.88-3.08,2.19l-0.06,0.17h-5.35v-5.21h7.06v-3.28c0-1.81-1.47-3.28-3.28-3.28h-3.67
	l0.12-0.33c0.54-1.51,1.96-2.52,3.55-2.52h6.13V-43.55z M-1964.76-39.17c-0.79,0-1.43-0.64-1.43-1.43s0.64-1.43,1.43-1.43
	s1.43,0.64,1.43,1.43S-1963.98-39.17-1964.76-39.17z M-1956.28-41.52h-5.35l-0.06-0.17c-0.47-1.31-1.7-2.19-3.08-2.19
	c-1.37,0-2.61,0.88-3.08,2.19l-0.06,0.17h-10.06v-15.55c0-0.79,0.64-1.43,1.43-1.43h18.83c0.79,0,1.43,0.64,1.43,1.43V-41.52z"/>
<rect x="-1960.98" y="-55.64" class="st0" width="1.85" height="8.91"/>
<rect x="-1965.69" y="-55.64" class="st0" width="1.85" height="8.91"/>
<rect x="-1970.4" y="-55.64" class="st0" width="1.85" height="8.91"/>
<rect x="-1975.1" y="-55.64" class="st0" width="1.85" height="8.91"/>
<path class="st0" d="M-1947.11-34.46h-16.47c-1.16,0-2.1,0.94-2.1,2.1v16.47c0,1.16,0.94,2.1,2.1,2.1h16.47c1.16,0,2.1-0.94,2.1-2.1
	v-16.47C-1945.01-33.52-1945.95-34.46-1947.11-34.46z M-1956.78-32.61h2.85v2.85h-2.85V-32.61z M-1963.84-15.63v-16.97h5.21v4.71
	h6.56v-4.71h5.21l0,16.97H-1963.84z"/>
<rect x="-1951.57" y="-20.34" class="st0" width="1.85" height="1.85"/>
<rect x="-1956.28" y="-20.34" class="st0" width="1.85" height="1.85"/>
<rect x="-1942.16" y="-25.05" class="st0" width="1.85" height="1.85"/>
<rect x="-1937.45" y="-25.05" class="st0" width="1.85" height="1.85"/>
<path class="st0" d="M-1919.12-37.06c0-7.65-6.22-13.87-13.87-13.87h-14.24l2.95-2.95l-1.31-1.31l-5.19,5.18l5.19,5.19l1.31-1.31
	l-2.95-2.95h14.24c6.63,0,12.02,5.39,12.02,12.02c0,6.54-5.26,11.88-11.77,12.01v1.85C-1925.21-23.33-1919.12-29.5-1919.12-37.06z"
	/>
<rect x="-1970.4" y="-25.05" class="st0" width="1.85" height="1.85"/>
<rect x="-1975.1" y="-25.05" class="st0" width="1.85" height="1.85"/>
<path class="st0" d="M-1959.92,1.76l-5.19-5.19l-1.31,1.31l2.95,2.95h-14.24c-6.63,0-12.02-5.39-12.02-12.02
	c0-6.54,5.26-11.88,11.77-12.01v-1.85c-7.53,0.13-13.62,6.3-13.62,13.87c0,7.65,6.22,13.87,13.87,13.87h14.24l-2.95,2.95l1.31,1.31
	L-1959.92,1.76z"/>
<g>
	<path class="st0" d="M-281.93,401.24c-0.1-0.38-0.39-0.59-0.82-0.59l-1.72,0c-1.3,0-2.64,0-3.98,0c-0.26,0-0.48,0.08-0.63,0.24
		c-0.15,0.15-0.23,0.37-0.23,0.63c0.01,1.07,0.01,2.17,0.01,3.14l0,1.43h7.39l0-0.07c0-0.02,0-0.04,0-0.05v-0.38
		c0-1.38,0-2.76,0-4.14C-281.91,401.39-281.91,401.31-281.93,401.24z M-282.45,405.56h-6.31v-3.13h6.31V405.56z M-282.44,401.76
		c0,0.03,0,0.05,0,0.09l0,0.03h-6.33c0-0.03,0-0.07,0-0.1l0-0.03c0-0.1,0-0.2,0-0.3c0.01-0.17,0.09-0.25,0.26-0.25
		c1.94,0,3.88,0,5.82,0c0.16,0,0.24,0.07,0.25,0.22c0.01,0.08,0.01,0.17,0.01,0.25L-282.44,401.76z"/>
	<path class="st0" d="M-278.24,402.87h-1.99v3.22h1.99V402.87z M-278.77,405.56h-0.92v-2.14h0.92V405.56z"/>
	<path class="st0" d="M-276.27,396.14c0-0.11-0.03-0.24-0.09-0.34c-0.19-0.36-0.4-0.72-0.59-1.07l-0.02-0.03
		c-0.16-0.28-0.32-0.57-0.47-0.85c-0.03-0.06-0.06-0.15-0.06-0.23c-0.01-0.21-0.01-0.43,0-0.66c0.01-0.18-0.04-0.3-0.15-0.38
		l-0.01-0.01h-3.49l0.25-0.41c0.28-0.46,0.42-0.99,0.42-1.53c0-1.65-1.34-2.99-2.99-2.99s-2.99,1.34-2.99,2.99
		c0,0.56,0.15,1.1,0.45,1.57l0.23,0.37h-3.58l-0.01,0.01c-0.13,0.08-0.19,0.2-0.17,0.36c0.06,0.51-0.05,1.03-0.33,1.58
		c-0.18,0.34-0.33,0.7-0.47,1.05l-0.02,0.04c-0.03,0.07-0.06,0.14-0.09,0.21l0,0c-0.04,0.1-0.07,0.22-0.07,0.32
		c0,3.05,0,6.11,0,9.16v1.77h14.27v-1.59C-276.26,402.42-276.26,399.26-276.27,396.14z M-277.87,394.18
		c0.19,0.35,0.39,0.71,0.58,1.05l0.24,0.43c0.01,0.02,0.02,0.05,0.04,0.08l0.01,0.02l-0.02,0c-0.03,0-0.06,0-0.08,0l-0.72,0
		c-0.6,0-1.21,0-1.82,0c-0.1,0-0.14-0.03-0.17-0.13c-0.11-0.33-0.22-0.67-0.33-1l-0.14-0.43c-0.01-0.03-0.02-0.05-0.03-0.09
		l-0.01-0.03l0.02,0c0.03,0,0.06,0,0.08,0h0.61c0.53,0,1.05,0,1.58,0C-277.95,394.08-277.91,394.11-277.87,394.18z M-283.67,397.48
		c0,0.32,0,0.65,0,0.97c0,0.61-0.35,1.06-0.91,1.18c-0.15,0.03-0.37,0.07-0.6,0.07c-0.28,0-0.53-0.06-0.75-0.18
		c-0.41-0.22-0.62-0.58-0.63-1.08c-0.01-0.49-0.01-0.98,0-1.46l0-0.03c0-0.2,0-0.4,0-0.6c0-0.01,0-0.03,0-0.05l0-0.01h2.89
		L-283.67,397.48z M-286.46,395.75l0.3-0.89c0.07-0.22,0.15-0.46,0.23-0.68c0.01-0.04,0.06-0.08,0.09-0.08c0.33,0,0.66,0,1,0
		l1.03,1.66H-286.46z M-282.05,394.08c0.35,0,0.69,0,1.04,0c0.08,0,0.12,0.01,0.15,0.1c0.11,0.35,0.23,0.71,0.35,1.06l0.14,0.42
		c0.01,0.02,0.01,0.05,0.02,0.07l0,0.02h-2.7L-282.05,394.08z M-283.12,397.04c0-0.24,0-0.49,0-0.74h2.88l0,0.03
		c0,0.03,0,0.06,0,0.08l0,0.58c0,0.55,0,1.1,0,1.65c0,0.45-0.18,0.76-0.54,0.93c-0.12,0.06-0.27,0.09-0.42,0.1
		c-0.36,0.01-0.72,0.01-1.06-0.01c-0.46-0.02-0.84-0.39-0.86-0.82C-283.13,398.24-283.13,397.63-283.12,397.04z M-278.03,393.11
		v0.43h-3.69l0.26-0.43H-278.03z M-285.53,391.9c-0.24-0.39-0.36-0.83-0.36-1.27c0-1.34,1.09-2.43,2.43-2.43
		c1.34,0,2.43,1.09,2.43,2.43c0,0.44-0.12,0.87-0.34,1.24l-0.42,0.7l-0.33,0.54l-0.26,0.43l-0.32,0.54l-0.4,0.68l-0.31,0.52
		l-0.25-0.4l-0.5-0.8l-0.34-0.54l-0.26-0.43l-0.34-0.54L-285.53,391.9z M-289,393.11h3.56l0.26,0.43H-289V393.11z M-289.84,395.74
		c0.01-0.02,0.01-0.04,0.02-0.06l0.22-0.5c0.15-0.34,0.3-0.67,0.45-1.01c0.02-0.06,0.05-0.09,0.12-0.09c0.44,0,0.88,0,1.33,0l1.19,0
		c0.01,0,0.02,0,0.03,0l0.01,0l-0.43,1.3c-0.03,0.09-0.06,0.19-0.1,0.28c-0.02,0.04-0.07,0.08-0.1,0.08c-0.52,0-1.05,0-1.58,0
		l-1.13,0c-0.01,0-0.01,0-0.02,0L-289.84,395.74z M-289.99,396.97c0-0.22,0-0.44,0-0.67h2.88l0,0.02c0,0.02,0,0.04,0,0.06l0,0.6
		c0,0.44,0,0.89,0,1.34c-0.01,0.66-0.38,1.16-0.97,1.31c-0.53,0.13-0.93,0.1-1.29-0.1c-0.38-0.2-0.6-0.53-0.62-0.92
		C-290,398.05-289.99,397.48-289.99,396.97z M-277.8,406.53h-2.87v-4.11h2.87V406.53z M-277.8,401.85
		c-0.03,0.03-0.11,0.03-0.25,0.03h-2.61c0-0.03,0-0.07,0-0.11c0-0.08,0-0.16,0-0.24c0.02-0.19,0.19-0.33,0.38-0.34
		c0.76-0.01,1.46-0.01,2.12,0c0.2,0,0.37,0.17,0.38,0.39C-277.78,401.74-277.77,401.82-277.8,401.85z M-276.82,406.53h-0.43l0-1.43
		c0-1.15,0-2.29,0-3.44c0-0.48-0.27-0.85-0.71-0.96c-0.1-0.02-0.21-0.04-0.34-0.04c-0.56,0-1.13,0-1.69,0l-0.18,0
		c-0.66,0-1.05,0.39-1.05,1.05v4.83h-8.77v-6.79c0.01,0.01,0.02,0.01,0.03,0.02c0.34,0.3,0.73,0.45,1.2,0.45c0,0,0.01,0,0.01,0
		l0.08,0c0.31,0,0.63,0,0.93-0.13c0.37-0.15,0.66-0.39,0.88-0.72c0.22,0.35,0.47,0.57,0.77,0.68c0.23,0.09,0.45,0.14,0.66,0.16
		c0.3,0.02,0.59,0.01,0.88-0.03c0.38-0.05,0.72-0.25,1.01-0.58c0.02-0.02,0.03-0.04,0.05-0.06l0.02-0.03l0,0
		c0.05,0.04,0.09,0.09,0.14,0.13c0.12,0.11,0.23,0.22,0.35,0.32c0.21,0.16,0.47,0.24,0.77,0.24c0.37,0,0.7,0,1.02,0
		c0.53-0.01,0.95-0.23,1.26-0.68l0.03-0.05l0.04,0.05c0.04,0.05,0.08,0.09,0.12,0.14c0.34,0.35,0.77,0.53,1.26,0.53
		c0.07,0,0.14,0,0.21,0c0.27,0.01,0.58,0.02,0.85-0.1c0.15-0.07,0.3-0.15,0.45-0.24c0.05-0.03,0.11-0.06,0.16-0.09V406.53z
		 M-276.81,398.44c0,0.61-0.36,1.07-0.93,1.2c-0.47,0.1-0.85,0.09-1.2-0.05c-0.48-0.19-0.75-0.57-0.76-1.11
		c-0.01-0.51-0.01-1.03-0.01-1.53l0-0.06c0-0.2,0-0.39,0-0.59h2.89l0,0.02c0,0.03,0,0.05,0,0.08l0,0.46
		C-276.81,397.39-276.81,397.91-276.81,398.44z"/>
	<path class="st0" d="M-283.47,392.14c0.84,0,1.52-0.68,1.52-1.52s-0.68-1.52-1.52-1.52s-1.52,0.68-1.52,1.52
		S-284.3,392.14-283.47,392.14z M-283.47,389.67c0.52,0,0.95,0.43,0.95,0.95c0,0.52-0.43,0.95-0.95,0.95
		c-0.52,0-0.95-0.43-0.95-0.95C-284.42,390.1-283.99,389.67-283.47,389.67z"/>
</g>
</svg>
