<?xml version="1.0" encoding="utf-8"?>
<!-- Generator: Adobe Illustrator 21.0.0, SVG Export Plug-In . SVG Version: 6.00 Build 0)  -->
<svg version="1.1" id="Layer_1" xmlns="http://www.w3.org/2000/svg" xmlns:xlink="http://www.w3.org/1999/xlink" x="0px" y="0px"
	 viewBox="-294 386.7 21.2 21.3" style="enable-background:new -294 386.7 21.2 21.3;" xml:space="preserve">
<style type="text/css">
	.st0{fill:#28336D;}
</style>
<g>
	<g>
		<g>
			<path class="st0" d="M-283.4,387.81c-5.27,0-9.54,4.27-9.54,9.54s4.27,9.54,9.54,9.54c5.26-0.01,9.53-4.27,9.54-9.54
				C-273.86,392.08-278.13,387.81-283.4,387.81z M-283.4,406.25c-4.92,0-8.9-3.98-8.9-8.9s3.98-8.9,8.9-8.9
				c4.91,0.01,8.89,3.99,8.9,8.9C-274.5,402.27-278.48,406.25-283.4,406.25z"/>
			<path class="st0" d="M-283.4,395.44c-1.05,0-1.91,0.85-1.91,1.91c0,1.05,0.85,1.91,1.91,1.91c1.05,0,1.91-0.85,1.91-1.91
				C-281.49,396.3-282.35,395.44-283.4,395.44z M-283.4,398.62c-0.7,0-1.27-0.57-1.27-1.27c0-0.7,0.57-1.27,1.27-1.27
				c0.7,0,1.27,0.57,1.27,1.27C-282.13,398.05-282.7,398.62-283.4,398.62z"/>
			<path class="st0" d="M-278,395.44c-1.05,0-1.91,0.85-1.91,1.91c0,1.05,0.85,1.91,1.91,1.91c1.05,0,1.91-0.85,1.91-1.91
				C-276.09,396.3-276.94,395.44-278,395.44z M-278,398.62c-0.7,0-1.27-0.57-1.27-1.27c0-0.7,0.57-1.27,1.27-1.27
				c0.7,0,1.27,0.57,1.27,1.27C-276.72,398.05-277.29,398.62-278,398.62z"/>
			<path class="st0" d="M-288.8,395.44c-1.05,0-1.91,0.85-1.91,1.91c0,1.05,0.85,1.91,1.91,1.91c1.05,0,1.91-0.85,1.91-1.91
				C-286.9,396.3-287.75,395.44-288.8,395.44z M-288.8,398.62c-0.7,0-1.27-0.57-1.27-1.27c0-0.7,0.57-1.27,1.27-1.27
				c0.7,0,1.27,0.57,1.27,1.27C-287.53,398.05-288.1,398.62-288.8,398.62z"/>
		</g>
	</g>
</g>
</svg>
