<?xml version="1.0" encoding="utf-8"?>
<!-- Generator: Adobe Illustrator 19.0.0, SVG Export Plug-In . SVG Version: 6.00 Build 0)  -->
<svg version="1.1" id="Layer_1" xmlns="http://www.w3.org/2000/svg" xmlns:xlink="http://www.w3.org/1999/xlink" x="0px" y="0px"
	 viewBox="-294 386.7 21.2 21.3" style="enable-background:new -294 386.7 21.2 21.3;" xml:space="preserve">
<style type="text/css">
	.st0{fill:#28336D;}
</style>
<g>
	<g id="XMLID_27_">
		<polygon id="XMLID_28_" class="st0" points="-275.41,398.09 -275.41,398.09 -275.41,398.09 		"/>
		<path id="XMLID_124_" class="st0" d="M-274.92,395.93l-0.03,0.04c-0.3-0.22-0.68-0.5-0.73-0.69c-0.06-0.21,0.13-0.65,0.29-1.01
			c0.25-0.59,0.52-1.19,0.23-1.68c-0.29-0.5-0.95-0.57-1.59-0.65c-0.4-0.05-0.85-0.1-1-0.25c-0.15-0.15-0.2-0.6-0.25-1
			c-0.07-0.64-0.15-1.3-0.65-1.59c-0.43-0.25-1.09-0.02-1.68,0.23c-0.32,0.14-0.69,0.29-1,0.29l-0.01,0l-0.01,0
			c-0.2-0.05-0.46-0.41-0.69-0.73c-0.37-0.5-0.79-1.07-1.38-1.07c-0.59,0-1.01,0.57-1.38,1.07c-0.22,0.3-0.5,0.68-0.77,0.74
			c0,0,0,0,0,0c-0.24,0-0.59-0.15-0.93-0.3c-0.59-0.26-1.25-0.49-1.68-0.23c-0.5,0.29-0.58,0.95-0.65,1.59
			c-0.05,0.46-0.1,0.86-0.24,1c-0.15,0.15-0.6,0.2-1,0.25c-0.64,0.07-1.3,0.15-1.59,0.65c-0.29,0.49-0.02,1.1,0.23,1.68
			c0.16,0.35,0.35,0.79,0.29,1.01c-0.05,0.2-0.41,0.46-0.73,0.69c-0.5,0.37-1.07,0.79-1.07,1.38c0,0.59,0.57,1.01,1.07,1.38
			c0.3,0.22,0.68,0.5,0.73,0.69c0.06,0.21-0.13,0.65-0.29,1.01c-0.25,0.59-0.52,1.19-0.23,1.68c0.29,0.5,0.95,0.57,1.59,0.65
			c0.4,0.05,0.85,0.1,1,0.25c0.15,0.15,0.2,0.6,0.25,1c0.07,0.64,0.15,1.3,0.65,1.59c0.43,0.25,1.1,0.02,1.68-0.23
			c0.31-0.14,0.67-0.29,0.98-0.29c0.01,0,0.01,0,0.02,0c0.21,0.05,0.47,0.41,0.7,0.72c0.37,0.51,0.79,1.07,1.38,1.07
			c0.59,0,1.01-0.57,1.38-1.07c0.23-0.31,0.5-0.68,0.77-0.74c0,0,0,0,0,0c0.24,0,0.59,0.15,0.93,0.3c0.59,0.26,1.25,0.48,1.68,0.23
			c0.5-0.29,0.58-0.95,0.65-1.59c0.05-0.46,0.1-0.86,0.24-1c0.15-0.15,0.6-0.2,1-0.25c0.64-0.07,1.3-0.15,1.59-0.65
			c0.29-0.49,0.02-1.1-0.23-1.68c-0.15-0.35-0.35-0.79-0.29-1.01c0.05-0.2,0.41-0.46,0.73-0.69c0.5-0.37,1.07-0.79,1.07-1.38
			c0-0.59-0.57-1.01-1.07-1.38L-274.92,395.93L-274.92,395.93z M-274.61,397.35c0,0.2-0.36,0.48-0.77,0.78l0,0
			c-0.43,0.32-0.88,0.65-1,1.1c-0.12,0.46,0.1,0.99,0.32,1.49c0.2,0.47,0.36,0.86,0.27,1.02c-0.09,0.16-0.54,0.23-1.04,0.28
			c-0.55,0.06-1.11,0.12-1.44,0.46c-0.33,0.33-0.4,0.9-0.46,1.44c-0.06,0.49-0.12,0.94-0.28,1.04c-0.03,0.02-0.07,0.02-0.12,0.02
			c-0.22,0-0.56-0.15-0.89-0.29l-0.01-0.01c-0.52-0.23-1.07-0.44-1.49-0.32c-0.44,0.12-0.78,0.57-1.1,1
			c-0.3,0.41-0.59,0.77-0.79,0.77c-0.2,0-0.49-0.36-0.78-0.77c-0.32-0.44-0.65-0.89-1.1-1c-0.09-0.02-0.18-0.03-0.28-0.03
			c-0.39,0-0.81,0.18-1.21,0.36c-0.34,0.15-0.68,0.29-0.9,0.29c-0.05,0-0.09-0.01-0.12-0.02c-0.16-0.1-0.23-0.54-0.28-1.03
			c-0.06-0.55-0.13-1.11-0.46-1.44c-0.33-0.33-0.89-0.4-1.44-0.46c-0.5-0.06-0.95-0.12-1.04-0.28c-0.09-0.16,0.07-0.55,0.27-1.02
			c0.22-0.51,0.45-1.03,0.33-1.5c-0.12-0.44-0.57-0.77-1-1.09c-0.41-0.3-0.77-0.59-0.77-0.79s0.36-0.48,0.76-0.78
			c0.44-0.33,0.89-0.66,1.01-1.1c0.12-0.46-0.1-0.99-0.33-1.49l-0.01-0.02c-0.2-0.46-0.35-0.85-0.26-1c0.1-0.17,0.55-0.23,1.04-0.28
			c0.55-0.06,1.11-0.13,1.44-0.46c0.33-0.33,0.4-0.9,0.46-1.44c0.05-0.49,0.12-0.94,0.28-1.04c0.03-0.02,0.07-0.02,0.12-0.02
			c0.23,0,0.57,0.15,0.9,0.3c0.52,0.23,1.07,0.44,1.49,0.32c0.44-0.12,0.78-0.57,1.1-1c0.3-0.41,0.59-0.77,0.79-0.77
			c0.2,0,0.48,0.36,0.78,0.77c0.32,0.44,0.65,0.88,1.1,1c0.43,0.11,0.99-0.11,1.49-0.32l0.01-0.01c0.33-0.14,0.67-0.29,0.89-0.29
			c0.05,0,0.09,0.01,0.12,0.02c0.16,0.09,0.22,0.52,0.28,1.03l-0.05,0.02v0l0.05-0.01c0.06,0.54,0.13,1.1,0.46,1.44
			c0.33,0.33,0.89,0.4,1.44,0.46c0.5,0.06,0.94,0.12,1.04,0.28c0.09,0.16-0.07,0.55-0.27,1.02c-0.22,0.51-0.45,1.03-0.33,1.49
			c0.12,0.44,0.57,0.78,1,1.1C-274.97,396.87-274.61,397.15-274.61,397.35z"/>
	</g>
	<path id="XMLID_129_" class="st0" d="M-285.53,399.01v-3.33c0-0.2-0.17-0.37-0.37-0.37c-0.2,0-0.37,0.17-0.37,0.37v2.22l-1.83-2.44
		c-0.1-0.13-0.26-0.18-0.41-0.13c-0.15,0.05-0.25,0.19-0.25,0.35v3.33c0,0.2,0.17,0.37,0.37,0.37c0.2,0,0.37-0.17,0.37-0.37v-2.22
		l1.83,2.44c0.09,0.12,0.27,0.18,0.41,0.13C-285.63,399.31-285.53,399.17-285.53,399.01z"/>
	<path id="XMLID_18_" class="st0" d="M-282.57,397.72c0.2,0,0.37-0.17,0.37-0.37s-0.17-0.37-0.37-0.37h-1.3v-0.93h1.3
		c0.2,0,0.37-0.17,0.37-0.37c0-0.2-0.17-0.37-0.37-0.37h-1.66c-0.2,0-0.37,0.17-0.37,0.37v3.33c0,0.2,0.17,0.37,0.37,0.37h1.66
		c0.2,0,0.37-0.17,0.37-0.37c0-0.2-0.17-0.37-0.37-0.37h-1.3v-0.93H-282.57z"/>
	<path id="XMLID_59_" class="st0" d="M-281.26,395.77l0.83,3.33c0.04,0.16,0.18,0.27,0.34,0.28c0.01,0,0.01,0,0.02,0
		c0.17,0,0.29-0.09,0.35-0.25l0.48-1.45l0.48,1.45c0.05,0.15,0.19,0.25,0.35,0.25l0.01,0c0.16-0.01,0.3-0.12,0.34-0.28l0.83-3.33
		c0.02-0.1,0.01-0.19-0.04-0.28c-0.05-0.08-0.13-0.14-0.23-0.17c-0.1-0.02-0.2-0.01-0.28,0.04c-0.08,0.05-0.14,0.13-0.17,0.23
		l-0.52,2.1l-0.43-1.29c-0.05-0.16-0.22-0.22-0.35-0.22h0c-0.13,0-0.3,0.06-0.35,0.22l-0.43,1.29l-0.52-2.1
		c-0.02-0.1-0.08-0.18-0.17-0.23c-0.09-0.05-0.18-0.06-0.28-0.04C-281.19,395.38-281.31,395.58-281.26,395.77z"/>
</g>
</svg>
