<?xml version="1.0" encoding="utf-8"?>
<!-- Generator: Adobe Illustrator 21.0.0, SVG Export Plug-In . SVG Version: 6.00 Build 0)  -->
<svg version="1.1" id="Layer_1" xmlns="http://www.w3.org/2000/svg" xmlns:xlink="http://www.w3.org/1999/xlink" x="0px" y="0px"
	 viewBox="-294 386.7 21.2 21.3" style="enable-background:new -294 386.7 21.2 21.3;" xml:space="preserve">
<style type="text/css">
	.st0{fill:#27346D;}
</style>
<path class="st0" d="M-276.35,396.74c0-0.87-0.71-1.58-1.58-1.58h-0.86v-2.68c0-2.55-2.07-4.62-4.62-4.62s-4.62,2.07-4.62,4.62v2.68
	h-0.86c-0.87,0-1.58,0.71-1.58,1.58v8.52c0,0.87,0.71,1.58,1.58,1.58h10.96c0.87,0,1.58-0.71,1.58-1.58V396.74z M-287.3,392.48
	c0-2.15,1.75-3.9,3.9-3.9c2.15,0,3.9,1.75,3.9,3.9v2.68h-7.8V392.48z M-277.06,405.26c0,0.47-0.39,0.86-0.86,0.86h-10.96
	c-0.47,0-0.86-0.38-0.86-0.86v-8.52c0-0.47,0.39-0.86,0.86-0.86h10.96c0.47,0,0.86,0.39,0.86,0.86V405.26z"/>
</svg>
