<?xml version="1.0" encoding="utf-8"?>
<!-- Generator: Adobe Illustrator 19.0.0, SVG Export Plug-In . SVG Version: 6.00 Build 0)  -->
<svg version="1.1" id="Layer_1" xmlns="http://www.w3.org/2000/svg" xmlns:xlink="http://www.w3.org/1999/xlink" x="0px" y="0px"
	 viewBox="-294 386.7 21.2 21.3" style="enable-background:new -294 386.7 21.2 21.3;" xml:space="preserve">
<style type="text/css">
	.st0{fill:#28336D;}
</style>
<g id="XMLID_456_">
	<g id="XMLID_457_">
		<g id="XMLID_458_">
			<path id="XMLID_377_" class="st0" d="M-275.63,406.94c-9.57,0-17.36-7.79-17.36-17.36c0-1,0.81-1.82,1.82-1.82h3.4
				c1,0,1.82,0.81,1.82,1.82c0,1.1,0.17,2.18,0.51,3.2c0.2,0.65,0.04,1.35-0.43,1.83l-1.39,1.84c1.18,2.16,2.58,3.55,4.75,4.75
				l1.89-1.43c0.45-0.44,1.16-0.59,1.79-0.37c1.02,0.34,2.09,0.51,3.19,0.51c1,0,1.82,0.81,1.82,1.82v3.39
				C-273.81,406.13-274.62,406.94-275.63,406.94z M-291.17,388.48c-0.61,0-1.1,0.49-1.1,1.1c0,9.18,7.47,16.65,16.65,16.65
				c0.61,0,1.1-0.49,1.1-1.1v-3.39c0-0.61-0.49-1.1-1.1-1.1c-1.18,0-2.33-0.18-3.42-0.54c-0.37-0.13-0.82-0.04-1.07,0.22l-0.04,0.04
				l-2.28,1.72l-0.2-0.11c-2.46-1.31-4.06-2.92-5.36-5.36l-0.11-0.2l1.71-2.27c0.29-0.29,0.4-0.72,0.27-1.13
				c-0.36-1.1-0.55-2.25-0.55-3.42c0-0.61-0.49-1.1-1.1-1.1H-291.17z"/>
		</g>
	</g>
</g>
</svg>
