<?xml version="1.0" encoding="utf-8"?>
<!-- Generator: Adobe Illustrator 21.0.0, SVG Export Plug-In . SVG Version: 6.00 Build 0)  -->
<svg version="1.1" id="Layer_1" xmlns="http://www.w3.org/2000/svg" xmlns:xlink="http://www.w3.org/1999/xlink" x="0px" y="0px"
	 viewBox="-294 386.7 21.2 21.3" style="enable-background:new -294 386.7 21.2 21.3;" xml:space="preserve">
<style type="text/css">
	.st0{fill:#28336D;}
</style>
<g>
	<g>
		<g>
			<path class="st0" d="M-277.03,392.85l-10.27-4.2l-3.12,7.64l-0.21,0.51l0.52,0.21l0.21-0.52l2.91-7.12l8.49,3.47h-8.31v11.34
				l-5.34-2.18l1.24-3.04l-0.26-0.1l0.26,0.1l0.16-0.4l-0.51-0.21l-0.16,0.4l-1.45,3.55l6.07,2.48v1.25h12.89v-8.44v-0.1v-0.46
				h-0.56v0.46v0.1v7.88h-11.77v-0.47v-11.61h10.59h1.18v1.4v0.56h0.56v-0.56v-1.96L-277.03,392.85z"/>
			<path class="st0" d="M-274.48,395.93h0.56v0.56h-0.56V395.93z"/>
			<path class="st0" d="M-290.33,397.54l-0.21,0.52l-0.52-0.21l0.21-0.52L-290.33,397.54z"/>
			<path class="st0" d="M-285.13,404.25h0.18h2.67h0.48h6.15h0.04v-9.53h-9.53V404.25z M-281.33,403.69l2.52-4.56l0.66,1.33h-1.16
				v0.56h1.44l1.33,2.68L-281.33,403.69L-281.33,403.69z M-276.16,395.28v7.93l-2.63-5.29l-3.18,5.77h-2.04l2.52-4.58l0.58,1.12
				l0.49-0.26l-1.06-2.05l-3.1,5.64v-8.28H-276.16z"/>
			<path class="st0" d="M-277.69,397.82c0.59,0,1.07-0.48,1.07-1.07c0-0.59-0.48-1.07-1.07-1.07c-0.59,0-1.07,0.48-1.07,1.07
				C-278.76,397.34-278.29,397.82-277.69,397.82L-277.69,397.82z M-277.69,396.24c0.28,0,0.51,0.23,0.51,0.51
				c0,0.28-0.23,0.51-0.51,0.51c-0.28,0-0.51-0.23-0.51-0.51C-278.21,396.47-277.98,396.24-277.69,396.24z"/>
		</g>
	</g>
</g>
</svg>
