<?xml version="1.0" encoding="utf-8"?>
<!-- Generator: Adobe Illustrator 24.2.3, SVG Export Plug-In . SVG Version: 6.00 Build 0)  -->
<svg version="1.1" id="Layer_1" xmlns="http://www.w3.org/2000/svg" xmlns:xlink="http://www.w3.org/1999/xlink" x="0px" y="0px"
	 viewBox="-294 386.7 21.2 21.3" style="enable-background:new -294 386.7 21.2 21.3;" xml:space="preserve">
<style type="text/css">
	.st0{fill:#28336D;}
</style>
<g>
	<path class="st0" d="M-273.86,391.47c0,2.9-1.26,5.01-1.32,5.09c-0.11,0.17-0.29,0.27-0.48,0.27c-0.1,0-0.2-0.03-0.29-0.08
		c-0.27-0.16-0.35-0.51-0.19-0.78c0.01-0.02,1.15-1.94,1.15-4.51c0-1.46-0.95-2.53-2.27-2.53c-1.25,0-2.27,1.02-2.27,2.27
		c0,0.53,0.26,1.89,0.36,2.36c0.06,0.31-0.13,0.61-0.44,0.67c-0.31,0.06-0.61-0.13-0.67-0.44c-0.04-0.19-0.38-1.85-0.38-2.59
		c0-1.87,1.52-3.4,3.4-3.4C-275.32,387.81-273.86,389.38-273.86,391.47z M-277.17,392.36c0.23,1.88,0.55,5.55,0.18,5.92l-8.23,8.23
		c-0.51,0.51-1.33,0.51-1.83,0l-5.5-5.5c-0.51-0.51-0.51-1.33,0-1.83l8.23-8.23c0.13-0.13,1.55-0.14,3.16-0.05
		c-0.01,0.11-0.03,0.21-0.03,0.31c0,0.41,0.09,1.05,0.19,1.61c-0.17,0.25-0.27,0.55-0.27,0.87c0,0.86,0.7,1.56,1.56,1.56
		s1.56-0.7,1.56-1.56c0-0.53-0.27-1-0.67-1.28c-0.08-0.49-0.15-0.97-0.15-1.2c0-0.05,0.01-0.1,0.01-0.15
		c0.2,0.02,0.39,0.04,0.58,0.06C-277.31,391.26-277.3,391.26-277.17,392.36z M-281.55,398.52c-0.13-0.36-0.34-0.78-0.8-1.27
		l0.62-0.63l-0.7-0.69l-0.67,0.67c-0.9-0.62-1.83-0.57-2.46,0.06c-0.69,0.69-0.53,1.56-0.02,2.58c0.35,0.7,0.41,1.11,0.14,1.38
		c-0.28,0.28-0.72,0.16-1.13-0.25c-0.46-0.46-0.73-1.03-0.87-1.49l-1.04,0.62c0.12,0.42,0.45,1.01,0.91,1.5l-0.68,0.68l0.69,0.7
		l0.73-0.73c0.97,0.68,1.94,0.59,2.57-0.04c0.65-0.65,0.7-1.37,0.15-2.52c-0.38-0.82-0.48-1.23-0.25-1.46
		c0.2-0.2,0.55-0.26,1.02,0.21c0.51,0.51,0.68,1.01,0.77,1.27L-281.55,398.52z"/>
</g>
</svg>
