<?xml version="1.0" encoding="utf-8"?>
<!-- Generator: Adobe Illustrator 19.0.0, SVG Export Plug-In . SVG Version: 6.00 Build 0)  -->
<svg version="1.1" id="Layer_1" xmlns="http://www.w3.org/2000/svg" xmlns:xlink="http://www.w3.org/1999/xlink" x="0px" y="0px"
	 viewBox="-294 386.7 21.2 21.3" style="enable-background:new -294 386.7 21.2 21.3;" xml:space="preserve">
<style type="text/css">
	.st0{fill:#28336D;}
	.st1{fill:none;}
</style>
<g>
	<path id="XMLID_299_" class="st0" d="M-274.09,406.38l-1.75-1.74l0.04-0.06c0.35-0.49,0.48-1.08,0.38-1.67
		c-0.1-0.59-0.42-1.11-0.91-1.45c-0.49-0.34-1.08-0.48-1.67-0.38c-0.59,0.1-1.11,0.43-1.45,0.91c-0.35,0.49-0.48,1.08-0.38,1.67
		c0.1,0.59,0.43,1.11,0.91,1.45c0.72,0.51,1.67,0.55,2.43,0.1l0.06-0.03l0.03,0.03l1.73,1.72c0.08,0.08,0.18,0.13,0.3,0.13
		c0.1,0,0.2-0.04,0.27-0.11c0.08-0.07,0.12-0.17,0.12-0.28C-273.98,406.56-274.02,406.45-274.09,406.38z M-277.58,404.87v0.04
		l-0.1,0l0-0.04c-0.85-0.03-1.53-0.73-1.54-1.58c0-0.87,0.71-1.59,1.59-1.59c0.87,0,1.58,0.71,1.59,1.58
		C-276.05,404.14-276.73,404.84-277.58,404.87z"/>
	<rect id="XMLID_755_" x="-288.06" y="403.66" class="st1" width="1.39" height="1.42"/>
	<path id="XMLID_739_" class="st1" d="M-281.12,405.08h0.81c-0.17-0.43-0.27-0.9-0.27-1.39c0-0.01,0-0.02,0-0.03h-0.54V405.08z"/>
	<path id="XMLID_719_" class="st0" d="M-283.9,389.84c0-0.2,0.16-0.35,0.35-0.35h0.52c0.19,0,0.35,0.16,0.35,0.35v0.53
		c0,0.2-0.16,0.35-0.35,0.35h-0.52c-0.19,0-0.35-0.16-0.35-0.35V389.84z M-283.9,391.97c0-0.2,0.16-0.35,0.35-0.35h0.52
		c0.19,0,0.35,0.16,0.35,0.35v0.53c0,0.2-0.16,0.35-0.35,0.35h-0.52c-0.19,0-0.35-0.16-0.35-0.35V391.97z M-283.9,394.09
		c0-0.2,0.16-0.35,0.35-0.35h0.52c0.19,0,0.35,0.16,0.35,0.35v0.53c0,0.2-0.16,0.35-0.35,0.35h-0.52c-0.19,0-0.35-0.16-0.35-0.35
		V394.09z M-283.9,396.22c0-0.2,0.16-0.35,0.35-0.35h0.52c0.19,0,0.35,0.16,0.35,0.35v0.53c0,0.2-0.16,0.35-0.35,0.35h-0.52
		c-0.19,0-0.35-0.16-0.35-0.35V396.22z M-283.9,398.35c0-0.2,0.16-0.35,0.35-0.35h0.52c0.19,0,0.35,0.16,0.35,0.35v0.53
		c0,0.2-0.16,0.35-0.35,0.35h-0.52c-0.19,0-0.35-0.16-0.35-0.35V398.35z M-283.55,401.36c-0.19,0-0.35-0.16-0.35-0.35v-0.53
		c0-0.2,0.16-0.35,0.35-0.35h0.52c0.19,0,0.35,0.16,0.35,0.35V401c0,0.2-0.16,0.35-0.35,0.35H-283.55z M-282.85,404.37
		L-282.85,404.37c-0.2,0-0.36-0.16-0.36-0.35s0.16-0.35,0.35-0.35h0.01c0.19,0,0.35,0.16,0.35,0.35S-282.66,404.37-282.85,404.37z
		 M-280.86,401c0,0.2-0.16,0.35-0.35,0.35h-0.52c-0.19,0-0.35-0.16-0.35-0.35v-0.53c0-0.2,0.16-0.35,0.35-0.35h0.52
		c0.19,0,0.35,0.16,0.35,0.35V401z M-280.86,398.88c0,0.2-0.16,0.35-0.35,0.35h-0.52c-0.19,0-0.35-0.16-0.35-0.35v-0.53
		c0-0.2,0.16-0.35,0.35-0.35h0.52c0.19,0,0.35,0.16,0.35,0.35V398.88z M-280.86,396.75c0,0.2-0.16,0.35-0.35,0.35h-0.52
		c-0.19,0-0.35-0.16-0.35-0.35v-0.53c0-0.2,0.16-0.35,0.35-0.35h0.52c0.19,0,0.35,0.16,0.35,0.35V396.75z M-280.86,394.63
		c0,0.2-0.16,0.35-0.35,0.35h-0.52c-0.19,0-0.35-0.16-0.35-0.35v-0.53c0-0.2,0.16-0.35,0.35-0.35h0.52c0.19,0,0.35,0.16,0.35,0.35
		V394.63z M-280.86,392.5c0,0.2-0.16,0.35-0.35,0.35h-0.52c-0.19,0-0.35-0.16-0.35-0.35v-0.53c0-0.2,0.16-0.35,0.35-0.35h0.52
		c0.19,0,0.35,0.16,0.35,0.35V392.5z M-280.86,390.37c0,0.2-0.16,0.35-0.35,0.35h-0.52c-0.19,0-0.35-0.16-0.35-0.35v-0.53
		c0-0.2,0.16-0.35,0.35-0.35h0.52c0.19,0,0.35,0.16,0.35,0.35V390.37z M-279.04,398.88c0,0.2-0.16,0.35-0.35,0.35h-0.52
		c-0.19,0-0.35-0.16-0.35-0.35v-0.53c0-0.2,0.16-0.35,0.35-0.35h0.52c0.19,0,0.35,0.16,0.35,0.35V398.88z M-279.04,396.75
		c0,0.2-0.16,0.35-0.35,0.35h-0.52c-0.19,0-0.35-0.16-0.35-0.35v-0.53c0-0.2,0.16-0.35,0.35-0.35h0.52c0.19,0,0.35,0.16,0.35,0.35
		V396.75z M-279.04,394.63c0,0.2-0.16,0.35-0.35,0.35h-0.52c-0.19,0-0.35-0.16-0.35-0.35v-0.53c0-0.2,0.16-0.35,0.35-0.35h0.52
		c0.19,0,0.35,0.16,0.35,0.35V394.63z M-279.04,392.5c0,0.2-0.16,0.35-0.35,0.35h-0.52c-0.19,0-0.35-0.16-0.35-0.35v-0.53
		c0-0.2,0.16-0.35,0.35-0.35h0.52c0.19,0,0.35,0.16,0.35,0.35V392.5z M-279.38,390.73h-0.52c-0.19,0-0.35-0.16-0.35-0.35v-0.53
		c0-0.2,0.16-0.35,0.35-0.35h0.52c0.19,0,0.35,0.16,0.35,0.35v0.53C-279.04,390.57-279.19,390.73-279.38,390.73z"/>
	<path id="XMLID_718_" class="st0" d="M-290.49,394.98h0.52c0.19,0,0.35-0.16,0.35-0.35v-0.53c0-0.2-0.16-0.35-0.35-0.35h-0.52
		c-0.19,0-0.35,0.16-0.35,0.35v0.53C-290.84,394.82-290.68,394.98-290.49,394.98z"/>
	<path id="XMLID_717_" class="st0" d="M-290.49,397.11h0.52c0.19,0,0.35-0.16,0.35-0.35v-0.53c0-0.2-0.16-0.35-0.35-0.35h-0.52
		c-0.19,0-0.35,0.16-0.35,0.35v0.53C-290.84,396.95-290.68,397.11-290.49,397.11z"/>
	<path id="XMLID_716_" class="st0" d="M-290.49,399.23h0.52c0.19,0,0.35-0.16,0.35-0.35v-0.53c0-0.2-0.16-0.35-0.35-0.35h-0.52
		c-0.19,0-0.35,0.16-0.35,0.35v0.53C-290.84,399.07-290.68,399.23-290.49,399.23z"/>
	<path id="XMLID_715_" class="st0" d="M-290.49,401.36h0.52c0.19,0,0.35-0.16,0.35-0.35v-0.53c0-0.2-0.16-0.35-0.35-0.35h-0.52
		c-0.19,0-0.35,0.16-0.35,0.35V401C-290.84,401.2-290.68,401.36-290.49,401.36z"/>
	<path id="XMLID_714_" class="st0" d="M-288.67,394.98h0.52c0.19,0,0.35-0.16,0.35-0.35v-0.53c0-0.2-0.16-0.35-0.35-0.35h-0.52
		c-0.19,0-0.35,0.16-0.35,0.35v0.53C-289.02,394.82-288.86,394.98-288.67,394.98z"/>
	<path id="XMLID_713_" class="st0" d="M-288.67,397.11h0.52c0.19,0,0.35-0.16,0.35-0.35v-0.53c0-0.2-0.16-0.35-0.35-0.35h-0.52
		c-0.19,0-0.35,0.16-0.35,0.35v0.53C-289.02,396.95-288.86,397.11-288.67,397.11z"/>
	<path id="XMLID_712_" class="st0" d="M-288.67,399.23h0.52c0.19,0,0.35-0.16,0.35-0.35v-0.53c0-0.2-0.16-0.35-0.35-0.35h-0.52
		c-0.19,0-0.35,0.16-0.35,0.35v0.53C-289.02,399.07-288.86,399.23-288.67,399.23z"/>
	<path id="XMLID_711_" class="st0" d="M-288.67,401.36h0.52c0.19,0,0.35-0.16,0.35-0.35v-0.53c0-0.2-0.16-0.35-0.35-0.35h-0.52
		c-0.19,0-0.35,0.16-0.35,0.35V401C-289.02,401.2-288.86,401.36-288.67,401.36z"/>
	<path id="XMLID_710_" class="st0" d="M-286.85,394.98h0.52c0.19,0,0.35-0.16,0.35-0.35v-0.53c0-0.2-0.16-0.35-0.35-0.35h-0.52
		c-0.19,0-0.35,0.16-0.35,0.35v0.53C-287.19,394.82-287.04,394.98-286.85,394.98z"/>
	<path id="XMLID_709_" class="st0" d="M-286.85,397.11h0.52c0.19,0,0.35-0.16,0.35-0.35v-0.53c0-0.2-0.16-0.35-0.35-0.35h-0.52
		c-0.19,0-0.35,0.16-0.35,0.35v0.53C-287.19,396.95-287.04,397.11-286.85,397.11z"/>
	<path id="XMLID_708_" class="st0" d="M-286.85,399.23h0.52c0.19,0,0.35-0.16,0.35-0.35v-0.53c0-0.2-0.16-0.35-0.35-0.35h-0.52
		c-0.19,0-0.35,0.16-0.35,0.35v0.53C-287.19,399.07-287.04,399.23-286.85,399.23z"/>
	<path id="XMLID_707_" class="st0" d="M-286.85,401.36h0.52c0.19,0,0.35-0.16,0.35-0.35v-0.53c0-0.2-0.16-0.35-0.35-0.35h-0.52
		c-0.19,0-0.35,0.16-0.35,0.35V401C-287.19,401.2-287.04,401.36-286.85,401.36z"/>
	<path id="XMLID_706_" class="st0" d="M-283.55,394.98h0.52c0.19,0,0.35-0.16,0.35-0.35v-0.53c0-0.2-0.16-0.35-0.35-0.35h-0.52
		c-0.19,0-0.35,0.16-0.35,0.35v0.53C-283.9,394.82-283.74,394.98-283.55,394.98z"/>
	<path id="XMLID_705_" class="st0" d="M-283.55,392.85h0.52c0.19,0,0.35-0.16,0.35-0.35v-0.53c0-0.2-0.16-0.35-0.35-0.35h-0.52
		c-0.19,0-0.35,0.16-0.35,0.35v0.53C-283.9,392.7-283.74,392.85-283.55,392.85z"/>
	<path id="XMLID_704_" class="st0" d="M-283.55,390.73h0.52c0.19,0,0.35-0.16,0.35-0.35v-0.53c0-0.2-0.16-0.35-0.35-0.35h-0.52
		c-0.19,0-0.35,0.16-0.35,0.35v0.53C-283.9,390.57-283.74,390.73-283.55,390.73z"/>
	<path id="XMLID_703_" class="st0" d="M-283.55,397.11h0.52c0.19,0,0.35-0.16,0.35-0.35v-0.53c0-0.2-0.16-0.35-0.35-0.35h-0.52
		c-0.19,0-0.35,0.16-0.35,0.35v0.53C-283.9,396.95-283.74,397.11-283.55,397.11z"/>
	<path id="XMLID_702_" class="st0" d="M-283.55,399.23h0.52c0.19,0,0.35-0.16,0.35-0.35v-0.53c0-0.2-0.16-0.35-0.35-0.35h-0.52
		c-0.19,0-0.35,0.16-0.35,0.35v0.53C-283.9,399.07-283.74,399.23-283.55,399.23z"/>
	<path id="XMLID_701_" class="st0" d="M-282.68,401v-0.53c0-0.2-0.16-0.35-0.35-0.35h-0.52c-0.19,0-0.35,0.16-0.35,0.35V401
		c0,0.2,0.16,0.35,0.35,0.35h0.52C-282.84,401.36-282.68,401.2-282.68,401z"/>
	<path id="XMLID_700_" class="st0" d="M-281.2,393.74h-0.52c-0.19,0-0.35,0.16-0.35,0.35v0.53c0,0.2,0.16,0.35,0.35,0.35h0.52
		c0.19,0,0.35-0.16,0.35-0.35v-0.53C-280.86,393.9-281.01,393.74-281.2,393.74z"/>
	<path id="XMLID_699_" class="st0" d="M-281.2,391.61h-0.52c-0.19,0-0.35,0.16-0.35,0.35v0.53c0,0.2,0.16,0.35,0.35,0.35h0.52
		c0.19,0,0.35-0.16,0.35-0.35v-0.53C-280.86,391.77-281.01,391.61-281.2,391.61z"/>
	<path id="XMLID_698_" class="st0" d="M-281.2,389.49h-0.52c-0.19,0-0.35,0.16-0.35,0.35v0.53c0,0.2,0.16,0.35,0.35,0.35h0.52
		c0.19,0,0.35-0.16,0.35-0.35v-0.53C-280.86,389.65-281.01,389.49-281.2,389.49z"/>
	<path id="XMLID_697_" class="st0" d="M-281.2,395.87h-0.52c-0.19,0-0.35,0.16-0.35,0.35v0.53c0,0.2,0.16,0.35,0.35,0.35h0.52
		c0.19,0,0.35-0.16,0.35-0.35v-0.53C-280.86,396.02-281.01,395.87-281.2,395.87z"/>
	<path id="XMLID_696_" class="st0" d="M-281.2,397.99h-0.52c-0.19,0-0.35,0.16-0.35,0.35v0.53c0,0.2,0.16,0.35,0.35,0.35h0.52
		c0.19,0,0.35-0.16,0.35-0.35v-0.53C-280.86,398.15-281.01,397.99-281.2,397.99z"/>
	<path id="XMLID_695_" class="st0" d="M-281.2,400.12h-0.52c-0.19,0-0.35,0.16-0.35,0.35V401c0,0.2,0.16,0.35,0.35,0.35h0.52
		c0.19,0,0.35-0.16,0.35-0.35v-0.53C-280.86,400.28-281.01,400.12-281.2,400.12z"/>
	<path id="XMLID_694_" class="st0" d="M-279.38,393.74h-0.52c-0.19,0-0.35,0.16-0.35,0.35v0.53c0,0.2,0.16,0.35,0.35,0.35h0.52
		c0.19,0,0.35-0.16,0.35-0.35v-0.53C-279.04,393.9-279.19,393.74-279.38,393.74z"/>
	<path id="XMLID_693_" class="st0" d="M-279.38,391.61h-0.52c-0.19,0-0.35,0.16-0.35,0.35v0.53c0,0.2,0.16,0.35,0.35,0.35h0.52
		c0.19,0,0.35-0.16,0.35-0.35v-0.53C-279.04,391.77-279.19,391.61-279.38,391.61z"/>
	<path id="XMLID_692_" class="st0" d="M-279.38,389.49h-0.52c-0.19,0-0.35,0.16-0.35,0.35v0.53c0,0.2,0.16,0.35,0.35,0.35h0.52
		c0.19,0,0.35-0.16,0.35-0.35v-0.53C-279.04,389.65-279.19,389.49-279.38,389.49z"/>
	<path id="XMLID_691_" class="st0" d="M-279.38,395.87h-0.52c-0.19,0-0.35,0.16-0.35,0.35v0.53c0,0.2,0.16,0.35,0.35,0.35h0.52
		c0.19,0,0.35-0.16,0.35-0.35v-0.53C-279.04,396.02-279.19,395.87-279.38,395.87z"/>
	<path id="XMLID_690_" class="st0" d="M-279.38,397.99h-0.52c-0.19,0-0.35,0.16-0.35,0.35v0.53c0,0.2,0.16,0.35,0.35,0.35h0.52
		c0.19,0,0.35-0.16,0.35-0.35v-0.53C-279.04,398.15-279.19,397.99-279.38,397.99z"/>
	<path id="XMLID_689_" class="st0" d="M-279.38,400.12h-0.52c-0.19,0-0.35,0.16-0.35,0.35V401c0,0.2,0.16,0.35,0.35,0.35h0.15
		c0.21-0.25,0.45-0.48,0.71-0.67v-0.22C-279.04,400.28-279.19,400.12-279.38,400.12z"/>
	<path id="XMLID_688_" class="st0" d="M-289.8,403.66c-0.19,0-0.35,0.16-0.35,0.35s0.16,0.35,0.35,0.35h0.01
		c0.19,0,0.35-0.16,0.35-0.35C-289.45,403.82-289.6,403.66-289.8,403.66L-289.8,403.66z"/>
	<path id="XMLID_687_" class="st0" d="M-282.85,403.66L-282.85,403.66c-0.2,0-0.36,0.16-0.36,0.35s0.16,0.35,0.35,0.35h0.01
		c0.19,0,0.35-0.16,0.35-0.35S-282.66,403.66-282.85,403.66z"/>
	<path id="XMLID_682_" class="st0" d="M-281.12,405.08v-1.42h0.54c0-0.24,0.03-0.48,0.07-0.71h-0.96c-0.19,0-0.35,0.16-0.35,0.35
		v1.77h-2.78v-0.71h0.73c0.19,0,0.35-0.16,0.35-0.35s-0.16-0.35-0.35-0.35h-0.73v-10.98v-4.32h6.25v11.95
		c0.22-0.09,0.45-0.17,0.69-0.22V388c0-0.2-0.16-0.35-0.35-0.35h-6.94c-0.19,0-0.35,0.16-0.35,0.35v4.32h-6.6
		c-0.19,0-0.35,0.16-0.35,0.35v12.4h-0.24c-0.19,0-0.35,0.16-0.35,0.35c0,0.2,0.16,0.35,0.35,0.35h0.59h3.47h2.08h1.39h3.47h1.54
		c-0.15-0.22-0.28-0.46-0.38-0.71H-281.12z M-286.67,405.08h-1.39v-1.42h1.39V405.08z M-285.28,405.08h-0.69v-1.77
		c0-0.2-0.16-0.35-0.35-0.35h-2.08c-0.19,0-0.35,0.16-0.35,0.35v1.77h-2.78v-0.71h0.73c0.19,0,0.35-0.16,0.35-0.35
		s-0.16-0.35-0.35-0.35h-0.73v-10.63h6.25"/>
</g>
</svg>
