<?xml version="1.0" encoding="utf-8"?>
<!-- Generator: Adobe Illustrator 19.0.0, SVG Export Plug-In . SVG Version: 6.00 Build 0)  -->
<svg version="1.1" id="Layer_1" xmlns="http://www.w3.org/2000/svg" xmlns:xlink="http://www.w3.org/1999/xlink" x="0px" y="0px"
	 viewBox="-294 386.7 21.2 21.3" style="enable-background:new -294 386.7 21.2 21.3;" xml:space="preserve">
<style type="text/css">
	.st0{fill:#28336D;}
</style>
<g id="XMLID_2_">
	<path id="XMLID_509_" class="st0" d="M-281.51,402.78c0-1.91,1.55-3.46,3.46-3.46c0.15,0,0.3,0.01,0.45,0.03v-1.59h0.26
		c0.42,0,0.82-0.16,1.11-0.46c0.61-0.61,0.61-1.61,0-2.22l0,0l-6.97-6.97c-0.3-0.3-0.69-0.46-1.11-0.46c-0.42,0-0.82,0.16-1.11,0.46
		l-6.97,6.97c0,0,0,0-0.01,0.01c-0.61,0.61-0.61,1.61,0,2.22c0.28,0.28,0.65,0.44,1.04,0.46c0.02,0,0.03,0,0.05,0h0.28v5.13
		c0,1.02,0.83,1.84,1.84,1.84h2.73c0.28,0,0.5-0.22,0.5-0.5v-4.02c0-0.46,0.38-0.84,0.84-0.84h1.61c0.46,0,0.84,0.38,0.84,0.84v4.02
		c0,0.28,0.22,0.5,0.5,0.5h1.27C-281.29,404.18-281.51,403.51-281.51,402.78z"/>
	<g id="surface1">
		<path id="XMLID_510_" class="st0" d="M-275.98,404.25c0.83-1.17,0.55-2.78-0.62-3.61s-2.78-0.55-3.61,0.62
			c-0.83,1.17-0.55,2.78,0.62,3.61c0.83,0.59,1.93,0.64,2.81,0.12l1.91,1.9c0.21,0.22,0.55,0.23,0.77,0.02
			c0.22-0.21,0.23-0.55,0.02-0.77c-0.01-0.01-0.01-0.01-0.02-0.02L-275.98,404.25z M-278.09,404.43c-0.92,0-1.67-0.75-1.67-1.67
			c0-0.92,0.75-1.67,1.67-1.67c0.92,0,1.67,0.75,1.67,1.67C-276.42,403.68-277.17,404.43-278.09,404.43
			C-278.09,404.43-278.09,404.43-278.09,404.43z"/>
	</g>
</g>
</svg>
