<?xml version="1.0" encoding="utf-8"?>
<!-- Generator: Adobe Illustrator 19.0.0, SVG Export Plug-In . SVG Version: 6.00 Build 0)  -->
<svg version="1.1" id="Layer_1" xmlns="http://www.w3.org/2000/svg" xmlns:xlink="http://www.w3.org/1999/xlink" x="0px" y="0px"
	 viewBox="-294 386.7 21.2 21.3" style="enable-background:new -294 386.7 21.2 21.3;" xml:space="preserve">
<style type="text/css">
	.st0{fill:#28336D;}
</style>
<g id="XMLID_346_">
	<g id="XMLID_426_">
		<path id="XMLID_427_" class="st0" d="M-277.78,406.99h-11.12c-1.89-0.03-2.4-1.5-2.41-2.27l0-13.04
			c-0.02-0.67,0.17-1.22,0.56-1.63c0.61-0.64,1.49-0.66,1.53-0.66l4.06-0.05l1.29-1.43c0.12-0.13,0.28-0.21,0.46-0.21
			c0,0,0,0,0.01,0c0.17,0,0.34,0.07,0.46,0.2l1.41,1.52l3.96-0.08l0.01,0c0.81,0.03,1.47,0.44,1.85,1.17
			c0.14,0.27,0.22,0.59,0.22,0.92l0.02,13.46c0,0.18-0.02,0.34-0.07,0.48c-0.29,0.91-1.13,1.34-1.61,1.51
			C-277.36,406.96-277.57,406.99-277.78,406.99z M-283.41,388.4l-1.27,1.41c-0.12,0.13-0.28,0.2-0.46,0.21l-4.08,0.05
			c-0.15,0-1.47,0.08-1.43,1.61l0,13.04c0,0.16,0.08,1.58,1.74,1.6h11.12c0.13,0,0.26-0.02,0.38-0.07c0.36-0.13,1-0.45,1.2-1.08
			c0.03-0.08,0.04-0.17,0.04-0.28l-0.02-13.46c0-0.22-0.05-0.43-0.14-0.6c-0.27-0.52-0.7-0.79-1.27-0.81l-3.97,0.08
			c-0.18,0-0.35-0.07-0.47-0.2L-283.41,388.4z"/>
	</g>
	<g id="XMLID_424_">
		<path id="XMLID_425_" class="st0" d="M-277.01,401.45L-277.01,401.45c-0.19,0-0.34-0.15-0.34-0.34v-8.73
			c0-0.19,0.15-0.34,0.34-0.34l0,0c0.19,0,0.34,0.15,0.34,0.34v8.73C-276.67,401.3-276.82,401.45-277.01,401.45z"/>
	</g>
	<g id="XMLID_422_">
		<path id="XMLID_423_" class="st0" d="M-279,395.07h-3.78c-0.19,0-0.34-0.15-0.34-0.34l0,0c0-0.19,0.15-0.34,0.34-0.34h3.78
			c0.19,0,0.34,0.15,0.34,0.34l0,0C-278.66,394.92-278.81,395.07-279,395.07z"/>
	</g>
	<g id="XMLID_420_">
		<path id="XMLID_421_" class="st0" d="M-279.13,402.94h-4.43c-0.19,0-0.34-0.15-0.34-0.34l0,0c0-0.19,0.15-0.34,0.34-0.34h4.43
			c0.19,0,0.34,0.15,0.34,0.34l0,0C-278.79,402.79-278.94,402.94-279.13,402.94z"/>
	</g>
	<g id="XMLID_418_">
		<path id="XMLID_419_" class="st0" d="M-279,397.7h-6.39c-0.19,0-0.34-0.15-0.34-0.34l0,0c0-0.19,0.15-0.34,0.34-0.34h6.39
			c0.19,0,0.34,0.15,0.34,0.34l0,0C-278.66,397.55-278.81,397.7-279,397.7z"/>
	</g>
	<g id="XMLID_416_">
		<path id="XMLID_417_" class="st0" d="M-279,400.29h-5.61c-0.19,0-0.34-0.15-0.34-0.34l0,0c0-0.19,0.15-0.34,0.34-0.34h5.61
			c0.19,0,0.34,0.15,0.34,0.34l0,0C-278.66,400.14-278.81,400.29-279,400.29z"/>
	</g>
	<g id="XMLID_412_">
		<path id="XMLID_413_" class="st0" d="M-287.5,395.74c-0.54,0-0.99-0.44-0.99-0.99c0-0.54,0.44-0.99,0.99-0.99s0.99,0.44,0.99,0.99
			C-286.51,395.29-286.96,395.74-287.5,395.74z M-287.5,394.43c-0.17,0-0.32,0.14-0.32,0.32c0,0.17,0.14,0.32,0.32,0.32
			s0.32-0.14,0.32-0.32C-287.18,394.57-287.33,394.43-287.5,394.43z"/>
	</g>
	<g id="XMLID_408_">
		<path id="XMLID_409_" class="st0" d="M-287.5,398.34c-0.54,0-0.99-0.44-0.99-0.99c0-0.54,0.44-0.99,0.99-0.99s0.99,0.44,0.99,0.99
			C-286.51,397.89-286.96,398.34-287.5,398.34z M-287.5,397.03c-0.17,0-0.32,0.14-0.32,0.32c0,0.17,0.14,0.32,0.32,0.32
			s0.32-0.14,0.32-0.32C-287.18,397.18-287.33,397.03-287.5,397.03z"/>
	</g>
	<g id="XMLID_404_">
		<path id="XMLID_405_" class="st0" d="M-287.5,400.95c-0.54,0-0.99-0.44-0.99-0.99c0-0.54,0.44-0.99,0.99-0.99s0.99,0.44,0.99,0.99
			C-286.51,400.51-286.96,400.95-287.5,400.95z M-287.5,399.64c-0.17,0-0.32,0.14-0.32,0.32c0,0.17,0.14,0.32,0.32,0.32
			s0.32-0.14,0.32-0.32C-287.18,399.79-287.33,399.64-287.5,399.64z"/>
	</g>
	<g id="XMLID_400_">
		<path id="XMLID_401_" class="st0" d="M-287.5,403.55c-0.54,0-0.99-0.44-0.99-0.99c0-0.54,0.44-0.99,0.99-0.99s0.99,0.44,0.99,0.99
			C-286.51,403.11-286.96,403.55-287.5,403.55z M-287.5,402.25c-0.17,0-0.32,0.14-0.32,0.32c0,0.17,0.14,0.32,0.32,0.32
			s0.32-0.14,0.32-0.32C-287.18,402.39-287.33,402.25-287.5,402.25z"/>
	</g>
	<g id="XMLID_398_">
		<path id="XMLID_399_" class="st0" d="M-277.84,405.84c-0.01,0-0.03,0-0.04,0l-11.05-0.01c-0.07,0-0.14-0.01-0.21-0.02
			c-0.47-0.11-0.98-0.49-0.97-1.26l-0.02-12.76c0-0.35,0.12-0.68,0.34-0.93c0.21-0.24,0.48-0.35,0.77-0.35l1,0
			c0.19,0,0.34,0.15,0.34,0.34l0,0c0,0.19-0.15,0.34-0.34,0.34l-1.01,0c-0.07,0-0.16,0.01-0.27,0.13c-0.11,0.12-0.17,0.29-0.17,0.48
			l0.02,12.76c0,0.34,0.14,0.54,0.44,0.6c0.02,0,0.04,0.01,0.07,0.01l11.06,0.01c0.13,0,0.31-0.02,0.44-0.26
			c0.05-0.08,0.08-0.19,0.08-0.29v-0.54c0-0.19,0.15-0.34,0.34-0.34l0,0c0.19,0,0.34,0.15,0.34,0.34v0.54
			c0,0.23-0.06,0.45-0.17,0.63C-277.07,405.63-277.42,405.84-277.84,405.84z"/>
	</g>
	<g id="XMLID_396_">
		<path id="XMLID_397_" class="st0" d="M-285.86,391.17h-0.8c-0.19,0-0.34-0.15-0.34-0.34l0,0c0-0.19,0.15-0.34,0.34-0.34h0.8
			c0.19,0,0.34,0.15,0.34,0.34l0,0C-285.53,391.02-285.68,391.17-285.86,391.17z"/>
	</g>
	<g id="XMLID_394_">
		<path id="XMLID_395_" class="st0" d="M-284.54,391.17h-0.24c-0.19,0-0.34-0.15-0.34-0.34l0,0c0-0.19,0.15-0.34,0.34-0.34h0.24
			c0.19,0,0.34,0.15,0.34,0.34l0,0C-284.21,391.02-284.36,391.17-284.54,391.17z"/>
	</g>
</g>
</svg>
