<?xml version="1.0" encoding="utf-8"?>
<!-- Generator: Adobe Illustrator 24.2.3, SVG Export Plug-In . SVG Version: 6.00 Build 0)  -->
<svg version="1.1" id="Layer_1" xmlns="http://www.w3.org/2000/svg" xmlns:xlink="http://www.w3.org/1999/xlink" x="0px" y="0px"
	 viewBox="-294 386.7 21.2 21.3" style="enable-background:new -294 386.7 21.2 21.3;" xml:space="preserve">
<style type="text/css">
	.st0{fill:#28336D;}
</style>
<g id="XMLID_545_">
	<g id="XMLID_570_">
		<path id="XMLID_571_" class="st0" d="M-277.2,407.08h-12.27c-2.08-0.03-2.65-1.65-2.65-2.51l0-14.38
			c-0.02-0.74,0.19-1.35,0.62-1.8c0.67-0.7,1.65-0.73,1.69-0.73l4.48-0.05l8.36,0l0.01,0c0.89,0.03,1.62,0.49,2.04,1.29
			c0.16,0.3,0.24,0.65,0.24,1.01l0.02,14.85c0,0.2-0.02,0.37-0.08,0.53c-0.32,1-1.25,1.47-1.78,1.66
			C-276.74,407.04-276.97,407.08-277.2,407.08z M-289.81,388.41c-0.16,0-1.62,0.09-1.57,1.78l0,14.39c0,0.17,0.08,1.74,1.92,1.77
			h12.27c0.15,0,0.29-0.02,0.42-0.07c0.4-0.14,1.1-0.49,1.32-1.19c0.03-0.09,0.04-0.19,0.04-0.3l-0.02-14.85
			c0-0.24-0.06-0.47-0.16-0.67c-0.3-0.57-0.77-0.87-1.4-0.89L-289.81,388.41z"/>
	</g>
	<g id="XMLID_568_">
		<path id="XMLID_569_" class="st0" d="M-278.54,393.59h-6.45c-0.2,0-0.37-0.17-0.37-0.37l0,0c0-0.2,0.17-0.37,0.37-0.37h6.45
			c0.2,0,0.37,0.17,0.37,0.37l0,0C-278.17,393.43-278.34,393.59-278.54,393.59z"/>
	</g>
	<g id="XMLID_566_">
		<path id="XMLID_567_" class="st0" d="M-278.68,402.27h-6.6c-0.2,0-0.37-0.17-0.37-0.37l0,0c0-0.2,0.17-0.37,0.37-0.37h6.6
			c0.2,0,0.37,0.17,0.37,0.37l0,0C-278.31,402.1-278.48,402.27-278.68,402.27z"/>
	</g>
	<g id="XMLID_564_">
		<path id="XMLID_565_" class="st0" d="M-278.54,396.49h-7.05c-0.2,0-0.37-0.17-0.37-0.37l0,0c0-0.2,0.17-0.37,0.37-0.37h7.05
			c0.2,0,0.37,0.17,0.37,0.37l0,0C-278.17,396.33-278.34,396.49-278.54,396.49z"/>
	</g>
	<g id="XMLID_562_">
		<path id="XMLID_563_" class="st0" d="M-278.54,399.34h-6.18c-0.2,0-0.37-0.17-0.37-0.37l0,0c0-0.2,0.17-0.37,0.37-0.37h6.18
			c0.2,0,0.37,0.17,0.37,0.37l0,0C-278.17,399.18-278.34,399.34-278.54,399.34z"/>
	</g>
	<g id="XMLID_558_">
		<path id="XMLID_559_" class="st0" d="M-287.92,394.32c-0.6,0-1.09-0.49-1.09-1.09c0-0.6,0.49-1.09,1.09-1.09
			c0.6,0,1.09,0.49,1.09,1.09C-286.83,393.83-287.32,394.32-287.92,394.32z M-287.92,392.89c-0.19,0-0.35,0.16-0.35,0.35
			c0,0.19,0.16,0.35,0.35,0.35c0.19,0,0.35-0.16,0.35-0.35C-287.57,393.04-287.73,392.89-287.92,392.89z"/>
	</g>
	<g id="XMLID_554_">
		<path id="XMLID_555_" class="st0" d="M-287.92,397.19c-0.6,0-1.09-0.49-1.09-1.09c0-0.6,0.49-1.09,1.09-1.09
			c0.6,0,1.09,0.49,1.09,1.09C-286.83,396.71-287.32,397.19-287.92,397.19z M-287.92,395.76c-0.19,0-0.35,0.16-0.35,0.35
			c0,0.19,0.16,0.35,0.35,0.35c0.19,0,0.35-0.16,0.35-0.35C-287.57,395.91-287.73,395.76-287.92,395.76z"/>
	</g>
	<g id="XMLID_550_">
		<path id="XMLID_551_" class="st0" d="M-287.92,400.07c-0.6,0-1.09-0.49-1.09-1.09c0-0.6,0.49-1.09,1.09-1.09
			c0.6,0,1.09,0.49,1.09,1.09C-286.83,399.59-287.32,400.07-287.92,400.07z M-287.92,398.64c-0.19,0-0.35,0.16-0.35,0.35
			c0,0.19,0.16,0.35,0.35,0.35c0.19,0,0.35-0.16,0.35-0.35C-287.57,398.79-287.73,398.64-287.92,398.64z"/>
	</g>
	<g id="XMLID_546_">
		<path id="XMLID_547_" class="st0" d="M-287.92,402.95c-0.6,0-1.09-0.49-1.09-1.09c0-0.6,0.49-1.09,1.09-1.09
			c0.6,0,1.09,0.49,1.09,1.09C-286.83,402.46-287.32,402.95-287.92,402.95z M-287.92,401.51c-0.19,0-0.35,0.16-0.35,0.35
			c0,0.19,0.16,0.35,0.35,0.35c0.19,0,0.35-0.16,0.35-0.35C-287.57,401.66-287.73,401.51-287.92,401.51z"/>
	</g>
</g>
</svg>
