<?xml version="1.0" encoding="utf-8"?>
<!-- Generator: Adobe Illustrator 19.0.0, SVG Export Plug-In . SVG Version: 6.00 Build 0)  -->
<svg version="1.1" id="Layer_1" xmlns="http://www.w3.org/2000/svg" xmlns:xlink="http://www.w3.org/1999/xlink" x="0px" y="0px"
	 viewBox="-294 386.7 21.2 21.3" style="enable-background:new -294 386.7 21.2 21.3;" xml:space="preserve">
<style type="text/css">
	.st0{fill:#28336D;}
</style>
<g id="XMLID_8_">
	<path id="XMLID_122_" class="st0" d="M-273.98,406.31l-1.88-1.87l0.04-0.06c0.37-0.52,0.52-1.16,0.41-1.8
		c-0.11-0.63-0.46-1.19-0.98-1.56c-0.52-0.37-1.16-0.51-1.8-0.41c-0.63,0.11-1.19,0.46-1.56,0.98c-0.37,0.53-0.52,1.16-0.41,1.8
		c0.11,0.63,0.46,1.19,0.98,1.56c0.77,0.55,1.8,0.59,2.61,0.11l0.06-0.04l0.03,0.03l1.86,1.85c0.08,0.09,0.19,0.13,0.32,0.14
		c0.11,0,0.22-0.04,0.29-0.12c0.08-0.08,0.13-0.19,0.13-0.3C-273.86,406.5-273.9,406.39-273.98,406.31z M-277.73,404.69v0.04
		l-0.11,0l0-0.04c-0.91-0.03-1.65-0.78-1.65-1.7c0-0.94,0.76-1.7,1.7-1.7c0.94,0,1.7,0.76,1.7,1.7
		C-276.08,403.9-276.82,404.66-277.73,404.69z"/>
	<path id="XMLID_650_" class="st0" d="M-281.59,404.49v-3.86c0-0.96-0.78-1.75-1.75-1.75h-1.68c-0.96,0-1.75,0.78-1.75,1.75v3.86
		h-2.51c-0.58,0-1.06-0.47-1.06-1.06v-5.89c0-0.19-0.15-0.34-0.34-0.34h-0.78l-0.02-0.18l0,0.18c-0.2,0-0.39-0.08-0.54-0.23
		c-0.3-0.3-0.3-0.8,0-1.1l7.29-7.29c0.15-0.15,0.34-0.23,0.55-0.23c0.21,0,0.4,0.08,0.55,0.23l7.29,7.29c0.3,0.31,0.3,0.8,0,1.1l0,0
		l0,0l0,0l0,0c-0.15,0.15-0.34,0.23-0.55,0.23h-0.79c-0.19,0-0.34,0.15-0.34,0.34v2.21c0.2-0.03,0.41-0.05,0.62-0.05
		c0.02,0,0.05,0,0.07,0v-1.82h0.45c0.39,0,0.76-0.15,1.04-0.43c0.57-0.57,0.57-1.49,0.01-2.06l-0.01-0.01l0,0l-7.29-7.29
		c-0.28-0.28-0.65-0.43-1.04-0.43c-0.39,0-0.76,0.15-1.04,0.43l-7.29,7.29c-0.58,0.58-0.57,1.51,0,2.08
		c0.26,0.26,0.61,0.41,0.97,0.43c0.02,0,0.03,0,0.04,0h0.47v5.54c0,0.96,0.78,1.75,1.75,1.75h2.85c0.19,0,0.34-0.15,0.34-0.34v-4.21
		c0-0.58,0.47-1.06,1.06-1.06h1.68c0.58,0,1.06,0.47,1.06,1.06v4.21c0,0.19,0.15,0.34,0.34,0.34h1.43
		c-0.13-0.22-0.24-0.45-0.32-0.69H-281.59z"/>
</g>
</svg>
