<?xml version="1.0" encoding="utf-8"?>
<!-- Generator: Adobe Illustrator 24.3.0, SVG Export Plug-In . SVG Version: 6.00 Build 0)  -->
<svg version="1.1" id="Layer_1" xmlns="http://www.w3.org/2000/svg" xmlns:xlink="http://www.w3.org/1999/xlink" x="0px" y="0px"
	 viewBox="-294 386.7 21.2 21.3" style="enable-background:new -294 386.7 21.2 21.3;" xml:space="preserve">
<style type="text/css">
	.st0{fill:#28336D;}
</style>
<g>
	<polygon class="st0" points="-275.6,394.68 -275.6,395.23 -274.63,395.23 -274.63,397.69 -274.08,397.69 -274.08,394.68 	"/>
	<polygon class="st0" points="-274.63,403.03 -276.24,403.03 -276.24,405.45 -282.11,403.03 -284.1,403.03 -284.1,403.58 
		-282.21,403.58 -275.69,406.26 -275.69,403.58 -274.08,403.58 -274.08,398.24 -274.63,398.24 	"/>
	<polygon class="st0" points="-292.17,388.19 -283.5,388.19 -283.5,387.64 -292.72,387.64 -292.72,393.56 -292.17,393.56 	"/>
	<polygon class="st0" points="-280.68,390.18 -280.14,390.18 -280.14,387.64 -282.96,387.64 -282.96,388.19 -280.68,388.19 	"/>
	<polygon class="st0" points="-280.14,396.58 -280.14,395.23 -277.49,395.23 -277.49,394.68 -280.14,394.68 -280.14,392.07 
		-280.68,392.07 -280.68,396.03 -284.69,396.03 -290.56,398.45 -290.56,396.03 -292.17,396.03 -292.17,394.11 -292.72,394.11 
		-292.72,396.58 -291.11,396.58 -291.11,399.26 -286.66,397.43 -286.66,403.58 -284.65,403.58 -284.65,403.03 -286.12,403.03 
		-286.12,397.21 -284.59,396.58 	"/>
	<polygon class="st0" points="-281.47,390.85 -282.67,390.85 -282.04,390.22 -282.43,389.84 -283.71,391.12 -282.43,392.41 
		-282.04,392.02 -282.67,391.4 -281.47,391.4 	"/>
	<rect x="-279.83" y="390.85" class="st0" width="0.55" height="0.55"/>
	<rect x="-280.92" y="390.85" class="st0" width="0.55" height="0.55"/>
	<rect x="-276.82" y="394.95" class="st0" width="0.55" height="0.55"/>
	<rect x="-276.82" y="393.86" class="st0" width="0.55" height="0.55"/>
	<polygon class="st0" points="-275.65,396.58 -276.27,397.21 -276.27,396.05 -276.82,396.05 -276.82,397.21 -277.45,396.58 
		-277.83,396.97 -276.55,398.26 -275.26,396.97 	"/>
	<rect x="-287.96" y="401.46" class="st0" width="0.55" height="0.55"/>
	<polygon class="st0" points="-289.32,400.64 -289.87,400.64 -289.87,402.01 -288.5,402.01 -288.5,401.46 -289.32,401.46 	"/>
	<rect x="-289.87" y="399.55" class="st0" width="0.55" height="0.55"/>
	<path class="st0" d="M-276.82,393.31h0.55c0-1.36-1.1-2.46-2.46-2.46v0.55C-277.68,391.4-276.82,392.26-276.82,393.31z"/>
	<rect x="-285.57" y="401.7" class="st0" width="0.55" height="0.55"/>
	<rect x="-291.04" y="389.26" class="st0" width="0.55" height="0.55"/>
	<rect x="-282.65" y="394.41" class="st0" width="0.55" height="0.55"/>
	<rect x="-276.05" y="401.7" class="st0" width="0.55" height="0.55"/>
	<path class="st0" d="M-285.06,391.2c0-0.95-0.78-1.73-1.73-1.73s-1.73,0.78-1.73,1.73v1.82c0,0.95,0.78,1.73,1.73,1.73
		c0.38,0,0.73-0.12,1.02-0.33l0.43,0.43l0.39-0.39l-0.43-0.43c0.21-0.29,0.33-0.64,0.33-1.02V391.2z M-285.61,393.02
		c0,0.23-0.06,0.44-0.18,0.62l-0.41-0.41l-0.39,0.39l0.41,0.41c-0.18,0.11-0.39,0.18-0.62,0.18c-0.65,0-1.18-0.53-1.18-1.18v-1.82
		c0-0.65,0.53-1.18,1.18-1.18c0.65,0,1.18,0.53,1.18,1.18V393.02z"/>
	<path class="st0" d="M-282.1,402.15l0.53,0.12l0.3-1.28h1.78l0.3,1.28l0.53-0.12l-1.14-4.88h-1.16L-282.1,402.15z M-280.23,397.81
		l0.62,2.63h-1.53l0.62-2.63H-280.23z"/>
</g>
</svg>
