<?xml version="1.0" encoding="utf-8"?>
<!-- Generator: Adobe Illustrator 24.3.0, SVG Export Plug-In . SVG Version: 6.00 Build 0)  -->
<svg version="1.1" id="Layer_1" xmlns="http://www.w3.org/2000/svg" xmlns:xlink="http://www.w3.org/1999/xlink" x="0px" y="0px"
	 viewBox="-294 386.7 21.2 21.3" style="enable-background:new -294 386.7 21.2 21.3;" xml:space="preserve">
<style type="text/css">
	.st0{fill:#28336D;}
</style>
<path class="st0" d="M-1956.28,7.65c0,1.16,0.94,2.1,2.1,2.1h5.1l0.06,0.17c0.47,1.31,1.7,2.19,3.08,2.19
	c1.37,0,2.61-0.88,3.08-2.19l0.06-0.17h10.2l0.06,0.17c0.47,1.31,1.7,2.19,3.08,2.19c1.37,0,2.61-0.88,3.08-2.19l0.06-0.17h5.1
	c1.16,0,2.1-0.94,2.1-2.1V-2.94c0-3.11-2.53-5.63-5.63-5.63h-6.28l-0.06-0.17c-0.47-1.31-1.7-2.19-3.08-2.19H-1953
	c-1.81,0-3.28,1.47-3.28,3.28V7.65z M-1920.98,0.84h-5.21v-1.43c0-0.79,0.64-1.43,1.43-1.43h3.78V0.84z M-1930.89-6.72h6.13
	c1.59,0,3.01,1.01,3.55,2.52l0.12,0.33h-3.67c-1.81,0-3.28,1.47-3.28,3.28v3.28h7.06V7.9h-5.35l-0.06-0.17
	c-0.47-1.31-1.7-2.19-3.08-2.19c-0.35,0-0.71,0.07-1.09,0.2l-0.33,0.12V-6.72z M-1929.46,7.4c0.79,0,1.43,0.64,1.43,1.43
	s-0.64,1.43-1.43,1.43s-1.43-0.64-1.43-1.43S-1930.25,7.4-1929.46,7.4z M-1945.94,10.25c-0.79,0-1.43-0.64-1.43-1.43
	s0.64-1.43,1.43-1.43s1.43,0.64,1.43,1.43S-1945.15,10.25-1945.94,10.25z M-1954.42-7.65c0-0.79,0.64-1.43,1.43-1.43h18.83
	c0.79,0,1.43,0.64,1.43,1.43V7.9h-10.06l-0.06-0.17c-0.47-1.31-1.7-2.19-3.08-2.19c-1.38,0-2.61,0.88-3.08,2.19l-0.06,0.17h-5.35
	V-7.65z"/>
<rect x="-1951.57" y="-6.22" class="st0" width="1.85" height="8.91"/>
<rect x="-1946.86" y="-6.22" class="st0" width="1.85" height="8.91"/>
<rect x="-1942.16" y="-6.22" class="st0" width="1.85" height="8.91"/>
<rect x="-1937.45" y="-6.22" class="st0" width="1.85" height="8.91"/>
<path class="st0" d="M-1957.7-60.35h-18.83c-1.37,0-2.61,0.88-3.08,2.19l-0.06,0.17h-6.28c-3.11,0-5.63,2.53-5.63,5.63v10.59
	c0,1.16,0.94,2.1,2.1,2.1h5.1l0.06,0.17c0.47,1.31,1.7,2.19,3.08,2.19s2.61-0.88,3.08-2.19l0.06-0.17h10.2l0.06,0.17
	c0.47,1.31,1.7,2.19,3.08,2.19s2.61-0.88,3.08-2.19l0.06-0.17h5.1c1.16,0,2.1-0.94,2.1-2.1v-15.3
	C-1954.42-58.88-1955.89-60.35-1957.7-60.35z M-1989.72-51.43h3.78c0.79,0,1.43,0.64,1.43,1.43v1.43h-5.21V-51.43z M-1981.23-39.17
	c-0.79,0-1.43-0.64-1.43-1.43s0.64-1.43,1.43-1.43s1.43,0.64,1.43,1.43S-1980.45-39.17-1981.23-39.17z M-1979.81-43.55l-0.33-0.12
	c-0.38-0.14-0.74-0.2-1.09-0.2c-1.37,0-2.61,0.88-3.08,2.19l-0.06,0.17h-5.35v-5.21h7.06v-3.28c0-1.81-1.47-3.28-3.28-3.28h-3.67
	l0.12-0.33c0.54-1.51,1.96-2.52,3.55-2.52h6.13V-43.55z M-1964.76-39.17c-0.79,0-1.43-0.64-1.43-1.43s0.64-1.43,1.43-1.43
	s1.43,0.64,1.43,1.43S-1963.98-39.17-1964.76-39.17z M-1956.28-41.52h-5.35l-0.06-0.17c-0.47-1.31-1.7-2.19-3.08-2.19
	c-1.37,0-2.61,0.88-3.08,2.19l-0.06,0.17h-10.06v-15.55c0-0.79,0.64-1.43,1.43-1.43h18.83c0.79,0,1.43,0.64,1.43,1.43V-41.52z"/>
<rect x="-1960.98" y="-55.64" class="st0" width="1.85" height="8.91"/>
<rect x="-1965.69" y="-55.64" class="st0" width="1.85" height="8.91"/>
<rect x="-1970.4" y="-55.64" class="st0" width="1.85" height="8.91"/>
<rect x="-1975.1" y="-55.64" class="st0" width="1.85" height="8.91"/>
<path class="st0" d="M-1947.11-34.46h-16.47c-1.16,0-2.1,0.94-2.1,2.1v16.47c0,1.16,0.94,2.1,2.1,2.1h16.47c1.16,0,2.1-0.94,2.1-2.1
	v-16.47C-1945.01-33.52-1945.95-34.46-1947.11-34.46z M-1956.78-32.61h2.85v2.85h-2.85V-32.61z M-1963.84-15.63v-16.97h5.21v4.71
	h6.56v-4.71h5.21l0,16.97H-1963.84z"/>
<rect x="-1951.57" y="-20.34" class="st0" width="1.85" height="1.85"/>
<rect x="-1956.28" y="-20.34" class="st0" width="1.85" height="1.85"/>
<rect x="-1942.16" y="-25.05" class="st0" width="1.85" height="1.85"/>
<rect x="-1937.45" y="-25.05" class="st0" width="1.85" height="1.85"/>
<path class="st0" d="M-1919.12-37.06c0-7.65-6.22-13.87-13.87-13.87h-14.24l2.95-2.95l-1.31-1.31l-5.19,5.18l5.19,5.19l1.31-1.31
	l-2.95-2.95h14.24c6.63,0,12.02,5.39,12.02,12.02c0,6.54-5.26,11.88-11.77,12.01v1.85C-1925.21-23.33-1919.12-29.5-1919.12-37.06z"
	/>
<rect x="-1970.4" y="-25.05" class="st0" width="1.85" height="1.85"/>
<rect x="-1975.1" y="-25.05" class="st0" width="1.85" height="1.85"/>
<path class="st0" d="M-1959.92,1.76l-5.19-5.19l-1.31,1.31l2.95,2.95h-14.24c-6.63,0-12.02-5.39-12.02-12.02
	c0-6.54,5.26-11.88,11.77-12.01v-1.85c-7.53,0.13-13.62,6.3-13.62,13.87c0,7.65,6.22,13.87,13.87,13.87h14.24l-2.95,2.95l1.31,1.31
	L-1959.92,1.76z"/>
<g>
	<path class="st0" d="M-275.38,393.28h-4.04v-2.81c0-0.83-0.68-1.51-1.51-1.51h-10.49c-0.83,0-1.51,0.68-1.51,1.51v4.16
		c0,0.15,0.13,0.28,0.28,0.28c0.15,0,0.28-0.13,0.28-0.28v-4.16c0-0.53,0.43-0.95,0.95-0.95h10.49c0.53,0,0.95,0.43,0.95,0.95v7.41
		c0,0.53-0.43,0.95-0.95,0.95h-6.04c-0.16,0-0.3,0.06-0.42,0.17l-1.85,1.85c-0.01,0.01-0.01,0.01-0.03,0.01
		c-0.02-0.01-0.02-0.02-0.02-0.03v-1.42c0-0.32-0.26-0.59-0.59-0.59h-1.54c-0.53,0-0.95-0.43-0.95-0.95v-2.13
		c0-0.15-0.13-0.28-0.28-0.28c-0.15,0-0.28,0.13-0.28,0.28v2.13c0,0.83,0.68,1.51,1.51,1.51h1.54c0.02,0,0.03,0.01,0.03,0.03v1.42
		c0,0.24,0.14,0.45,0.36,0.54c0.07,0.03,0.15,0.05,0.23,0.05c0.15,0,0.3-0.06,0.42-0.17l1.46-1.46v2.41c0,0.83,0.68,1.51,1.51,1.51
		h3.38c0.15,0,0.28-0.13,0.28-0.28c0-0.15-0.13-0.28-0.28-0.28h-3.38c-0.53,0-0.95-0.43-0.95-0.95v-2.81h5.89
		c0.83,0,1.51-0.68,1.51-1.51v-4.04h4.04c0.53,0,0.95,0.43,0.95,0.95v7.41c0,0.53-0.43,0.95-0.95,0.95h-1.54
		c-0.32,0-0.59,0.26-0.59,0.59v1.42c0,0.01,0,0.02-0.02,0.03c-0.02,0.01-0.03,0-0.03-0.01l-1.85-1.85
		c-0.11-0.11-0.26-0.17-0.42-0.17h-1.54c-0.15,0-0.28,0.13-0.28,0.28s0.13,0.28,0.28,0.28h1.54c0.01,0,0.02,0,0.02,0.01l1.85,1.85
		c0.11,0.11,0.26,0.17,0.42,0.17c0.08,0,0.15-0.01,0.23-0.05c0.22-0.09,0.36-0.3,0.36-0.54v-1.42c0-0.02,0.01-0.03,0.03-0.03h1.54
		c0.83,0,1.51-0.68,1.51-1.51v-7.41C-273.86,393.96-274.54,393.28-275.38,393.28L-275.38,393.28z"/>
	<path class="st0" d="M-284.3,400.96c0,0.49,0.4,0.9,0.9,0.9c0.49,0,0.9-0.4,0.9-0.9s-0.4-0.9-0.9-0.9
		C-283.89,400.07-284.3,400.47-284.3,400.96z M-283.06,400.96c0,0.19-0.15,0.34-0.34,0.34s-0.34-0.15-0.34-0.34s0.15-0.34,0.34-0.34
		S-283.06,400.78-283.06,400.96z"/>
	<path class="st0" d="M-287.07,397.26c0,0.49,0.4,0.9,0.9,0.9c0.49,0,0.9-0.4,0.9-0.9c0-0.49-0.4-0.9-0.9-0.9
		S-287.07,396.77-287.07,397.26L-287.07,397.26z M-285.84,397.26c0,0.19-0.15,0.34-0.34,0.34c-0.19,0-0.34-0.15-0.34-0.34
		s0.15-0.34,0.34-0.34C-285.99,396.92-285.84,397.07-285.84,397.26L-285.84,397.26z"/>
	<path class="st0" d="M-285.28,394.26c0.8-0.37,1.29-1.2,1.23-2.08c-0.07-1.05-0.92-1.9-1.98-1.98c-0.59-0.04-1.17,0.17-1.6,0.57
		c-0.43,0.4-0.68,0.97-0.68,1.56c0,0.49,0.4,0.9,0.9,0.9s0.9-0.4,0.9-0.9c0-0.1,0.04-0.18,0.11-0.25c0.07-0.06,0.16-0.1,0.26-0.09
		c0.16,0.01,0.3,0.15,0.31,0.31c0.01,0.15-0.07,0.28-0.21,0.34c-0.62,0.26-1.02,0.86-1.02,1.54v0.62c0,0.49,0.4,0.9,0.9,0.9
		s0.9-0.4,0.9-0.9L-285.28,394.26L-285.28,394.26z M-285.58,393.78c-0.16,0.06-0.26,0.22-0.26,0.4v0.62c0,0.19-0.15,0.34-0.34,0.34
		c-0.19,0-0.34-0.15-0.34-0.34v-0.62c0-0.45,0.27-0.85,0.68-1.02c0.36-0.15,0.58-0.51,0.55-0.89c-0.03-0.44-0.39-0.8-0.83-0.83
		c-0.02,0-0.04,0-0.06,0c-0.23,0-0.44,0.08-0.61,0.24c-0.18,0.17-0.29,0.4-0.29,0.66c0,0.19-0.15,0.34-0.34,0.34
		c-0.19,0-0.34-0.15-0.34-0.34c0-0.43,0.18-0.85,0.5-1.15c0.32-0.3,0.75-0.45,1.18-0.42c0.78,0.05,1.4,0.68,1.46,1.46
		C-284.56,392.89-284.95,393.52-285.58,393.78L-285.58,393.78z"/>
	<path class="st0" d="M-276.95,400.96c0-0.49-0.4-0.9-0.9-0.9s-0.9,0.4-0.9,0.9s0.4,0.9,0.9,0.9S-276.95,401.46-276.95,400.96z
		 M-278.18,400.96c0-0.19,0.15-0.34,0.34-0.34s0.34,0.15,0.34,0.34s-0.15,0.34-0.34,0.34C-278.03,401.3-278.18,401.15-278.18,400.96
		z"/>
	<path class="st0" d="M-280.62,401.86c0.49,0,0.9-0.4,0.9-0.9s-0.4-0.9-0.9-0.9c-0.49,0-0.9,0.4-0.9,0.9
		S-281.12,401.86-280.62,401.86z M-280.62,400.62c0.19,0,0.34,0.15,0.34,0.34s-0.15,0.34-0.34,0.34c-0.19,0-0.34-0.15-0.34-0.34
		S-280.81,400.62-280.62,400.62z"/>
</g>
</svg>
