<?xml version="1.0" encoding="utf-8"?>
<!-- Generator: Adobe Illustrator 24.3.0, SVG Export Plug-In . SVG Version: 6.00 Build 0)  -->
<svg version="1.1" id="Layer_1" xmlns="http://www.w3.org/2000/svg" xmlns:xlink="http://www.w3.org/1999/xlink" x="0px" y="0px"
	 viewBox="-294 386.7 21.2 21.3" style="enable-background:new -294 386.7 21.2 21.3;" xml:space="preserve">
<style type="text/css">
	.st0{fill:#28336D;}
</style>
<path class="st0" d="M-1956.28,7.65c0,1.16,0.94,2.1,2.1,2.1h5.1l0.06,0.17c0.47,1.31,1.7,2.19,3.08,2.19
	c1.37,0,2.61-0.88,3.08-2.19l0.06-0.17h10.2l0.06,0.17c0.47,1.31,1.7,2.19,3.08,2.19c1.37,0,2.61-0.88,3.08-2.19l0.06-0.17h5.1
	c1.16,0,2.1-0.94,2.1-2.1V-2.94c0-3.11-2.53-5.63-5.63-5.63h-6.28l-0.06-0.17c-0.47-1.31-1.7-2.19-3.08-2.19H-1953
	c-1.81,0-3.28,1.47-3.28,3.28V7.65z M-1920.98,0.84h-5.21v-1.43c0-0.79,0.64-1.43,1.43-1.43h3.78V0.84z M-1930.89-6.72h6.13
	c1.59,0,3.01,1.01,3.55,2.52l0.12,0.33h-3.67c-1.81,0-3.28,1.47-3.28,3.28v3.28h7.06V7.9h-5.35l-0.06-0.17
	c-0.47-1.31-1.7-2.19-3.08-2.19c-0.35,0-0.71,0.07-1.09,0.2l-0.33,0.12V-6.72z M-1929.46,7.4c0.79,0,1.43,0.64,1.43,1.43
	s-0.64,1.43-1.43,1.43s-1.43-0.64-1.43-1.43S-1930.25,7.4-1929.46,7.4z M-1945.94,10.25c-0.79,0-1.43-0.64-1.43-1.43
	s0.64-1.43,1.43-1.43s1.43,0.64,1.43,1.43S-1945.15,10.25-1945.94,10.25z M-1954.42-7.65c0-0.79,0.64-1.43,1.43-1.43h18.83
	c0.79,0,1.43,0.64,1.43,1.43V7.9h-10.06l-0.06-0.17c-0.47-1.31-1.7-2.19-3.08-2.19c-1.38,0-2.61,0.88-3.08,2.19l-0.06,0.17h-5.35
	V-7.65z"/>
<rect x="-1951.57" y="-6.22" class="st0" width="1.85" height="8.91"/>
<rect x="-1946.86" y="-6.22" class="st0" width="1.85" height="8.91"/>
<rect x="-1942.16" y="-6.22" class="st0" width="1.85" height="8.91"/>
<rect x="-1937.45" y="-6.22" class="st0" width="1.85" height="8.91"/>
<path class="st0" d="M-1957.7-60.35h-18.83c-1.37,0-2.61,0.88-3.08,2.19l-0.06,0.17h-6.28c-3.11,0-5.63,2.53-5.63,5.63v10.59
	c0,1.16,0.94,2.1,2.1,2.1h5.1l0.06,0.17c0.47,1.31,1.7,2.19,3.08,2.19s2.61-0.88,3.08-2.19l0.06-0.17h10.2l0.06,0.17
	c0.47,1.31,1.7,2.19,3.08,2.19s2.61-0.88,3.08-2.19l0.06-0.17h5.1c1.16,0,2.1-0.94,2.1-2.1v-15.3
	C-1954.42-58.88-1955.89-60.35-1957.7-60.35z M-1989.72-51.43h3.78c0.79,0,1.43,0.64,1.43,1.43v1.43h-5.21V-51.43z M-1981.23-39.17
	c-0.79,0-1.43-0.64-1.43-1.43s0.64-1.43,1.43-1.43s1.43,0.64,1.43,1.43S-1980.45-39.17-1981.23-39.17z M-1979.81-43.55l-0.33-0.12
	c-0.38-0.14-0.74-0.2-1.09-0.2c-1.37,0-2.61,0.88-3.08,2.19l-0.06,0.17h-5.35v-5.21h7.06v-3.28c0-1.81-1.47-3.28-3.28-3.28h-3.67
	l0.12-0.33c0.54-1.51,1.96-2.52,3.55-2.52h6.13V-43.55z M-1964.76-39.17c-0.79,0-1.43-0.64-1.43-1.43s0.64-1.43,1.43-1.43
	s1.43,0.64,1.43,1.43S-1963.98-39.17-1964.76-39.17z M-1956.28-41.52h-5.35l-0.06-0.17c-0.47-1.31-1.7-2.19-3.08-2.19
	c-1.37,0-2.61,0.88-3.08,2.19l-0.06,0.17h-10.06v-15.55c0-0.79,0.64-1.43,1.43-1.43h18.83c0.79,0,1.43,0.64,1.43,1.43V-41.52z"/>
<rect x="-1960.98" y="-55.64" class="st0" width="1.85" height="8.91"/>
<rect x="-1965.69" y="-55.64" class="st0" width="1.85" height="8.91"/>
<rect x="-1970.4" y="-55.64" class="st0" width="1.85" height="8.91"/>
<rect x="-1975.1" y="-55.64" class="st0" width="1.85" height="8.91"/>
<path class="st0" d="M-1947.11-34.46h-16.47c-1.16,0-2.1,0.94-2.1,2.1v16.47c0,1.16,0.94,2.1,2.1,2.1h16.47c1.16,0,2.1-0.94,2.1-2.1
	v-16.47C-1945.01-33.52-1945.95-34.46-1947.11-34.46z M-1956.78-32.61h2.85v2.85h-2.85V-32.61z M-1963.84-15.63v-16.97h5.21v4.71
	h6.56v-4.71h5.21l0,16.97H-1963.84z"/>
<rect x="-1951.57" y="-20.34" class="st0" width="1.85" height="1.85"/>
<rect x="-1956.28" y="-20.34" class="st0" width="1.85" height="1.85"/>
<rect x="-1942.16" y="-25.05" class="st0" width="1.85" height="1.85"/>
<rect x="-1937.45" y="-25.05" class="st0" width="1.85" height="1.85"/>
<path class="st0" d="M-1919.12-37.06c0-7.65-6.22-13.87-13.87-13.87h-14.24l2.95-2.95l-1.31-1.31l-5.19,5.18l5.19,5.19l1.31-1.31
	l-2.95-2.95h14.24c6.63,0,12.02,5.39,12.02,12.02c0,6.54-5.26,11.88-11.77,12.01v1.85C-1925.21-23.33-1919.12-29.5-1919.12-37.06z"
	/>
<rect x="-1970.4" y="-25.05" class="st0" width="1.85" height="1.85"/>
<rect x="-1975.1" y="-25.05" class="st0" width="1.85" height="1.85"/>
<path class="st0" d="M-1959.92,1.76l-5.19-5.19l-1.31,1.31l2.95,2.95h-14.24c-6.63,0-12.02-5.39-12.02-12.02
	c0-6.54,5.26-11.88,11.77-12.01v-1.85c-7.53,0.13-13.62,6.3-13.62,13.87c0,7.65,6.22,13.87,13.87,13.87h14.24l-2.95,2.95l1.31,1.31
	L-1959.92,1.76z"/>
<path class="st0" d="M-279.41,405.86h4.3c0.18,0,0.32-0.14,0.32-0.32v-5.62c0-0.18-0.14-0.32-0.32-0.32s-0.32,0.14-0.32,0.32v5.3
	h-3.66v-7.43h3.98c0.18,0,0.32-0.14,0.32-0.32c0-0.18-0.14-0.32-0.32-0.32h-4.3c-0.18,0-0.32,0.14-0.32,0.32v0.45l-2.84-2.84
	c-0.37-0.37-0.92-0.48-1.4-0.3l-0.45,0.17l0.35-0.33c0.86-0.82,1.33-1.93,1.33-3.12c0-1.59-0.87-3.05-2.26-3.81
	c-0.1-0.05-0.22-0.05-0.32,0.01c-0.1,0.06-0.16,0.16-0.16,0.28v3.83h-3.2v-3.83c0-0.11-0.06-0.22-0.16-0.28
	c-0.1-0.06-0.22-0.06-0.32-0.01c-1.4,0.76-2.26,2.22-2.26,3.81c0,1.28,0.56,2.49,1.55,3.31l0.04,0.03v1.24h-0.86
	c-0.73,0-1.33,0.59-1.33,1.33c0,0.37,0.14,0.71,0.39,0.96l0.07,0.07l-0.07,0.07c-0.25,0.25-0.39,0.58-0.39,0.94
	c0,0.37,0.14,0.71,0.39,0.96l0.07,0.07l-0.07,0.07c-0.25,0.25-0.39,0.58-0.39,0.94c0,0.37,0.14,0.71,0.39,0.96l0.07,0.07l-0.07,0.07
	c-0.25,0.25-0.39,0.58-0.39,0.94c0,0.75,0.59,1.35,1.33,1.35h0.9l0.02,0.08c0.28,1.24,1.4,2.14,2.67,2.14h0.05
	c1.27,0,2.39-0.9,2.66-2.14l0.02-0.08h3.42c0.18,0,0.32-0.14,0.32-0.32c0-0.18-0.14-0.32-0.32-0.32h-3.38v-3.56
	c0-0.18-0.14-0.32-0.32-0.32c-0.18,0-0.32,0.14-0.32,0.32v3.68c0,1.15-0.94,2.09-2.09,2.09h-0.05c-0.91,0-1.71-0.58-1.99-1.44
	l-0.04-0.13h0.8c0.73,0,1.33-0.59,1.33-1.33c0-0.37-0.14-0.71-0.39-0.96l-0.07-0.07l0.07-0.07c0.25-0.25,0.39-0.58,0.39-0.94
	c0-0.37-0.14-0.71-0.39-0.96l-0.07-0.07l0.07-0.07c0.25-0.25,0.39-0.58,0.39-0.94c0-0.37-0.14-0.71-0.39-0.96l-0.07-0.07l0.07-0.07
	c0.25-0.25,0.39-0.58,0.39-0.94c0-0.75-0.59-1.35-1.33-1.35h-0.86v-1.39c0-0.1-0.05-0.19-0.13-0.25c-0.92-0.71-1.46-1.78-1.46-2.93
	c0-1.08,0.47-2.11,1.29-2.81l0.16-0.14v3.57c0,0.18,0.14,0.32,0.32,0.32h3.84c0.18,0,0.32-0.14,0.32-0.32v-3.57l0.16,0.14
	c0.82,0.7,1.29,1.73,1.29,2.81c0,1.16-0.53,2.23-1.46,2.93c-0.08,0.06-0.13,0.16-0.13,0.25v0.92l-1.14,1.14
	c-0.25,0.25-0.39,0.58-0.39,0.94c0,0.35,0.14,0.69,0.39,0.94c0.26,0.26,0.6,0.4,0.95,0.4c0.35,0,0.69-0.14,0.94-0.39l0.83-0.83
	c0.06-0.06,0.09-0.14,0.09-0.23s-0.03-0.17-0.09-0.23c-0.12-0.12-0.33-0.12-0.45,0l-0.83,0.83c-0.26,0.26-0.71,0.26-0.97,0
	c-0.14-0.14-0.22-0.32-0.22-0.5c0-0.18,0.07-0.36,0.2-0.49l1.66-1.66c0.13-0.13,0.3-0.2,0.48-0.2c0,0,0,0,0,0
	c0.18,0,0.36,0.07,0.48,0.2l3.29,3.29v6.71C-279.73,405.71-279.58,405.86-279.41,405.86z M-287.65,403.52
	c0,0.38-0.31,0.69-0.69,0.69h-2.35c-0.38,0-0.69-0.31-0.69-0.69c0-0.4,0.31-0.71,0.69-0.71h2.35c0.38,0,0.69,0.31,0.69,0.69V403.52z
	 M-287.65,401.48c0,0.38-0.31,0.69-0.69,0.69h-2.35c-0.38,0-0.69-0.31-0.69-0.69c0-0.4,0.31-0.71,0.69-0.71h2.35
	c0.38,0,0.69,0.31,0.69,0.69V401.48z M-287.65,399.45c0,0.38-0.31,0.69-0.69,0.69h-2.35c-0.38,0-0.69-0.31-0.69-0.69
	c0-0.4,0.31-0.71,0.69-0.71h2.35c0.38,0,0.69,0.31,0.69,0.69V399.45z M-288.33,396.71c0.38,0,0.69,0.31,0.69,0.69v0.02
	c0,0.38-0.31,0.69-0.69,0.69h-2.35c-0.38,0-0.69-0.31-0.69-0.69c0-0.4,0.31-0.71,0.69-0.71H-288.33z"/>
</svg>
