<?xml version="1.0" encoding="utf-8"?>
<!-- Generator: Adobe Illustrator 24.3.0, SVG Export Plug-In . SVG Version: 6.00 Build 0)  -->
<svg version="1.1" id="Layer_1" xmlns="http://www.w3.org/2000/svg" xmlns:xlink="http://www.w3.org/1999/xlink" x="0px" y="0px"
	 viewBox="-294 386.7 21.2 21.3" style="enable-background:new -294 386.7 21.2 21.3;" xml:space="preserve">
<style type="text/css">
	.st0{fill:#28336D;}
</style>
<g>
	<path class="st0" d="M-275.14,391.81c0-0.7-0.57-1.27-1.27-1.27h-3.44v-1.63c0-0.7-0.57-1.27-1.27-1.27h-4.55
		c-0.7,0-1.27,0.57-1.27,1.27v1.63h-3.44c-0.7,0-1.27,0.57-1.27,1.27v12.99c0,1.24,1.01,2.25,2.25,2.25h12.01
		c1.24,0,2.25-1.01,2.25-2.25V391.81z M-278.36,401.76v0.9h-0.9v-0.9H-278.36z M-279.02,403.24h0.41v0.66h-0.41V403.24z
		 M-278.61,401.19h-0.41v-0.66h0.41V401.19z M-291.08,399.96v-0.41h15.36v0.41H-291.08z M-287.54,401.76v0.9h-0.9v-0.9H-287.54z
		 M-288.19,403.24h0.41v0.66h-0.41V403.24z M-287.78,401.19h-0.41v-0.66h0.41V401.19z M-275.72,398.98h-3.93v-2.49
		c0.01,0,0.01-0.01,0.02-0.01c0.76-0.44,1.03-1.42,0.59-2.18c0,0,0,0,0,0c-0.14-0.24-0.34-0.44-0.58-0.58l-0.19-0.11
		c-0.14-0.08-0.31-0.03-0.39,0.11c-0.02,0.04-0.04,0.09-0.04,0.14v0.77l-0.18,0.07l-0.18-0.07v-0.77c0-0.16-0.13-0.29-0.29-0.29
		c-0.05,0-0.1,0.01-0.14,0.04l-0.19,0.11c-0.76,0.44-1.03,1.42-0.59,2.18c0.14,0.24,0.34,0.45,0.59,0.59l0.02,0.01v2.49h-1.7v-2.85
		l0.38-1c0.02-0.06,0.02-0.14,0-0.2l-0.44-1.18c-0.04-0.11-0.15-0.19-0.27-0.19h-0.89c-0.12,0-0.23,0.07-0.27,0.19l-0.44,1.18
		c-0.02,0.07-0.02,0.14,0,0.2l0.38,1v2.85h-1.7v-0.53l0.22-0.49c0.02-0.04,0.03-0.08,0.03-0.12v-0.93c0-0.14-0.1-0.26-0.25-0.28
		v-2.27c0-0.07-0.03-0.15-0.08-0.2l-0.49-0.51c-0.11-0.11-0.3-0.11-0.41,0l-0.49,0.51c-0.05,0.05-0.08,0.13-0.08,0.2v2.27
		c-0.14,0.02-0.25,0.14-0.25,0.28v0.93c0,0.04,0.01,0.08,0.03,0.12l0.22,0.49v0.53h-3.36v-5.9h15.36V398.98z M-280.81,396.04
		c-0.04-0.02-0.09-0.04-0.13-0.06c-0.49-0.28-0.66-0.91-0.38-1.4c0.04-0.07,0.08-0.13,0.14-0.18v0.41c0,0.12,0.07,0.22,0.18,0.27
		l0.47,0.19c0.07,0.03,0.15,0.03,0.22,0l0.47-0.19c0.11-0.04,0.18-0.15,0.18-0.27v-0.41c0.05,0.06,0.1,0.12,0.13,0.18
		c0.18,0.32,0.18,0.71,0,1.02c-0.09,0.15-0.22,0.28-0.37,0.37c-0.04,0.02-0.09,0.05-0.14,0.07c-0.11,0.04-0.18,0.15-0.18,0.27v2.67
		h-0.41v-2.67C-280.63,396.19-280.7,396.09-280.81,396.04z M-283.91,395.98l-0.36-0.95l0.34-0.89h0.49l0.33,0.89l-0.36,0.95
		c-0.01,0.03-0.02,0.07-0.02,0.1v2.9h-0.41v-2.9C-283.89,396.05-283.9,396.01-283.91,395.98L-283.91,395.98z M-286.74,396.62h-0.41
		v-2.15l0.2-0.21l0.2,0.21V396.62z M-287.18,398.27l-0.22-0.49v-0.58h0.9v0.58l-0.22,0.49c-0.02,0.04-0.03,0.08-0.03,0.12v0.59
		h-0.41v-0.59C-287.15,398.35-287.16,398.31-287.18,398.27z M-286.37,388.91c0-0.38,0.31-0.7,0.7-0.7h4.55c0.38,0,0.7,0.31,0.7,0.7
		v1.63h-0.41v-1.63c0-0.16-0.13-0.29-0.29-0.29c0,0,0,0,0,0h-4.55c-0.16,0-0.29,0.13-0.29,0.29c0,0,0,0,0,0v1.63h-0.41V388.91z
		 M-285.39,390.54v-1.34h3.98v1.34H-285.39z M-290.39,391.12h13.97c0.38,0,0.7,0.31,0.7,0.7v0.7h-15.36v-0.7
		C-291.08,391.43-290.77,391.12-290.39,391.12z M-275.72,404.8c0,0.93-0.75,1.68-1.68,1.68h-12.01c-0.93,0-1.68-0.75-1.68-1.68
		v-4.27h2.32v0.66c-0.14,0.02-0.25,0.14-0.25,0.28v1.47c0,0.14,0.1,0.26,0.25,0.28v0.95c0,0.16,0.13,0.29,0.29,0.29c0,0,0,0,0,0
		h0.98c0.16,0,0.29-0.13,0.29-0.29c0,0,0,0,0,0v-0.95c0.14-0.02,0.25-0.14,0.25-0.28v-1.47c0-0.14-0.1-0.26-0.25-0.28v-0.66h7.62
		v0.66c-0.14,0.02-0.25,0.14-0.25,0.28v1.47c0,0.14,0.1,0.26,0.25,0.28v0.95c0,0.16,0.13,0.29,0.29,0.29c0,0,0,0,0,0h0.98
		c0.16,0,0.29-0.13,0.29-0.29c0,0,0,0,0,0v-0.95c0.14-0.02,0.25-0.14,0.25-0.28v-1.47c0-0.14-0.1-0.26-0.25-0.28v-0.66h2.32V404.8z"
		/>
	<path class="st0" d="M-276.41,396.86c0.16,0,0.29-0.13,0.29-0.29c0,0,0,0,0,0v-1.15c0-0.16-0.13-0.29-0.29-0.29
		c-0.16,0-0.29,0.13-0.29,0.29v1.15C-276.7,396.73-276.57,396.86-276.41,396.86C-276.41,396.86-276.41,396.86-276.41,396.86z"/>
	<path class="st0" d="M-281.43,402.66h-3.94c-0.16,0-0.29,0.13-0.29,0.29c0,0.16,0.13,0.29,0.29,0.29h3.94
		c0.16,0,0.29-0.13,0.29-0.29C-281.15,402.79-281.27,402.66-281.43,402.66z"/>
</g>
</svg>
