<?xml version="1.0" encoding="utf-8"?>
<!-- Generator: Adobe Illustrator 19.0.0, SVG Export Plug-In . SVG Version: 6.00 Build 0)  -->
<svg version="1.1" id="Layer_1" xmlns="http://www.w3.org/2000/svg" xmlns:xlink="http://www.w3.org/1999/xlink" x="0px" y="0px"
	 viewBox="-294 386.7 21.2 21.3" style="enable-background:new -294 386.7 21.2 21.3;" xml:space="preserve">
<style type="text/css">
	.st0{fill:#28336D;}
</style>
<g id="XMLID_820_">
	<path id="XMLID_821_" class="st0" d="M-279.5,390.47L-279.5,390.47c0,0.19-0.16,0.35-0.35,0.35h-4.95c-0.19,0-0.35-0.16-0.35-0.35
		l0,0c0-0.19,0.16-0.35,0.35-0.35h4.95C-279.65,390.12-279.5,390.28-279.5,390.47z"/>
	<path id="XMLID_822_" class="st0" d="M-285.5,390.47L-285.5,390.47c0,0.19-0.16,0.35-0.35,0.35h-1.1c-0.19,0-0.35-0.16-0.35-0.35
		l0,0c0-0.19,0.16-0.35,0.35-0.35h1.1C-285.66,390.12-285.5,390.28-285.5,390.47z"/>
	<path id="XMLID_823_" class="st0" d="M-276.67,387.65h-13.47c-0.19,0-0.35,0.16-0.35,0.35v4.95v0.22v2.82v0.96v9.76
		c0,0.12,0.06,0.24,0.17,0.3c0.1,0.06,0.24,0.07,0.34,0.01l6.57-3.42l6.57,3.42c0.05,0.03,0.11,0.04,0.16,0.04
		c0.06,0,0.13-0.02,0.18-0.05c0.1-0.06,0.17-0.18,0.17-0.3v-4.56v-0.36v-2.64v-1V388C-276.32,387.8-276.47,387.65-276.67,387.65z
		 M-277.02,398.14v1v2.64v0.36v3.98l-6.22-3.24c-0.1-0.05-0.22-0.05-0.32,0l-6.22,3.24v-9.18v-0.96v-2.82v-0.22v-4.6h12.77V398.14z"
		/>
</g>
</svg>
