<?xml version="1.0" encoding="utf-8"?>
<!-- Generator: Adobe Illustrator 19.0.0, SVG Export Plug-In . SVG Version: 6.00 Build 0)  -->
<svg version="1.1" id="Layer_1" xmlns="http://www.w3.org/2000/svg" xmlns:xlink="http://www.w3.org/1999/xlink" x="0px" y="0px"
	 viewBox="-294 386.7 21.2 21.3" style="enable-background:new -294 386.7 21.2 21.3;" xml:space="preserve">
<style type="text/css">
	.st0{fill:#28336D;}
</style>
<g id="surface1_2_">
	<path id="XMLID_61_" class="st0" d="M-279.65,399.17c2.34-3.3,1.55-7.86-1.74-10.2c-3.3-2.33-7.86-1.55-10.2,1.74
		c-2.33,3.3-1.55,7.86,1.74,10.2c2.35,1.67,5.47,1.79,7.95,0.33l5.39,5.36c0.58,0.61,1.55,0.64,2.16,0.06
		c0.61-0.58,0.64-1.55,0.06-2.16c-0.02-0.02-0.04-0.04-0.06-0.06L-279.65,399.17z M-285.62,399.67c-2.61,0-4.72-2.11-4.72-4.72
		c0-2.61,2.11-4.72,4.72-4.72c2.6,0,4.71,2.11,4.72,4.71C-280.9,397.55-283.01,399.66-285.62,399.67
		C-285.62,399.67-285.62,399.67-285.62,399.67z"/>
</g>
</svg>
