<?xml version="1.0" encoding="utf-8"?>
<!-- Generator: Adobe Illustrator 24.3.0, SVG Export Plug-In . SVG Version: 6.00 Build 0)  -->
<svg version="1.1" id="Layer_1" xmlns="http://www.w3.org/2000/svg" xmlns:xlink="http://www.w3.org/1999/xlink" x="0px" y="0px"
	 viewBox="-294 386.7 21.2 21.3" style="enable-background:new -294 386.7 21.2 21.3;" xml:space="preserve">
<style type="text/css">
	.st0{fill:#28336D;}
</style>
<g>
	<g>
		<g>
			<path class="st0" d="M-292.94,400.94c0,0.2,0.14,0.35,0.33,0.35h0.53c0.36-0.79,1.17-1.38,2.11-1.38c0.94,0,1.76,0.6,2.11,1.38
				h6.9v-2.82h-11.99V400.94z"/>
			<path class="st0" d="M-289.96,400.65c-0.86,0-1.56,0.7-1.56,1.56s0.7,1.56,1.56,1.56c0.86,0,1.56-0.7,1.56-1.56
				C-288.39,401.35-289.1,400.65-289.96,400.65z"/>
			<path class="st0" d="M-274.07,397.31l-1.49-0.66h-4.65v4.63h0.9c0.36-0.79,1.17-1.38,2.11-1.38s1.76,0.6,2.11,1.38h0.88
				c0.2,0,0.33-0.15,0.33-0.35v-3.29C-273.86,397.51-273.94,397.38-274.07,397.31z"/>
			<path class="st0" d="M-277.09,393.99c-0.19-0.36-0.56-0.58-0.96-0.57h-2.16v2.5h4.12L-277.09,393.99z"/>
			<path class="st0" d="M-282.01,390.92h-9.87c-0.6,0-1.06,0.49-1.06,1.09v5.72h11.99V392c0,0,0,0,0-0.01
				C-280.94,391.41-281.42,390.92-282.01,390.92z"/>
			<path class="st0" d="M-277.19,400.65c-0.86,0-1.56,0.7-1.56,1.57c0,0.86,0.7,1.56,1.57,1.56c0.86,0,1.56-0.7,1.56-1.56v0
				C-275.63,401.35-276.33,400.65-277.19,400.65z"/>
		</g>
	</g>
</g>
</svg>
