<?xml version="1.0" encoding="utf-8"?>
<!-- Generator: Adobe Illustrator 19.0.0, SVG Export Plug-In . SVG Version: 6.00 Build 0)  -->
<svg version="1.1" id="Layer_1" xmlns="http://www.w3.org/2000/svg" xmlns:xlink="http://www.w3.org/1999/xlink" x="0px" y="0px"
	 viewBox="-294 386.7 21.2 21.3" style="enable-background:new -294 386.7 21.2 21.3;" xml:space="preserve">
<style type="text/css">
	.st0{fill:#28336D;}
</style>
<path id="XMLID_126_" class="st0" d="M-274.26,397.9l-2.1-2.1c-0.14-0.14-0.36-0.14-0.5,0c-0.14,0.14-0.14,0.36,0,0.49l2.1,2.1
	c0.26,0.26,0.26,0.68,0,0.94c-0.12,0.12-0.29,0.19-0.47,0.19c0,0,0,0,0,0c-0.18,0-0.34-0.07-0.47-0.19l-5.75-5.75l0.95-0.92
	l1.26,1.26c0.06,0.06,0.15,0.1,0.25,0.1c0,0,0,0,0,0c0.09,0,0.18-0.04,0.24-0.1c0.07-0.07,0.1-0.15,0.1-0.25s-0.04-0.18-0.1-0.25
	l-1.25-1.25l0.06-0.07c0.83-0.92,0.81-2.33-0.05-3.22c-0.44-0.45-1.02-0.71-1.66-0.72h-0.04c-0.61,0-1.19,0.23-1.63,0.66l-0.09,0.09
	l-0.09-0.09c-0.44-0.42-1.02-0.66-1.63-0.66l-0.05,0c-0.63,0.01-1.22,0.27-1.65,0.72c-0.86,0.89-0.88,2.3-0.05,3.22l0.06,0.07
	l-5.73,5.73c-0.53,0.53-0.53,1.4,0,1.93c0.26,0.26,0.6,0.4,0.96,0.4c0.24,0,0.47-0.06,0.68-0.18l0.14-0.08v5.52
	c0,0.58,0.47,1.05,1.05,1.05h12.62c0.58,0,1.05-0.47,1.05-1.05v-5.52l0.14,0.08c0.21,0.12,0.44,0.18,0.68,0.18
	c0.36,0,0.71-0.14,0.96-0.4C-273.73,399.29-273.73,398.43-274.26,397.9z M-286.32,389.37c0.3-0.32,0.72-0.5,1.16-0.5h0.03
	c0.43,0,0.84,0.16,1.15,0.46l0.33,0.32c0.14,0.13,0.35,0.13,0.49,0l0.33-0.32c0.31-0.3,0.72-0.46,1.15-0.46l0.03,0
	c0.44,0.01,0.85,0.19,1.16,0.5c0.31,0.32,0.47,0.74,0.46,1.18c-0.01,0.44-0.19,0.86-0.51,1.16l-2.88,2.78l-0.07-0.06l-2.81-2.71
	C-286.94,391.08-286.95,390.03-286.32,389.37z M-290.65,398.87l-0.08-0.05l0,0l0.07,0.07l-0.45,0.45c-0.12,0.12-0.29,0.19-0.47,0.19
	c-0.18,0-0.34-0.07-0.47-0.19c-0.13-0.12-0.19-0.29-0.19-0.47c0-0.18,0.07-0.34,0.19-0.47l5.73-5.74l0.95,0.92l-0.07,0.07
	L-290.65,398.87z M-285.46,404.62v1.21h-2.16v-3.78c0-0.6,0.23-0.98,0.76-1.26l0.05-0.03l0.05,0.04c0.63,0.47,1.53,0.47,2.16,0
	l0.05-0.04l0.05,0.03c0.21,0.11,0.37,0.24,0.49,0.39l0.07,0.09l-0.1,0.05c-0.49,0.25-0.79,0.74-0.79,1.28
	c0,0.19,0.04,0.37,0.11,0.54l0.03,0.07l-0.06,0.04C-285.22,403.57-285.46,404.03-285.46,404.62z M-286.79,399.34
	c0-0.61,0.5-1.11,1.11-1.11c0.61,0,1.11,0.5,1.11,1.11s-0.5,1.11-1.11,1.11C-286.29,400.45-286.79,399.95-286.79,399.34z
	 M-283.4,401.86c0.41,0,0.74,0.33,0.74,0.74c0,0.41-0.33,0.74-0.74,0.74c-0.41,0-0.74-0.33-0.74-0.74
	C-284.14,402.19-283.81,401.86-283.4,401.86z M-282.04,405.83h-2.71v-1.21c0-0.39,0.14-0.64,0.45-0.83l0.05-0.03l0.05,0.03
	c0.47,0.32,1.13,0.32,1.6,0l0.05-0.03l0.05,0.03c0.32,0.19,0.45,0.44,0.45,0.83V405.83z M-279.18,405.83h-2.16v-1.21
	c0-0.59-0.23-1.05-0.69-1.36l-0.06-0.04l0.03-0.07c0.07-0.17,0.11-0.36,0.11-0.54c0-0.54-0.3-1.04-0.79-1.28l-0.1-0.05l0.07-0.09
	c0.12-0.15,0.28-0.28,0.49-0.39l0.05-0.03l0.05,0.04c0.63,0.47,1.53,0.47,2.16,0l0.05-0.04l0.05,0.03c0.53,0.28,0.76,0.66,0.76,1.26
	V405.83z M-282.22,399.34c0-0.61,0.5-1.11,1.11-1.11s1.11,0.5,1.11,1.11s-0.5,1.11-1.11,1.11S-282.22,399.95-282.22,399.34z
	 M-276.74,405.48c0,0.19-0.16,0.35-0.35,0.35h-1.39v-3.78c0-0.8-0.32-1.39-0.98-1.79l-0.07-0.04l0.04-0.08
	c0.12-0.24,0.18-0.52,0.18-0.79c0-1-0.81-1.81-1.81-1.81c-1,0-1.81,0.81-1.81,1.81c0,0.27,0.06,0.54,0.18,0.79l0.04,0.08l-0.07,0.04
	c-0.22,0.14-0.41,0.3-0.55,0.48l-0.07,0.09l-0.07-0.09c-0.15-0.18-0.33-0.34-0.55-0.48l-0.07-0.04l0.04-0.08
	c0.12-0.25,0.18-0.52,0.18-0.79c0-1-0.81-1.81-1.81-1.81c-1,0-1.8,0.81-1.8,1.81c0,0.27,0.06,0.54,0.18,0.79l0.04,0.08l-0.07,0.04
	c-0.66,0.41-0.98,0.99-0.98,1.79v3.78h-1.39c-0.19,0-0.35-0.16-0.35-0.35v-6.21l5.21-5.21l1.21,1.17c0.13,0.12,0.36,0.12,0.49,0
	l1.21-1.17l5.21,5.21V405.48z"/>
</svg>
