<?xml version="1.0" encoding="utf-8"?>
<!-- Generator: Adobe Illustrator 19.0.0, SVG Export Plug-In . SVG Version: 6.00 Build 0)  -->
<svg version="1.1" id="Layer_1" xmlns="http://www.w3.org/2000/svg" xmlns:xlink="http://www.w3.org/1999/xlink" x="0px" y="0px"
	 viewBox="-294 386.7 21.2 21.3" style="enable-background:new -294 386.7 21.2 21.3;" xml:space="preserve">
<style type="text/css">
	.st0{fill:#28336D;}
</style>
<g id="XMLID_15_">
	<path id="XMLID_33_" class="st0" d="M-289.79,403.35c0,0.09,0.01,0.18,0.07,0.26c0.06,0.08,0.14,0.12,0.24,0.13
		c0.02,0,0.04,0,0.05,0l2.51,0c0.83,0,1.66,0,2.49,0c0.83,0,1.66,0,2.49,0l7.67,0c0.04,0,0.09,0,0.13,0
		c0.15-0.01,0.26-0.11,0.29-0.26c0-0.01,0.01-0.02,0.01-0.03v-15.37c-0.01-0.01-0.01-0.02-0.01-0.04c-0.02-0.15-0.17-0.26-0.3-0.26
		h-0.05c-5.07,0-10.15,0-15.22,0c-0.1,0-0.18,0.02-0.24,0.07c-0.08,0.06-0.13,0.15-0.13,0.28c0,0.01,0,0.03,0,0.04v7.55
		c0,0.4,0,0.79,0,1.19c0,0.4,0,0.79,0,1.19c0,1.31,0,2.62,0,3.93C-289.8,402.46-289.79,402.91-289.79,403.35z M-289.08,402.5l0-0.03
		l0.24-0.04c0.41-0.06,0.82-0.18,1.2-0.37c0.35-0.17,0.67-0.38,0.95-0.64c0.67-0.6,1.11-1.35,1.3-2.22c0.07-0.31,0.1-0.62,0.09-0.93
		c0-0.18-0.12-0.31-0.3-0.32c-0.04,0-0.07,0-0.11,0c-1.09,0-2.17,0-3.25,0h-0.15v-1.84h1.44c1.28,0,2.56,0,3.84,0
		c0.06,0,0.13,0,0.19-0.02c0.14-0.03,0.23-0.14,0.25-0.29c0-0.03,0-0.06,0-0.1v-2.14l0.07,0c0.03,0,0.05,0,0.08,0
		c0.03,0,0.05,0,0.08,0c0.06,0,0.11,0,0.17-0.01c0.14-0.03,0.23-0.15,0.24-0.3c0.01-0.13-0.03-0.22-0.11-0.3
		c-0.06-0.06-0.14-0.09-0.24-0.09c-0.38,0-0.83,0-1.26,0c-0.19,0-0.32,0.1-0.35,0.27c-0.02,0.12,0,0.23,0.07,0.31
		c0.06,0.08,0.15,0.12,0.26,0.12c0.05,0,0.11,0,0.16,0h0.11l0.01,0.03c0.02,0.09,0.02,1.69,0.01,1.76l-0.01,0.04h-4.98l-0.01-0.03
		c-0.02-0.05-0.02-6.77,0-6.84l0.01-0.04h4.99v1.84l-0.12,0c-0.06,0-0.12,0-0.17,0c0,0-0.01,0-0.01,0c-0.1,0-0.18,0.04-0.24,0.11
		c-0.1,0.11-0.11,0.25-0.05,0.39c0.05,0.13,0.15,0.19,0.3,0.19c0.44,0,0.88,0,1.32,0c0.18,0,0.32-0.14,0.33-0.32
		c0-0.12-0.03-0.21-0.1-0.28c-0.06-0.06-0.13-0.09-0.22-0.09c-0.06,0-0.12,0-0.17,0h-0.12l-0.01-0.03
		c-0.03-0.08-0.02-1.68-0.01-1.76l0.01-0.03l0.03-0.01c0.07-0.02,2.6-0.02,2.71,0l0.04,0.01v3.39c0,0.02,0,0.04,0,0.07
		c0.01,0.21,0.15,0.34,0.35,0.34c0.26,0,0.52,0,0.78,0h0.46v0.1c0,0.04,0,0.08,0,0.12l0,0.02c0,0.05,0,0.1,0.02,0.15
		c0.03,0.14,0.16,0.24,0.3,0.24c0.07,0,0.12-0.01,0.16-0.02c0.14-0.04,0.22-0.17,0.22-0.34c0-0.42,0-0.84,0-1.26
		c0-0.03-0.01-0.06-0.01-0.08c-0.03-0.16-0.16-0.26-0.32-0.27c-0.01,0-0.02,0-0.02,0c-0.16,0-0.28,0.08-0.33,0.22
		c-0.02,0.05-0.02,0.1-0.02,0.15c0,0.06,0,0.1,0,0.15v0.09l-0.03,0.01c-0.08,0.02-0.68,0.02-0.79,0.01l-0.02,0l-0.01-0.01
		c-0.01-0.01-0.02-0.02-0.02-0.03c0-0.02-0.01-0.02-0.01-0.03c0-0.97,0-1.95,0-2.92c0-0.01,0-0.02,0-0.03l0-0.05l0.03-0.01
		c0.09-0.02,5.22-0.01,5.25,0l0.04,0.01v3.06l-0.03,0.01c-0.07,0.02-1.04,0.02-1.12,0l-0.04-0.01v-0.07c0-0.02,0-0.05,0-0.07l0-0.06
		c0-0.04,0-0.08-0.01-0.13c-0.02-0.14-0.1-0.25-0.24-0.28c-0.19-0.05-0.36,0.03-0.42,0.18c-0.02,0.04-0.03,0.09-0.03,0.14
		c0,0.43,0,0.87,0,1.3c0,0.2,0.14,0.33,0.34,0.34c0,0,0.01,0,0.01,0c0.14,0,0.29-0.07,0.33-0.25c0.01-0.05,0.01-0.1,0.02-0.15
		l0-0.05c0-0.03,0-0.06,0-0.09v-0.09h1.17l0.01,0.03c0.03,0.1,0.01,4.9,0.01,4.93l-0.01,0.04h-1.81l-0.01-0.06
		c0-0.01,0-0.03-0.01-0.05c0-0.03,0-0.06,0-0.1c0-0.04,0-0.08,0-0.11c0-0.18-0.14-0.31-0.32-0.32c-0.01,0-0.01,0-0.02,0
		c-0.12,0-0.21,0.03-0.28,0.11c-0.06,0.06-0.09,0.15-0.09,0.26c0,0.41,0,0.81,0,1.22c0,0.14,0.04,0.23,0.11,0.29
		c0.11,0.1,0.25,0.12,0.39,0.06c0.13-0.05,0.2-0.16,0.2-0.31c0-0.05,0-0.11,0-0.16v-0.11l0.03-0.01c0.09-0.03,1.69-0.02,1.76-0.01
		l0.04,0.01v4.99h-6.89l-0.01-0.03c-0.03-0.09-0.01-4.88-0.01-4.92l0-0.03l0.03-0.01c0.08-0.03,1.68-0.02,1.76-0.01l0.04,0.01v0.1
		c0,0.05,0,0.11,0,0.16c0,0.05,0.01,0.1,0.03,0.15c0.06,0.17,0.24,0.22,0.37,0.2c0.2-0.03,0.3-0.16,0.3-0.39c0-0.37,0-0.75,0-1.12
		c0-0.05,0-0.1-0.01-0.16c-0.02-0.17-0.15-0.29-0.32-0.29c-0.05,0-0.1,0-0.14,0.01c-0.14,0.04-0.23,0.15-0.23,0.29
		c0,0.04,0,0.08,0,0.11c0,0.03,0,0.05,0,0.08c0,0.02,0,0.04,0,0.06l0,0.07l-0.65,0c-0.51,0-1.01,0-1.52,0c-0.12,0-0.2,0.03-0.27,0.1
		c-0.05,0.05-0.08,0.12-0.09,0.19c-0.01,0.04-0.01,0.08-0.01,0.13v5.3h-6.9l-0.01-0.03C-289.09,402.95-289.1,402.62-289.08,402.5z
		 M-289.08,401.75v-3.09h3.11l-0.01,0.05c-0.11,0.82-0.46,1.52-1.04,2.09c-0.63,0.61-1.46,0.92-2.01,0.94L-289.08,401.75z"/>
	<path id="XMLID_45_" class="st0" d="M-274.45,406.38c0.12-0.12,0.24-0.24,0.37-0.37c0.03-0.03,0.07-0.06,0.1-0.09l0.03-0.03
		c0.07-0.06,0.1-0.12,0.11-0.19c0-0.02,0.01-0.03,0.01-0.04l0-0.01v-0.09c-0.01-0.01-0.01-0.02-0.01-0.03
		c-0.01-0.08-0.04-0.15-0.13-0.21c-0.03-0.02-0.06-0.05-0.09-0.07c-0.28-0.28-0.56-0.56-0.83-0.84c-0.06-0.06-0.13-0.09-0.21-0.1
		c-0.01,0-0.02,0-0.03,0c-0.13,0-0.26,0.08-0.32,0.21c-0.06,0.13-0.04,0.28,0.07,0.39l0.23,0.23c0.01,0.01,0.02,0.02,0.03,0.04
		l0.06,0.09h-14.46l0.07-0.08c0.03-0.03,0.04-0.05,0.06-0.07c0.03-0.03,0.05-0.05,0.08-0.08c0.05-0.05,0.11-0.11,0.15-0.16
		c0.09-0.11,0.11-0.24,0.04-0.37c-0.07-0.13-0.18-0.2-0.32-0.2c0,0,0,0-0.01,0c-0.09,0-0.17,0.04-0.26,0.13l-0.82,0.82
		c-0.02,0.03-0.05,0.05-0.08,0.07c-0.08,0.06-0.13,0.16-0.13,0.28c0,0.12,0.04,0.22,0.12,0.28c0.03,0.02,0.06,0.05,0.08,0.08
		c0.24,0.24,0.49,0.49,0.73,0.73l0.02,0.02c0.08,0.08,0.15,0.15,0.24,0.2h0.19l0.05-0.03c0.11-0.05,0.18-0.15,0.2-0.26
		c0.02-0.11-0.02-0.22-0.1-0.31c-0.05-0.05-0.09-0.1-0.14-0.14l-0.06-0.06c-0.01-0.01-0.02-0.02-0.03-0.03l-0.05-0.05l0.03-0.05
		l0.03,0.03l0-0.05c4.74,0,9.47,0,14.21,0c0.01,0,0.02,0,0.03,0l0.1,0.02l-0.06,0.06c-0.03,0.03-0.05,0.05-0.07,0.07l-0.06,0.06
		c-0.04,0.04-0.09,0.09-0.13,0.13c-0.09,0.08-0.13,0.19-0.11,0.31c0.02,0.12,0.1,0.22,0.22,0.28c0.01,0,0.02,0.01,0.03,0.02h0.21
		c0.09-0.05,0.16-0.12,0.24-0.2L-274.45,406.38z"/>
	<path id="XMLID_74_" class="st0" d="M-292.48,404.02c0.16,0.16,0.31,0.31,0.47,0.47c0.03,0.03,0.05,0.05,0.07,0.08
		c0.06,0.08,0.16,0.13,0.27,0.13c0,0,0.01,0,0.01,0c0.11,0,0.22-0.05,0.28-0.13c0.03-0.04,0.07-0.08,0.12-0.13
		c0.21-0.21,0.42-0.42,0.63-0.63l0.05-0.05c0.05-0.04,0.09-0.09,0.14-0.14c0.13-0.14,0.12-0.34-0.02-0.48
		c-0.06-0.06-0.15-0.1-0.25-0.1c0,0,0,0,0,0c-0.09,0-0.17,0.04-0.23,0.1c-0.05,0.06-0.11,0.11-0.17,0.17l-0.05,0.05
		c-0.01,0.01-0.02,0.02-0.04,0.04l-0.1,0.1v-14.47l0.09,0.07c0.01,0.01,0.03,0.02,0.04,0.03l0.1,0.1c0.04,0.04,0.09,0.09,0.13,0.13
		c0.09,0.09,0.21,0.12,0.34,0.08c0.11-0.03,0.21-0.13,0.24-0.25c0.03-0.12,0-0.23-0.09-0.32c-0.16-0.17-0.33-0.33-0.49-0.49
		c-0.11-0.11-0.22-0.22-0.33-0.33c-0.04-0.04-0.07-0.07-0.1-0.11c-0.06-0.08-0.16-0.13-0.27-0.13c-0.11-0.01-0.22,0.03-0.28,0.11
		l-0.07,0.07c-0.05,0.05-0.09,0.1-0.14,0.15c-0.24,0.24-0.47,0.47-0.71,0.71c-0.09,0.09-0.13,0.18-0.13,0.27
		c0,0.15,0.1,0.28,0.24,0.33c0.13,0.04,0.25,0.01,0.36-0.09c0.04-0.04,0.09-0.08,0.13-0.13l0.09-0.09c0.01-0.01,0.02-0.02,0.03-0.03
		l0.09-0.06v14.46l-0.1-0.09c-0.02-0.01-0.03-0.03-0.04-0.04c-0.03-0.03-0.06-0.06-0.09-0.09c-0.04-0.04-0.07-0.08-0.11-0.11
		c-0.07-0.07-0.16-0.11-0.25-0.11c-0.01,0-0.01,0-0.02,0c-0.1,0.01-0.19,0.06-0.26,0.14c-0.06,0.07-0.08,0.16-0.07,0.25
		c0.01,0.08,0.05,0.15,0.13,0.23L-292.48,404.02z"/>
</g>
</svg>
