<?xml version="1.0" encoding="utf-8"?>
<!-- Generator: Adobe Illustrator 24.3.0, SVG Export Plug-In . SVG Version: 6.00 Build 0)  -->
<svg version="1.1" id="Layer_1" xmlns="http://www.w3.org/2000/svg" xmlns:xlink="http://www.w3.org/1999/xlink" x="0px" y="0px"
	 viewBox="-294 386.7 21.2 21.3" style="enable-background:new -294 386.7 21.2 21.3;" xml:space="preserve">
<style type="text/css">
	.st0{fill:#28336D;}
</style>
<path class="st0" d="M-273.9,397.62c0.01-0.35-0.21-0.69-0.54-0.83l-1.38-0.6l-1.15-2.24c-0.27-0.53-0.81-0.86-1.41-0.86
	c0,0-0.01,0-0.01,0h-2.12v-0.73c0-0.88-0.71-1.6-1.59-1.6h-9.22c-0.87,0-1.58,0.72-1.58,1.6v8.35c0,0.24,0.09,0.47,0.25,0.64
	c0.17,0.17,0.39,0.27,0.63,0.27h0.24h0.19v0.19c0,0.03,0,0.05,0,0.07c0,0.56,0.21,1.08,0.59,1.47c0.39,0.39,0.9,0.6,1.45,0.61
	c0,0,0,0,0.01,0c0.55,0,1.06-0.21,1.45-0.6c0.39-0.39,0.6-0.9,0.61-1.45v-0.02c0-0.02,0-0.03,0-0.07l-0.02-0.21h7.85v0.27
	c0,0.55,0.21,1.07,0.6,1.45c0.39,0.39,0.9,0.6,1.45,0.61c0,0,0,0,0.01,0c0.55,0,1.06-0.21,1.45-0.6c0.39-0.39,0.6-0.9,0.61-1.45
	v-0.3h0.75c0.5,0,0.9-0.4,0.9-0.9V397.62z M-289.53,403.46c-0.86,0-1.56-0.7-1.56-1.56c0-0.86,0.7-1.56,1.56-1.56
	c0.86,0,1.56,0.7,1.56,1.56C-287.96,402.76-288.66,403.46-289.53,403.46z M-281,401.13h-6.61l-0.05-0.11
	c-0.33-0.72-1.06-1.18-1.86-1.18c0,0-0.01,0-0.01,0c-0.8,0-1.52,0.46-1.85,1.18l-0.05,0.11H-292c-0.24,0-0.41-0.18-0.41-0.43v-2.42
	h11.4V401.13z M-281,392.36v5.45h-11.4v-5.45c0-0.61,0.49-1.11,1.09-1.11h9.22c0.3,0,0.57,0.12,0.78,0.33
	C-281.11,391.78-281,392.06-281,392.36h-0.19H-281z M-280.51,393.58h2.12c0.42-0.01,0.8,0.22,0.99,0.59l1.01,1.95h-4.11V393.58z
	 M-277.6,403.46c-0.86,0-1.56-0.7-1.56-1.56c0-0.86,0.7-1.56,1.56-1.56c0.86,0,1.56,0.7,1.56,1.56
	C-276.04,402.76-276.74,403.46-277.6,403.46z M-274.8,401.13h-0.89l-0.05-0.11c-0.23-0.5-0.64-0.87-1.16-1.06
	c-0.51-0.19-1.07-0.16-1.57,0.07c-0.44,0.2-0.79,0.55-0.99,0.99l-0.05,0.11h-1.01v-4.53h4.47l1.41,0.62
	c0.16,0.08,0.26,0.25,0.25,0.41l0,3.07C-274.39,400.95-274.56,401.13-274.8,401.13z"/>
</svg>
