<?xml version="1.0" encoding="utf-8"?>
<!-- Generator: Adobe Illustrator 24.2.3, SVG Export Plug-In . SVG Version: 6.00 Build 0)  -->
<svg version="1.1" id="Layer_1" xmlns="http://www.w3.org/2000/svg" xmlns:xlink="http://www.w3.org/1999/xlink" x="0px" y="0px"
	 viewBox="-294 386.7 21.2 21.3" style="enable-background:new -294 386.7 21.2 21.3;" xml:space="preserve">
<style type="text/css">
	.st0{fill:#28336D;}
</style>
<g>
	<path class="st0" d="M-288.48,399.71c-0.98,0-1.78,0.8-1.78,1.78c0,0.98,0.8,1.78,1.78,1.78s1.78-0.8,1.78-1.78
		C-286.7,400.51-287.5,399.71-288.48,399.71z M-288.48,402.8c-0.72,0-1.31-0.59-1.31-1.31c0-0.72,0.59-1.31,1.31-1.31
		c0.72,0,1.31,0.59,1.31,1.31c0,0,0,0,0,0C-287.17,402.21-287.76,402.8-288.48,402.8z"/>
	<path class="st0" d="M-288.48,400.89c-0.33,0-0.6,0.27-0.6,0.6c0,0.33,0.27,0.6,0.6,0.6s0.6-0.27,0.6-0.6c0,0,0,0,0,0
		C-287.88,401.16-288.15,400.89-288.48,400.89z M-288.48,401.62c-0.07,0-0.13-0.06-0.13-0.13c0-0.07,0.06-0.13,0.13-0.13
		c0.07,0,0.13,0.06,0.13,0.13c0,0,0,0,0,0C-288.35,401.56-288.41,401.62-288.48,401.62z"/>
	<path class="st0" d="M-278,400.89c-0.33,0-0.6,0.27-0.6,0.6c0,0.33,0.27,0.6,0.6,0.6c0.33,0,0.6-0.27,0.6-0.6c0,0,0,0,0,0
		C-277.39,401.16-277.66,400.89-278,400.89z M-278,401.62c-0.07,0-0.13-0.06-0.13-0.13c0-0.07,0.06-0.13,0.13-0.13
		s0.13,0.06,0.13,0.13c0,0,0,0,0,0C-277.87,401.56-277.92,401.62-278,401.62z"/>
	<path class="st0" d="M-274.11,391.82h-2.61v-0.16c0-0.13-0.11-0.24-0.24-0.24h-0.86c-0.13,0-0.24,0.11-0.24,0.24v0.16h-3.73v-0.16
		c0-0.13-0.11-0.24-0.24-0.24h-0.86c-0.13,0-0.24,0.11-0.24,0.24v0.16h-2.61c-0.13,0-0.24,0.11-0.24,0.24v1.48
		c-0.14-0.07-0.29-0.11-0.45-0.11h-4.21c-0.37,0-0.71,0.21-0.87,0.54c-1.02,2.04-1.24,2.91-1.24,3.27v2.59
		c-0.14,0.09-0.22,0.25-0.22,0.41v0.94c0,0.28,0.23,0.5,0.5,0.5h1.57c0.13,0,0.24-0.11,0.24-0.24c0-1.16,0.94-2.09,2.09-2.09h0.1
		c0.56,0,1.1,0.22,1.49,0.63c0.38,0.39,0.58,0.92,0.57,1.46c0,0.13,0.1,0.24,0.23,0.24c0,0,0,0,0.01,0h1.44v0.47
		c0,0.13,0.11,0.24,0.24,0.24h3.33c0.13,0,0.24-0.11,0.24-0.24v-0.47h1.13c0.11,0.98,0.99,1.68,1.97,1.57
		c0.83-0.09,1.48-0.75,1.57-1.57h2.11c0.13,0,0.24-0.11,0.24-0.24v-1.87h0.01v-7.52C-273.87,391.93-273.98,391.82-274.11,391.82
		C-274.11,391.82-274.11,391.82-274.11,391.82z M-291.31,394.69h2.11v1.52l-3.01,0.79C-292.12,396.54-291.8,395.72-291.31,394.69
		L-291.31,394.69z M-291.08,401.22h-1.34c-0.02,0-0.03-0.02-0.03-0.03v-0.94c0-0.02,0.02-0.03,0.03-0.03h1.65
		C-290.95,400.52-291.05,400.86-291.08,401.22z M-285.9,401.22L-285.9,401.22c-0.05-0.59-0.29-1.14-0.7-1.56
		c-0.48-0.49-1.14-0.77-1.83-0.77h-0.1c-0.73,0-1.42,0.31-1.9,0.85h-1.81v-2.24l3.34-0.87c0.1-0.03,0.18-0.12,0.18-0.23v-1.93
		c0-0.13-0.11-0.24-0.24-0.24h-2.11c0.01-0.02,0.02-0.03,0.02-0.05c0.08-0.17,0.26-0.28,0.45-0.28h4.21c0.27,0,0.49,0.22,0.5,0.49
		L-285.9,401.22z M-277.58,391.9h0.39v7.44h-0.39V391.9z M-281.78,392.29h3.73v7.05h-3.73V392.29z M-282.64,391.9h0.39v7.44h-0.39
		V391.9z M-285.48,394.08v-1.79h2.37v7.05h-2.32v-4.96C-285.43,394.28-285.45,394.18-285.48,394.08L-285.48,394.08z M-281.37,401.93
		h-2.86v-0.87h2.86V401.93z M-280.9,401.22v-0.4c0-0.13-0.11-0.24-0.24-0.24h-3.33c-0.13,0-0.24,0.11-0.24,0.24v0.4h-0.73v-1.4h6.84
		c-0.61,0.22-1.06,0.76-1.16,1.4H-280.9z M-278,402.8c-0.72,0-1.31-0.59-1.31-1.31c0-0.72,0.59-1.31,1.31-1.31
		c0.72,0,1.31,0.59,1.31,1.31c0,0,0,0,0,0C-276.69,402.21-277.27,402.8-278,402.8z M-274.35,401.22h-1.88
		c-0.1-0.64-0.55-1.18-1.16-1.4h3.04L-274.35,401.22z M-274.34,399.34h-2.37v-7.05h2.37V399.34z"/>
	<path class="st0" d="M-284.44,393.57c0.13,0,0.24-0.11,0.24-0.24v-0.28c0-0.13-0.11-0.24-0.24-0.24s-0.24,0.11-0.24,0.24v0.28
		C-284.68,393.46-284.57,393.57-284.44,393.57z"/>
	<path class="st0" d="M-284.44,397.41c0.13,0,0.24-0.11,0.24-0.24v-3.06c0-0.13-0.11-0.24-0.24-0.24s-0.24,0.11-0.24,0.24v3.06
		C-284.68,397.31-284.57,397.41-284.44,397.41C-284.44,397.41-284.44,397.41-284.44,397.41z"/>
	<path class="st0" d="M-286.57,394.22h-1.57c-0.13,0-0.24,0.11-0.24,0.24v1.94c0,0.13,0.11,0.24,0.24,0.24l0,0h1.57
		c0.13,0,0.24-0.11,0.24-0.24l0,0v-1.94C-286.33,394.33-286.44,394.22-286.57,394.22z M-286.8,396.16h-1.09v-1.47h1.09V396.16z"/>
</g>
</svg>
