<?xml version="1.0" encoding="utf-8"?>
<!-- Generator: Adobe Illustrator 19.0.0, SVG Export Plug-In . SVG Version: 6.00 Build 0)  -->
<svg version="1.1" id="Layer_1" xmlns="http://www.w3.org/2000/svg" xmlns:xlink="http://www.w3.org/1999/xlink" x="0px" y="0px"
	 viewBox="-294 386.7 21.2 21.3" style="enable-background:new -294 386.7 21.2 21.3;" xml:space="preserve">
<style type="text/css">
	.st0{fill:#28336D;}
</style>
<g id="XMLID_21_">
	<path id="XMLID_109_" class="st0" d="M-274.18,405.25h-4.51l-0.4-1.2c1.53-0.09,2.72-1.35,2.72-2.89v-1.55h0.28c0,0,0,0,0,0
		c0.55,0,0.99-0.44,0.99-0.99c0-0.41-0.25-0.78-0.64-0.93v-0.98c0-0.2-0.16-0.36-0.36-0.36H-277v-7.27c0-0.2-0.16-0.36-0.36-0.36
		h-4.45c-0.2,0-0.36,0.16-0.36,0.36v1.58c-1.09,0.17-1.9,1.13-1.91,2.24v0.64c0,0.2,0.16,0.36,0.36,0.36h3.81
		c0.2,0,0.36-0.16,0.36-0.36v-0.64c0-1.11-0.82-2.06-1.91-2.24v-1.22h3.73v6.91h-0.91c-0.2,0-0.36,0.16-0.36,0.36v0.91h-11.72
		c-0.55,0-1,0.45-1,1c0,0.55,0.45,1,1,1h0.28v1.55c0,1.54,1.19,2.8,2.72,2.89l-0.4,1.2h-4.51c-0.2,0-0.36,0.16-0.36,0.36
		s0.16,0.36,0.36,0.36h18.43c0.2,0,0.36-0.16,0.36-0.36S-273.99,405.25-274.18,405.25z M-283.36,393.18v-0.28
		c0-0.85,0.69-1.55,1.55-1.55c0.85,0,1.55,0.69,1.55,1.55v0.28H-283.36z M-277.72,397.07v0.55h-0.55v-0.55H-277.72z M-277,397.63
		v-0.55h0.55v0.55H-277z M-275.82,398.62c0,0.15-0.12,0.28-0.28,0.28h-14.62c-0.15,0-0.28-0.12-0.28-0.28
		c0-0.15,0.12-0.28,0.28-0.28h14.62C-275.94,398.35-275.82,398.47-275.82,398.62z M-279.45,405.25h-0.51l-0.4-1.19h0.51
		L-279.45,405.25z M-280.72,405.25h-5.36l0.4-1.19h4.57L-280.72,405.25z M-286.44,404.07l-0.4,1.19h-0.51l0.4-1.19H-286.44z
		 M-289.71,399.62h12.63v1.55c0,1.2-0.98,2.18-2.18,2.18h-8.26c-1.2,0-2.18-0.98-2.18-2.18V399.62z"/>
	<path id="XMLID_184_" class="st0" d="M-288.8,400.89h0.64c0.2,0,0.36-0.16,0.36-0.36s-0.16-0.36-0.36-0.36h-0.64
		c-0.2,0-0.36,0.16-0.36,0.36S-289,400.89-288.8,400.89z"/>
	<path id="XMLID_185_" class="st0" d="M-286.9,400.89h1.91c0.2,0,0.36-0.16,0.36-0.36s-0.16-0.36-0.36-0.36h-1.91
		c-0.2,0-0.36,0.16-0.36,0.36S-287.09,400.89-286.9,400.89z"/>
	<path id="XMLID_186_" class="st0" d="M-283.72,396.12c0.2,0,0.36-0.16,0.36-0.36v-0.95c0-0.2-0.16-0.36-0.36-0.36
		s-0.36,0.16-0.36,0.36v0.95C-284.08,395.96-283.92,396.12-283.72,396.12z"/>
	<path id="XMLID_187_" class="st0" d="M-282.09,396.71v-0.95c0-0.2-0.16-0.36-0.36-0.36s-0.36,0.16-0.36,0.36v0.95
		c0,0.2,0.16,0.36,0.36,0.36S-282.09,396.91-282.09,396.71z"/>
	<path id="XMLID_188_" class="st0" d="M-280.82,395.76v-0.95c0-0.2-0.16-0.36-0.36-0.36c-0.2,0-0.36,0.16-0.36,0.36v0.95
		c0,0.2,0.16,0.36,0.36,0.36C-280.98,396.12-280.82,395.96-280.82,395.76z"/>
	<path id="XMLID_189_" class="st0" d="M-279.54,396.71v-0.95c0-0.2-0.16-0.36-0.36-0.36s-0.36,0.16-0.36,0.36v0.95
		c0,0.2,0.16,0.36,0.36,0.36S-279.54,396.91-279.54,396.71z"/>
</g>
</svg>
